<svg width="16" height="16" version="1.1" xmlns="http://www.w3.org/2000/svg">
 <g transform="matrix(.90463 0 0 .83333 .76299 1.3333)" fill="#363636">
  <path transform="matrix(1.1054 0 0 1.2 -.84343 -1.6)" d="m7.998 2.0391c-3.7699 0.004577-7.0701 2.3668-8.0078 5.7305a1.042 0.95988 0 0 0 0 0.47852c0.94569 3.3561 4.2458 5.7106 8.0098 5.7129a1.042 0.95988 0 0 0 0.0019531 0c3.7699-0.004584 7.0701-2.3668 8.0078-5.7305a1.042 0.95988 0 0 0 0-0.48047c-0.94569-3.3561-4.2458-5.7086-8.0098-5.7109a1.042 0.95988 0 0 0-0.0019531 0zm0.0019531 0.96094c3.2948 0.0020405 6.1722 2.0544 7 4.9922-0.82087 2.9444-3.7 5.0038-7 5.0078-3.2948-0.002041-6.1722-2.0544-7-4.9922 0.82087-2.9444 3.7-5.0038 7-5.0078z" fill="#363636"/>
 </g>
 <path d="m8 5a3 3 0 0 0-3 3 3 3 0 0 0 3 3 3 3 0 0 0 3-3 3 3 0 0 0-3-3zm0 1a2 2 0 0 1 2 2 2 2 0 0 1-2 2 2 2 0 0 1-2-2 2 2 0 0 1 2-2z" fill="#363636"/>
</svg>
