<svg width="16" height="16" version="1.1" xmlns="http://www.w3.org/2000/svg">
 <g transform="matrix(-.90463 0 0 .83333 15.237 1.3333)" fill="#363636">
  <path transform="matrix(1.1054 0 0 1.2 -.84343 -1.6)" d="m7.998 2.0391c-3.7698 0.004577-7.0701 2.3668-8.0078 5.7305a1.042 0.95988 0 0 0 0 0.47852c0.38076 1.3513 1.1472 2.5362 2.168 3.4746l0.71094-0.71094c-0.87634-0.81542-1.5396-1.8343-1.8691-3.0039 0.82085-2.9444 3.7001-5.0038 7-5.0078 0.86333 5.345e-4 1.694 0.14902 2.4707 0.41016l0.75977-0.75977c-1-0.39229-2.0938-0.61063-3.2305-0.61133a1.042 0.95988 0 0 0-0.00195 0zm5.8457 2.2402-0.71094 0.71094c0.87533 0.81512 1.5379 1.8332 1.8672 3.002-0.82085 2.9444-3.7001 5.0038-7 5.0078-0.86243-5.24e-4 -1.6928-0.1476-2.4688-0.4082l-0.75781 0.75781c0.9991 0.3917 2.0912 0.61064 3.2266 0.61133a1.042 0.95988 0 0 0 0.00195 0c3.7698-0.0046 7.0701-2.3668 8.0078-5.7305a1.042 0.95988 0 0 0 0-0.48047c-0.38039-1.35-1.1468-2.5331-2.166-3.4707zm-5.8438 0.7207a3 3 0 0 0-3 3 3 3 0 0 0 0.10547 0.77539l0.90039-0.90039a2 2 0 0 1 1.8691-1.8691l0.90234-0.90234a3 3 0 0 0-0.77734-0.10352zm2.8945 2.2285-0.90039 0.90039a2 2 0 0 1-1.8652 1.8652l-0.90234 0.90234a3 3 0 0 0 0.77344 0.10352 3 3 0 0 0 3-3 3 3 0 0 0-0.10547-0.77148z" fill="#363636" opacity=".35"/>
 </g>
 <rect transform="matrix(-.70711 -.70711 -.70711 .70711 0 0)" x="-19.314" y="-.49958" width="16" height="1" ry="0" fill="#363636"/>
</svg>
