<svg width="16" height="16" version="1.1" viewBox="0 0 16 16" xmlns="http://www.w3.org/2000/svg">
 <path d="m13 5v2c0 1.108-0.892 2-2 2h-7.2949l1.9766-1.9766c0.19587-0.19587 0.19587-0.51116 0-0.70703-0.097934-0.097934-0.22571-0.14648-0.35352-0.14648s-0.25558 0.04855-0.35352 0.14648l-2.8281 2.8281c-0.1469 0.1469-0.18283 0.3605-0.10938 0.54102v0.00195c0.024482 0.05962 0.060809 0.1155 0.10938 0.16406l2.8281 2.8301c0.19587 0.19587 0.51116 0.19587 0.70703 0 0.19587-0.19587 0.19587-0.51116 0-0.70703l-1.9727-1.9746h7.291c1.662 0 3-1.338 3-3v-2z" fill="#363636"/>
</svg>
