<svg width="16" height="16" version="1.1" viewBox="0 0 16 16" xmlns="http://www.w3.org/2000/svg">
 <path d="m5.0273 2.0469c-1.5565 0.048758-2.7774 0.31438-3.5215 0.6543-0.40593 0.18544-0.70507 0.38119-0.91211 0.54297-0.20704 0.16178-0.36523 0.3418-0.36523 0.3418-0.14782 0.17925-0.22862 0.40438-0.22852 0.63672v8.7773c-4.4155e-4 0.87416 1.0419 1.3281 1.6816 0.73242 0 0-0.043969 0.03077 0.042969-0.02148 0.086938-0.05226 0.25409-0.14226 0.52734-0.23828 0.5465-0.19204 1.5184-0.41406 3.0918-0.41406 1.2419 0 2.1765 0.211 3.1895 0.44531 1.013 0.23431 2.1083 0.49609 3.4922 0.49609 2.3641 0 3.7402-1.5781 3.7402-1.5781 0.15165-0.1805 0.23466-0.40878 0.23438-0.64453v-8.7773c-4.4e-5 -0.85406-1.0015-1.3151-1.6504-0.75977 0 0-0.72405 0.66797-2.3574 0.66797-1.4738 0-2.2551-0.19759-3.1523-0.42383-0.83656-0.21094-1.8577-0.4198-3.2598-0.45117-0.18018 0.0058595-0.38605 0.0060688-0.55273 0.013672zm0.31641 0.95312c2.9477 0 3.5079 0.9082 6.6484 0.9082 1.945 0 3.0078-0.9082 3.0078-0.9082v8.7773s-1.0295 1.2227-2.9746 1.2227c-2.519 0-3.9669-0.94141-6.6816-0.94141-3.3349 0-4.3438 0.94141-4.3438 0.94141v-8.7773s1.0089-1.2227 4.3438-1.2227z" color="#000000" color-rendering="auto" dominant-baseline="auto" fill="#363636" image-rendering="auto" shape-rendering="auto" solid-color="#000000" style="font-feature-settings:normal;font-variant-alternates:normal;font-variant-caps:normal;font-variant-ligatures:normal;font-variant-numeric:normal;font-variant-position:normal;isolation:auto;mix-blend-mode:normal;shape-padding:0;text-decoration-color:#000000;text-decoration-line:none;text-decoration-style:solid;text-indent:0;text-orientation:mixed;text-transform:none;white-space:normal"/>
 <path d="m7.578 5.0544c1.3254 0 2.369 1.0776 2.369 2.4313s-1.0436 2.4625-2.369 2.4625-2.4002-1.1088-2.4002-2.4625 1.0748-2.4313 2.4002-2.4313zm-4.5509 0.9663 0.9663 1.0286-0.93512-0.03112 0.93512 0.99747-0.9663-0.03112 0.9663 1.0286-0.99747-0.03112 0.031121-0.99747h-0.031121l0.031121-0.96635h-0.031121zm4.5509 0c-0.79199 0-1.465 0.65613-1.465 1.465s0.67304 1.465 1.465 1.465c0.79199 0 1.4339-0.65613 1.4339-1.465s-0.64187-1.465-1.4339-1.465zm4.3639 0v0.99747l0.03112 0.9663h-0.03112l0.03112 0.99747-0.99747 0.03112 0.9663-1.0286-0.9663 0.03112 0.93512-0.99747-0.93512 0.03112zm-7.9174 2.9612 0.9663 1.0286-0.99747-0.03112zm6.9199 0 0.03112 0.99747-0.99747 0.03112zm-5.9225 0.99747 0.9663 1.0286-0.99747-0.03112zm4.925 0 0.03112 0.99747-0.99747 0.03112z" fill="#363636"/>
</svg>
