<svg width="16" height="16" version="1.1" xmlns="http://www.w3.org/2000/svg">
 <path d="m5 12 3 4 3-4z" fill="#363636"/>
 <path d="m3 0c-1.108 0-2 0.892-2 2v7c0 1.108 0.892 2 2 2h10c1.108 0 2-0.892 2-2v-7c0-1.108-0.892-2-2-2zm0 1h10c0.554 0 1 0.446 1 1v7c0 0.554-0.446 1-1 1h-10c-0.554 0-1-0.446-1-1v-7c0-0.554 0.446-1 1-1z" fill="#333333" stroke-linecap="round" stroke-linejoin="round" stroke-opacity=".25" stroke-width="1.0016" style="paint-order:markers stroke fill"/>
 <rect x="6" y="6" width="4" height="2" rx="1" ry="1" fill="#363636" stroke-linecap="round" stroke-linejoin="round" stroke-width="2.8284" style="paint-order:markers stroke fill"/>
 <rect x="11" y="6" width="2" height="2" rx="1" ry="1" fill="#363636" stroke-linecap="round" stroke-linejoin="round" stroke-width="2" style="paint-order:markers stroke fill"/>
 <rect x="3" y="6" width="2" height="2" rx="1" ry="1" fill="#363636" stroke-linecap="round" stroke-linejoin="round" stroke-width="2" style="paint-order:markers stroke fill"/>
 <rect x="4" y="3" width="2" height="2" rx="1" ry="1" fill="#363636" stroke-linecap="round" stroke-linejoin="round" stroke-width="2" style="paint-order:markers stroke fill"/>
 <rect x="7" y="3" width="2" height="2" rx="1" ry="1" fill="#363636" stroke-linecap="round" stroke-linejoin="round" stroke-width="2" style="paint-order:markers stroke fill"/>
 <rect x="10" y="3" width="2" height="2" rx="1" ry="1" fill="#363636" stroke-linecap="round" stroke-linejoin="round" stroke-width="2" style="paint-order:markers stroke fill"/>
</svg>
