<svg width="64" height="64" version="1.1" xmlns="http://www.w3.org/2000/svg">
 <path d="m32 2a4 4 0 0 0-3.976 4.4 19.952 19.952 0 0 0-16.024 19.6v18l-8 8v2h56v-2l-8-8v-14.52a16 16 0 0 1-4 0.504v15.704l4 4.312h-40l4-4.312v-19.688a16 16 0 0 1 16-16c0.176 4e-3 0.348 0.012 0.52 0.024a16 16 0 0 1 2.964-5.968 4 4 0 0 0-3.484-2.056zm-6.92 56a8 8 0 0 0 6.92 4 8 8 0 0 0 6.912-4z" fill="#bbbbbb" stroke-width="4"/>
 <path d="m60 14a12 12 0 0 1-24 0 12 12 0 1 1 24 0z" fill="#bbbbbb" stroke-width="4"/>
</svg>
