<svg width="16px" height="16px" version="1.1" viewBox="0 0 16 16" xmlns="http://www.w3.org/2000/svg">
 <path d="m1 1.0039c-0.554 0-1 0.446-1 1v10c0 0.554 0.446 1 1 1h5v1s-1e-6 1-1 1v1h6v-1c-1 0-1-1-1-1v-1h5c0.554 0 1-0.446 1-1v-10c0-0.554-0.446-1-1-1h-14zm0.5 0.99609h2.0137l-2.5137 2.5137v-2.0137s5e-7 -0.5 0.5-0.5zm3.4277 0h1.4141l-5.3418 5.3418v-1.4141l3.9277-3.9277zm2.8301 0h1.4141l-8.1719 8.1719v-1.4141l6.7578-6.7578zm2.8281 0h1.4141l-10 10h-0.5c-0.375 0-0.46875-0.28125-0.49219-0.42188l9.5781-9.5781zm2.8281 0h1.0859s0.5 5e-7 0.5 0.5v9c0 0.5-0.5 0.5-0.5 0.5h-11.086l10-10z" fill="#5d656b"/>
</svg>
