<svg width="16px" height="16px" version="1.1" viewBox="0 0 16 16" xmlns="http://www.w3.org/2000/svg">
 <path d="m1 1.0039c-0.554 0-1 0.446-1 1v10c0 0.554 0.446 1 1 1h5v1s-2e-6 1-1 1v1h6v-1c-1 0-1-1-1-1v-1h3.7109l-1.0039-1.0039h-9.293l4.6465-4.6465-0.70703-0.70703-5.3535 5.3535h-0.5c-0.375 0-0.46875-0.28125-0.49219-0.42188l5.6387-5.6387-0.70703-0.70703-4.9395 4.9395v-1.4141l4.2324-4.2324-0.70898-0.70898-3.5234 3.5254v-1.4141l2.8164-2.8184-0.70703-0.70703-2.1094 2.1113v-2.0137s1e-6 -0.5 0.5-0.5h1.207l-0.99609-0.99609h-0.71094zm2.125 0 1.3984 1.3984 0.4043-0.40234h1.4141l-1.1113 1.1094 0.70898 0.70898 1.8184-1.8184h1.4141l-2.5254 2.5254 0.70703 0.70703 3.2324-3.2324h1.4141l-3.9395 3.9395 0.70703 0.70703 4.6465-4.6465h1.0859s0.5 1e-6 0.5 0.5v9c0 0.5-0.5 0.5-0.5 0.5h-0.37891l0.99219 0.99219c0.49928-0.056842 0.88672-0.4733 0.88672-0.98828v-10c0-0.554-0.446-1-1-1h-11.875z" fill="#5d656b" opacity=".35"/>
 <rect transform="rotate(45)" x=".31371" y="-.5" width="22" height="1" fill="#5d656b" fill-rule="evenodd" stroke-width=".60372"/>
</svg>
