<?xml version="1.0" encoding="UTF-8"?>
<svg width="24" height="24" version="1.1" viewBox="0 0 6.35 6.35" xmlns="http://www.w3.org/2000/svg" xmlns:cc="http://creativecommons.org/ns#" xmlns:dc="http://purl.org/dc/elements/1.1/" xmlns:rdf="http://www.w3.org/1999/02/22-rdf-syntax-ns#">
 <metadata>
  <rdf:RDF>
   <cc:Work rdf:about="">
    <dc:format>image/svg+xml</dc:format>
    <dc:type rdf:resource="http://purl.org/dc/dcmitype/StillImage"/>
    <dc:title/>
   </cc:Work>
  </rdf:RDF>
 </metadata>
 <path d="m1.5875 1.5875h0.26458c0.00274-3.18e-5 0.0055-1.217e-4 0.00827 0 0.067456 0.00296 0.1349 0.03402 0.1819 0.082682l1.1336 1.1328 1.1402-1.1328c0.07028-0.060986 0.11818-0.08083 0.1819-0.082682h0.26458v0.26458c0 0.075795-0.00909 0.14569-0.066146 0.19844l-1.1319 1.1245 1.1236 1.1327c0.049791 0.049787 0.074412 0.11998 0.074414 0.19017v0.26458h-0.26458c-0.070194-2.6e-6 -0.14038-0.024633-0.19017-0.074414l-1.1319-1.1327-1.1336 1.1327c-0.049785 0.049792-0.11998 0.074414-0.19017 0.074414h-0.26458v-0.26458c-8e-7 -0.070191 0.024622-0.14038 0.074414-0.19017l1.1336-1.1327-1.1336-1.1245c-0.055759-0.051496-0.080211-0.12416-0.074414-0.19844z" color="#bebebe" enable-background="new" fill="#333" style="text-decoration-line:none;text-indent:0;text-transform:none"/>
</svg>
