<?xml version="1.0" encoding="UTF-8" standalone="no"?>
<svg
   width="150"
   height="150"
   version="1.1"
   viewBox="0 0 39.688 39.688"
   id="svg1125"
   sodipodi:docname="thumbnail.svg"
   inkscape:version="1.1.2 (0a00cf5339, 2022-02-04, custom)"
   xmlns:inkscape="http://www.inkscape.org/namespaces/inkscape"
   xmlns:sodipodi="http://sodipodi.sourceforge.net/DTD/sodipodi-0.dtd"
   xmlns="http://www.w3.org/2000/svg"
   xmlns:svg="http://www.w3.org/2000/svg">
  <sodipodi:namedview
     id="namedview1127"
     pagecolor="#ffffff"
     bordercolor="#666666"
     borderopacity="1.0"
     inkscape:pageshadow="2"
     inkscape:pageopacity="0.0"
     inkscape:pagecheckerboard="0"
     showgrid="false"
     inkscape:zoom="2.7294322"
     inkscape:cx="54.223732"
     inkscape:cy="44.514753"
     inkscape:window-width="1920"
     inkscape:window-height="1010"
     inkscape:window-x="0"
     inkscape:window-y="0"
     inkscape:window-maximized="1"
     inkscape:current-layer="svg1125">
    <inkscape:grid
       type="xygrid"
       id="grid2024" />
  </sodipodi:namedview>
  <defs
     id="defs26">
    <filter
       id="filter970"
       x="-0.1726279"
       y="-0.10792286"
       width="1.3452558"
       height="1.2158457"
       color-interpolation-filters="sRGB">
      <feGaussianBlur
         stdDeviation="0.35971139"
         id="feGaussianBlur18" />
    </filter>
    <filter
       id="filter976"
       x="-0.10800079"
       y="-0.10800079"
       width="1.2160016"
       height="1.2160016"
       color-interpolation-filters="sRGB">
      <feGaussianBlur
         stdDeviation="0.27000197"
         id="feGaussianBlur21" />
    </filter>
  </defs>
  <rect
     id="back"
     x=".066648"
     y=".070005"
     width="39.554"
     height="39.554"
     fill="#ececec"
     stroke="#f2f2f2"
     stroke-width=".1333"
     style="fill:#cccccc" />
  <g
     id="thumbnail-dark"
     transform="translate(-66.899 -248.81)">
    <rect
       x="70.867996"
       y="259.39001"
       width="31.750401"
       height="9.5250998"
       rx="0"
       ry="0"
       fill="#333333"
       stroke-width="1.02741"
       id="rect29" />
    <g
       id="radio-checked-dark"
       transform="matrix(.26458 0 0 .26458 65.709 261.71)">
      <g
         transform="translate(19.004)"
         id="g43">
        <g
           transform="matrix(.93617 0 0 .93566 -96.783 -244.76)"
           id="g41">
          <rect
             x="206.99"
             y="261.98"
             width="17.091"
             height="17.1"
             color="#000000"
             fill="none"
             id="rect31" />
          <g
             transform="matrix(.50892 0 0 .5174 181.79 197.56)"
             stroke-width="0"
             id="g39">
            <rect
               x="48.472"
               y="126.3"
               width="33.584"
               height="33.051"
               rx="16.791"
               ry="16.526"
               color="#000000"
               fill="#000000"
               opacity=".15"
               id="rect33" />
            <rect
               x="50.571"
               y="128.37"
               width="29.385"
               height="28.919"
               rx="14.692"
               ry="14.46"
               color="#000000"
               fill="#0860f2"
               id="rect35" />
            <path
               transform="matrix(2.099 0 0 2.0657 -184.52 23.041)"
               d="m119 50.99c-3.8778 0-7 3.1221-7 7 0 0.088497 0.01045 0.17404 0.01367 0.26172 0.13749-3.4839 3.1967-6.252 6.9863-6.252s6.8488 2.768 6.9863 6.252c0.00322-0.087692 0.01367-0.17321 0.01367-0.26172 0-3.8779-3.1222-7-7-7z"
               color="#000000"
               fill="#ffffff"
               opacity=".15"
               stroke-width="0"
               id="path37" />
          </g>
        </g>
      </g>
      <rect
         x="120.5"
         y="6.2449"
         width="6.0002"
         height="6.0002"
         rx="2.9984"
         ry="3.0001"
         color="#000000"
         fill="#ffffff"
         stroke-width="1.5"
         id="rect45" />
    </g>
    <g
       id="checkbox-checked-dark"
       transform="matrix(.26458 0 0 .26458 81.214 261.71)">
      <g
         transform="translate(19)"
         id="g58">
        <g
           transform="translate(0,-30)"
           id="g56">
          <rect
             x="17"
             y="30.362"
             width="16"
             height="16"
             color="#000000"
             fill="none"
             id="rect48" />
          <rect
             x="17.898"
             y="32.232"
             width="14"
             height="14"
             rx="2.9997"
             ry="2.9997"
             color="#000000"
             fill="#0860f2"
             stroke-width="0"
             id="rect50" />
          <path
             transform="translate(-73.104 -18.77)"
             d="m94 50c-2.2159 0-4 1.7841-4 4v8c0 2.2159 1.7841 4 4 4h8c2.2159 0 4-1.7841 4-4v-8c0-2.2159-1.7841-4-4-4h-8zm0 1h8c1.6618 0 3 1.3382 3 3v8c0 1.6618-1.3382 3-3 3h-8c-1.6618 0-3-1.3382-3-3v-8c0-1.6618 1.3382-3 3-3z"
             color="#000000"
             fill="#000000"
             opacity=".15"
             stroke-width="0"
             id="path52" />
          <path
             transform="translate(-73.105 -18.757)"
             d="m94 50.986c-1.6618 0-3 1.3382-3 3v0.79688c0-1.5416 1.3382-2.7832 3-2.7832h8c1.6618 0 3 1.2416 3 2.7832v-0.79688c0-1.6618-1.3382-3-3-3h-8z"
             color="#000000"
             fill="#ffffff"
             opacity=".15"
             stroke-width="0"
             id="path54" />
        </g>
      </g>
      <g
         transform="translate(36,-1036)"
         id="g70">
        <g
           transform="rotate(45,7.5,1026.4)"
           id="g68">
          <g
             transform="translate(12.374,11.531)"
             id="g66">
            <g
               transform="translate(-3,-5)"
               fill="#333333"
               id="g62">
              <path
                 d="m11.377 1028.3-2e-6 5.9995h-2.3341c-0.36933 0-0.66569 0.2964-0.66569 0.6657l-0.00138 0.6671c0 0.3693 0.29774 0.667 0.66707 0.667h4.3339l-0.0014-0.667 0.0014-0.6671 2e-6 -6.6652z"
                 fill="#ffffff"
                 id="path60" />
            </g>
            <rect
               transform="translate(0,1036.4)"
               x="5"
               y="-8"
               width="3"
               height="1"
               fill-opacity="0"
               id="rect64" />
          </g>
        </g>
      </g>
    </g>
    <rect
       x="72.72"
       y="260.98"
       width="15.875"
       height="6.3501"
       rx="1.3229"
       ry="1.3229"
       id="rect73"
       style="fill:#656565;fill-opacity:1" />
    <g
       transform="translate(.74844 .35313)"
       fill="#b3b3b3"
       stroke-width=".085214"
       aria-label="Button"
       id="g77">
      <path
         d="m74.318 262.53v2.4852h0.89195c0.2785 0 0.49351-0.0604 0.64441-0.18139 0.1509-0.12094 0.22635-0.29279 0.22635-0.5147 0-0.16865-0.0464-0.30858-0.1385-0.42065-0.09098-0.11315-0.21915-0.18771-0.38448-0.22325 0.13759-0.0222 0.24215-0.0781 0.31316-0.16795 0.07101-0.0899 0.10646-0.21076 0.10646-0.36277 0-0.19639-0.06957-0.34824-0.20826-0.45476-0.13869-0.10651-0.33591-0.15968-0.59222-0.15968zm4.3352 0.0884v0.52917h-0.2248v0.23823h0.2248v1.0118c0 0.23301 0.045 0.3939 0.13488 0.48266 0.08988 0.0877 0.25305 0.13126 0.48938 0.13126h0.31471v-0.25631h-0.31471c-0.1276 0-0.21261-0.0213-0.25477-0.0646-0.04105-0.0433-0.06149-0.141-0.06149-0.29301v-1.0118h0.63098v-0.23823h-0.63098v-0.52917zm1.6852 0v0.52917h-0.2248v0.23823h0.2248v1.0118c0 0.23301 0.045 0.3939 0.13488 0.48266 0.08988 0.0877 0.25305 0.13126 0.48938 0.13126h0.3142v-0.25631h-0.3142c-0.12759 0-0.2126-0.0213-0.25477-0.0646-0.04105-0.0433-0.0615-0.141-0.0615-0.29301v-1.0118h0.63046v-0.23823h-0.63046v-0.52917zm-5.684 0.1881h0.49765c0.16422 0 0.28599 0.0309 0.36587 0.093 0.081 0.0621 0.12144 0.15626 0.12144 0.28164 0 0.1265-0.04044 0.22054-0.12144 0.28268-0.07989 0.061-0.20166 0.0915-0.36587 0.0915h-0.49765zm8.0947 0.2925c-0.26741 0-0.4769 0.0863-0.62891 0.25941-0.1509 0.1731-0.22635 0.41259-0.22635 0.71883 0 0.30513 0.07545 0.54515 0.22635 0.71935 0.15201 0.17309 0.3615 0.25942 0.62891 0.25942 0.2663 0 0.47535-0.0863 0.62736-0.25942 0.15201-0.1742 0.22841-0.41422 0.22841-0.71935 0-0.30624-0.0764-0.54573-0.22841-0.71883-0.15201-0.17308-0.36107-0.25941-0.62736-0.25941zm2.1012 6e-3c-0.12982 0-0.24431 0.0277-0.34417 0.0832-0.09875 0.0555-0.18515 0.13908-0.25839 0.25115v-0.28991h-0.30748v1.8645h0.30748v-1.0537c0-0.18197 0.04773-0.32558 0.14315-0.43099s0.22587-0.15813 0.3912-0.15813c0.13759 0 0.24075 0.0436 0.30955 0.13126 0.06879 0.0877 0.10335 0.21994 0.10335 0.39636v1.1152h0.30644v-1.1255c0-0.25742-0.055-0.45191-0.16485-0.58395-0.10985-0.13314-0.27213-0.19947-0.48628-0.19947zm-8.1872 0.0455v1.1281c0 0.2563 0.05545 0.45132 0.1664 0.58446 0.11095 0.13315 0.27368 0.19948 0.48783 0.19948 0.12982 0 0.24343-0.0273 0.34107-0.0817 0.09875-0.0555 0.1856-0.13953 0.25994-0.2527v0.28629h0.30593v-1.864h-0.30593v1.0568c0 0.18197-0.04868 0.32558-0.14521 0.43099-0.09542 0.10541-0.22535 0.15813-0.39068 0.15813-0.13759 0-0.24075-0.0441-0.30955-0.13178-0.06879-0.0888-0.10335-0.22097-0.10335-0.39739v-1.1167zm6.086 0.20825c0.16311 0 0.29268 0.065 0.3881 0.19483 0.09542 0.12871 0.14314 0.3032 0.14314 0.524 0 0.22192-0.04772 0.39737-0.14314 0.52608-0.09542 0.1287-0.22499 0.19327-0.3881 0.19327-0.16533 0-0.29578-0.0641-0.3912-0.19172-0.09431-0.12871-0.14108-0.30461-0.14108-0.52763s0.04772-0.39795 0.14314-0.52555c0.09543-0.12872 0.22492-0.19328 0.38913-0.19328zm-8.0947 0.46975h0.53899c0.18086 0 0.31447 0.0373 0.40101 0.11162 0.08765 0.0732 0.13178 0.1878 0.13178 0.34314 0 0.15422-0.04412 0.26872-0.13178 0.34417-0.08655 0.0743-0.22015 0.11162-0.40101 0.11162h-0.53899z"
         fill="#bebebe"
         stroke-width=".085214"
         id="path75" />
    </g>
    <path
       transform="matrix(.26459 0 0 .26459 66.899 248.81)"
       d="m27 45c-3.324 0-6 2.676-6 6v14c0 3.324 2.676 6 6 6h50c3.324 0 6-2.676 6-6v-14c0-3.324-2.676-6-6-6h-50zm0 1h50c2.77 0 5 2.23 5 5v14c0 2.77-2.23 5-5 5h-50c-2.77 0-5-2.23-5-5v-14c0-2.77 2.23-5 5-5z"
       fill="#000000"
       opacity=".15"
       stroke-width="4.0475"
       id="path79" />
    <path
       transform="matrix(.26459 0 0 .26459 66.899 248.81)"
       d="m27 46c-2.77 0-5 2.23-5 5v0.79102c0-2.6546 2.23-4.791 5-4.791h50c2.77 0 5 2.1365 5 4.791v-0.79102c0-2.77-2.23-5-5-5h-50zm-0.93945 23.908c0.30463 0.057565 0.61759 0.091797 0.93945 0.091797-0.32217 0-0.63455-0.036527-0.93945-0.091797zm51.879 0c-0.3049 0.05527-0.61728 0.091797-0.93945 0.091797 0.32186 0 0.63483-0.034232 0.93945-0.091797z"
       fill="#ffffff"
       opacity=".1"
       stroke-width="3.8255"
       id="path81" />
  </g>
  <g
     id="thumbnail-light"
     transform="translate(-.0918 -257.39)">
    <rect
       x="4.0605998"
       y="280.14001"
       width="31.750401"
       height="9.5250998"
       rx="0"
       ry="0"
       fill="url(#linearGradient995)"
       stroke-width="1.02741"
       id="rect84"
       style="fill:#f5f5f5;fill-opacity:1" />
    <g
       transform="matrix(.26458 0 0 .26458 -1.0986 282.47)"
       id="g100">
      <g
         transform="translate(19.004)"
         id="g94">
        <g
           transform="matrix(.93617 0 0 .93566 -96.783 -244.76)"
           id="g92">
          <rect
             x="206.99"
             y="261.98"
             width="17.091"
             height="17.1"
             color="#000000"
             fill="none"
             id="rect86" />
          <g
             transform="matrix(.50892 0 0 .5174 181.79 197.56)"
             id="g90">
            <rect
               x="50.566"
               y="128.28"
               width="29.385"
               height="28.919"
               rx="14.692"
               ry="14.46"
               color="#000000"
               fill="#0860f2"
               stroke-width="0"
               id="rect88" />
          </g>
        </g>
      </g>
      <rect
         x="120.5"
         y="6.6738"
         width="6"
         height="6"
         rx="2.9984"
         ry="3"
         color="#000000"
         fill="#000000"
         filter="url(#filter976)"
         opacity=".15"
         stroke-width="1.5"
         id="rect96" />
      <rect
         x="120.5"
         y="6.2108"
         width="6"
         height="6"
         rx="2.9984"
         ry="3"
         color="#000000"
         fill="#f5f6f7"
         stroke-width="1.5"
         id="rect98"
         style="fill:#ffffff" />
    </g>
    <g
       transform="matrix(.26458 0 0 .26458 14.407 282.47)"
       id="g124">
      <g
         transform="translate(19)"
         id="g108">
        <g
           transform="translate(0,-30)"
           id="g106">
          <rect
             x="17"
             y="30.362"
             width="16"
             height="16"
             color="#000000"
             fill="none"
             id="rect102" />
          <rect
             x="17.897"
             y="32.194"
             width="14"
             height="14"
             rx="2.9997"
             ry="2.9997"
             color="#000000"
             fill="#0860f2"
             stroke-width="0"
             id="rect104" />
        </g>
      </g>
      <g
         transform="translate(36,-1036)"
         id="g122">
        <g
           transform="rotate(45,7.5,1026.4)"
           id="g120">
          <g
             transform="translate(12.374,11.531)"
             id="g118">
            <g
               transform="translate(-3,-5)"
               fill="#f5f6f7"
               id="g114">
              <path
                 d="m11.964 1028.5-3e-6 5.9995h-2.3341c-0.36933 0-0.66707 0.2978-0.66707 0.6671l0.00138 0.667c1.4e-6 0.3693 0.29636 0.6657 0.66569 0.6657h4.3339l2e-6 -0.6657-2e-6 -0.6684-1e-6 -6.6652z"
                 fill="#000000"
                 filter="url(#filter970)"
                 opacity=".15"
                 id="path110" />
              <path
                 d="m11.516 1028.1-3e-6 5.9995h-2.3341c-0.36933 0-0.66707 0.2978-0.66707 0.6671l0.00138 0.667c1.4e-6 0.3693 0.29636 0.6657 0.66569 0.6657h4.3339l2e-6 -0.6657-2e-6 -0.6684-1e-6 -6.6652z"
                 id="path112"
                 style="fill:#ffffff" />
            </g>
            <rect
               transform="translate(0,1036.4)"
               x="5"
               y="-8"
               width="3"
               height="1"
               fill-opacity="0"
               id="rect116" />
          </g>
        </g>
      </g>
    </g>
    <rect
       x="5.9127"
       y="281.73"
       width="15.875"
       height="6.3501"
       rx="1.3229"
       ry="1.3229"
       fill="url(#linearGradient939)"
       stroke="#b5b5b5"
       stroke-width=".2678"
       id="rect126"
       style="stroke:none;fill:#ffffff;fill-opacity:1" />
    <g
       transform="translate(-65.954,21.249)"
       fill="#ffffff"
       stroke-width=".085214"
       aria-label="Button"
       id="g140">
      <path
         d="m74.699 263.61v0.91039h0.53925q0.27129 0 0.40111-0.11151 0.13148-0.11317 0.13148-0.34451 0-0.23301-0.13148-0.34286-0.12982-0.11151-0.40111-0.11151zm0-1.0219v0.74895h0.49764q0.24632 0 0.36616-0.0915 0.1215-0.0932 0.1215-0.28294 0-0.18807-0.1215-0.28127-0.11983-0.0932-0.36616-0.0932zm-0.3362-0.27628h0.8588q0.38446 0 0.5925 0.15977 0.20804 0.15978 0.20804 0.45437 0 0.22801-0.10652 0.36282t-0.3129 0.1681q0.24799 0.0533 0.38446 0.22302 0.13814 0.1681 0.13814 0.42108 0 0.33287-0.22635 0.51428-0.22635 0.18142-0.6441 0.18142h-0.89209z"
         id="path128" />
      <path
         d="m76.708 264.06v-1.1284h0.30624v1.1168q0 0.26463 0.10319 0.39777 0.10319 0.13149 0.30957 0.13149 0.24799 0 0.39112-0.15812 0.1448-0.15811 0.1448-0.43106v-1.0569h0.30624v1.8641h-0.30624v-0.28627q-0.11151 0.16976-0.25964 0.25298-0.14646 0.0815-0.34119 0.0815-0.32122 0-0.48765-0.19972t-0.16643-0.58418z"
         id="path130" />
      <path
         d="m79.006 262.4v0.52926h0.63078v0.238h-0.63078v1.0119q0 0.22802 0.06158 0.29293 0.06324 0.0649 0.25464 0.0649h0.31456v0.25631h-0.31456q-0.3545 0-0.48932-0.13149-0.13481-0.13315-0.13481-0.48266v-1.0119h-0.22469v-0.238h0.22469v-0.52926z"
         id="path132" />
      <path
         d="m80.691 262.4v0.52926h0.63078v0.238h-0.63078v1.0119q0 0.22802 0.06158 0.29293 0.06325 0.0649 0.25464 0.0649h0.31456v0.25631h-0.31456q-0.3545 0-0.48932-0.13149-0.13481-0.13315-0.13481-0.48266v-1.0119h-0.22469v-0.238h0.22469v-0.52926z"
         id="path134" />
      <path
         d="m82.794 263.14q-0.24632 0-0.38946 0.19307-0.14313 0.1914-0.14313 0.52593t0.14147 0.52759q0.14313 0.1914 0.39112 0.1914 0.24466 0 0.38779-0.19306t0.14313-0.52593q0-0.3312-0.14313-0.52427-0.14313-0.19473-0.38779-0.19473zm0-0.25963q0.39944 0 0.62746 0.25963 0.22802 0.25964 0.22802 0.719 0 0.45769-0.22802 0.71899-0.22801 0.25964-0.62746 0.25964-0.40111 0-0.62912-0.25964-0.22635-0.2613-0.22635-0.71899 0-0.45936 0.22635-0.719 0.22801-0.25963 0.62912-0.25963z"
         id="path136" />
      <path
         d="m85.546 263.67v1.1251h-0.30624v-1.1151q0-0.26463-0.10319-0.39612-0.10319-0.13148-0.30957-0.13148-0.24799 0-0.39112 0.15811-0.14313 0.15812-0.14313 0.43107v1.0535h-0.3079v-1.8641h0.3079v0.2896q0.10985-0.1681 0.25797-0.25132 0.14979-0.0832 0.34452-0.0832 0.32122 0 0.48599 0.19972 0.16477 0.19805 0.16477 0.58418z"
         id="path138" />
    </g>
    <g
       transform="translate(-66.059,21.107)"
       fill="#666666"
       stroke-width=".085214"
       aria-label="Button"
       id="g144">
      <path
         d="m74.318 262.53v2.4846h0.89195c0.2785 0 0.49351-0.0604 0.64441-0.18138 0.1509-0.12094 0.22635-0.29228 0.22635-0.51419 0-0.16866-0.0464-0.3091-0.1385-0.42117-0.09098-0.11315-0.21915-0.1872-0.38448-0.22273 0.13759-0.0222 0.24215-0.0786 0.31316-0.16847 0.07101-0.0899 0.10646-0.21076 0.10646-0.36277 0-0.19639-0.06957-0.34772-0.20826-0.45424-0.13869-0.10651-0.33591-0.15968-0.59222-0.15968zm4.3352 0.0879v0.52969h-0.2248v0.23771h0.2248v1.0118c0 0.23301 0.045 0.3939 0.13488 0.48266 0.08988 0.0877 0.25305 0.13178 0.48938 0.13178h0.31471v-0.25632h-0.31471c-0.1276 0-0.21261-0.0218-0.25477-0.0651-0.04105-0.0433-0.06149-0.141-0.06149-0.29301v-1.0118h0.63098v-0.23771h-0.63098v-0.52969zm1.6852 0v0.52969h-0.2248v0.23771h0.2248v1.0118c0 0.23301 0.045 0.3939 0.13488 0.48266 0.08988 0.0877 0.25305 0.13178 0.48938 0.13178h0.3142v-0.25632h-0.3142c-0.12759 0-0.2126-0.0218-0.25477-0.0651-0.04105-0.0433-0.0615-0.141-0.0615-0.29301v-1.0118h0.63046v-0.23771h-0.63046v-0.52969zm-5.684 0.1881 0.49765 5.2e-4c0.16422 0 0.28599 0.0309 0.36587 0.093 0.081 0.0621 0.12144 0.15574 0.12144 0.28112 0 0.12649-0.04044 0.22106-0.12144 0.28319-0.07989 0.061-0.20166 0.0915-0.36587 0.0915h-0.49765zm8.0947 0.2925c-0.26741 0-0.4769 0.0863-0.62891 0.25941-0.1509 0.1731-0.22635 0.41311-0.22635 0.71935 0 0.30512 0.07545 0.54463 0.22635 0.71883 0.15201 0.17309 0.3615 0.25942 0.62891 0.25942 0.2663 0 0.47535-0.0863 0.62736-0.25942 0.15201-0.1742 0.22841-0.41371 0.22841-0.71883 0-0.30624-0.0764-0.54625-0.22841-0.71935-0.15201-0.17308-0.36107-0.25941-0.62736-0.25941zm2.1012 6e-3c-0.12982 0-0.24431 0.0277-0.34417 0.0832-0.09875 0.0555-0.18515 0.13908-0.25839 0.25115v-0.28939h-0.30748v1.864h0.30748v-1.0532c0-0.18196 0.04773-0.32609 0.14315-0.4315s0.22587-0.15813 0.3912-0.15813c0.13759 0 0.24075 0.0441 0.30955 0.13177 0.06879 0.0877 0.10335 0.21943 0.10335 0.39585v1.1152h0.30644v-1.125c0-0.25742-0.055-0.45243-0.16485-0.58447-0.10985-0.13314-0.27213-0.19947-0.48628-0.19947zm-8.1872 0.0455v1.1286c0 0.25631 0.05545 0.45081 0.1664 0.58395 0.11095 0.13315 0.27368 0.19999 0.48783 0.19999 0.12982 0 0.24343-0.0273 0.34107-0.0816 0.09875-0.0555 0.1856-0.14005 0.25994-0.25322v0.28629h0.30593v-1.864h-0.30593v1.0568c0 0.18197-0.04868 0.32558-0.14521 0.43099-0.09542 0.10541-0.22535 0.15813-0.39068 0.15813-0.13759 0-0.24127-0.0436-0.31006-0.13126-0.06879-0.0888-0.10284-0.22149-0.10284-0.39791v-1.1167zm6.086 0.20825c0.16311 0 0.29268 0.065 0.3881 0.19483 0.09542 0.12871 0.14314 0.30372 0.14314 0.52452 0 0.22191-0.04772 0.39685-0.14314 0.52555-0.09542 0.12871-0.22499 0.19328-0.3881 0.19328-0.16533 0-0.29578-0.0636-0.3912-0.19121-0.09431-0.1287-0.14108-0.3046-0.14108-0.52762s0.04772-0.39847 0.14314-0.52607c0.09543-0.12872 0.22492-0.19328 0.38913-0.19328zm-8.0947 0.47027h0.53899c0.18086 0 0.31447 0.0373 0.40101 0.11162 0.08765 0.0732 0.13178 0.18728 0.13178 0.34262 0 0.15422-0.04412 0.26924-0.13178 0.34468-0.08655 0.0743-0.22015 0.11162-0.40101 0.11162h-0.53899z"
         fill="#555555"
         stroke-width=".085214"
         id="path142" />
    </g>
    <path
       d="m27 91c-3.324 0-6 2.676-6 6v14c0 3.324 2.676 6 6 6h50c3.324 0 6-2.676 6-6v-14c0-3.324-2.676-6-6-6h-50zm0 1h50c2.77 0 5 2.23 5 5v14c0 2.77-2.23 5-5 5h-50c-2.77 0-5-2.23-5-5v-14c0-2.77 2.23-5 5-5z"
       fill="#000000"
       opacity=".15"
       id="path146"
       transform="matrix(.26459 0 0 .26459 .0918 257.39)" />
  </g>
</svg>
