<svg width="24" height="24" version="1.1" xmlns="http://www.w3.org/2000/svg">
 <g transform="matrix(.32143 0 0 .32143 1.7141 1.714)" fill="#383838">
  <path transform="matrix(3.1111 0 0 3.1111 -5.3327 -5.3324)" d="m7.8711 3c-0.5499 0-1.2254 0.39507-1.5 0.87695l-1.3301 2.3379h13.918l1.5957 2.7969-2.9258-5.1348c-0.27456-0.48189-0.9501-0.87695-1.5-0.87695zm12.684 6.0117-11.961 6.2031h11.832l1.332-2.3379c0.27459-0.48189 0.27459-1.272 0-1.7539zm-16.98-0.22656-1.332 2.3379c-0.27459 0.48189-0.27459 1.272 0 1.7539l1.2031 2.1113 11.961-6.2031zm2.7969 11.338c0.2746 0.48189 0.9501 0.87695 1.5 0.87695h8.2578c0.5499 0 1.2255-0.39506 1.5-0.87695l1.3301-2.3379h-13.918" fill="#383838" stroke-width=".32143"/>
 </g>
</svg>
