<svg width="24" height="24" version="1.1" viewBox="0 0 6.3499 6.3499" xmlns="http://www.w3.org/2000/svg">
 <path d="m3.1752 0.79373a2.3812 2.3812 0 1 0 0 4.7624 2.3812 2.3812 0 0 0 0-4.7624zm0 0.52928a1.8522 1.8522 0 1 1 0 3.7038 1.8381 1.8381 0 0 1-1.2571-0.4961c0.10687-0.014624 0.27561-0.016874 0.4961 0.00843 0.32229 0.036561 0.49891 0.048935 0.71096 0.033186 0.48372-0.036561 0.8032-0.11643 1.1576-0.28967 0.18561-0.089995 0.22499-0.13105 0.26436-0.23961 0.03881-0.10293 0.052871-0.19855 0.033748-0.19855-0.00731 0-0.068059 0.023623-0.14062 0.057934-0.2728 0.12937-0.51184 0.19293-0.71996 0.18225-0.21542-0.011249-0.56359-0.13724-0.98319-0.33917l-0.19855-0.09112-0.14905-0.37179 0.14062 0.090557a4.1763 4.1763 0 0 0 0.86845 0.42185c0.3611 0.11418 0.6429 0.098432 0.93369-0.049497 0.10293-0.052309 0.29811-0.17999 0.29811-0.19855 0-0.033748-0.10012-0.36898-0.15749-0.52084-0.14287-0.3791-0.24355-0.50735-0.47922-0.61984-0.26211-0.12487-0.55234-0.2098-1.0833-0.33073-0.25311-0.053997-0.50285-0.10856-0.76046-0.14062l-0.00843 0.31386a8.5607 8.5607 0 0 0-0.48767-0.13218 1.8561 1.8561 0 0 1 1.5215-0.79308zm0.43816 1.3392a0.39373 0.39373 0 0 1 0.3881 0.30598c0.025311 0.098432 0.017437 0.16874-0.032623 0.2728a0.38023 0.38023 0 0 1-0.41341 0.20699 0.38641 0.38641 0 0 1-0.28967-0.2233c-0.068621-0.14905-0.03656-0.34704 0.082683-0.45504a0.40891 0.40891 0 0 1 0.26436-0.10687zm0.090557 0.20699c-0.13837 0-0.22499 0.10124-0.14849 0.17324 0.061871 0.058496 0.16537 0.067495 0.24749 0.025311 0.053996-0.027561 0.071995-0.069184 0.058496-0.12374-0.010124-0.04106-0.089995-0.074808-0.15749-0.074808z" fill="#383838" overflow="visible" stroke-width=".56247"/>
</svg>
