<?xml version="1.0" encoding="UTF-8" standalone="no"?>
<svg
   width="48"
   height="48"
   style="display:inline;enable-background:new"
   version="1.0"
   id="svg1"
   sodipodi:docname="activities-kali.svg"
   inkscape:version="1.4.2 (ebf0e940d0, 2025-05-08)"
   xmlns:inkscape="http://www.inkscape.org/namespaces/inkscape"
   xmlns:sodipodi="http://sodipodi.sourceforge.net/DTD/sodipodi-0.dtd"
   xmlns="http://www.w3.org/2000/svg"
   xmlns:svg="http://www.w3.org/2000/svg">
  <defs
     id="defs1" />
  <sodipodi:namedview
     id="namedview1"
     pagecolor="#ffffff"
     bordercolor="#000000"
     borderopacity="0.25"
     inkscape:showpageshadow="2"
     inkscape:pageopacity="0.0"
     inkscape:pagecheckerboard="0"
     inkscape:deskcolor="#d1d1d1"
     inkscape:zoom="6.3333333"
     inkscape:cx="36.789474"
     inkscape:cy="3.7105263"
     inkscape:window-width="1920"
     inkscape:window-height="1019"
     inkscape:window-x="0"
     inkscape:window-y="0"
     inkscape:window-maximized="1"
     inkscape:current-layer="svg1" />
  <g
     style="display:inline"
     id="g1" />
  <path
     d="m 24.813651,-37.875642 c 0,0 -4.142292,-0.275625 -11.196195,1.931569 -7.1885733,2.249299 -11.2655583,5.437468 -11.2655583,5.437468 0,0 10.7143073,-5.982229 22.8077563,-6.322146 z m 15.450441,6.504275 0.538514,-0.03514 c 0,0 -3.085302,-3.743396 -8.990785,-5.566865 3.319634,1.34941 6.208976,3.137345 8.452109,5.601749 z m 0.881311,1.555347 c 0.08279,-0.143552 0.350067,0.456049 0.553036,0.707945 0.0086,0.05029 0.02288,0.08099 -0.09481,0.05678 -0.0099,-0.0517 -0.02698,-0.0667 -0.02698,-0.0667 0,0 -0.284059,-0.169013 -0.371147,-0.288905 -0.08716,-0.119888 -0.102628,-0.329596 -0.06013,-0.409119 z m 7.247389,17.819319 c 0,0 0.65497,-7.519567 -11.159282,-9.253229 -1.497383,-0.219701 -3.391026,-0.388797 -5.306451,-0.393639 -9.469022,0.125197 -9.814214,-10.921177 -2.678941,-11.478918 2.957082,-0.243995 6.488049,1.351193 9.939959,2.958705 -0.01282,0.428709 0.0049,0.809676 0.286562,1.161723 0.281564,0.351932 1.3632,0.735893 1.708837,0.934206 0.345609,0.198381 1.452803,0.902324 2.131301,1.785461 0.147142,-0.275236 1.375937,-1.075081 1.375937,-1.075081 0,0 -0.29437,0.0064 -0.97919,-0.24954 -0.684907,-0.255945 -1.497627,-1.03034 -1.516854,-1.075081 -0.01919,-0.04483 -0.03197,-0.115202 0.12809,-0.147224 0.121527,-0.102313 -0.153705,-0.435119 -0.275317,-0.556645 -0.121527,-0.121608 -0.934409,-1.503792 -0.953554,-1.535836 -0.01919,-0.03202 -0.02564,-0.06397 -0.08319,-0.102398 -0.179248,-0.05764 -0.966453,0.08318 -0.966453,0.08318 0,0 -1.210684,-0.594613 -1.627997,-1.876606 0.0061,0.224549 -0.207601,0.469719 0,0.9856 -0.63124,-0.267035 -1.173446,-0.722468 -1.601102,-1.847928 -0.254536,0.640124 0,1.047133 0,1.047133 0,0 -1.48647,-0.415364 -1.724292,-1.786231 -0.261022,0.61538 0,0.985518 0,0.985518 0,0 -2.423313,-1.26443 -6.449919,-1.282764 -2.695817,-0.247276 -3.257046,-4.989652 -3.007299,-5.787931 0,0 -3.888368,-2.049283 -11.542603,-2.95465 -7.6542333,-0.905451 -13.9317623,-0.136449 -13.9317623,-0.136449 0,0 13.5565563,-0.65059 24.4168903,3.746236 0.369196,1.651278 1.479818,4.401489 2.078,5.723437 -1.711636,1.183425 -3.641785,2.29623 -3.942356,6.243048 -0.300466,3.946657 3.092724,7.418158 7.300525,7.525245 3.995536,0.212829 6.756171,0.243057 10.102212,1.97781 3.193888,1.765992 5.812675,7.147197 6.071873,11.9867675 0.279917,-3.590798 -1.067618,-11.3126105 -7.355691,-13.6571505 8.788781,1.538026 9.561912,8.053373 9.561912,8.053373 z m -23.786134,-26.468565 -0.316241,-1.020036 c 0,0 -5.218022,-0.926622 -12.233796,-0.42794 -7.0157743,0.498681 -14.0992883,2.954567 -14.0992883,2.954567 0,0 14.4939663,-3.647017 26.6490703,-1.506631"
     style="fill:#333333;fill-opacity:1;stroke-width:0.31659"
     id="path2" />
  <path
     id="path6"
     style="baseline-shift:baseline;display:inline;overflow:visible;vector-effect:none;fill:#333333;stroke-width:0.924416;stroke-linecap:round;stroke-linejoin:round;enable-background:accumulate;stop-color:#000000"
     d="M 6.4717634,7.7340083 C 4.1508489,7.8071043 2.7632487,7.9784004 2.709101,7.9849728 c -5.08e-5,2.6e-6 -0.021666,0 -0.021666,0 v 0.0018 c -5.103e-4,6.21e-5 -0.050555,0.00361 -0.050555,0.00361 a 0.69338131,0.69338131 0 0 0 0.1173574,1.379402 c 0,0 8.8623736,-0.2342218 17.5494606,2.0420212 -1.898603,-0.102708 -3.977223,-0.210465 -6.633407,-0.02167 -6.5582115,0.466157 -13.03396079,2.710393 -13.14223489,2.747971 l -0.010832,0.0018 v 0.0018 c -6.406e-4,2.22e-4 -0.057776,0.01625 -0.057776,0.01625 a 0.69338131,0.69338131 0 0 0 0.3954042,1.327042 c 0,0 9.84088669,-2.261821 19.60231269,-1.718836 -1.559626,0.269655 -3.325441,0.64258 -5.501358,1.323432 -6.625187,2.073016 -10.3868122,4.964872 -10.5296761,5.07526 -3.14e-5,1.9e-5 -0.016249,0.0072 -0.016249,0.0072 l 0.0018,0.0018 c -0.00203,0.0016 -0.090275,0.05778 -0.090275,0.05778 a 0.69338131,0.69338131 0 0 0 0.765532,1.150102 c 0,0 9.7869031,-5.435626 20.7379731,-5.752322 0.220984,0.558319 0.385866,1.155045 0.574149,1.585229 -0.675715,0.462537 -1.404206,0.917216 -2.03841,1.711614 -0.765186,0.958467 -1.335231,2.293496 -1.482315,4.22487 -0.310085,4.072997 3.16117,7.59201 7.422411,7.700457 h -0.01987 c 3.702967,0.197245 6.094082,0.219245 9.04736,1.747724 1.283205,0.712507 2.571665,2.256003 3.531558,4.174316 0.961625,1.921773 1.603162,4.205815 1.717031,6.331888 a 0.69338131,0.69338131 0 0 0 1.384819,0.01625 c 0.0019,-0.02495 -0.0054,-0.06497 -0.0036,-0.09028 h 0.0036 c -5.79e-4,-0.0108 -0.0048,-0.02171 -0.0055,-0.0325 0.121533,-1.783321 -0.133083,-4.39413 -1.168159,-6.93673 -0.485502,-1.19261 -1.202233,-2.341021 -2.081741,-3.376286 1.227505,0.739099 2.086113,1.598045 2.664918,2.413954 1.100236,1.55094 1.249406,2.870745 1.249406,2.870745 a 0.69338131,0.69338131 0 0 0 1.157326,0.427903 0.69338131,0.69338131 0 0 0 0.222076,-0.44957 c 0,0 -0.0098,-0.133208 -0.0091,-0.146245 l 0.0072,0.0036 c 0,0 -0.01066,-0.04197 -0.01083,-0.04334 0.0137,-0.26243 0.07478,-1.958144 -1.153715,-3.91974 -1.326506,-2.118105 -4.133935,-4.371938 -9.738865,-5.194423 -1.416717,-0.207866 -3.194548,-0.367357 -5.004846,-0.371933 a 0.69338131,0.69338131 0 0 0 -0.01084,0 c -4.107015,0.0543 -5.992918,-2.1975 -6.297583,-4.466808 -0.152334,-1.134652 0.115527,-2.276078 0.760114,-3.146986 0.644588,-0.870908 1.652222,-1.497305 3.123516,-1.612311 a 0.69338131,0.69338131 0 0 0 0.0036,0 c 2.376127,-0.19606 5.48565,1.129461 8.586958,2.567421 0.03717,0.330848 0.0092,0.657469 0.269019,0.982192 0.323855,0.404791 0.66612,0.515915 1.01108,0.678868 0.344961,0.162952 0.70722,0.321456 0.763727,0.353877 0.259804,0.14913 1.252125,0.802908 1.765779,1.471483 a 0.69338131,0.69338131 0 0 0 1.160936,-0.09569 c -0.02233,0.04177 -0.0359,0.06663 -0.03972,0.07583 v 0.0018 0.0018 h 0.0018 v -0.0018 c 0.0095,-0.0073 0.06335,-0.08117 0.12819,-0.135413 0.103733,-0.08678 0.247528,-0.195363 0.389988,-0.297907 0.284919,-0.205089 0.557899,-0.384572 0.557899,-0.384572 a 0.69338131,0.69338131 0 0 0 -0.386376,-1.272878 h -0.0018 -0.0018 -0.0018 c -0.0066,-0.0015 -0.0232,-0.0055 -0.07041,-0.01445 -0.104101,-0.01987 -0.293521,-0.0671 -0.57776,-0.173328 -0.186027,-0.06952 -0.504921,-0.274312 -0.743866,-0.464014 -0.05456,-0.04332 -0.08731,-0.07422 -0.133607,-0.113746 -0.0013,-0.04937 0.05845,-0.123539 0.05056,-0.158884 -0.03918,-0.175268 -0.0988,-0.270969 -0.153468,-0.359295 -0.09967,-0.161453 -0.196512,-0.274347 -0.285089,-0.364851 -0.0026,-0.0038 -0.0073,-0.01024 -0.01264,-0.01805 -0.02381,-0.03477 -0.05853,-0.08936 -0.0993,-0.153468 -0.08153,-0.128214 -0.186463,-0.296004 -0.287074,-0.462208 -0.196866,-0.325206 -0.345723,-0.580443 -0.393599,-0.660813 6e-5,1.71e-4 -0.0029,-0.0043 -0.0091,-0.01445 a 0.69338131,0.69338131 0 0 0 0,-0.0018 c -0.03452,-0.05276 -0.154591,-0.225694 -0.287075,-0.314157 a 0.69338131,0.69338131 0 0 0 -0.01083,-0.0055 0.69338131,0.69338131 0 0 0 -0.03069,-0.213049 c 0,0 -2.964756,-3.56424 -8.536403,-5.322613 -0.01739,-0.0071 -0.03134,-0.0182 -0.04875,-0.02527 l -0.0018,0.0036 c -0.02108,-0.0066 -0.03481,-0.01694 -0.05597,-0.02347 a 0.69338131,0.69338131 0 0 0 -0.465819,1.305377 c 0.984132,0.400043 1.843215,0.913838 2.729916,1.402873 a 0.69338131,0.69338131 0 0 0 -0.07583,0.04514 c -0.03289,0.07755 -0.0032,0.128672 -0.02527,0.204022 -0.931191,-0.363033 -2.531445,-0.879015 -5.234145,-0.899139 -0.424378,-0.03899 -0.74946,-0.235382 -1.059828,-0.592204 -0.310368,-0.356821 -0.571925,-0.872735 -0.75831,-1.422734 -0.186384,-0.549999 -0.300257,-1.132912 -0.350268,-1.603284 -0.04376,-0.411576 -0.0043,-0.798349 -0.0091,-0.839557 v -0.0018 h -0.0018 -0.0018 a 0.69338131,0.69338131 0 0 0 -0.339434,-0.812475 c 0,0 -3.74275,-1.9594982 -10.912442,-2.807552 C 12.099077,7.6911745 8.8372496,7.6595077 6.4717634,7.7340083 Z" />
</svg>
