<?xml version="1.0" encoding="UTF-8" standalone="no"?>
<svg
   width="48"
   height="48"
   style="display:inline;enable-background:new"
   version="1.0"
   id="svg1"
   sodipodi:docname="activities-kali.svg"
   inkscape:version="1.4.2 (ebf0e940d0, 2025-05-08)"
   xmlns:inkscape="http://www.inkscape.org/namespaces/inkscape"
   xmlns:sodipodi="http://sodipodi.sourceforge.net/DTD/sodipodi-0.dtd"
   xmlns="http://www.w3.org/2000/svg"
   xmlns:svg="http://www.w3.org/2000/svg">
  <defs
     id="defs1" />
  <sodipodi:namedview
     id="namedview1"
     pagecolor="#ffffff"
     bordercolor="#000000"
     borderopacity="0.25"
     inkscape:showpageshadow="2"
     inkscape:pageopacity="0.0"
     inkscape:pagecheckerboard="0"
     inkscape:deskcolor="#d1d1d1"
     inkscape:zoom="6.3333333"
     inkscape:cx="36.789474"
     inkscape:cy="3.7105263"
     inkscape:window-width="1920"
     inkscape:window-height="1019"
     inkscape:window-x="0"
     inkscape:window-y="0"
     inkscape:window-maximized="1"
     inkscape:current-layer="svg1" />
  <g
     style="display:inline"
     id="g1" />
  <path
     d="m 24.813651,-37.875642 c 0,0 -4.142292,-0.275625 -11.196195,1.931569 -7.1885733,2.249299 -11.2655583,5.437468 -11.2655583,5.437468 0,0 10.7143073,-5.982229 22.8077563,-6.322146 z m 15.450441,6.504275 0.538514,-0.03514 c 0,0 -3.085302,-3.743396 -8.990785,-5.566865 3.319634,1.34941 6.208976,3.137345 8.452109,5.601749 z m 0.881311,1.555347 c 0.08279,-0.143552 0.350067,0.456049 0.553036,0.707945 0.0086,0.05029 0.02288,0.08099 -0.09481,0.05678 -0.0099,-0.0517 -0.02698,-0.0667 -0.02698,-0.0667 0,0 -0.284059,-0.169013 -0.371147,-0.288905 -0.08716,-0.119888 -0.102628,-0.329596 -0.06013,-0.409119 z m 7.247389,17.819319 c 0,0 0.65497,-7.519567 -11.159282,-9.253229 -1.497383,-0.219701 -3.391026,-0.388797 -5.306451,-0.393639 -9.469022,0.125197 -9.814214,-10.921177 -2.678941,-11.478918 2.957082,-0.243995 6.488049,1.351193 9.939959,2.958705 -0.01282,0.428709 0.0049,0.809676 0.286562,1.161723 0.281564,0.351932 1.3632,0.735893 1.708837,0.934206 0.345609,0.198381 1.452803,0.902324 2.131301,1.785461 0.147142,-0.275236 1.375937,-1.075081 1.375937,-1.075081 0,0 -0.29437,0.0064 -0.97919,-0.24954 -0.684907,-0.255945 -1.497627,-1.03034 -1.516854,-1.075081 -0.01919,-0.04483 -0.03197,-0.115202 0.12809,-0.147224 0.121527,-0.102313 -0.153705,-0.435119 -0.275317,-0.556645 -0.121527,-0.121608 -0.934409,-1.503792 -0.953554,-1.535836 -0.01919,-0.03202 -0.02564,-0.06397 -0.08319,-0.102398 -0.179248,-0.05764 -0.966453,0.08318 -0.966453,0.08318 0,0 -1.210684,-0.594613 -1.627997,-1.876606 0.0061,0.224549 -0.207601,0.469719 0,0.9856 -0.63124,-0.267035 -1.173446,-0.722468 -1.601102,-1.847928 -0.254536,0.640124 0,1.047133 0,1.047133 0,0 -1.48647,-0.415364 -1.724292,-1.786231 -0.261022,0.61538 0,0.985518 0,0.985518 0,0 -2.423313,-1.26443 -6.449919,-1.282764 -2.695817,-0.247276 -3.257046,-4.989652 -3.007299,-5.787931 0,0 -3.888368,-2.049283 -11.542603,-2.95465 -7.6542333,-0.905451 -13.9317623,-0.136449 -13.9317623,-0.136449 0,0 13.5565563,-0.65059 24.4168903,3.746236 0.369196,1.651278 1.479818,4.401489 2.078,5.723437 -1.711636,1.183425 -3.641785,2.29623 -3.942356,6.243048 -0.300466,3.946657 3.092724,7.418158 7.300525,7.525245 3.995536,0.212829 6.756171,0.243057 10.102212,1.97781 3.193888,1.765992 5.812675,7.147197 6.071873,11.9867675 0.279917,-3.590798 -1.067618,-11.3126105 -7.355691,-13.6571505 8.788781,1.538026 9.561912,8.053373 9.561912,8.053373 z m -23.786134,-26.468565 -0.316241,-1.020036 c 0,0 -5.218022,-0.926622 -12.233796,-0.42794 -7.0157743,0.498681 -14.0992883,2.954567 -14.0992883,2.954567 0,0 14.4939663,-3.647017 26.6490703,-1.506631"
     style="fill:#333333;fill-opacity:1;stroke-width:0.31659"
     id="path2" />
  <path
     id="path6"
     style="baseline-shift:baseline;display:inline;overflow:visible;vector-effect:none;fill:#333333;stroke-width:1.06605;stroke-linecap:round;stroke-linejoin:round;enable-background:accumulate;stop-color:#000000"
     d="m 0.10897663,5.8441068 c -2.67651583,0.084295 -4.27671853,0.2818369 -4.33916253,0.2894163 -5.86e-5,3e-6 -0.024986,0 -0.024986,0 v 0.00208 c -5.885e-4,7.16e-5 -0.058301,0.00416 -0.058301,0.00416 a 0.79961844,0.79961844 0 0 0 0.1353384,1.5907485 c 0,0 10.2202312,-0.2701083 20.2383185,2.3548914 -2.189498,-0.1184455 -4.586596,-0.2427126 -7.64975,-0.02499 -7.56303458,0.53758 -15.0309724,3.125668 -15.1558358,3.169004 l -0.012492,0.0021 v 0.0021 c -7.387e-4,2.56e-4 -0.066628,0.01874 -0.066628,0.01874 a 0.79961844,0.79961844 0 0 0 0.4559865,1.530366 c 0,0 11.3486682,-2.608368 22.6057013,-1.982189 -1.798586,0.31097 -3.834952,0.741033 -6.3442545,1.526203 -7.6402718,2.390636 -11.9782382,5.72557 -12.1429911,5.852871 -3.62e-5,2.2e-5 -0.018739,0.0083 -0.018739,0.0083 l 0.00208,0.0021 c -0.00234,0.0018 -0.1041065,0.06663 -0.1041065,0.06663 a 0.79961844,0.79961844 0 0 0 0.8828237,1.326316 c 0,0 11.2864135,-6.268451 23.9153634,-6.63367 0.254842,0.643863 0.444987,1.332017 0.662118,1.828112 -0.779246,0.533405 -1.619353,1.057748 -2.350728,1.97386 -0.882424,1.10532 -1.539809,2.644897 -1.709429,4.872188 -0.357595,4.697046 3.645512,8.755228 8.559643,8.880291 h -0.02291 c 4.270321,0.227466 7.027793,0.252837 10.43356,2.015503 1.479813,0.821674 2.965686,2.601659 4.07265,4.813888 1.108961,2.216219 1.848792,4.850213 1.980107,7.302035 a 0.79961844,0.79961844 0 0 0 1.596996,0.01874 c 0.0022,-0.02877 -0.0062,-0.07492 -0.0042,-0.104113 h 0.0042 c -6.68e-4,-0.01245 -0.0055,-0.02504 -0.0063,-0.03748 0.140154,-2.056555 -0.153473,-5.067381 -1.34714,-7.999549 -0.559888,-1.375336 -1.386434,-2.699702 -2.400697,-3.893587 1.415579,0.852341 2.405739,1.842891 3.073226,2.783811 1.26881,1.788569 1.440836,3.310589 1.440836,3.310589 a 0.79961844,0.79961844 0 0 0 1.334646,0.493465 0.79961844,0.79961844 0 0 0 0.256102,-0.518452 c 0,0 -0.0113,-0.153617 -0.01049,-0.168652 l 0.0083,0.0042 c 0,0 -0.01229,-0.0484 -0.01249,-0.04998 0.0158,-0.302638 0.08624,-2.258163 -1.330483,-4.520307 -1.529748,-2.442632 -4.76732,-5.041789 -11.231015,-5.990291 -1.633781,-0.239715 -3.684004,-0.423642 -5.771669,-0.42892 a 0.79961844,0.79961844 0 0 0 -0.0125,0 c -4.736275,0.06262 -6.911129,-2.534192 -7.262473,-5.151194 -0.175674,-1.308499 0.133227,-2.62481 0.876575,-3.629155 0.74335,-1.004345 1.905369,-1.726716 3.602089,-1.859343 a 0.79961844,0.79961844 0 0 0 0.0042,0 c 2.740187,-0.226099 6.326139,1.302513 9.902617,2.960791 0.04286,0.38154 0.01061,0.758204 0.310237,1.13268 0.373475,0.466811 0.76818,0.594961 1.165994,0.782881 0.397814,0.187919 0.815577,0.370709 0.880742,0.408097 0.29961,0.171979 1.443971,0.925926 2.036325,1.696938 a 0.79961844,0.79961844 0 0 0 1.33881,-0.110351 c -0.02575,0.04817 -0.0414,0.07684 -0.04581,0.08745 v 0.0021 0.0021 h 0.0021 v -0.0021 c 0.01096,-0.0084 0.07306,-0.09361 0.147831,-0.156161 0.119626,-0.100076 0.285453,-0.225296 0.44974,-0.343551 0.328573,-0.236512 0.643378,-0.443494 0.643378,-0.443494 a 0.79961844,0.79961844 0 0 0 -0.445575,-1.467904 h -0.0021 -0.0021 -0.0021 c -0.0076,-0.0017 -0.02676,-0.0063 -0.0812,-0.01666 -0.120051,-0.02291 -0.338493,-0.07738 -0.666282,-0.199884 -0.21453,-0.08017 -0.582283,-0.316341 -0.857839,-0.535109 -0.06292,-0.04996 -0.100687,-0.08559 -0.154077,-0.131173 -0.0015,-0.05693 0.06741,-0.142468 0.05831,-0.183228 -0.04518,-0.202122 -0.113937,-0.312486 -0.176981,-0.414345 -0.114942,-0.18619 -0.226621,-0.316381 -0.32877,-0.420752 -0.003,-0.0044 -0.0084,-0.01181 -0.01458,-0.02082 -0.02746,-0.0401 -0.0675,-0.103052 -0.114515,-0.176982 -0.09402,-0.147859 -0.215032,-0.341357 -0.331058,-0.533026 -0.227029,-0.375033 -0.398693,-0.669376 -0.453905,-0.76206 6.9e-5,1.97e-4 -0.0033,-0.005 -0.01049,-0.01666 a 0.79961844,0.79961844 0 0 0 0,-0.0021 c -0.03981,-0.06084 -0.178277,-0.260274 -0.331059,-0.362291 a 0.79961844,0.79961844 0 0 0 -0.01249,-0.0063 0.79961844,0.79961844 0 0 0 -0.03539,-0.245692 c 0,0 -3.419004,-4.110338 -9.844317,-6.138123 -0.02005,-0.0082 -0.03614,-0.02099 -0.05622,-0.02914 l -0.0021,0.0042 c -0.02431,-0.0076 -0.04014,-0.01954 -0.06454,-0.02707 a 0.79961844,0.79961844 0 0 0 -0.53719,1.505382 c 1.134917,0.461336 2.125625,1.053853 3.148183,1.617816 a 0.79961844,0.79961844 0 0 0 -0.08745,0.05206 c -0.03793,0.08943 -0.0037,0.148387 -0.02914,0.235281 -1.073865,-0.418655 -2.919303,-1.013694 -6.0361,-1.036901 -0.4894,-0.04496 -0.86429,-0.271446 -1.222211,-0.682939 -0.357952,-0.411616 -0.659584,-1.006576 -0.874526,-1.640844 -0.214941,-0.634268 -0.346261,-1.306492 -0.403935,-1.848933 -0.05046,-0.474636 -0.005,-0.920669 -0.01049,-0.96819 v -0.0021 h -0.0021 -0.0021 a 0.79961844,0.79961844 0 0 0 -0.39144,-0.9369595 c 0,0 -4.3162,-2.2597247 -12.584403,-3.2377139 C 6.5984848,5.7947102 2.8368932,5.7581915 0.10897663,5.8441068 Z" />
</svg>
