<?xml version="1.0" encoding="UTF-8" standalone="no"?>
<!-- Created with Inkscape (http://www.inkscape.org/) -->

<svg
   inkscape:export-ydpi="90.000000"
   inkscape:export-xdpi="90.000000"
   width="48"
   height="48"
   id="svg11300"
   sodipodi:version="0.32"
   inkscape:version="1.1 (c4e8f9ed74, 2021-05-24)"
   sodipodi:docname="activities-ubuntu.svg"
   inkscape:output_extension="org.inkscape.output.svg.inkscape"
   version="1.0"
   style="display:inline;enable-background:new"
   xmlns:inkscape="http://www.inkscape.org/namespaces/inkscape"
   xmlns:sodipodi="http://sodipodi.sourceforge.net/DTD/sodipodi-0.dtd"
   xmlns="http://www.w3.org/2000/svg"
   xmlns:svg="http://www.w3.org/2000/svg"
   xmlns:rdf="http://www.w3.org/1999/02/22-rdf-syntax-ns#"
   xmlns:cc="http://creativecommons.org/ns#"
   xmlns:dc="http://purl.org/dc/elements/1.1/">
  <sodipodi:namedview
     stroke="#ef2929"
     fill="#f57900"
     id="base"
     pagecolor="#bebebe"
     bordercolor="#525252"
     borderopacity="1"
     inkscape:pageopacity="1"
     inkscape:pageshadow="2"
     inkscape:zoom="8"
     inkscape:cx="-1"
     inkscape:cy="5.875"
     inkscape:current-layer="layer1"
     showgrid="true"
     inkscape:grid-bbox="true"
     inkscape:document-units="px"
     inkscape:showpageshadow="true"
     inkscape:window-width="1920"
     inkscape:window-height="1016"
     inkscape:window-x="0"
     inkscape:window-y="28"
     width="400px"
     height="300px"
     inkscape:snap-nodes="true"
     inkscape:snap-bbox="true"
     gridtolerance="10000"
     inkscape:object-nodes="true"
     inkscape:snap-grids="true"
     showguides="false"
     inkscape:guide-bbox="true"
     inkscape:window-maximized="1"
     inkscape:bbox-nodes="true"
     inkscape:bbox-paths="false"
     inkscape:snap-bbox-edge-midpoints="false"
     inkscape:snap-bbox-midpoints="false"
     objecttolerance="10000"
     guidetolerance="10000"
     borderlayer="true"
     showborder="true"
     guidecolor="#ff0b00"
     guideopacity="1"
     guidehicolor="#001aff"
     guidehiopacity="0.49803922"
     inkscape:pagecheckerboard="0">
    <inkscape:grid
       type="xygrid"
       id="grid3123"
       empspacing="4"
       visible="true"
       enabled="true"
       snapvisiblegridlinesonly="true" />
    <sodipodi:guide
       position="12,12"
       orientation="1,0"
       id="guide4135"
       inkscape:locked="false" />
  </sodipodi:namedview>
  <defs
     id="defs3" />
  <metadata
     id="metadata4">
    <rdf:RDF>
      <cc:Work
         rdf:about="">
        <dc:format>image/svg+xml</dc:format>
        <dc:type
           rdf:resource="http://purl.org/dc/dcmitype/StillImage" />
        <dc:creator>
          <cc:Agent>
            <dc:title />
          </cc:Agent>
        </dc:creator>
        <dc:source />
        <cc:license
           rdf:resource="" />
        <dc:subject>
          <rdf:Bag />
        </dc:subject>
        <dc:date />
        <dc:rights>
          <cc:Agent>
            <dc:title />
          </cc:Agent>
        </dc:rights>
        <dc:publisher>
          <cc:Agent>
            <dc:title />
          </cc:Agent>
        </dc:publisher>
        <dc:identifier />
        <dc:relation />
        <dc:language />
        <dc:coverage />
        <dc:description />
        <dc:contributor>
          <cc:Agent>
            <dc:title />
          </cc:Agent>
        </dc:contributor>
      </cc:Work>
      <cc:Work
         rdf:about="">
        <dc:format>image/svg+xml</dc:format>
        <dc:type
           rdf:resource="http://purl.org/dc/dcmitype/StillImage" />
      </cc:Work>
    </rdf:RDF>
  </metadata>
  <g
     style="display:inline"
     inkscape:groupmode="layer"
     inkscape:label="Base"
     id="layer1"
     transform="translate(0,-276)">
    <path
       inkscape:connector-curvature="0"
       style="fill:#333333;fill-opacity:1;stroke-width:7.5592"
       d="m 24,282 a 18,18 0 1 0 0,36 18,18 0 0 0 0,-36 z m 6.415968,5.01714 a 2.3980158,2.3980158 0 0 1 1.785756,3.58426 2.4022676,2.4022676 0 1 1 -1.785756,-3.58426 z m -6.42022,2.54256 c 0.969412,0 1.904808,0.1318 2.793434,0.37842 a 3.3716784,3.3716784 0 0 0 4.519664,2.6191 c 1.777254,1.7475 2.933742,4.12426 3.103814,6.77314 l -3.422698,0.0468 a 7.0197236,7.0197236 0 0 0 -9.949216,-5.73992 L 19.369788,290.6397 A 10.404157,10.404157 0 0 1 24,289.55976 Z m -5.790952,1.75176 1.760246,2.94648 a 7.01122,7.01122 0 0 0 0,11.48412 l -1.760246,2.94224 a 10.450927,10.450927 0 0 1 -4.311328,-6.0673 3.3631748,3.3631748 0 0 0 0,-5.23398 10.459431,10.459431 0 0 1 4.311328,-6.07156 z m -6.445732,6.28416 a 2.4043936,2.4043936 0 1 1 0,4.80878 2.40227,2.40227 0 0 1 0,-4.80454 z m 19.230898,3.02302 3.422698,0.0552 a 10.408409,10.408409 0 0 1 -3.103814,6.76886 3.358923,3.358923 0 0 0 -4.519664,2.61486 10.43392,10.43392 0 0 1 -7.419394,-0.6973 l 1.670958,-2.99328 a 7.0154718,7.0154718 0 0 0 9.949216,-5.74842 z m -1.169246,7.59372 a 2.4074546,2.4074546 0 1 1 0.586748,4.77902 2.4074546,2.4074546 0 0 1 -0.586748,-4.77902 z"
       id="path14" />
  </g>
</svg>
