<svg width="24" height="24" version="1.1" xmlns="http://www.w3.org/2000/svg">
 <path d="m12 3a9 9 0 0 0-9 9 9 9 0 0 0 9 9 9 9 0 0 0 9-9 9 9 0 0 0-9-9zm-1.5547 2.668c0.7593-0.017986 1.0781 0.16145 1.5195 0.44922 0.67101 0.44964 1.1476 1.1516 1.3242 1.9609 0.17658 0.80937 0.12401 1.439-0.08789 1.8887v0.035156c-0.42381 0.91728-1.1303 1.6559-2.1191 2.0156l0.84766 2.248c0.15892 0.41367 0.29938 0.84453 0.17578 1.2402-0.12361 0.3957-0.68956 0.52149-1.0957 0.089844-0.77697-0.84534-3.3896-6.1688-3.584-6.5645-0.19424-0.3957-0.40625-0.71953-0.40625-1.1152 0.017658-0.59355 0.91793-1.204 1.3594-1.5098 0.44145-0.30576 1.3071-0.72028 2.0664-0.73828zm-0.69336 1.6387c-0.54921 0.015329-0.24873 1.1838-0.13672 1.5098 0.12361 0.35973 0.45925 1.1145 0.83008 1.4922 0.088291 0.08993 0.17725 0.1617 0.2832 0.17969 0.10595 0.01798 0.31796-0.090488 0.40625-0.23438 0.08829-0.14389 0.10547-0.25064 0.10547-0.39453a2.2603 2.3022 0 0 0-0.035156-0.86328c-0.15892-0.55758-0.4941-1.0973-0.93555-1.457-0.08829-0.071943-0.19475-0.16325-0.31836-0.19922-0.076151-0.025293-0.1424-0.034789-0.19922-0.033203zm5.9746 1.3594c0.083642-0.0013864 0.16445 0.0042685 0.23242 0.017578a1.5295 1.5972 0 0 1 0.83203 0.42578c0.20392 0.19521 0.22032 0.40956 0.15234 0.67578-0.06797 0.26619-0.30526 0.83404-0.49219 1.2422l-0.47656 0.93945c-0.91767 1.7036-1.1045 1.8819-1.3594 1.7754-0.30588-0.12422-0.20296-1.828 0.085938-3.9043 0.08497-0.56787 0.22011-0.85218 0.37305-0.99414 0.11471-0.10648 0.40142-0.17358 0.65234-0.17773zm-1.0449 6c0.39884 0.00688 0.56855 0.44813 0.47266 0.78906-0.03654 0.14612-0.1273 0.27624-0.27344 0.35742s-0.49437 0.081667-0.69531-0.064453-0.23644-0.39112-0.18164-0.58594c0.0548-0.19483 0.23644-0.40578 0.49219-0.4707 0.066217-0.018265 0.12857-0.026373 0.18555-0.02539zm-6.0234 1.8008h7.0449c0.37528 0 0.67773 0.26721 0.67773 0.59961s-0.30245 0.59961-0.67773 0.59961h-7.0449c-0.37528 0-0.67773-0.26721-0.67773-0.59961-1e-7 -0.3324 0.30245-0.59961 0.67773-0.59961z" fill="#383838"/>
</svg>
