<?xml version="1.0" encoding="UTF-8" standalone="no"?>
<svg
   id="svg5556"
   version="1.1"
   viewBox="0 0 48 48"
   height="48"
   width="48"
   sodipodi:docname="activities-void.svg"
   inkscape:version="1.1 (c4e8f9ed74, 2021-05-24)"
   xmlns:inkscape="http://www.inkscape.org/namespaces/inkscape"
   xmlns:sodipodi="http://sodipodi.sourceforge.net/DTD/sodipodi-0.dtd"
   xmlns="http://www.w3.org/2000/svg"
   xmlns:svg="http://www.w3.org/2000/svg"
   xmlns:rdf="http://www.w3.org/1999/02/22-rdf-syntax-ns#"
   xmlns:cc="http://creativecommons.org/ns#"
   xmlns:dc="http://purl.org/dc/elements/1.1/">
  <sodipodi:namedview
     id="namedview8"
     pagecolor="#dbdbdb"
     bordercolor="#666666"
     borderopacity="1.0"
     inkscape:pageshadow="2"
     inkscape:pageopacity="0"
     inkscape:pagecheckerboard="0"
     showgrid="false"
     inkscape:zoom="5.4506148"
     inkscape:cx="-20.364675"
     inkscape:cy="18.163089"
     inkscape:window-width="1920"
     inkscape:window-height="1016"
     inkscape:window-x="0"
     inkscape:window-y="28"
     inkscape:window-maximized="1"
     inkscape:current-layer="svg5556" />
  <defs
     id="defs5550" />
  <metadata
     id="metadata5553">
    <rdf:RDF>
      <cc:Work
         rdf:about="">
        <dc:format>image/svg+xml</dc:format>
        <dc:type
           rdf:resource="http://purl.org/dc/dcmitype/StillImage" />
      </cc:Work>
    </rdf:RDF>
  </metadata>
  <g
     transform="matrix(7.5590557,0,0,7.5590557,-2.9956602e-7,-2197.0394)"
     id="layer1">
    <g
       transform="matrix(0.02262785,0,0,0.02262785,0.27826107,291.44373)"
       id="g5457">
      <path
         id="path5443"
         transform="translate(-178.44539,-506.5705)"
         d="m 306.46289,506.57031 c -22.03188,0.0468 -43.49376,7.00749 -61.35937,19.90039 l 23.90234,23.90235 c 11.27745,-6.8986 24.23694,-10.55955 37.45703,-10.58203 39.77241,-8e-5 72.01375,32.24125 72.01367,72.01367 -0.0318,13.21538 -3.69961,26.16761 -10.60156,37.4375 l 23.94727,23.94922 c 12.8888,-17.87595 19.84123,-39.3488 19.875,-61.38672 0,-58.11963 -47.11476,-105.23438 -105.23438,-105.23438 z m -85.36133,43.84961 c -12.88881,17.87594 -19.84123,39.34684 -19.875,61.38477 0,58.11962 47.1167,105.23633 105.23633,105.23633 22.03188,-0.0468 43.4918,-7.00749 61.35742,-19.9004 l -23.90234,-23.90234 c -11.27745,6.89859 -24.235,10.55956 -37.45508,10.58203 -39.77242,8e-5 -72.0157,-32.24321 -72.01562,-72.01562 0.0318,-13.21538 3.6996,-26.16566 10.60156,-37.43555 z m 85.34375,27.88281 a 33.503357,33.503357 0 0 0 -33.5039,33.50196 33.503357,33.503357 0 0 0 33.5039,33.5039 33.503357,33.503357 0 0 0 33.50391,-33.5039 33.503357,33.503357 0 0 0 -33.50391,-33.50196 z"
         style="fill:#333333" />
    </g>
  </g>
</svg>
