<?xml version="1.0" encoding="UTF-8" standalone="no"?>
<svg
   width="48"
   height="48"
   version="1.1"
   viewBox="0 0 48 48"
   id="svg4"
   sodipodi:docname="activities-opensuse.svg"
   inkscape:version="1.1 (c4e8f9ed74, 2021-05-24)"
   xmlns:inkscape="http://www.inkscape.org/namespaces/inkscape"
   xmlns:sodipodi="http://sodipodi.sourceforge.net/DTD/sodipodi-0.dtd"
   xmlns="http://www.w3.org/2000/svg"
   xmlns:svg="http://www.w3.org/2000/svg">
  <defs
     id="defs8" />
  <sodipodi:namedview
     id="namedview6"
     pagecolor="#dbdbdb"
     bordercolor="#666666"
     borderopacity="1.0"
     inkscape:pageshadow="2"
     inkscape:pageopacity="0"
     inkscape:pagecheckerboard="0"
     showgrid="false"
     inkscape:zoom="10.90123"
     inkscape:cx="-3.1189142"
     inkscape:cy="22.382796"
     inkscape:window-width="1920"
     inkscape:window-height="1016"
     inkscape:window-x="0"
     inkscape:window-y="28"
     inkscape:window-maximized="1"
     inkscape:current-layer="svg4" />
  <path
     d="m 24,6 a 18,18 0 1 0 0,36 18,18 0 0 0 0,-36 z m 0,4.000941 a 14.001176,14.001176 0 1 1 0,27.997816 13.894591,13.894591 0 0 1 -9.502688,-3.750126 c 0.807853,-0.110546 2.083395,-0.127554 3.750126,0.06372 2.436259,0.276373 3.771368,0.36991 5.374299,0.25086 3.656543,-0.276372 6.07156,-0.880119 8.750546,-2.189677 1.403066,-0.680292 1.700747,-0.990635 1.998354,-1.811264 0.293373,-0.778069 0.399663,-1.500881 0.255108,-1.500881 -0.05526,0 -0.514473,0.178571 -1.062977,0.437935 -2.062153,0.977936 -3.869108,1.458399 -5.442331,1.377667 -1.628406,-0.08503 -4.260298,-1.037427 -7.432144,-2.563859 l -1.500882,-0.688795 -1.1267,-2.81044 1.062976,0.684539 a 31.569545,31.569545 0 0 0 6.564799,3.188855 c 2.729633,0.863111 4.859819,0.744068 7.057963,-0.374159 0.77807,-0.395415 2.253477,-1.360583 2.253477,-1.500882 0,-0.255108 -0.756828,-2.789198 -1.190501,-3.937141 -1.079984,-2.865694 -1.841046,-3.835163 -3.622526,-4.685499 -1.981345,-0.943919 -4.175256,-1.585923 -8.188896,-2.500059 -1.913313,-0.408174 -3.801151,-0.820628 -5.74848,-1.062976 l -0.06372,2.372535 a 64.712162,64.712162 0 0 0 -3.686402,-0.999177 14.030657,14.030657 0 0 1 11.501344,-5.995061 z m 3.312145,10.123299 a 2.9762893,2.9762893 0 0 1 2.933731,2.312968 c 0.191331,0.744069 0.13181,1.275542 -0.246604,2.062154 a 2.8742399,2.8742399 0 0 1 -3.125055,1.564681 2.9209558,2.9209558 0 0 1 -2.189677,-1.687972 c -0.518721,-1.126701 -0.276365,-2.62335 0.625018,-3.439745 a 3.0910381,3.0910381 0 0 1 1.998354,-0.807853 z m 0.68454,1.564682 c -1.045969,0 -1.700748,0.765294 -1.122468,1.309558 0.467696,0.442184 1.250067,0.510209 1.87083,0.191331 0.408167,-0.208339 0.544226,-0.522977 0.442184,-0.935377 -0.07653,-0.310381 -0.680292,-0.56549 -1.190501,-0.56549 z"
     fill="#333333"
     overflow="visible"
     stroke-width="4.25183"
     id="path2" />
</svg>
