<?xml version="1.0" encoding="UTF-8" standalone="no"?>
<!-- Created with Inkscape (http://www.inkscape.org/) -->

<svg
   inkscape:export-ydpi="90.000000"
   inkscape:export-xdpi="90.000000"
   width="48"
   height="48"
   id="svg11300"
   sodipodi:version="0.32"
   inkscape:version="1.1 (c4e8f9ed74, 2021-05-24)"
   sodipodi:docname="activities-debian.svg"
   inkscape:output_extension="org.inkscape.output.svg.inkscape"
   version="1.0"
   style="display:inline;enable-background:new"
   xmlns:inkscape="http://www.inkscape.org/namespaces/inkscape"
   xmlns:sodipodi="http://sodipodi.sourceforge.net/DTD/sodipodi-0.dtd"
   xmlns="http://www.w3.org/2000/svg"
   xmlns:svg="http://www.w3.org/2000/svg"
   xmlns:rdf="http://www.w3.org/1999/02/22-rdf-syntax-ns#"
   xmlns:cc="http://creativecommons.org/ns#"
   xmlns:dc="http://purl.org/dc/elements/1.1/">
  <sodipodi:namedview
     stroke="#ef2929"
     fill="#f57900"
     id="base"
     pagecolor="#bebebe"
     bordercolor="#525252"
     borderopacity="1"
     inkscape:pageopacity="1"
     inkscape:pageshadow="2"
     inkscape:zoom="5.6568543"
     inkscape:cx="12.551145"
     inkscape:cy="21.213203"
     inkscape:current-layer="layer1"
     showgrid="true"
     inkscape:grid-bbox="true"
     inkscape:document-units="px"
     inkscape:showpageshadow="true"
     inkscape:window-width="1920"
     inkscape:window-height="1016"
     inkscape:window-x="0"
     inkscape:window-y="28"
     width="400px"
     height="300px"
     inkscape:snap-nodes="true"
     inkscape:snap-bbox="true"
     gridtolerance="10000"
     inkscape:object-nodes="true"
     inkscape:snap-grids="true"
     showguides="false"
     inkscape:guide-bbox="true"
     inkscape:window-maximized="1"
     inkscape:bbox-nodes="true"
     inkscape:bbox-paths="false"
     inkscape:snap-bbox-edge-midpoints="false"
     inkscape:snap-bbox-midpoints="false"
     objecttolerance="10000"
     guidetolerance="10000"
     borderlayer="true"
     showborder="true"
     guidecolor="#ff0b00"
     guideopacity="1"
     guidehicolor="#001aff"
     guidehiopacity="0.49803922"
     inkscape:pagecheckerboard="0">
    <inkscape:grid
       type="xygrid"
       id="grid3123"
       empspacing="4"
       visible="true"
       enabled="true"
       snapvisiblegridlinesonly="true" />
    <sodipodi:guide
       position="12,12"
       orientation="1,0"
       id="guide4135"
       inkscape:locked="false" />
  </sodipodi:namedview>
  <defs
     id="defs3" />
  <metadata
     id="metadata4">
    <rdf:RDF>
      <cc:Work
         rdf:about="">
        <dc:format>image/svg+xml</dc:format>
        <dc:type
           rdf:resource="http://purl.org/dc/dcmitype/StillImage" />
        <dc:creator>
          <cc:Agent>
            <dc:title />
          </cc:Agent>
        </dc:creator>
        <dc:source />
        <cc:license
           rdf:resource="" />
        <dc:subject>
          <rdf:Bag />
        </dc:subject>
        <dc:date />
        <dc:rights>
          <cc:Agent>
            <dc:title />
          </cc:Agent>
        </dc:rights>
        <dc:publisher>
          <cc:Agent>
            <dc:title />
          </cc:Agent>
        </dc:publisher>
        <dc:identifier />
        <dc:relation />
        <dc:language />
        <dc:coverage />
        <dc:description />
        <dc:contributor>
          <cc:Agent>
            <dc:title />
          </cc:Agent>
        </dc:contributor>
      </cc:Work>
      <cc:Work
         rdf:about="">
        <dc:format>image/svg+xml</dc:format>
        <dc:type
           rdf:resource="http://purl.org/dc/dcmitype/StillImage" />
      </cc:Work>
    </rdf:RDF>
  </metadata>
  <g
     style="display:inline"
     inkscape:groupmode="layer"
     inkscape:label="Base"
     id="layer1"
     transform="translate(0,-276)">
    <path
       style="fill:#333333;fill-opacity:1;stroke-width:7.5592;paint-order:stroke markers fill"
       d="M 24,282 A 18,18 0 0 0 6,300 18,18 0 0 0 24,318 18,18 0 0 0 42,300 18,18 0 0 0 24,282 Z m -0.292968,6 c -0.19558,0.1077 -0.384988,0.18901 -0.566408,0.31641 0.731312,-0.1728 0.695924,0.0758 1.441408,-0.0234 -0.260778,0.0396 -0.578364,0.14009 -0.527344,0.17969 0.836192,0.0964 0.963378,-0.25794 1.734374,0 l -0.05078,-0.22657 c 1.077128,0.3855 1.299844,0.31958 2.464842,0.9375 0.408176,0.0226 0.451312,-0.24942 1.066408,0 0.11054,0.19274 -0.02138,0.22617 0.73828,0.67969 0.08504,-0.034 -0.1556,-0.25187 -0.339844,-0.42187 1.524984,0.81634 3.186856,2.5585 3.691408,4.41796 -0.473372,-0.8702 -0.04654,0.443 -0.210938,0.375 A 10.133494,10.133494 0 0 1 33.640624,296 c -0.141728,-0.49886 -0.447574,-1.6999 -0.980468,-2.47656 -0.04535,0.50172 -0.694162,-0.34483 -0.339844,0.75781 0.269278,0.39124 0.05508,-0.39761 0.38672,0.29687 0.0056,0.33164 0.1305,0.65901 0.20703,1.08985 -0.11622,-0.0198 -0.254804,-0.47506 -0.339844,-0.34766 0.11622,0.54138 0.305206,0.82088 0.378906,0.86328 -0.03968,0.0907 -0.13202,-0.0833 -0.14062,0.28516 0.04536,0.84752 0.237426,0.48774 0.328124,0.52734 -0.09354,0.41668 -0.46549,0.90786 -0.281248,1.625 -0.05386,-0.21828 -0.15502,-0.43761 -0.234376,-0.64453 -0.0737,0.61224 0.13502,0.7339 -0.14844,1.47656 0.204026,-0.66896 0.18102,-1.27242 -0.0118,-0.98046 0.08504,0.94958 -0.750856,1.67747 -0.660156,2.28125 L 31.5625,300.41797 c -0.66045,0.95242 -0.013,0.52329 -0.460938,1.24609 0.1644,-0.28356 -0.09042,-0.11436 0.125,-0.4375 -0.14172,0.008 -0.635244,0.60555 -1.085938,0.95703 -1.77159,1.41728 -3.883144,1.60519 -5.929686,0.83985 -0.07936,0.0652 0.3626,0.41203 0.691406,0.58203 0.7795,0.28612 1.661006,0.30184 2.355468,0.27344 -1.502308,0.62926 -4.361474,-0.63444 -5.296874,-2.3125 0.212592,0.0454 0.936236,1.17908 1.480468,1.36328 -0.320302,-0.25794 -0.56835,-0.58458 -0.800782,-0.92188 a 4.7053428,4.7053428 0 0 0 1.539064,1.17578 c -0.0184,-0.0709 0.02098,-0.11232 0.03126,-0.16016 0.0102,-0.0478 -0.0084,-0.0993 -0.14454,-0.1914 -1.73474,-1.3294 -2.763404,-2.459 -2.40625,-5.07812 0.263612,-0.1984 0.334814,-1.28922 0.941406,-1.67188 0.36849,-0.81634 1.479222,-1.57184 2.664062,-1.58984 1.210352,-0.0652 2.231972,0.64463 2.742188,1.31641 -0.92973,-0.8702 -2.461734,-1.13175 -3.765624,-0.48829 -1.332234,0.60092 -2.117286,2.06755 -2.003906,3.52735 0.0482,-0.0709 0.0906,-0.0256 0.11328,-0.20703 -0.03968,2.84022 3.062184,4.91987 5.29297,3.87109 l 0.02734,0.0625 c 0.907054,-0.2466 0.793228,-0.45403 1.382812,-0.85937 -0.04536,0.0935 -0.397256,0.33984 -0.1875,0.33984 0.28629,-0.0765 1.186716,-0.90785 1.628906,-1.30469 0.20408,-0.43652 -0.10768,-0.23632 0.17578,-0.78906 l 0.347656,-0.16798 c 0.19274,-0.55556 0.404426,-0.87041 0.378906,-1.51953 l -0.203126,0.42578 c 0.29764,-0.90138 0.12938,-1.87904 0.17188,-2.72656 l -0.08594,-0.0234 c -0.07086,-2.13158 -1.91456,-4.39872 -3.558594,-5.16406 -1.411604,-0.65478 -3.586418,-0.7638 -4.589844,-0.27344 0.13606,-0.12184 0.686772,-0.17593 0.519532,-0.26953 -1.573172,0.1559 -1.218266,0.55039 -2.425782,0.85937 -0.328808,0.3204 0.96683,-0.25759 0.269532,0.15625 -0.646276,0.17856 -0.95208,-0.11317 -1.910156,0.87891 0.08504,0.1418 0.611228,-0.40537 0.171874,0.14453 -0.901383,-0.11055 -2.847873,2.05737 -3.261716,2.77735 l 0.214844,0.0391 c -0.354318,0.89004 -0.820457,1.4554 -0.882813,1.98828 -0.09071,1.30956 -0.549001,3.69554 0.08594,4.42968 l -0.0625,0.61329 c 0.08504,0.17574 0.154002,0.35122 0.261719,0.51562 l -0.140624,0.0118 c 0.668952,2.10592 0.718948,0.0383 1.597656,2.22656 -0.127554,-0.0425 -0.255396,-0.0887 -0.445312,-0.34375 -0.01984,0.19558 0.276351,0.77091 0.625,1.21875 l -0.152344,0.17188 c 0.198418,0.35432 0.375668,0.42878 0.511718,0.55078 -0.725643,-0.39684 0.676072,1.30909 0.800782,1.52735 l 0.109374,-0.19922 c -0.01418,0.28346 0.20725,0.64993 0.621093,1.16015 l 0.34375,-0.0118 c 0.14173,0.28346 0.664763,0.7899 0.976563,0.8125 L 20.75,310.04297 c 0.793672,0.24944 0.3882,0.3328 1.363282,0.67578 l -0.19922,-0.34375 c 0.49888,0.428 0.647524,0.80401 1.347656,1.13281 0.972248,0.33738 1.102732,0.20873 2.097658,0.49219 -0.844696,-0.0255 -1.834956,-0.013 -2.503908,-0.25391 -4.557945,-1.23304 -8.728004,-6.57841 -8.421874,-12.08593 -0.0737,-1.11398 0.110027,-2.5102 -0.07422,-2.78516 0.260779,-0.85036 0.561376,-1.88417 1.167969,-3.11719 -0.04535,-0.0794 0.10119,0.24207 0.410156,-0.28515 0.18708,-0.411 0.338951,-0.86488 0.574219,-1.26172 l 0.125,-0.0274 c 0.11905,-0.7058 1.644128,-1.78781 2.097656,-2.33203 l 0.03125,0.20703 c 0.989257,-0.9269 2.754003,-1.54998 3.746093,-1.99218 -0.26078,0.28912 0.585888,-0.0296 1.195314,-0.0664 z"
       id="circle10" />
  </g>
</svg>
