<?xml version="1.0" encoding="UTF-8"?>
<!-- Generator: Adobe Illustrator 24.0.2, SVG Export Plug-In . SVG Version: 6.00 Build 0)  -->
<svg version="1.1" id="Layer_1" xmlns="http://www.w3.org/2000/svg" xmlns:xlink="http://www.w3.org/1999/xlink" x="0px" y="0px" viewBox="0 0 48 48" style="enable-background:new 0 0 48 48;" xml:space="preserve">
<style type="text/css">
	.st0{fill:#202020;}
	.st1{fill:#FFFFFF;}
</style>
<title>Artboard 1</title>
<g>
	<path id="path3" class="st0" d="M39.3,35.5L39.3,35.5c-0.3-0.5-0.5-1-0.5-1.5c-0.1-0.7-0.4-1.3-0.8-1.7l0,0   c-0.1-0.1-0.2-0.2-0.3-0.2l-0.3-0.1c0.6-2,0.5-4.2-0.3-6.2c-0.9-2.1-2.1-4.1-3.6-5.8c-1.3-1.7-2.6-3.3-2.6-5.6   c0-3.6,0.4-10.2-5.9-10.2H24c-7.1,0.6-5.2,8-5.3,10.5c-0.1,1.8-0.7,3.5-1.7,5c-2,2.2-3.5,4.8-4.5,7.6c-0.5,1.4-0.6,2.8-0.4,4.2   l-0.2,0.2c-0.4,0.5-0.7,1-1.1,1.4c-0.4,0.3-0.8,0.5-1.3,0.6c-0.6,0.2-1.1,0.6-1.5,1.1l0,0c-0.2,0.3-0.2,0.7-0.2,1   c0,0.3,0,0.6,0.1,0.9c0.1,0.5,0.2,1.1,0.1,1.6c-0.4,0.8-0.5,1.7-0.2,2.5c0.3,0.6,0.9,0.9,1.6,1c1.3,0.3,3.2,0.2,4.6,1l0.1-0.2   l-0.1,0.2c1.3,0.8,2.9,1.1,4.4,0.8c0.9-0.2,1.6-0.8,2-1.6c1,0,2-0.4,3.8-0.5c1.2-0.1,2.6,0.4,4.3,0.3c0,0.2,0.1,0.4,0.2,0.5l0,0   c0.6,1.2,1.8,1.9,3.1,1.7c1.5-0.2,2.8-1,3.8-2.2l-0.2-0.2l0.2,0.2c1-1.3,2.8-1.8,4-2.5c0.6-0.3,1-0.8,1.1-1.4   C40.4,37,40,36.1,39.3,35.5z"/>
	<path id="path5" class="st1" d="M40,37.8c0,0.4-0.3,0.7-0.8,1c-1,0.6-2.9,1.2-4.1,2.6c-0.8,1.1-2.1,1.8-3.4,2   C30.6,43.6,29.5,43,29,42l0,0c-0.3-0.9-0.3-1.9,0.1-2.8c0.3-1,0.6-2.1,0.8-3.2l0,0c0-1,0.1-2,0.3-3c0.1-0.7,0.5-1.3,1.1-1.6l0.1,0   c0,1,0.5,1.9,1.5,2.3c1.1,0.1,2.3-0.4,3-1.3h0.3c0.5-0.1,1,0.1,1.4,0.4l0,0c0.4,0.4,0.6,0.9,0.6,1.5c0.1,0.6,0.3,1.2,0.7,1.8l0,0   C39.5,36.4,39.9,37.1,40,37.8z"/>
	<path id="path7" class="st1" d="M20,40.7L20,40.7c0,1.1-0.8,2-1.9,2.2c-1.4,0.2-2.8-0.1-4-0.8l0,0c-1.6-0.9-3.5-0.8-4.8-1   c-0.5,0-0.9-0.3-1.2-0.7C7.9,39.8,8,39,8.4,38.4l0,0c0.1-0.6,0.1-1.3,0-1.9c-0.1-0.5-0.1-1,0.1-1.5l0,0c0.2-0.4,0.7-0.8,1.1-0.9   c0.6-0.1,1.1-0.4,1.5-0.8l0,0c0.4-0.4,0.7-1,1.1-1.4c0.3-0.3,0.7-0.5,1.1-0.6h0.3c0.7,0.2,1.3,0.6,1.7,1.2l1.5,2.8l0,0   c0.6,1,1.3,1.9,2,2.7C19.5,38.8,19.9,39.7,20,40.7z"/>
	<path id="path9" class="st1" d="M27.6,14.8c-0.2-0.3-0.5-0.5-0.8-0.6l0,0c-0.6-0.2-1.2-0.4-1.8-0.7c-0.6-0.4-1.3-0.7-2-0.7   c-0.3,0-0.5,0.1-0.8,0.1c-0.5,0.2-1,0.6-1.4,1l0,0l-0.3,0.2l-0.8,0.6c-0.3,0.2-0.5,0.6-0.3,1c0.2,0.5,0.6,1,1.1,1.2l0,0   c0.4,0.2,0.7,0.5,1,0.8c0.2,0.1,0.3,0.2,0.5,0.3c0.2,0.1,0.5,0.2,0.7,0.2c0.6,0,1.2-0.1,1.7-0.4c0.4-0.3,0.8-0.6,1.3-0.8l0,0   c0.8-0.2,1.4-0.7,1.8-1.4C27.7,15.3,27.7,15,27.6,14.8z"/>
	<path id="path11" class="st0" d="M25.3,16.2c-0.7,0.5-1.6,0.8-2.5,0.8c-0.8,0-1.5-0.3-2.1-0.8c-0.2-0.2-0.4-0.4-0.6-0.5   c-0.3-0.2-0.2-0.5-0.1-0.5c0.1,0,0.2,0.3,0.3,0.4c0.1,0.1,0.4,0.3,0.6,0.5c0.6,0.5,1.3,0.7,2,0.8c0.8-0.1,1.6-0.4,2.3-0.8   c0.3-0.2,0.7-0.5,1.1-0.8c0.3-0.2,0.2-0.4,0.5-0.4c0.2,0,0.1,0.2-0.2,0.5C26.1,15.7,25.7,15.9,25.3,16.2z"/>
	<path id="path13" class="st1" d="M36.4,31.7h-0.3c0.2-0.8-0.3-1.4-1.8-2c-1.5-0.6-2.7-0.6-3,0.8v0.2c-0.1,0-0.2,0.1-0.3,0.1   c-0.7,0.4-1.2,1.2-1.3,2c-0.2,1-0.3,2.1-0.3,3.2l0,0c-0.1,0.8-0.3,1.5-0.5,2.3c-2.5,1.8-6,2.6-8.9,0.5c-0.2-0.3-0.4-0.6-0.7-0.9   l-0.5-0.6c0.3,0,0.5,0,0.8-0.1c0.2-0.1,0.4-0.3,0.5-0.6c0.1-0.7-0.1-1.5-0.6-2c-0.8-1-1.9-1.9-3-2.5l0,0c-0.9-0.5-1.6-1.3-1.9-2.3   c-0.2-0.9-0.2-1.8,0-2.7c0.5-1.6,1.2-3.2,2.1-4.6c0.2-0.1,0.1,0.2-0.7,1.6c-0.7,1.4-1.9,4.1-0.2,6.4c0.1-1.7,0.4-3.3,1.1-4.8   c0.9-2.1,2.9-5.8,3.1-8.8c0.1,0.1,0.3,0.2,0.5,0.3l0,0c0.4,0.2,0.7,0.5,1,0.8c0.4,0.3,0.9,0.5,1.4,0.6H23c0.6,0,1.2-0.1,1.7-0.4   c0.4-0.3,0.8-0.5,1.2-0.7l0,0c0.7-0.2,1.3-0.6,1.7-1.2c0.7,2.6,1.7,5.1,2.9,7.5c0.9,1.6,1.5,3.3,1.8,5c0.3,0,0.6,0,0.8,0.1   c1.1-2.8-0.9-5.8-1.8-6.6c-0.4-0.3-0.4-0.5-0.2-0.5c1.3,1.2,2.3,2.8,2.7,4.6c0.2,0.9,0.2,1.9,0,2.8l0.3,0.1   C36.1,30,36.7,30.7,36.4,31.7z"/>
	<path id="path15" class="st1" d="M27.7,12.1c0,0.4-0.1,0.9-0.2,1.3c-0.1,0.2-0.2,0.4-0.4,0.6l-0.1-0.1l-0.5-0.2l-0.4-0.1   c0.1-0.1,0.2-0.2,0.3-0.3c0.1-0.2,0.1-0.5,0.1-0.7l0,0c0-0.2,0-0.5-0.1-0.7c-0.1-0.2-0.2-0.4-0.3-0.5c-0.1-0.1-0.3-0.2-0.4-0.2l0,0   c-0.2,0-0.3,0.1-0.4,0.2c-0.2,0.1-0.3,0.3-0.3,0.5c-0.1,0.2-0.1,0.5-0.1,0.7l0,0c0,0.1,0,0.3,0,0.4c-0.3-0.2-0.7-0.3-1-0.3   c0-0.1,0-0.3,0-0.4l0,0c0-0.5,0.1-0.9,0.3-1.3c0.1-0.4,0.4-0.7,0.7-0.9c0.3-0.2,0.6-0.4,1-0.3l0,0c0.4,0,0.7,0.1,1,0.3   c0.3,0.2,0.6,0.6,0.7,0.9C27.6,11.2,27.7,11.6,27.7,12.1L27.7,12.1L27.7,12.1z"/>
	<path id="path17" class="st1" d="M22.3,12.5h-0.1c-0.2,0.1-0.5,0.2-0.7,0.3c0-0.1,0-0.3,0-0.4l0,0c0-0.2-0.1-0.4-0.1-0.5   c0-0.2-0.1-0.3-0.3-0.4c-0.1-0.1-0.2-0.1-0.3-0.1l0,0c-0.1,0-0.2,0.1-0.3,0.2c-0.1,0.1-0.2,0.3-0.2,0.4c0,0.2,0,0.4,0,0.6l0,0   c0,0.2,0.1,0.4,0.1,0.6c0.1,0.1,0.2,0.3,0.3,0.4l0,0l-0.3,0.2l-0.2,0.2c-0.2-0.2-0.4-0.4-0.5-0.7c-0.1-0.3-0.2-0.7-0.3-1.1l0,0   c0-0.4,0-0.8,0.1-1.1c0.1-0.3,0.2-0.6,0.5-0.8c0.2-0.2,0.4-0.3,0.7-0.3h0.1c0.2,0,0.5,0.1,0.7,0.3c0.3,0.2,0.5,0.6,0.6,0.9   c0.2,0.3,0.2,0.7,0.2,1.1l0,0C22.3,12.3,22.3,12.4,22.3,12.5L22.3,12.5z"/>
	<path id="path28396-7" class="st0" d="M23.5,13.5c0,0.1,0.2,0.1,0.3,0.1c0.1,0,0.1,0.1,0.2,0.1c0.1,0,0.2,0,0.2-0.1   s-0.1-0.2-0.2-0.2C23.8,13.4,23.6,13.4,23.5,13.5C23.5,13.4,23.5,13.5,23.5,13.5L23.5,13.5z"/>
	<path id="path5461" class="st0" d="M22.5,13.5c0,0.1-0.2,0.1-0.3,0.1c-0.1,0-0.1,0.1-0.2,0.1c-0.1,0-0.2,0-0.2-0.1s0.1-0.2,0.2-0.2   C22.2,13.4,22.3,13.4,22.5,13.5C22.5,13.4,22.5,13.5,22.5,13.5L22.5,13.5z"/>
</g>
</svg>