<?xml version="1.0" encoding="UTF-8" standalone="no"?>
<svg
   width="16"
   height="16"
   version="1.1"
   viewBox="0 0 16 16"
   id="svg4"
   sodipodi:docname="combobox-arrow-symbolic.svg"
   inkscape:version="1.1.1 (3bf5ae0d25, 2021-09-20, custom)"
   xmlns:inkscape="http://www.inkscape.org/namespaces/inkscape"
   xmlns:sodipodi="http://sodipodi.sourceforge.net/DTD/sodipodi-0.dtd"
   xmlns="http://www.w3.org/2000/svg"
   xmlns:svg="http://www.w3.org/2000/svg">
  <defs
     id="defs8" />
  <sodipodi:namedview
     id="namedview6"
     pagecolor="#ffffff"
     bordercolor="#666666"
     borderopacity="1.0"
     inkscape:pageshadow="2"
     inkscape:pageopacity="0.0"
     inkscape:pagecheckerboard="0"
     showgrid="false"
     inkscape:zoom="10.547676"
     inkscape:cx="3.0338437"
     inkscape:cy="6.1150911"
     inkscape:window-width="1494"
     inkscape:window-height="814"
     inkscape:window-x="112"
     inkscape:window-y="118"
     inkscape:window-maximized="0"
     inkscape:current-layer="svg4">
    <inkscape:grid
       type="xygrid"
       id="grid825" />
  </sodipodi:namedview>
  <path
     d="M 8,3 C 7.74868,3.00344 7.55649,3.08606 7.34952,3.27539 L 4.71436,5.79518 C 4.56653,5.93287 4.5,6.08778 4.5,6.28399 4.5,6.67642 4.84372,7 5.25766,7 5.46832,7 5.6642,6.92083 5.82313,6.76592 L 7.99261,4.65577 10.1732,6.76592 C 10.3321,6.91738 10.528,7 10.7423,7 11.1563,7 11.5,6.67642 11.5,6.28399 11.5,6.09122 11.4298,5.93632 11.2856,5.79518 L 8.6468,3.27539 C 8.4398,3.08262 8.2439,3 8,3 Z"
     id="path906" />
  <path
     d="m 8,12.999999 c -0.25132,-0.0034 -0.44351,-0.0861 -0.65048,-0.2754 L 4.71436,10.2048 C 4.56653,10.0671 4.5,9.9122 4.5,9.716 4.5,9.3236 4.84372,9 5.25766,9 5.46832,9 5.6642,9.0792 5.82313,9.2341 L 7.99261,11.3442 10.1732,9.2341 C 10.3321,9.0826 10.528,9 10.7423,9 11.1563,9 11.5,9.3236 11.5,9.716 c 0,0.1928 -0.0702,0.3477 -0.2144,0.4888 l -2.6388,2.519799 c -0.207,0.1928 -0.4029,0.2754 -0.6468,0.2754 z"
     id="path908" />
</svg>
