<?xml version="1.0" encoding="UTF-8" standalone="no"?>
<svg
   width="14"
   height="14"
   version="1.1"
   viewBox="0 0 14 14"
   id="svg4"
   sodipodi:docname="window-close-symbolic.svg"
   inkscape:version="1.1.1 (3bf5ae0d25, 2021-09-20, custom)"
   xmlns:inkscape="http://www.inkscape.org/namespaces/inkscape"
   xmlns:sodipodi="http://sodipodi.sourceforge.net/DTD/sodipodi-0.dtd"
   xmlns="http://www.w3.org/2000/svg"
   xmlns:svg="http://www.w3.org/2000/svg">
  <defs
     id="defs8" />
  <sodipodi:namedview
     id="namedview6"
     pagecolor="#ffffff"
     bordercolor="#666666"
     borderopacity="1.0"
     inkscape:pageshadow="2"
     inkscape:pageopacity="0.0"
     inkscape:pagecheckerboard="0"
     showgrid="false"
     inkscape:zoom="21.095352"
     inkscape:cx="2.6072094"
     inkscape:cy="3.436776"
     inkscape:window-width="1494"
     inkscape:window-height="814"
     inkscape:window-x="257"
     inkscape:window-y="354"
     inkscape:window-maximized="0"
     inkscape:current-layer="svg4">
    <inkscape:grid
       type="xygrid"
       id="grid825" />
  </sodipodi:namedview>
  <path
     id="path1941"
     d="m 4.1715732,4.1716 c -0.3917372,0.3917 -0.3917372,1.0224 0,1.4142 L 5.5857863,7 4.1715732,8.4142 c -0.3917372,0.3918 -0.3917372,1.0225 0,1.4142 0.3917371,0.3918 1.0224761,0.3918 1.4142131,0 l 1.414214,-1.4142 1.414214,1.4142 c 0.391737,0.3918 1.022476,0.3918 1.414213,0 0.3917367,-0.3917 0.3917367,-1.0224 0,-1.4142 L 8.4142143,7 9.8284273,5.5858 c 0.3917367,-0.3918 0.3917367,-1.0225 0,-1.4142 -0.391737,-0.3918 -1.022476,-0.3918 -1.414213,0 L 7.0000003,5.5858 5.5857863,4.1716 c -0.391737,-0.3918 -1.022476,-0.3918 -1.4142131,0 z" />
</svg>
