<?xml version="1.0" encoding="UTF-8" standalone="no"?>
<svg
   width="160"
   height="236"
   version="1.1"
   id="svg244"
   sodipodi:docname="assets-ight.svg"
   inkscape:version="1.1.2 (0a00cf5339, 2022-02-04)"
   xmlns:inkscape="http://www.inkscape.org/namespaces/inkscape"
   xmlns:sodipodi="http://sodipodi.sourceforge.net/DTD/sodipodi-0.dtd"
   xmlns:xlink="http://www.w3.org/1999/xlink"
   xmlns="http://www.w3.org/2000/svg"
   xmlns:svg="http://www.w3.org/2000/svg">
  <sodipodi:namedview
     id="namedview246"
     pagecolor="#ffffff"
     bordercolor="#666666"
     borderopacity="1.0"
     inkscape:pageshadow="2"
     inkscape:pageopacity="0.0"
     inkscape:pagecheckerboard="0"
     showgrid="false"
     inkscape:zoom="2.220339"
     inkscape:cx="49.091603"
     inkscape:cy="46.839694"
     inkscape:window-width="1440"
     inkscape:window-height="746"
     inkscape:window-x="0"
     inkscape:window-y="32"
     inkscape:window-maximized="1"
     inkscape:current-layer="svg244" />
  <defs
     id="defs63">
    <linearGradient
       id="bg_color"
       inkscape:swatch="solid">
      <stop
         stop-color="#f5f6f7"
         offset="0"
         id="stop2" />
    </linearGradient>
    <linearGradient
       id="selected_bg_color"
       inkscape:swatch="solid">
      <stop
         stop-color="#0860F2"
         offset="0"
         id="stop5" />
    </linearGradient>
    <linearGradient
       id="selected_fg_color"
       inkscape:swatch="solid">
      <stop
         stop-color="#ffffff"
         offset="0"
         id="stop8" />
    </linearGradient>
    <clipPath
       id="clipPath4470">
      <rect
         transform="scale(-1,1)"
         x="-52"
         y="-280.64"
         width="21"
         height="26"
         fill="#ff1111"
         opacity=".558"
         id="rect11" />
    </clipPath>
    <clipPath
       id="clipPath4470-7">
      <rect
         transform="scale(-1,1)"
         x="-52"
         y="-280.64"
         width="21"
         height="26"
         fill="#ff1111"
         opacity=".558"
         id="rect14" />
    </clipPath>
    <clipPath
       id="clipPath4470-6">
      <rect
         transform="scale(-1,1)"
         x="-52"
         y="-280.64"
         width="21"
         height="26"
         fill="#ff1111"
         opacity=".558"
         id="rect17" />
    </clipPath>
    <clipPath
       id="clipPath4470-7-0">
      <rect
         transform="scale(-1,1)"
         x="-52"
         y="-280.64"
         width="21"
         height="26"
         fill="#ff1111"
         opacity=".558"
         id="rect20" />
    </clipPath>
    <linearGradient
       id="linearGradient5017"
       x1="44"
       x2="44"
       y1="-279.64"
       y2="-255.64"
       gradientTransform="matrix(.96308 0 0 .95987 1.6244 -10.74)"
       gradientUnits="userSpaceOnUse"
       xlink:href="#selected_bg_color" />
    <linearGradient
       id="linearGradient5023"
       x1="43.5"
       x2="43.5"
       y1="-279.64"
       y2="-255.64"
       gradientTransform="translate(.5)"
       gradientUnits="userSpaceOnUse"
       xlink:href="#selected_bg_color" />
    <linearGradient
       id="linearGradient5043"
       x1="220"
       x2="220"
       y1="281"
       y2="286"
       gradientUnits="userSpaceOnUse"
       xlink:href="#selected_bg_color" />
    <linearGradient
       id="linearGradient5049"
       x1="-54.638"
       x2="-54.638"
       y1="-235"
       y2="-227"
       gradientTransform="translate(180.9 164.2)"
       gradientUnits="userSpaceOnUse"
       xlink:href="#selected_bg_color" />
    <linearGradient
       id="linearGradient5051"
       x1="231"
       x2="231"
       y1="-82.638"
       y2="-74.638"
       gradientTransform="translate(-164.2 180.9)"
       gradientUnits="userSpaceOnUse"
       xlink:href="#selected_bg_color" />
    <linearGradient
       id="linearGradient5053"
       x1="240.5"
       x2="240.5"
       y1="-154.64"
       y2="-129.64"
       gradientUnits="userSpaceOnUse"
       xlink:href="#selected_bg_color" />
    <linearGradient
       id="linearGradient5055"
       x1="66.303"
       x2="66.303"
       y1="126.56"
       y2="155.48"
       gradientUnits="userSpaceOnUse"
       xlink:href="#selected_bg_color" />
    <linearGradient
       id="linearGradient5059"
       x1="25"
       x2="25"
       y1="31.362"
       y2="45.362"
       gradientUnits="userSpaceOnUse"
       xlink:href="#selected_bg_color" />
    <linearGradient
       id="linearGradient5071"
       x1="67.353"
       x2="67.353"
       y1="128.63"
       y2="155.48"
       gradientUnits="userSpaceOnUse"
       xlink:href="#selected_bg_color" />
    <linearGradient
       id="linearGradient5075"
       x1="25.121"
       x2="25.121"
       y1="32.448"
       y2="45.448"
       gradientUnits="userSpaceOnUse"
       xlink:href="#selected_bg_color" />
    <linearGradient
       id="linearGradient5021"
       x1="124"
       x2="124"
       y1="6.3622"
       y2="10.362"
       gradientTransform="matrix(1.5,0,0,1.5,-62,-4.1811)"
       gradientUnits="userSpaceOnUse"
       xlink:href="#selected_fg_color" />
    <linearGradient
       id="linearGradient5028"
       x1="10.5"
       x2="10.5"
       y1="1033.4"
       y2="1035.4"
       gradientUnits="userSpaceOnUse"
       xlink:href="#selected_fg_color" />
    <linearGradient
       id="linearGradient5030"
       x1="12"
       x2="12"
       y1="1027.4"
       y2="1035.4"
       gradientUnits="userSpaceOnUse"
       xlink:href="#selected_fg_color" />
    <linearGradient
       id="linearGradient5040"
       x1="124.5"
       x2="124.5"
       y1="6.3622"
       y2="11.362"
       gradientUnits="userSpaceOnUse"
       xlink:href="#selected_fg_color" />
    <linearGradient
       id="linearGradient5042"
       x1="10.853"
       x2="10.853"
       y1="1033.7"
       y2="1035.7"
       gradientUnits="userSpaceOnUse"
       xlink:href="#selected_fg_color" />
    <linearGradient
       id="linearGradient5044"
       x1="12.353"
       x2="12.353"
       y1="1027.7"
       y2="1035.7"
       gradientUnits="userSpaceOnUse"
       xlink:href="#selected_fg_color" />
    <linearGradient
       id="linearGradient5121"
       x1="51.5"
       x2="51.5"
       y1="-278.64"
       y2="-256.64"
       gradientTransform="matrix(2,0,0,1,-52,0)"
       gradientUnits="userSpaceOnUse"
       xlink:href="#selected_bg_color" />
    <linearGradient
       id="linearGradient5121-2"
       x1="51.5"
       x2="51.5"
       y1="-278.64"
       y2="-256.64"
       gradientTransform="matrix(2,0,0,1,-52,-5.2172e-6)"
       gradientUnits="userSpaceOnUse"
       xlink:href="#selected_bg_color" />
    <linearGradient
       id="linearGradient5121-9"
       x1="51.5"
       x2="51.5"
       y1="-278.64"
       y2="-256.64"
       gradientTransform="matrix(2,0,0,1,-154,-5.2172e-6)"
       gradientUnits="userSpaceOnUse"
       xlink:href="#selected_bg_color" />
    <linearGradient
       id="linearGradient5121-0"
       x1="51.5"
       x2="51.5"
       y1="-278.64"
       y2="-256.64"
       gradientTransform="matrix(2,0,0,1,-154,-5.2344e-6)"
       gradientUnits="userSpaceOnUse"
       xlink:href="#selected_bg_color" />
    <clipPath
       id="clipPath4466-3-1">
      <rect
         transform="scale(-1,1)"
         x="-18"
         y="-280.64"
         width="21"
         height="26"
         fill="#ff1111"
         opacity=".558"
         id="rect43" />
    </clipPath>
    <linearGradient
       id="linearGradient5171"
       x1="9.5"
       x2="9.5"
       y1="-279.64"
       y2="-255.64"
       gradientTransform="translate(.5)"
       gradientUnits="userSpaceOnUse"
       xlink:href="#selected_bg_color" />
    <linearGradient
       id="linearGradient6618"
       x1="17.5"
       x2="17.5"
       y1="-279.14"
       y2="-256.14"
       gradientTransform="matrix(2,0,0,1,-18,0)"
       gradientUnits="userSpaceOnUse"
       xlink:href="#selected_bg_color" />
    <clipPath
       id="clipPath4466-3-1-0">
      <rect
         transform="scale(-1,1)"
         x="-18"
         y="-280.64"
         width="21"
         height="26"
         fill="#ff1111"
         opacity=".558"
         id="rect48" />
    </clipPath>
    <linearGradient
       id="linearGradient5171-1"
       x1="9.5"
       x2="9.5"
       y1="-279.64"
       y2="-255.64"
       gradientTransform="translate(1)"
       gradientUnits="userSpaceOnUse"
       xlink:href="#selected_bg_color" />
    <linearGradient
       id="linearGradient1759"
       x1="31"
       x2="57"
       y1="-267.64"
       y2="-267.64"
       gradientUnits="userSpaceOnUse"
       xlink:href="#selected_bg_color" />
    <linearGradient
       id="linearGradient1812"
       x1="30"
       x2="58"
       y1="-267.64"
       y2="-267.64"
       gradientUnits="userSpaceOnUse"
       xlink:href="#bg_color" />
    <linearGradient
       id="linearGradient1816"
       x1="30"
       x2="58"
       y1="-267.64"
       y2="-267.64"
       gradientTransform="matrix(.92857 0 0 .92308 3.1429 -20.588)"
       gradientUnits="userSpaceOnUse"
       xlink:href="#bg_color" />
    <linearGradient
       id="base_color"
       x1="31"
       x2="57"
       y1="-267.14"
       y2="-267.14"
       gradientTransform="matrix(1 0 0 .96 0 -11.186)"
       gradientUnits="userSpaceOnUse">
      <stop
         stop-color="#ffffff"
         offset="0"
         id="stop55"
         style="stop-color:#fbfcfd;stop-opacity:1" />
    </linearGradient>
    <linearGradient
       id="background_color"
       x1="31"
       x2="57"
       y1="-267.64"
       y2="-267.64"
       gradientUnits="userSpaceOnUse">
      <stop
         stop-color="#e5e5e5"
         offset="0"
         id="stop58"
         style="stop-color:#f5f5f5;stop-opacity:1" />
    </linearGradient>
    <linearGradient
       id="linearGradient1595"
       x1="263"
       x2="263"
       y1="-152.64"
       y2="-137.64"
       gradientUnits="userSpaceOnUse"
       xlink:href="#selected_bg_color" />
    <linearGradient
       id="linearGradient1950"
       x1="245"
       x2="270"
       y1="-145.14"
       y2="-145.14"
       gradientUnits="userSpaceOnUse"
       xlink:href="#selected_bg_color" />
    <linearGradient
       inkscape:collect="always"
       xlink:href="#base_color"
       id="linearGradient1213"
       x1="32"
       y1="-267.64001"
       x2="56"
       y2="-267.64001"
       gradientUnits="userSpaceOnUse" />
    <linearGradient
       inkscape:collect="always"
       xlink:href="#base_color"
       id="linearGradient1215"
       x1="31.5"
       y1="-267.64001"
       x2="56.5"
       y2="-267.64001"
       gradientUnits="userSpaceOnUse" />
    <linearGradient
       inkscape:collect="always"
       xlink:href="#base_color"
       id="linearGradient1223"
       x1="32"
       y1="-267.64001"
       x2="56"
       y2="-267.64001"
       gradientUnits="userSpaceOnUse" />
    <linearGradient
       inkscape:collect="always"
       xlink:href="#base_color"
       id="linearGradient1231"
       x1="32"
       y1="-267.64001"
       x2="55"
       y2="-267.64001"
       gradientUnits="userSpaceOnUse" />
    <linearGradient
       inkscape:collect="always"
       xlink:href="#base_color"
       id="linearGradient1239"
       x1="-55"
       y1="-267.64001"
       x2="-32"
       y2="-267.64001"
       gradientUnits="userSpaceOnUse" />
    <linearGradient
       inkscape:collect="always"
       xlink:href="#base_color"
       id="linearGradient1247"
       x1="32"
       y1="-267.64001"
       x2="55"
       y2="-267.64001"
       gradientUnits="userSpaceOnUse" />
    <linearGradient
       inkscape:collect="always"
       xlink:href="#base_color"
       id="linearGradient1249"
       x1="-55"
       y1="-267.64001"
       x2="-32"
       y2="-267.64001"
       gradientUnits="userSpaceOnUse" />
  </defs>
  <rect
     transform="scale(1,-1)"
     y="-236"
     width="160"
     height="236"
     rx="0"
     ry="0"
     color="#000000"
     fill="#f5f6f7"
     stroke-width=".42312"
     id="rect65"
     style="fill:#f5f5f5;fill-opacity:1" />
  <g
     id="menu-checkbox-checked"
     transform="translate(21.785 18.017)">
    <g
       transform="translate(19)"
       id="g71">
      <g
         transform="translate(0,-30)"
         id="g69">
        <rect
           x="18.621"
           y="32.448"
           width="13"
           height="13"
           rx="3.001"
           ry="3.001"
           color="#000000"
           fill="url(#linearGradient5075)"
           stroke-width="0"
           id="rect67" />
      </g>
    </g>
    <g
       transform="translate(36,-1036)"
       id="g85">
      <g
         transform="matrix(.70711 .70711 -.70711 .70711 727.94 295.31)"
         id="g83">
        <g
           transform="translate(12.374,11.531)"
           id="g81">
          <g
             transform="translate(-3,-5)"
             id="g77">
            <rect
               x="8.3535"
               y="1033.7"
               width="5"
               height="2"
               rx=".66666"
               ry=".66666"
               fill="url(#linearGradient5042)"
               id="rect73" />
            <rect
               x="11.353"
               y="1027.7"
               width="2"
               height="8"
               ry="0"
               fill="url(#linearGradient5044)"
               id="rect75" />
          </g>
          <rect
             transform="translate(0,1036.4)"
             x="5"
             y="-8"
             width="3"
             height="1"
             fill-opacity="0"
             id="rect79" />
        </g>
      </g>
    </g>
  </g>
  <g
     id="menu-radio-checked"
     transform="translate(-58.595 33.107)">
    <g
       transform="translate(19.004)"
       id="g94">
      <g
         transform="matrix(.93617 0 0 .93566 -96.783 -244.76)"
         id="g92">
        <g
           transform="matrix(.50892 0 0 .5174 181.79 197.56)"
           id="g90">
          <rect
             x="53.71"
             y="128.63"
             width="27.286"
             height="26.853"
             rx="13.643"
             ry="13.427"
             color="#000000"
             fill="url(#linearGradient5071)"
             stroke-width="0"
             id="rect88" />
        </g>
      </g>
    </g>
    <rect
       x="122"
       y="6.3622"
       width="5"
       height="5"
       rx="2.5"
       ry="2.5"
       color="#000000"
       fill="url(#linearGradient5040)"
       id="rect96" />
  </g>
  <g
     id="checkbox-checked"
     transform="translate(44.904 18.107)">
    <g
       transform="translate(19)"
       id="g105">
      <g
         transform="translate(0,-30)"
         id="g103">
        <rect
           x="17"
           y="30.362"
           width="16"
           height="16"
           color="#000000"
           fill="none"
           id="rect99" />
        <rect
           x="18"
           y="31.362"
           width="14"
           height="14"
           rx="3"
           ry="3"
           color="#000000"
           fill="url(#linearGradient5059)"
           stroke-width="0"
           id="rect101" />
      </g>
    </g>
    <g
       transform="translate(36,-1036)"
       id="g119">
      <g
         transform="matrix(.70711 .70711 -.70711 .70711 727.94 295.31)"
         id="g117">
        <g
           transform="translate(12.374,11.531)"
           id="g115">
          <g
             transform="translate(-3,-5)"
             id="g111">
            <rect
               x="8"
               y="1033.4"
               width="5"
               height="2"
               rx=".66666"
               ry=".66666"
               fill="url(#linearGradient5028)"
               id="rect107" />
            <rect
               x="11"
               y="1027.4"
               width="2"
               height="8"
               ry="0"
               fill="url(#linearGradient5030)"
               id="rect109" />
          </g>
          <rect
             transform="translate(0,1036.4)"
             x="5"
             y="-8"
             width="3"
             height="1"
             fill-opacity="0"
             id="rect113" />
        </g>
      </g>
    </g>
  </g>
  <g
     id="radio-checked"
     transform="translate(-35.096 34.107)">
    <g
       transform="translate(19.004)"
       id="g130">
      <g
         transform="matrix(.93617 0 0 .93566 -96.783 -244.76)"
         id="g128">
        <rect
           x="206.99"
           y="261.98"
           width="17.091"
           height="17.1"
           color="#000000"
           fill="none"
           id="rect122" />
        <g
           transform="matrix(.50892 0 0 .5174 181.79 197.56)"
           id="g126">
          <rect
             x="51.611"
             y="126.56"
             width="29.385"
             height="28.919"
             rx="14.692"
             ry="14.46"
             color="#000000"
             fill="url(#linearGradient5055)"
             stroke-width="0"
             id="rect124" />
        </g>
      </g>
    </g>
    <rect
       x="121"
       y="5.3622"
       width="6"
       height="6"
       rx="2.9984"
       ry="3"
       color="#000000"
       fill="url(#linearGradient5021)"
       stroke-width="1.5"
       id="rect132" />
  </g>
  <g
     id="entry-active-bg"
     transform="translate(-14.132 325.53)">
    <rect
       x="31"
       y="-279.64"
       width="26"
       height="24"
       fill="url(#linearGradient1816)"
       id="rect135" />
    <rect
       x="32"
       y="-278.64"
       width="24"
       height="22"
       rx="2.5"
       ry="2.5"
       fill="#ffffff"
       stroke="#fefefe"
       stroke-opacity=".058824"
       id="rect137"
       style="fill-opacity:1.0;fill:url(#linearGradient1215)" />
    <rect
       x="31.961"
       y="-278.68"
       width="24.077"
       height="22.077"
       rx="4.3339"
       ry="4.3194"
       fill="none"
       stroke="url(#linearGradient5017)"
       stroke-width="1.923"
       id="rect139" />
  </g>
  <g
     id="entry-active-notebook"
     transform="translate(-14.132 357.53)">
    <rect
       x="31"
       y="-279.64"
       width="26"
       height="24"
       rx="0"
       ry="0"
       fill="url(#linearGradient1826)"
       id="rect142"
       style="fill:url(#base_color)" />
    <rect
       x="32"
       y="-278.64"
       width="24"
       height="22"
       rx="4"
       ry="4"
       fill="#ffffff"
       id="rect144"
       style="fill-opacity:1.0;fill:url(#linearGradient1213)" />
    <rect
       x="31.961"
       y="-278.68"
       width="24.077"
       height="22.077"
       rx="4.3339"
       ry="4.3194"
       fill="none"
       stroke="url(#linearGradient5017)"
       stroke-width="1.923"
       id="rect146" />
  </g>
  <g
     id="combo-entry-focus"
     transform="translate(-11.679 432.53)"
     clip-path="url(#clipPath4470)">
    <rect
       x="31"
       y="-279.64"
       width="26"
       height="24"
       rx="0"
       ry="0"
       fill="#f5f6f7"
       id="rect149" />
    <rect
       x="32"
       y="-278.64"
       width="23"
       height="22"
       rx="3"
       ry="3"
       fill="#ffffff"
       id="rect151"
       style="fill-opacity:1.0;fill:url(#linearGradient1231)" />
    <rect
       x="32"
       y="-279.14"
       width="24"
       height="23"
       rx="4.5"
       ry="4.5"
       fill="none"
       stroke="url(#linearGradient5023)"
       stroke-width="2"
       id="rect153" />
    <rect
       x="50"
       y="-278.64"
       width="2"
       height="22"
       fill="url(#linearGradient5121)"
       id="rect155" />
  </g>
  <g
     id="combo-entry-focus-notebook"
     transform="translate(-11.679 462.53)"
     clip-path="url(#clipPath4470-7)">
    <rect
       x="32"
       y="-278.64"
       width="23"
       height="22"
       rx="3"
       ry="3"
       fill="#ffffff"
       id="rect158"
       style="fill-opacity:1.0;fill:url(#linearGradient1247)" />
    <rect
       x="32"
       y="-279.14"
       width="24"
       height="23"
       rx="4.5"
       ry="4.5"
       fill="none"
       stroke="url(#linearGradient5023)"
       stroke-width="2"
       id="rect160" />
    <rect
       x="50"
       y="-278.64"
       width="2"
       height="22"
       fill="url(#linearGradient5121-2)"
       id="rect162" />
  </g>
  <g
     id="combo-entry-focus-rtl"
     transform="matrix(-1 0 0 1 102.32 432.53)"
     clip-path="url(#clipPath4470-6)">
    <rect
       transform="scale(-1,1)"
       x="-57"
       y="-279.64"
       width="26"
       height="24"
       rx="0"
       ry="0"
       fill="#f5f6f7"
       id="rect165" />
    <rect
       transform="scale(-1,1)"
       x="-55"
       y="-278.64"
       width="23"
       height="22"
       rx="3"
       ry="3"
       fill="#ffffff"
       id="rect167"
       style="fill-opacity:1.0;fill:url(#linearGradient1239)" />
    <rect
       x="32"
       y="-279.14"
       width="24"
       height="23"
       rx="4.5"
       ry="4.5"
       fill="none"
       stroke="url(#linearGradient5023)"
       stroke-width="2"
       id="rect169" />
    <rect
       transform="scale(-1,1)"
       x="-52"
       y="-278.64"
       width="2"
       height="22"
       fill="url(#linearGradient5121-9)"
       id="rect171" />
  </g>
  <g
     id="combo-entry-focus-notebook-rtl"
     transform="matrix(-1 0 0 1 102.32 462.53)"
     clip-path="url(#clipPath4470-7-0)">
    <rect
       transform="scale(-1,1)"
       x="-55"
       y="-278.64"
       width="23"
       height="22"
       rx="3"
       ry="3"
       fill="#ffffff"
       id="rect174"
       style="fill-opacity:1.0;fill:url(#linearGradient1249)" />
    <rect
       x="32"
       y="-279.14"
       width="24"
       height="23"
       rx="4.5"
       ry="4.5"
       fill="none"
       stroke="url(#linearGradient5023)"
       stroke-width="2"
       id="rect176" />
    <rect
       transform="scale(-1,1)"
       x="-52"
       y="-278.64"
       width="2"
       height="22"
       fill="url(#linearGradient5121-0)"
       id="rect178" />
  </g>
  <g
     id="menuitem"
     transform="translate(-170.68 215.29)">
    <rect
       x="233"
       y="-154.64"
       width="15"
       height="25"
       rx="0"
       ry="0"
       fill="url(#linearGradient5053)"
       id="rect181" />
  </g>
  <rect
     id="progressbar_v"
     x="51.801"
     y="98.256"
     width="30"
     height="8"
     rx="4"
     ry="4"
     fill="url(#linearGradient5051)" />
  <rect
     id="progressbar"
     transform="rotate(90)"
     x="111.26"
     y="-70.801"
     width="30"
     height="8"
     rx="4"
     ry="4"
     fill="url(#linearGradient5049)" />
  <g
     id="menubar_button"
     transform="translate(-152.68 213.29)">
    <path
       id="wsad"
       d="m245-152.64h25v15h-25v-13z"
       fill="url(#linearGradient1595)" />
  </g>
  <g
     id="entry-active-toolbar"
     transform="translate(-14.132 389.53)">
    <rect
       x="31"
       y="-279.64"
       width="26"
       height="24"
       rx="0"
       ry="0"
       fill="url(#linearGradient1846)"
       id="rect188"
       style="fill:url(#background_color)" />
    <rect
       x="32"
       y="-278.64"
       width="24"
       height="22"
       rx="4"
       ry="4"
       fill="#ffffff"
       id="rect190"
       style="fill-opacity:1.0;fill:url(#linearGradient1223)" />
    <rect
       x="31.961"
       y="-278.68"
       width="24.077"
       height="22.077"
       rx="4.3339"
       ry="4.3194"
       fill="none"
       stroke="url(#linearGradient5017)"
       stroke-linecap="round"
       stroke-linejoin="round"
       stroke-width="1.923"
       style="paint-order:markers stroke fill"
       id="rect192" />
  </g>
  <g
     id="trough-horizontal-active"
     transform="translate(-112.97 -188.4)">
    <rect
       x="203"
       y="276"
       width="34"
       height="15"
       rx="0"
       ry="0"
       fill="none"
       id="rect195" />
    <rect
       x="208"
       y="281"
       width="24"
       height="5"
       rx="2.5"
       ry="2.5"
       fill="url(#linearGradient5043)"
       id="rect197" />
  </g>
  <g
     id="trough-vertical-active"
     transform="rotate(90 243.93 146.1)">
    <rect
       x="203"
       y="276"
       width="34"
       height="15"
       rx="0"
       ry="0"
       fill="none"
       id="rect200" />
    <rect
       x="208"
       y="281"
       width="24"
       height="5"
       rx="2.5"
       ry="2.5"
       fill="url(#linearGradient5043)"
       id="rect202" />
  </g>
  <g
     id="entry-border-active-bg"
     transform="translate(-14.132 295.53)">
    <path
       d="m30-280.64v26h28v-26h-27zm2 2h24v22h-24z"
       fill="url(#linearGradient1812)"
       id="path205" />
    <path
       transform="translate(-113,-345.64)"
       d="m144 66v24h26v-24zm3.5 1h19c1.385 0 2.5 1.115 2.5 2.5v17c0 1.385-1.115 2.5-2.5 2.5h-19c-1.385 0-2.5-1.115-2.5-2.5v-17c0-1.385 1.115-2.5 2.5-2.5z"
       fill="#f5f6f7"
       id="path207" />
    <rect
       x="31.5"
       y="-279.14"
       width="25"
       height="23"
       rx="4.5"
       ry="4.5"
       fill="none"
       stroke="url(#linearGradient1759)"
       stroke-width="2"
       id="rect209" />
  </g>
  <g
     id="combo-entry-border-focus"
     transform="translate(84.7 432.53)"
     clip-path="url(#clipPath4466-3-1)">
    <path
       transform="translate(40,-428.64)"
       d="m-43 149v24h26v-24zm3 1h18c1.108 0 2 0.892 2 2v18c0 1.108-0.892 2-2 2h-18c-1.108 0-2-0.892-2-2v-18c0-1.108 0.892-2 2-2z"
       fill="#f5f6f7"
       id="path212" />
    <rect
       x="-2"
       y="-279.14"
       width="24"
       height="23"
       rx="4.5"
       ry="4.5"
       fill="none"
       stroke="url(#linearGradient5171)"
       stroke-width="2"
       id="rect214" />
    <rect
       x="16"
       y="-278.64"
       width="2"
       height="22"
       fill="url(#linearGradient6618)"
       id="rect216" />
  </g>
  <g
     id="combo-entry-border-focus-rtl"
     transform="matrix(-1 0 0 1 99.7 462.53)"
     clip-path="url(#clipPath4466-3-1-0)">
    <path
       transform="translate(40,-428.64)"
       d="m-43 149v24h26v-24zm3 1h18c1.108 0 2 0.892 2 2v18c0 1.108-0.892 2-2 2h-18c-1.108 0-2-0.892-2-2v-18c0-1.108 0.892-2 2-2z"
       fill="#f5f6f7"
       id="path219" />
    <rect
       x="-1.5"
       y="-279.14"
       width="24"
       height="23"
       rx="4.5"
       ry="4.5"
       fill="none"
       stroke="url(#linearGradient5171-1)"
       stroke-width="2"
       id="rect221" />
    <rect
       x="16"
       y="-278.64"
       width="2"
       height="22"
       fill="url(#linearGradient6618)"
       id="rect223" />
  </g>
  <g
     id="pathbar_button_active"
     transform="translate(-187.45 307.16)">
    <g
       transform="translate(57.5)"
       fill="#fafbfc"
       id="g228">
      <rect
         x="245"
         y="-152.64"
         width="25"
         height="15"
         fill="none"
         id="rect226" />
    </g>
    <g
       transform="matrix(1 0 0 .13333 57.5 -119.29)"
       id="g232">
      <rect
         x="245"
         y="-152.64"
         width="25"
         height="15"
         fill="url(#linearGradient1950)"
         id="rect230" />
    </g>
  </g>
  <g
     id="pathbar_button_prelight"
     transform="translate(-187.45 332.16)"
     opacity=".5">
    <g
       transform="translate(57.5)"
       fill="#fafbfc"
       id="g237">
      <rect
         x="245"
         y="-152.64"
         width="25"
         height="15"
         fill="none"
         opacity="1"
         id="rect235" />
    </g>
    <g
       transform="matrix(1 0 0 .13333 57.5 -119.29)"
       id="g241">
      <rect
         x="245"
         y="-152.64"
         width="25"
         height="15"
         fill="url(#linearGradient1950)"
         opacity="1"
         id="rect239" />
    </g>
  </g>
</svg>
