<svg width="16" height="16" version="1.1" xmlns="http://www.w3.org/2000/svg">
 <g transform="matrix(3.7795 0 0 3.7796 -341 -468.55)" fill-rule="evenodd">
  <path d="m92.339 128.2c1.169 0 2.1166-0.94765 2.1166-2.1166 0-1.169-0.94765-2.1166-2.1166-2.1166-1.169 0-2.1167 0.94766-2.1167 2.1166 0 1.169 0.94765 2.1166 2.1167 2.1166" fill="#20a932" stroke-width=".8889"/>
  <path d="m92.339 128.06c1.0959 0 1.9843-0.8885 1.9843-1.9844s-0.88845-1.9844-1.9843-1.9844c-1.096 0-1.9844 0.88842-1.9844 1.9844 0 1.0958 0.88845 1.9844 1.9844 1.9844" fill="#28d33f" stroke-width=".88235"/>
 </g>
 <path d="m8.0254 3.4141v3.5859c0 0.41552 0.58448 1 1 1h3.5859zm-4.6367 4.5859 4.5859 4.5859v-3.5859c0-0.41552-0.58448-1-1-1z" opacity=".5" stroke-width="3.7795"/>
</svg>
