<svg width="16" height="16" version="1.1" xmlns="http://www.w3.org/2000/svg">
 <path d="m8.0005 15.962c4.4182 0 7.9999-3.5817 7.9999-7.9999 0-4.4183-3.5817-8.0001-7.9999-8.0001-4.4183 0-8.0001 3.5817-8.0001 8.0001 0 4.4182 3.5817 7.9999 8.0001 7.9999" fill-rule="evenodd" opacity=".25" stroke-width="1.1429"/>
 <path d="M 8.0001,15 C 11.866,15 15,11.866 15,8.0001 15,4.1341 11.866,1 8.0001,1 4.1341,1 1,4.134 1,8.0001 1,11.866 4.134,15 8.0001,15" fill="#e9524a" fill-rule="evenodd"/>
 <path d="m5.1686 5.1513c-0.39175 0.39171-0.39175 1.0224 0 1.4142l1.4142 1.4142-1.4142 1.4142c-0.39175 0.39178-0.39175 1.0225 0 1.4142 0.39171 0.39182 1.0225 0.39182 1.4142 0l1.4142-1.4142 1.4142 1.4142c0.39171 0.39182 1.0225 0.39182 1.4142 0 0.39174-0.39167 0.39174-1.0224 0-1.4142l-1.4142-1.4142 1.4142-1.4142c0.39174-0.39178 0.39174-1.0225 0-1.4142-0.39171-0.39182-1.0225-0.39182-1.4142 0l-1.4142 1.4142-1.4142-1.4142c-0.39171-0.39182-1.0225-0.39182-1.4142 0z" enable-background="new" opacity=".5" stroke-width="3.7795"/>
 <path d="m8.0001 15c3.8659 0 6.9999-3.134 6.9999-6.9999 0-3.866-3.134-7.0001-6.9999-7.0001-3.866 0-7.0001 3.134-7.0001 7.0001 0 3.8659 3.134 6.9999 7.0001 6.9999" fill-rule="evenodd" opacity=".2"/>
</svg>
