<?xml version="1.0" encoding="UTF-8" standalone="no"?>
<svg
   width="160"
   height="48"
   version="1.1"
   viewBox="0 0 160 48"
   id="svg12304"
   sodipodi:docname="download-button.svg"
   inkscape:version="1.2.1 (9c6d41e410, 2022-07-14)"
   xmlns:inkscape="http://www.inkscape.org/namespaces/inkscape"
   xmlns:sodipodi="http://sodipodi.sourceforge.net/DTD/sodipodi-0.dtd"
   xmlns="http://www.w3.org/2000/svg"
   xmlns:svg="http://www.w3.org/2000/svg">
  <defs
     id="defs12308" />
  <sodipodi:namedview
     id="namedview12306"
     pagecolor="#ffffff"
     bordercolor="#666666"
     borderopacity="1.0"
     inkscape:showpageshadow="2"
     inkscape:pageopacity="0.0"
     inkscape:pagecheckerboard="0"
     inkscape:deskcolor="#d1d1d1"
     showgrid="false"
     inkscape:zoom="4.9166667"
     inkscape:cx="60.610169"
     inkscape:cy="24.101695"
     inkscape:window-width="1920"
     inkscape:window-height="1012"
     inkscape:window-x="0"
     inkscape:window-y="32"
     inkscape:window-maximized="1"
     inkscape:current-layer="svg12304" />
  <g
     fill-opacity="0.97647"
     stroke-linecap="square"
     id="g12302"
     transform="matrix(3.7795573,0,0,3.7795573,-1.7671869e-6,-2.6507804e-7)">
    <rect
       x="6.3578e-07"
       y="9.5367e-08"
       width="42.333"
       height="12.7"
       rx="6.3499999"
       ry="6.3499999"
       fill="#0071e3"
       stroke-width="0.17259"
       id="rect12282" />
    <g
       fill="#ffffff"
       stroke-width="0.94837"
       aria-label="Download"
       id="g12300">
      <path
         d="m 8.8054,8.4074 h 1.1966 c 1.1853,0 1.9925,-0.77329 1.9925,-2.032 0,-1.1853 -0.7112,-1.8852 -1.9078,-1.8852 H 8.8054 Z M 9.27389,8.001 V 4.8966 h 0.75636 c 0.95391,0 1.4845,0.5588 1.4845,1.5522 0,0.98778 -0.52493,1.5522 -1.4563,1.5522 z"
         id="path12284" />
      <path
         d="m 13.863,8.4638 c 0.80151,0 1.3434,-0.58138 1.3434,-1.4506 0,-0.84102 -0.50236,-1.3829 -1.2756,-1.3829 -0.80151,0 -1.3377,0.57573 -1.3377,1.445 0,0.84102 0.49671,1.3885 1.27,1.3885 z m 0.06209,-0.39511 c -0.52493,0 -0.88053,-0.42333 -0.88053,-1.0499 0,-0.60396 0.32173,-0.99342 0.82409,-0.99342 0.52493,0 0.88618,0.42898 0.88618,1.0499 0,0.59831 -0.32738,0.99342 -0.82973,0.99342 z"
         id="path12286" />
      <path
         d="m 16.516,8.4074 h 0.44591 l 0.73942,-2.19 0.78458,2.19 h 0.4572 L 19.84058,5.6868 H 19.38902 L 18.71733,7.8938 17.97791,5.6981 H 17.4812 l -0.72813,2.2296 -0.6604,-2.2408 h -0.51364 z"
         id="path12288" />
      <path
         d="m 22.245,8.4074 h 0.45156 V 6.6238 c 0,-0.60396 -0.40076,-0.99342 -1.0104,-0.99342 -0.31044,0 -0.62089,0.10724 -0.88053,0.29916 l -0.1016,-0.24271 h -0.31609 v 2.7206 h 0.45156 v -2.128 c 0.20884,-0.16369 0.4572,-0.254 0.72249,-0.254 0.44027,0 0.68298,0.24836 0.68298,0.68862 z"
         id="path12290" />
      <path
         d="m 24.203,8.4413 c 0.14676,0 0.32173,-0.033867 0.42898,-0.090311 l -0.1016,-0.31609 c -0.06773,0.028222 -0.12982,0.045155 -0.19756,0.045155 -0.19191,0 -0.29351,-0.12982 -0.29351,-0.33867 v -3.5052 h -0.45156 v 3.5616 c 0,0.38947 0.24271,0.64347 0.61524,0.64347 z"
         id="path12292" />
      <path
         d="m 26.252,8.4638 c 0.80151,0 1.3434,-0.58138 1.3434,-1.4506 0,-0.84102 -0.50236,-1.3829 -1.2756,-1.3829 -0.80151,0 -1.3377,0.57573 -1.3377,1.445 0,0.84102 0.49671,1.3885 1.27,1.3885 z m 0.06209,-0.39511 c -0.52493,0 -0.88053,-0.42333 -0.88053,-1.0499 0,-0.60396 0.32173,-0.99342 0.82409,-0.99342 0.52493,0 0.88618,0.42898 0.88618,1.0499 0,0.59831 -0.32738,0.99342 -0.82973,0.99342 z"
         id="path12294" />
      <path
         d="m 30.04,8.4074 h 0.31609 V 6.6407 c 0,-0.64911 -0.38382,-1.0104 -1.095,-1.0104 -0.3556,0 -0.73942,0.095955 -1.0329,0.25964 l 0.11289,0.33302 c 0.28222,-0.12418 0.56444,-0.18627 0.82973,-0.18627 0.48542,0 0.73378,0.2032 0.73378,0.60396 v 0.18062 c -1.2192,0.011289 -1.7498,0.26529 -1.7498,0.84667 0,0.48542 0.36124,0.79587 0.92004,0.79587 0.34431,0 0.63782,-0.11289 0.85796,-0.31044 z M 29.90453,7.7978 c -0.16933,0.16933 -0.41769,0.27093 -0.69991,0.27093 -0.36124,0 -0.59831,-0.18062 -0.59831,-0.45156 0,-0.33867 0.38382,-0.47978 1.2982,-0.48542 z"
         id="path12296" />
      <path
         d="m 32.286,8.4638 c 0.32738,0 0.60396,-0.11853 0.8128,-0.32173 l 0.11289,0.26529 h 0.31609 v -4.1712 h -0.45156 v 1.6369 C 32.88431,5.71502 32.63595,5.63035 32.34809,5.63035 c -0.76764,0 -1.2756,0.57573 -1.2756,1.4393 0,0.83538 0.48542,1.3942 1.2136,1.3942 z m 0.79022,-0.70556 c -0.1524,0.19756 -0.38382,0.31044 -0.6604,0.31044 -0.54187,0 -0.89182,-0.42333 -0.89182,-1.0499 0,-0.59831 0.31609,-0.99342 0.84102,-0.99342 0.3048,0 0.54751,0.12418 0.7112,0.33867 z"
         id="path12298" />
    </g>
  </g>
</svg>
