<svg width="24" height="24" fill="#000000" version="1.1" viewBox="0 0 24 24" xmlns="http://www.w3.org/2000/svg" xmlns:xlink="http://www.w3.org/1999/xlink">
 <defs>
  <filter id="filter946" x="-.094335" y="-.12629" width="1.1887" height="1.2526" color-interpolation-filters="sRGB">
   <feGaussianBlur stdDeviation="0.39306292"/>
  </filter>
  <linearGradient id="linearGradient866" x1="11" x2="11" y1="21" y2="4" gradientUnits="userSpaceOnUse">
   <stop stop-color="#000000" stop-opacity=".35" offset="0"/>
   <stop stop-color="#000000" stop-opacity=".1" offset="1"/>
  </linearGradient>
 </defs>
 <rect x="4" y="4" width="16" height="16" color="#000000" fill="none"/>
 <rect x="2" y="2" width="20" height="20" rx="4" ry="4" color="#000000" opacity=".12" stroke-width="1.25" style="paint-order:fill markers stroke"/>
 <rect x="3" y="3" width="18" height="18" rx="3" ry="3" color="#000000" fill="#0860f2" stroke-width="1.2857" style="paint-order:fill markers stroke"/>
 <rect x="3" y="3" width="18" height="18" rx="3" ry="3" color="#000000" fill="#ffffff" opacity=".1" stroke-width="1.2857" style="paint-order:fill markers stroke"/>
 <rect x="3" y="4" width="18" height="17" rx="3" ry="3" color="#000000" fill="url(#linearGradient866)" stroke-width="1.2966" style="paint-order:fill markers stroke"/>
 <rect transform="rotate(45)" x="13.79" y="1.1834" width="3" height="1" fill-opacity="0"/>
 <path d="m15.806 9.1937c-0.30486 0-0.60961 0.1158-0.84321 0.3494l-4.2161 4.2161-1.7633-1.761c-0.42502-0.42502-1.1424-0.39264-1.6095 0.07454-0.46719 0.46718-0.50189 1.1869-0.076923 1.6119l2.6066 2.6042 0.0768 0.07686c0.42502 0.42502 1.1424 0.39032 1.6095-0.07686l5.0593-5.0593c0.46719-0.46719 0.46719-1.2192 0-1.6865-0.2336-0.2336-0.53836-0.3494-0.84321-0.3494z" fill="#000000" filter="url(#filter946)" opacity=".15" stroke-width="1.1926"/>
 <path d="m15.806 8.2653c-0.30486 0-0.60961 0.1158-0.84321 0.3494l-4.2161 4.2161-1.7633-1.761c-0.42502-0.42502-1.1424-0.39264-1.6095 0.07454-0.46719 0.46718-0.50189 1.1869-0.076923 1.6119l2.6066 2.6042 0.0768 0.07686c0.42502 0.42502 1.1424 0.39032 1.6095-0.07686l5.0593-5.0593c0.46719-0.46719 0.46719-1.2192 0-1.6865-0.2336-0.2336-0.53836-0.3494-0.84321-0.3494z" fill="#ffffff" stroke-width="1.1926"/>
</svg>
