<svg width="96" height="96" version="1.1" xmlns="http://www.w3.org/2000/svg" xmlns:osb="http://www.openswatchbook.org/uri/2009/osb" xmlns:xlink="http://www.w3.org/1999/xlink">
 <defs>
  <linearGradient id="linearGradient4231">
   <stop stop-color="#016ed4" offset="0"/>
   <stop stop-color="#00b1ff" offset="1"/>
  </linearGradient>
  <linearGradient id="linearGradient3426" x1="399.57" x2="399.57" y1="545.8" y2="517.8" gradientUnits="userSpaceOnUse">
   <stop stop-color="#3889e9" offset="0"/>
   <stop stop-color="#5ea5fb" offset="1"/>
  </linearGradient>
  <linearGradient id="linearGradient4237" x1="-324.94" x2="-328.21" y1="649.74" y2="307.75" gradientUnits="userSpaceOnUse" xlink:href="#linearGradient4231"/>
  <linearGradient id="linearGradient4262" x1="-326.6" x2="-326.6" y1="651.76" y2="304.87" gradientTransform="translate(1.7969e-6 -2.832e-6)" gradientUnits="userSpaceOnUse">
   <stop stop-color="#bbb9b9" offset="0"/>
   <stop stop-color="#f3f9f9" offset="1"/>
  </linearGradient>
  <style id="current-color-scheme" type="text/css">.ColorScheme-Text {
        color:#31363b;
      }
      .ColorScheme-Background{
        color:#eff0f1;
      }
      .ColorScheme-ViewText {
        color:#31363b;
      }
      .ColorScheme-ViewBackground{
        color:#fcfcfc;
      }
      .ColorScheme-ViewHover {
        color:#3daee9;
      }
      .ColorScheme-ViewFocus{
        color:#3daee9;
      }
      .ColorScheme-ButtonText {
        color:#31363b;
      }
      .ColorScheme-ButtonBackground{
        color:#eff0f1;
      }
      .ColorScheme-ButtonHover {
        color:#3daee9;
      }
      .ColorScheme-ButtonFocus{
        color:#3daee9;
      }</style>
  <style type="text/css">.ColorScheme-Text {
        color:#31363b;
      }
      .ColorScheme-Background{
        color:#eff0f1;
      }
      .ColorScheme-ViewText {
        color:#31363b;
      }
      .ColorScheme-ViewBackground{
        color:#fcfcfc;
      }
      .ColorScheme-ViewHover {
        color:#3daee9;
      }
      .ColorScheme-ViewFocus{
        color:#3daee9;
      }
      .ColorScheme-ButtonText {
        color:#31363b;
      }
      .ColorScheme-ButtonBackground{
        color:#eff0f1;
      }
      .ColorScheme-ButtonHover {
        color:#3daee9;
      }
      .ColorScheme-ButtonFocus{
        color:#3daee9;
      }</style>
  <style type="text/css">.ColorScheme-Text {
        color:#31363b;
      }
      .ColorScheme-Background{
        color:#eff0f1;
      }
      .ColorScheme-ViewText {
        color:#31363b;
      }
      .ColorScheme-ViewBackground{
        color:#fcfcfc;
      }
      .ColorScheme-ViewHover {
        color:#3daee9;
      }
      .ColorScheme-ViewFocus{
        color:#3daee9;
      }
      .ColorScheme-ButtonText {
        color:#31363b;
      }
      .ColorScheme-ButtonBackground{
        color:#eff0f1;
      }
      .ColorScheme-ButtonHover {
        color:#3daee9;
      }
      .ColorScheme-ButtonFocus{
        color:#3daee9;
      }</style>
  <style type="text/css">.ColorScheme-Text {
        color:#31363b;
      }
      .ColorScheme-Background{
        color:#eff0f1;
      }
      .ColorScheme-ViewText {
        color:#31363b;
      }
      .ColorScheme-ViewBackground{
        color:#fcfcfc;
      }
      .ColorScheme-ViewHover {
        color:#3daee9;
      }
      .ColorScheme-ViewFocus{
        color:#3daee9;
      }
      .ColorScheme-ButtonText {
        color:#31363b;
      }
      .ColorScheme-ButtonBackground{
        color:#eff0f1;
      }
      .ColorScheme-ButtonHover {
        color:#3daee9;
      }
      .ColorScheme-ButtonFocus{
        color:#3daee9;
      }</style>
  <style type="text/css">.ColorScheme-Text {
        color:#31363b;
      }
      .ColorScheme-Background{
        color:#eff0f1;
      }
      .ColorScheme-ViewText {
        color:#31363b;
      }
      .ColorScheme-ViewBackground{
        color:#fcfcfc;
      }
      .ColorScheme-ViewHover {
        color:#3daee9;
      }
      .ColorScheme-ViewFocus{
        color:#3daee9;
      }
      .ColorScheme-ButtonText {
        color:#31363b;
      }
      .ColorScheme-ButtonBackground{
        color:#eff0f1;
      }
      .ColorScheme-ButtonHover {
        color:#3daee9;
      }
      .ColorScheme-ButtonFocus{
        color:#3daee9;
      }</style>
  <style type="text/css">.ColorScheme-Text {
        color:#31363b;
      }
      .ColorScheme-Background{
        color:#eff0f1;
      }
      .ColorScheme-ViewText {
        color:#31363b;
      }
      .ColorScheme-ViewBackground{
        color:#fcfcfc;
      }
      .ColorScheme-ViewHover {
        color:#3daee9;
      }
      .ColorScheme-ViewFocus{
        color:#3daee9;
      }
      .ColorScheme-ButtonText {
        color:#31363b;
      }
      .ColorScheme-ButtonBackground{
        color:#eff0f1;
      }
      .ColorScheme-ButtonHover {
        color:#3daee9;
      }
      .ColorScheme-ButtonFocus{
        color:#3daee9;
      }</style>
  <style type="text/css">.ColorScheme-Text {
        color:#31363b;
      }
      .ColorScheme-Background{
        color:#eff0f1;
      }
      .ColorScheme-ViewText {
        color:#31363b;
      }
      .ColorScheme-ViewBackground{
        color:#fcfcfc;
      }
      .ColorScheme-ViewHover {
        color:#3daee9;
      }
      .ColorScheme-ViewFocus{
        color:#3daee9;
      }
      .ColorScheme-ButtonText {
        color:#31363b;
      }
      .ColorScheme-ButtonBackground{
        color:#eff0f1;
      }
      .ColorScheme-ButtonHover {
        color:#3daee9;
      }
      .ColorScheme-ButtonFocus{
        color:#3daee9;
      }</style>
  <style type="text/css">.ColorScheme-Text {
        color:#31363b;
      }
      .ColorScheme-Background{
        color:#eff0f1;
      }
      .ColorScheme-ViewText {
        color:#31363b;
      }
      .ColorScheme-ViewBackground{
        color:#fcfcfc;
      }
      .ColorScheme-ViewHover {
        color:#3daee9;
      }
      .ColorScheme-ViewFocus{
        color:#3daee9;
      }
      .ColorScheme-ButtonText {
        color:#31363b;
      }
      .ColorScheme-ButtonBackground{
        color:#eff0f1;
      }
      .ColorScheme-ButtonHover {
        color:#3daee9;
      }
      .ColorScheme-ButtonFocus{
        color:#3daee9;
      }</style>
  <style type="text/css">.ColorScheme-Text {
        color:#31363b;
      }
      .ColorScheme-Background{
        color:#eff0f1;
      }
      .ColorScheme-ViewText {
        color:#31363b;
      }
      .ColorScheme-ViewBackground{
        color:#fcfcfc;
      }
      .ColorScheme-ViewHover {
        color:#3daee9;
      }
      .ColorScheme-ViewFocus{
        color:#3daee9;
      }
      .ColorScheme-ButtonText {
        color:#31363b;
      }
      .ColorScheme-ButtonBackground{
        color:#eff0f1;
      }
      .ColorScheme-ButtonHover {
        color:#3daee9;
      }
      .ColorScheme-ButtonFocus{
        color:#3daee9;
      }</style>
  <linearGradient id="linearGradient898" x1="-326.6" x2="-326.6" y1="651.76" y2="304.87" gradientTransform="matrix(.90042 0 0 .90042 -32.452 47.674)" gradientUnits="userSpaceOnUse">
   <stop stop-color="#787777" offset="0"/>
   <stop stop-color="#cde2e9" offset="1"/>
  </linearGradient>
 </defs>
 <g transform="translate(-384.57 -451.8)">
  <g transform="matrix(.090211 0 0 .090211 438.34 482.08)">
   <g transform="matrix(1.2041 0 0 1.2041 -42.995 -139.04)">
    <g transform="matrix(9.2063 0 0 9.2063 -4262.7 -3635.2)">
     <g transform="matrix(.090211 0 0 .090211 438.34 482.08)">
      <g transform="matrix(1.2041 0 0 1.2041 63.521 -89.411)">
       <g transform="matrix(15.075 0 0 15.075 -6218.9 -8263.6)">
        <circle cx="400.57" cy="531.8" r="0" fill="url(#linearGradient3426)"/>
       </g>
      </g>
     </g>
    </g>
    <g transform="translate(-14.074 -2.0105)">
     <g transform="matrix(.95946 0 0 .95946 -17.711 32.814)">
      <g transform="translate(107.07 39.919)">
       <g transform="translate(2.9511e-6 -.87876)">
        <g transform="matrix(1.0511 0 0 1.0511 16.46 -22.65)">
         <g transform="matrix(2 0 0 2 539.63 -669.43)">
          <g transform="matrix(1.2632 0 0 1.2632 90.227 -154.96)">
           <circle cx="-325.89" cy="478.75" r="173.45" fill="url(#linearGradient4262)"/>
           <g transform="matrix(8.7971 0 0 8.7971 -3865.9 -4050.8)" fill="url(#linearGradient4237)">
            <g transform="matrix(1.6781 0 0 1.6781 -263.92 -368.65)" fill="url(#linearGradient4237)"></g>
           </g>
           <circle cx="-325.89" cy="478.75" r="156.18" fill="url(#linearGradient898)"/>
          </g>
          <path d="m-284.09 495.58-10.997 39.613c-0.12974 0.47483-0.40651 0.89337-0.77843 1.2096l-33.812 28.175c-0.44111 0.36327-0.98082 0.55528-1.5361 0.55528-0.24217 0-0.46705-0.0346-0.70058-0.10725-0.77842-0.23958-1.3778-0.85022-1.6044-1.6285l-11.614-39.998c-8.4632 0.34164-15.932-1.5985-22.078-5.83l-15.39 12.669c-0.97649 0.7992-2.3967 0.71789-3.2711-0.20066l-11.427-12.049c-0.4411-0.46619-0.67464-1.0942-0.65734-1.7438 0-0.64522 0.30273-1.2566 0.77843-1.6926l15.236-14.002c-1.3008-3.5561-3.6344-12.416-1.1607-25.897l-39.157-14.327c-0.76113-0.27764-1.3311-0.92321-1.5145-1.7139-0.19027-0.79054 0-1.6199 0.60545-2.2098l30.319-31.92c0.35462-0.37192 0.81302-0.62015 1.3181-0.71356l39.937-7.155c7.5161-8.7064 16.26-17.516 25.998-26.201 56.073-49.999 99.906-57.462 121.04-57.462 6.9565 0 10.792 0.84589 10.953 0.88049 0.95141 0.21363 1.6762 0.98307 1.8431 1.9448 0.42381 2.4876 9.5461 61.762-67.432 138.9-0.1038 0.0986-10.421 10.121-24.893 20.905zm-3.6387-43.118c13.394 0 24.249-10.878 24.249-24.299 0-13.421-10.855-24.299-24.249-24.299-13.393 0-24.249 10.878-24.249 24.299 0 13.421 10.856 24.299 24.249 24.299zm-91.271 86.924c0.51895-0.5129 1.2749-0.71788 1.9876-0.54316 0.70923 0.17557 1.2835 0.70057 1.5136 1.3934l5.5156 16.417c0.26813 0.78621 0.0865 1.6542-0.5449 2.2268l-26.156 25.051c-0.39787 0.38056-0.92547 0.59419-1.4756 0.59419h-22.048c-0.8701 0-1.6503-0.53019-1.9789-1.3336-0.32001-0.80784-0.12973-1.731 0.49301-2.338l42.693-41.468zm-29.21-13.387c0.40651-0.42294 0.96352-1.3122 1.5439-1.3122h0.0864c0.60545 0 1.165 0.93178 1.5568 1.3892l9.4821 11.643c0.72653 0.84243 0.68328 2.0986-0.0864 2.8936l-42.262 43.276c-0.39786 0.40997-0.95141 0.6409-1.5222 0.6409h-9.1197c-1.1772 0-2.1329-0.95737-2.1329-2.1371v-10.232c0-0.54749 0.21623-1.402 0.58814-1.7995l41.899-44.362zm-41.844 5.2658 30.536-29.825c0.70923-0.69713 1.8042-0.80351 2.6276-0.27332l12.502 7.9328c0.55354 0.35029 0.90817 0.92753 0.97649 1.5729 0.0865 0.64523-0.15568 1.2908-0.62274 1.7482l-43.038 42.776c-0.40652 0.40564-0.95574 0.62015-1.5058 0.62015-0.27678 0-0.55354-0.0519-0.82167-0.16693-0.78707-0.32867-1.3052-1.107-1.3052-1.9704v-20.888c0-0.57257 0.23352-1.1284 0.64004-1.5259z" fill="#484d4f"/>
         </g>
        </g>
       </g>
      </g>
     </g>
    </g>
   </g>
  </g>
 </g>
</svg>
