<svg width="128" height="128" version="1.1" viewBox="0 0 33.866 33.866" xmlns="http://www.w3.org/2000/svg">
 <defs>
  <linearGradient id="linearGradient1372" x1="34.705" x2="34.705" y1="-30.727" y2="-38.74" gradientTransform="matrix(.5297 0 0 .5297 -1.0863 27.968)" gradientUnits="userSpaceOnUse">
   <stop stop-color="#efb63f" offset="0"/>
   <stop stop-color="#f8d650" offset="1"/>
  </linearGradient>
  <linearGradient id="linearGradient1380" x1="32.125" x2="32.125" y1="-29.828" y2="-39.838" gradientTransform="matrix(.5297 0 0 .5297 -1.0863 27.968)" gradientUnits="userSpaceOnUse">
   <stop stop-color="#a88a47" offset="0"/>
   <stop stop-color="#d7cfa7" offset="1"/>
  </linearGradient>
  <linearGradient id="linearGradient1384" x1="34.705" x2="34.705" y1="-30.727" y2="-38.74" gradientTransform="matrix(.5297 0 0 .5297 -8.67 27.968)" gradientUnits="userSpaceOnUse">
   <stop stop-color="#68d848" offset="0"/>
   <stop stop-color="#99f27b" offset="1"/>
  </linearGradient>
  <linearGradient id="linearGradient1386" x1="32.125" x2="32.125" y1="-29.828" y2="-39.838" gradientTransform="matrix(.5297 0 0 .5297 -8.67 27.968)" gradientUnits="userSpaceOnUse">
   <stop stop-color="#5a9555" offset="0"/>
   <stop stop-color="#ccf4bd" offset="1"/>
  </linearGradient>
  <linearGradient id="linearGradient1402" x1="34.705" x2="34.705" y1="-30.727" y2="-38.74" gradientTransform="matrix(.5297 0 0 .5297 6.2792 27.968)" gradientUnits="userSpaceOnUse">
   <stop stop-color="#e07f3e" offset="0"/>
   <stop stop-color="#f1a73e" offset="1"/>
  </linearGradient>
  <linearGradient id="linearGradient1404" x1="32.125" x2="32.125" y1="-29.828" y2="-39.838" gradientTransform="matrix(.5297 0 0 .5297 6.2792 27.968)" gradientUnits="userSpaceOnUse">
   <stop stop-color="#ae714f" offset="0"/>
   <stop stop-color="#ffdc8f" offset="1"/>
  </linearGradient>
  <linearGradient id="linearGradient1514" x1="34.705" x2="34.705" y1="-30.727" y2="-38.74" gradientTransform="matrix(.5297 0 0 .5297 -8.67 35.368)" gradientUnits="userSpaceOnUse">
   <stop stop-color="#b9281b" offset="0"/>
   <stop stop-color="#e54e3b" offset="1"/>
  </linearGradient>
  <linearGradient id="linearGradient1516" x1="32.125" x2="32.125" y1="-29.828" y2="-39.838" gradientTransform="matrix(.5297 0 0 .5297 -8.67 35.368)" gradientUnits="userSpaceOnUse">
   <stop stop-color="#84281e" offset="0"/>
   <stop stop-color="#df8881" offset="1"/>
  </linearGradient>
  <linearGradient id="linearGradient1560" x1="34.705" x2="34.705" y1="-30.727" y2="-38.74" gradientTransform="matrix(.5297 0 0 .5297 -1.0863 35.368)" gradientUnits="userSpaceOnUse">
   <stop stop-color="#878887" offset="0"/>
   <stop stop-color="#d8e3e9" offset="1"/>
  </linearGradient>
  <linearGradient id="linearGradient1562" x1="32.125" x2="32.125" y1="-29.828" y2="-39.838" gradientTransform="matrix(.5297 0 0 .5297 -1.0863 35.368)" gradientUnits="userSpaceOnUse">
   <stop stop-color="#6c6c6a" offset="0"/>
   <stop stop-color="#e3ebef" offset="1"/>
  </linearGradient>
  <linearGradient id="linearGradient1590" x1="34.705" x2="34.705" y1="-30.727" y2="-38.74" gradientTransform="matrix(.5297 0 0 .5297 6.2792 35.368)" gradientUnits="userSpaceOnUse">
   <stop stop-color="#e76872" offset="0"/>
   <stop stop-color="#ea4f66" offset="1"/>
  </linearGradient>
  <linearGradient id="linearGradient1592" x1="32.125" x2="32.125" y1="-29.828" y2="-39.838" gradientTransform="matrix(.5297 0 0 .5297 6.2792 35.368)" gradientUnits="userSpaceOnUse">
   <stop stop-color="#ab5863" offset="0"/>
   <stop stop-color="#d7798a" offset="1"/>
  </linearGradient>
  <linearGradient id="linearGradient1620" x1="34.705" x2="34.705" y1="-30.727" y2="-38.74" gradientTransform="matrix(.5297 0 0 .5297 -8.67 42.768)" gradientUnits="userSpaceOnUse">
   <stop stop-color="#783bb3" offset="0"/>
   <stop stop-color="#b76de6" offset="1"/>
  </linearGradient>
  <linearGradient id="linearGradient1622" x1="32.125" x2="32.125" y1="-29.828" y2="-39.838" gradientTransform="matrix(.5297 0 0 .5297 -8.67 42.768)" gradientUnits="userSpaceOnUse">
   <stop stop-color="#4b2677" offset="0"/>
   <stop stop-color="#b481d5" offset=".946"/>
   <stop stop-color="#ddc9ec" offset="1"/>
  </linearGradient>
  <linearGradient id="linearGradient1653" x1="34.705" x2="34.705" y1="-30.727" y2="-38.74" gradientTransform="matrix(.5297 0 0 .5297 -1.0863 42.768)" gradientUnits="userSpaceOnUse">
   <stop stop-color="#3468e0" offset="0"/>
   <stop stop-color="#61dafc" offset="1"/>
  </linearGradient>
  <linearGradient id="linearGradient1655" x1="32.125" x2="32.125" y1="-29.828" y2="-39.838" gradientTransform="matrix(.5297 0 0 .5297 -1.0863 42.768)" gradientUnits="userSpaceOnUse">
   <stop stop-color="#29438e" offset="0"/>
   <stop stop-color="#90dcec" offset=".946"/>
   <stop stop-color="#abe2eb" offset="1"/>
  </linearGradient>
  <linearGradient id="linearGradient1685" x1="34.705" x2="34.705" y1="-30.727" y2="-38.74" gradientTransform="matrix(.5297 0 0 .5297 6.2792 42.768)" gradientUnits="userSpaceOnUse">
   <stop stop-color="#5bc18f" offset="0"/>
   <stop stop-color="#84e4dd" offset="1"/>
  </linearGradient>
  <linearGradient id="linearGradient1687" x1="32.125" x2="32.125" y1="-29.828" y2="-39.838" gradientTransform="matrix(.5297 0 0 .5297 6.2792 42.768)" gradientUnits="userSpaceOnUse">
   <stop stop-color="#3f8264" offset="0"/>
   <stop stop-color="#a2e1e0" offset=".946"/>
   <stop stop-color="#b8e4e2" offset="1"/>
  </linearGradient>
  <linearGradient id="linearGradient862-3" x1="7.9373" x2="7.9373" y1="15.081" y2="1.852" gradientTransform="matrix(1.9999 0 0 1.9999 .00011 .02433)" gradientUnits="userSpaceOnUse">
   <stop stop-color="#e8e8e8" offset="0"/>
   <stop stop-color="#fcfcfc" offset="1"/>
  </linearGradient>
  <filter id="filter1766" x="-.44318" y="-.46445" width="1.8864" height="1.9289" color-interpolation-filters="sRGB">
   <feGaussianBlur stdDeviation="0.45310276"/>
  </filter>
  <filter id="filter1033" x="-.05808" y="-.05808" width="1.1162" height="1.1162" color-interpolation-filters="sRGB">
   <feGaussianBlur stdDeviation="0.71714282"/>
  </filter>
  <clipPath id="clipPath1261">
   <path d="m0.82939-4.9572c-3.8115 0-6.8801 3.0686-6.8801 6.8801v30.927c0 3.8115 3.0686 6.8796 6.8801 6.8796h31.947c3.8115 0 6.8801-3.0681 6.8801-6.8796v-30.927c0-3.8115-3.0686-6.8801-6.8801-6.8801zm8.1673 7.0816h15.874c3.8115 0 6.8796 3.0681 6.8796 6.8795v15.874c0 3.8115-3.0681 6.8801-6.8796 6.8801h-15.874c-3.8115 0-6.8801-3.0686-6.8801-6.8801v-15.874c0-3.8115 3.0686-6.8795 6.8801-6.8795z" fill="#000000" style="paint-order:stroke fill markers"/>
  </clipPath>
 </defs>
 <rect x="2.1166" y="2.1242" width="29.634" height="29.634" rx="6.8799" ry="6.8799" fill="url(#linearGradient862-3)" opacity=".8" stroke-width="1.9999"/>
 <rect x="2.1166" y="2.5109" width="29.634" height="29.634" rx="6.8799" ry="6.8799" clip-path="url(#clipPath1261)" fill="#000000" filter="url(#filter1033)" opacity=".15" stroke-width="1.9999"/>
 <rect transform="matrix(2 0 0 2 .05277 .99107)" x="7.1485" y="3.477" width="2.6929" height="2.5696" rx=".3818" ry=".3818" fill="#000000" filter="url(#filter1766)" opacity=".15" stroke="#000000" stroke-dashoffset="1" stroke-linecap="round" stroke-linejoin="round" stroke-width=".21188"/>
 <rect transform="matrix(2 0 0 2 .05277 .99107)" x="3.3566" y="3.477" width="2.6929" height="2.5696" rx=".3818" ry=".3818" fill="#000000" filter="url(#filter1766)" opacity=".15" stroke="#000000" stroke-dashoffset="1" stroke-linecap="round" stroke-linejoin="round" stroke-width=".212"/>
 <rect transform="matrix(2 0 0 2 .05277 .99107)" x="10.831" y="3.477" width="2.6929" height="2.5696" rx=".3818" ry=".3818" fill="#000000" filter="url(#filter1766)" opacity=".15" stroke="#000000" stroke-dashoffset="1" stroke-linecap="round" stroke-linejoin="round" stroke-width=".21188"/>
 <rect transform="matrix(2 0 0 2 .05277 .99107)" x="3.3566" y="7.1773" width="2.6929" height="2.5696" rx=".3818" ry=".3818" fill="#000000" filter="url(#filter1766)" opacity=".15" stroke="#000000" stroke-dashoffset="1" stroke-linecap="round" stroke-linejoin="round" stroke-width=".21188"/>
 <rect transform="matrix(2 0 0 2 .05277 .99107)" x="7.1485" y="7.1773" width="2.6929" height="2.5696" rx=".3818" ry=".3818" fill="#000000" filter="url(#filter1766)" opacity=".15" stroke="#000000" stroke-dashoffset="1" stroke-linecap="round" stroke-linejoin="round" stroke-width=".21188"/>
 <rect transform="matrix(2 0 0 2 .05277 .99107)" x="10.831" y="7.1773" width="2.6929" height="2.5696" rx=".3818" ry=".3818" fill="#000000" filter="url(#filter1766)" opacity=".15" stroke="#000000" stroke-dashoffset="1" stroke-linecap="round" stroke-linejoin="round" stroke-width=".21188"/>
 <rect transform="matrix(2 0 0 2 .05277 .99107)" x="3.3566" y="10.878" width="2.6929" height="2.5696" rx=".3818" ry=".3818" fill="#000000" filter="url(#filter1766)" opacity=".15" stroke="#000000" stroke-dashoffset="1" stroke-linecap="round" stroke-linejoin="round" stroke-width=".21188"/>
 <rect transform="matrix(2 0 0 2 .05277 .99107)" x="7.1485" y="10.878" width="2.6929" height="2.5696" rx=".3818" ry=".3818" fill="#000000" filter="url(#filter1766)" opacity=".15" stroke="#000000" stroke-dashoffset="1" stroke-linecap="round" stroke-linejoin="round" stroke-width=".21188"/>
 <rect transform="matrix(2 0 0 2 .05277 .99107)" x="10.831" y="10.878" width="2.6929" height="2.5696" rx=".3818" ry=".3818" fill="#000000" filter="url(#filter1766)" opacity=".15" stroke="#000000" stroke-dashoffset="1" stroke-linecap="round" stroke-linejoin="round" stroke-width=".21188"/>
 <path d="m15.113 6.9708h3.8586c0.42304 0 0.7636 0.34056 0.7636 0.7636v3.612c0 0.42304-0.34056 0.7636-0.7636 0.7636h-3.8586c-0.42304 0-0.7636-0.34056-0.7636-0.7636v-3.612c0-0.42304 0.34056-0.7636 0.7636-0.7636z" color="#000000" color-rendering="auto" dominant-baseline="auto" fill="url(#linearGradient1372)" image-rendering="auto" shape-rendering="auto" solid-color="#000000" stop-color="#000000" stroke-width="2" style="font-feature-settings:normal;font-variant-alternates:normal;font-variant-caps:normal;font-variant-east-asian:normal;font-variant-ligatures:normal;font-variant-numeric:normal;font-variant-position:normal;font-variation-settings:normal;inline-size:0;isolation:auto;mix-blend-mode:normal;shape-margin:0;shape-padding:0;text-decoration-color:#000000;text-decoration-line:none;text-decoration-style:solid;text-indent:0;text-orientation:mixed;text-transform:none;white-space:normal"/>
 <path d="m15.113 6.7576c-0.53676 0-0.97656 0.43982-0.97656 0.97656v3.6132c0 0.53676 0.43982 0.97266 0.97656 0.97266h3.8594c0.53676 0 0.97656-0.4359 0.97656-0.97266v-3.6132c0-0.53676-0.43982-0.97656-0.97656-0.97656zm0 0.42578h3.8594c0.30932 0 0.55078 0.24146 0.55078 0.55078v3.6132c0 0.30932-0.24146 0.55078-0.55078 0.55078h-3.8594c-0.30932 0-0.55078-0.24146-0.55078-0.55078v-3.6132c0-0.30932 0.24146-0.55078 0.55078-0.55078z" color="#000000" color-rendering="auto" dominant-baseline="auto" fill="url(#linearGradient1380)" image-rendering="auto" shape-rendering="auto" solid-color="#000000" stop-color="#000000" stroke-width="2" style="font-feature-settings:normal;font-variant-alternates:normal;font-variant-caps:normal;font-variant-east-asian:normal;font-variant-ligatures:normal;font-variant-numeric:normal;font-variant-position:normal;font-variation-settings:normal;inline-size:0;isolation:auto;mix-blend-mode:normal;shape-margin:0;shape-padding:0;text-decoration-color:#000000;text-decoration-line:none;text-decoration-style:solid;text-indent:0;text-orientation:mixed;text-transform:none;white-space:normal"/>
 <path d="m7.5296 6.9708h3.8586c0.42304 0 0.7636 0.34056 0.7636 0.7636v3.612c0 0.42304-0.34056 0.7636-0.7636 0.7636h-3.8586c-0.42304 0-0.7636-0.34056-0.7636-0.7636v-3.612c0-0.42304 0.34056-0.7636 0.7636-0.7636z" color="#000000" color-rendering="auto" dominant-baseline="auto" fill="url(#linearGradient1384)" image-rendering="auto" shape-rendering="auto" solid-color="#000000" stop-color="#000000" stroke-width="2" style="font-feature-settings:normal;font-variant-alternates:normal;font-variant-caps:normal;font-variant-east-asian:normal;font-variant-ligatures:normal;font-variant-numeric:normal;font-variant-position:normal;font-variation-settings:normal;inline-size:0;isolation:auto;mix-blend-mode:normal;shape-margin:0;shape-padding:0;text-decoration-color:#000000;text-decoration-line:none;text-decoration-style:solid;text-indent:0;text-orientation:mixed;text-transform:none;white-space:normal"/>
 <path d="m7.5312 6.7576c-0.53682 0-0.97656 0.43974-0.97656 0.97656v3.6132c0 0.53682 0.43974 0.97266 0.97656 0.97266h3.8554c0.53682 0 0.97656-0.43584 0.97656-0.97266v-3.6132c0-0.53682-0.43974-0.97656-0.97656-0.97656zm0 0.42578h3.8554c0.30926 0 0.55468 0.24152 0.55468 0.55078v3.6132c0 0.30926-0.24544 0.55078-0.55468 0.55078h-3.8554c-0.30926 0-0.55468-0.24152-0.55468-0.55078v-3.6132c0-0.30926 0.24544-0.55078 0.55468-0.55078z" color="#000000" color-rendering="auto" dominant-baseline="auto" fill="url(#linearGradient1386)" image-rendering="auto" shape-rendering="auto" solid-color="#000000" stop-color="#000000" stroke-width="2" style="font-feature-settings:normal;font-variant-alternates:normal;font-variant-caps:normal;font-variant-east-asian:normal;font-variant-ligatures:normal;font-variant-numeric:normal;font-variant-position:normal;font-variation-settings:normal;inline-size:0;isolation:auto;mix-blend-mode:normal;shape-margin:0;shape-padding:0;text-decoration-color:#000000;text-decoration-line:none;text-decoration-style:solid;text-indent:0;text-orientation:mixed;text-transform:none;white-space:normal"/>
 <path d="m22.478 6.9708h3.8586c0.42304 0 0.7636 0.34056 0.7636 0.7636v3.612c0 0.42304-0.34056 0.7636-0.7636 0.7636h-3.8586c-0.42304 0-0.7636-0.34056-0.7636-0.7636v-3.612c0-0.42304 0.34056-0.7636 0.7636-0.7636z" color="#000000" color-rendering="auto" dominant-baseline="auto" fill="url(#linearGradient1402)" image-rendering="auto" shape-rendering="auto" solid-color="#000000" stop-color="#000000" stroke-width="2" style="font-feature-settings:normal;font-variant-alternates:normal;font-variant-caps:normal;font-variant-east-asian:normal;font-variant-ligatures:normal;font-variant-numeric:normal;font-variant-position:normal;font-variation-settings:normal;inline-size:0;isolation:auto;mix-blend-mode:normal;shape-margin:0;shape-padding:0;text-decoration-color:#000000;text-decoration-line:none;text-decoration-style:solid;text-indent:0;text-orientation:mixed;text-transform:none;white-space:normal"/>
 <path d="m22.476 6.7576c-0.53676 0-0.97266 0.43982-0.97266 0.97656v3.6132c0 0.53676 0.4359 0.97266 0.97266 0.97266h3.8594c0.53676 0 0.97656-0.4359 0.97656-0.97266v-3.6132c0-0.53676-0.43982-0.97656-0.97656-0.97656zm0 0.42578h3.8594c0.30932 0 0.55078 0.24146 0.55078 0.55078v3.6132c0 0.30932-0.24146 0.55078-0.55078 0.55078h-3.8594c-0.30932 0-0.55078-0.24146-0.55078-0.55078v-3.6132c0-0.30932 0.24146-0.55078 0.55078-0.55078z" color="#000000" color-rendering="auto" dominant-baseline="auto" fill="url(#linearGradient1404)" image-rendering="auto" shape-rendering="auto" solid-color="#000000" stop-color="#000000" stroke-width="2" style="font-feature-settings:normal;font-variant-alternates:normal;font-variant-caps:normal;font-variant-east-asian:normal;font-variant-ligatures:normal;font-variant-numeric:normal;font-variant-position:normal;font-variation-settings:normal;inline-size:0;isolation:auto;mix-blend-mode:normal;shape-margin:0;shape-padding:0;text-decoration-color:#000000;text-decoration-line:none;text-decoration-style:solid;text-indent:0;text-orientation:mixed;text-transform:none;white-space:normal"/>
 <path d="m7.5296 14.371h3.8586c0.42304 0 0.7636 0.34056 0.7636 0.7636v3.612c0 0.42304-0.34056 0.7636-0.7636 0.7636h-3.8586c-0.42304 0-0.7636-0.34056-0.7636-0.7636v-3.612c0-0.42304 0.34056-0.7636 0.7636-0.7636z" color="#000000" color-rendering="auto" dominant-baseline="auto" fill="url(#linearGradient1514)" image-rendering="auto" shape-rendering="auto" solid-color="#000000" stop-color="#000000" stroke-width="2" style="font-feature-settings:normal;font-variant-alternates:normal;font-variant-caps:normal;font-variant-east-asian:normal;font-variant-ligatures:normal;font-variant-numeric:normal;font-variant-position:normal;font-variation-settings:normal;inline-size:0;isolation:auto;mix-blend-mode:normal;shape-margin:0;shape-padding:0;text-decoration-color:#000000;text-decoration-line:none;text-decoration-style:solid;text-indent:0;text-orientation:mixed;text-transform:none;white-space:normal"/>
 <path d="m7.5312 14.16c-0.53676 0-0.97656 0.43982-0.97656 0.97656v3.6094c0 0.53676 0.43982 0.97656 0.97656 0.97656h3.8554c0.53676 0 0.97656-0.43982 0.97656-0.97656v-3.6094c0-0.53676-0.43982-0.97656-0.97656-0.97656zm0 0.42188h3.8554c0.30932 0 0.55468 0.24536 0.55468 0.55468v3.6094c0 0.30932-0.24536 0.55468-0.55468 0.55468h-3.8554c-0.30932 0-0.55468-0.24536-0.55468-0.55468v-3.6094c0-0.30932 0.24536-0.55468 0.55468-0.55468z" color="#000000" color-rendering="auto" dominant-baseline="auto" fill="url(#linearGradient1516)" image-rendering="auto" shape-rendering="auto" solid-color="#000000" stop-color="#000000" stroke-width="2" style="font-feature-settings:normal;font-variant-alternates:normal;font-variant-caps:normal;font-variant-east-asian:normal;font-variant-ligatures:normal;font-variant-numeric:normal;font-variant-position:normal;font-variation-settings:normal;inline-size:0;isolation:auto;mix-blend-mode:normal;shape-margin:0;shape-padding:0;text-decoration-color:#000000;text-decoration-line:none;text-decoration-style:solid;text-indent:0;text-orientation:mixed;text-transform:none;white-space:normal"/>
 <path d="m15.113 14.371h3.8586c0.42304 0 0.7636 0.34056 0.7636 0.7636v3.612c0 0.42304-0.34056 0.7636-0.7636 0.7636h-3.8586c-0.42304 0-0.7636-0.34056-0.7636-0.7636v-3.612c0-0.42304 0.34056-0.7636 0.7636-0.7636z" color="#000000" color-rendering="auto" dominant-baseline="auto" fill="url(#linearGradient1560)" image-rendering="auto" shape-rendering="auto" solid-color="#000000" stop-color="#000000" stroke-width="2" style="font-feature-settings:normal;font-variant-alternates:normal;font-variant-caps:normal;font-variant-east-asian:normal;font-variant-ligatures:normal;font-variant-numeric:normal;font-variant-position:normal;font-variation-settings:normal;inline-size:0;isolation:auto;mix-blend-mode:normal;shape-margin:0;shape-padding:0;text-decoration-color:#000000;text-decoration-line:none;text-decoration-style:solid;text-indent:0;text-orientation:mixed;text-transform:none;white-space:normal"/>
 <path d="m15.113 14.16c-0.53676 0-0.97656 0.43982-0.97656 0.97656v3.6094c0 0.53676 0.43982 0.97656 0.97656 0.97656h3.8594c0.53676 0 0.97656-0.43982 0.97656-0.97656v-3.6094c0-0.53676-0.43982-0.97656-0.97656-0.97656zm0 0.42188h3.8594c0.30932 0 0.55078 0.24536 0.55078 0.55468v3.6094c0 0.30932-0.24146 0.55468-0.55078 0.55468h-3.8594c-0.30932 0-0.55078-0.24536-0.55078-0.55468v-3.6094c0-0.30932 0.24146-0.55468 0.55078-0.55468z" color="#000000" color-rendering="auto" dominant-baseline="auto" fill="url(#linearGradient1562)" image-rendering="auto" shape-rendering="auto" solid-color="#000000" stop-color="#000000" stroke-width="2" style="font-feature-settings:normal;font-variant-alternates:normal;font-variant-caps:normal;font-variant-east-asian:normal;font-variant-ligatures:normal;font-variant-numeric:normal;font-variant-position:normal;font-variation-settings:normal;inline-size:0;isolation:auto;mix-blend-mode:normal;shape-margin:0;shape-padding:0;text-decoration-color:#000000;text-decoration-line:none;text-decoration-style:solid;text-indent:0;text-orientation:mixed;text-transform:none;white-space:normal"/>
 <path d="m22.478 14.371h3.8586c0.42304 0 0.7636 0.34056 0.7636 0.7636v3.612c0 0.42304-0.34056 0.7636-0.7636 0.7636h-3.8586c-0.42304 0-0.7636-0.34056-0.7636-0.7636v-3.612c0-0.42304 0.34056-0.7636 0.7636-0.7636z" color="#000000" color-rendering="auto" dominant-baseline="auto" fill="url(#linearGradient1590)" image-rendering="auto" shape-rendering="auto" solid-color="#000000" stop-color="#000000" stroke-width="2" style="font-feature-settings:normal;font-variant-alternates:normal;font-variant-caps:normal;font-variant-east-asian:normal;font-variant-ligatures:normal;font-variant-numeric:normal;font-variant-position:normal;font-variation-settings:normal;inline-size:0;isolation:auto;mix-blend-mode:normal;shape-margin:0;shape-padding:0;text-decoration-color:#000000;text-decoration-line:none;text-decoration-style:solid;text-indent:0;text-orientation:mixed;text-transform:none;white-space:normal"/>
 <path d="m22.476 14.16c-0.53676 0-0.97266 0.43982-0.97266 0.97656v3.6094c0 0.53676 0.4359 0.97656 0.97266 0.97656h3.8594c0.53676 0 0.97656-0.43982 0.97656-0.97656v-3.6094c0-0.53676-0.43982-0.97656-0.97656-0.97656zm0 0.42188h3.8594c0.30932 0 0.55078 0.24536 0.55078 0.55468v3.6094c0 0.30932-0.24146 0.55468-0.55078 0.55468h-3.8594c-0.30932 0-0.55078-0.24536-0.55078-0.55468v-3.6094c0-0.30932 0.24146-0.55468 0.55078-0.55468z" color="#000000" color-rendering="auto" dominant-baseline="auto" fill="url(#linearGradient1592)" image-rendering="auto" shape-rendering="auto" solid-color="#000000" stop-color="#000000" stroke-width="2" style="font-feature-settings:normal;font-variant-alternates:normal;font-variant-caps:normal;font-variant-east-asian:normal;font-variant-ligatures:normal;font-variant-numeric:normal;font-variant-position:normal;font-variation-settings:normal;inline-size:0;isolation:auto;mix-blend-mode:normal;shape-margin:0;shape-padding:0;text-decoration-color:#000000;text-decoration-line:none;text-decoration-style:solid;text-indent:0;text-orientation:mixed;text-transform:none;white-space:normal"/>
 <path d="m7.5296 21.774h3.8586c0.42304 0 0.7636 0.34056 0.7636 0.7636v3.612c0 0.42304-0.34056 0.7636-0.7636 0.7636h-3.8586c-0.42304 0-0.7636-0.34056-0.7636-0.7636v-3.612c0-0.42304 0.34056-0.7636 0.7636-0.7636z" color="#000000" color-rendering="auto" dominant-baseline="auto" fill="url(#linearGradient1620)" image-rendering="auto" shape-rendering="auto" solid-color="#000000" stop-color="#000000" stroke-width="2" style="font-feature-settings:normal;font-variant-alternates:normal;font-variant-caps:normal;font-variant-east-asian:normal;font-variant-ligatures:normal;font-variant-numeric:normal;font-variant-position:normal;font-variation-settings:normal;inline-size:0;isolation:auto;mix-blend-mode:normal;shape-margin:0;shape-padding:0;text-decoration-color:#000000;text-decoration-line:none;text-decoration-style:solid;text-indent:0;text-orientation:mixed;text-transform:none;white-space:normal"/>
 <path d="m7.5312 21.562c-0.53676 0-0.97656 0.4359-0.97656 0.97266v3.6132c0 0.53676 0.43982 0.97656 0.97656 0.97656h3.8554c0.53676 0 0.97656-0.4398 0.97656-0.97656v-3.6132c0-0.53676-0.43982-0.97266-0.97656-0.97266zm0 0.42188h3.8554c0.30932 0 0.55468 0.24146 0.55468 0.55078v3.6132c0 0.30932-0.24536 0.55078-0.55468 0.55078h-3.8554c-0.30932 0-0.55468-0.24146-0.55468-0.55078v-3.6132c0-0.30932 0.24536-0.55078 0.55468-0.55078z" color="#000000" color-rendering="auto" dominant-baseline="auto" fill="url(#linearGradient1622)" image-rendering="auto" shape-rendering="auto" solid-color="#000000" stop-color="#000000" stroke-width="2" style="font-feature-settings:normal;font-variant-alternates:normal;font-variant-caps:normal;font-variant-east-asian:normal;font-variant-ligatures:normal;font-variant-numeric:normal;font-variant-position:normal;font-variation-settings:normal;inline-size:0;isolation:auto;mix-blend-mode:normal;shape-margin:0;shape-padding:0;text-decoration-color:#000000;text-decoration-line:none;text-decoration-style:solid;text-indent:0;text-orientation:mixed;text-transform:none;white-space:normal"/>
 <path d="m15.113 21.774h3.8586c0.42304 0 0.7636 0.34056 0.7636 0.7636v3.612c0 0.42304-0.34056 0.7636-0.7636 0.7636h-3.8586c-0.42304 0-0.7636-0.34056-0.7636-0.7636v-3.612c0-0.42304 0.34056-0.7636 0.7636-0.7636z" color="#000000" color-rendering="auto" dominant-baseline="auto" fill="url(#linearGradient1653)" image-rendering="auto" shape-rendering="auto" solid-color="#000000" stop-color="#000000" stroke-width="2" style="font-feature-settings:normal;font-variant-alternates:normal;font-variant-caps:normal;font-variant-east-asian:normal;font-variant-ligatures:normal;font-variant-numeric:normal;font-variant-position:normal;font-variation-settings:normal;inline-size:0;isolation:auto;mix-blend-mode:normal;shape-margin:0;shape-padding:0;text-decoration-color:#000000;text-decoration-line:none;text-decoration-style:solid;text-indent:0;text-orientation:mixed;text-transform:none;white-space:normal"/>
 <path d="m15.113 21.562c-0.53676 0-0.97656 0.4359-0.97656 0.97266v3.6132c0 0.53676 0.43982 0.97656 0.97656 0.97656h3.8594c0.53676 0 0.97656-0.4398 0.97656-0.97656v-3.6132c0-0.53676-0.43982-0.97266-0.97656-0.97266zm0 0.42188h3.8594c0.30932 0 0.55078 0.24146 0.55078 0.55078v3.6132c0 0.30932-0.24146 0.55078-0.55078 0.55078h-3.8594c-0.30932 0-0.55078-0.24146-0.55078-0.55078v-3.6132c0-0.30932 0.24146-0.55078 0.55078-0.55078z" color="#000000" color-rendering="auto" dominant-baseline="auto" fill="url(#linearGradient1655)" image-rendering="auto" shape-rendering="auto" solid-color="#000000" stop-color="#000000" stroke-width="2" style="font-feature-settings:normal;font-variant-alternates:normal;font-variant-caps:normal;font-variant-east-asian:normal;font-variant-ligatures:normal;font-variant-numeric:normal;font-variant-position:normal;font-variation-settings:normal;inline-size:0;isolation:auto;mix-blend-mode:normal;shape-margin:0;shape-padding:0;text-decoration-color:#000000;text-decoration-line:none;text-decoration-style:solid;text-indent:0;text-orientation:mixed;text-transform:none;white-space:normal"/>
 <path d="m22.478 21.774h3.8586c0.42304 0 0.7636 0.34056 0.7636 0.7636v3.612c0 0.42304-0.34056 0.7636-0.7636 0.7636h-3.8586c-0.42304 0-0.7636-0.34056-0.7636-0.7636v-3.612c0-0.42304 0.34056-0.7636 0.7636-0.7636z" color="#000000" color-rendering="auto" dominant-baseline="auto" fill="url(#linearGradient1685)" image-rendering="auto" shape-rendering="auto" solid-color="#000000" stop-color="#000000" stroke-width="2" style="font-feature-settings:normal;font-variant-alternates:normal;font-variant-caps:normal;font-variant-east-asian:normal;font-variant-ligatures:normal;font-variant-numeric:normal;font-variant-position:normal;font-variation-settings:normal;inline-size:0;isolation:auto;mix-blend-mode:normal;shape-margin:0;shape-padding:0;text-decoration-color:#000000;text-decoration-line:none;text-decoration-style:solid;text-indent:0;text-orientation:mixed;text-transform:none;white-space:normal"/>
 <path d="m22.476 21.562c-0.53676 0-0.97266 0.4359-0.97266 0.97266v3.6132c0 0.53676 0.4359 0.97656 0.97266 0.97656h3.8594c0.53676 0 0.97656-0.4398 0.97656-0.97656v-3.6132c0-0.53676-0.43982-0.97266-0.97656-0.97266zm0 0.42188h3.8594c0.30932 0 0.55078 0.24146 0.55078 0.55078v3.6132c0 0.30932-0.24146 0.55078-0.55078 0.55078h-3.8594c-0.30932 0-0.55078-0.24146-0.55078-0.55078v-3.6132c0-0.30932 0.24146-0.55078 0.55078-0.55078z" color="#000000" color-rendering="auto" dominant-baseline="auto" fill="url(#linearGradient1687)" image-rendering="auto" shape-rendering="auto" solid-color="#000000" stop-color="#000000" stroke-width="2" style="font-feature-settings:normal;font-variant-alternates:normal;font-variant-caps:normal;font-variant-east-asian:normal;font-variant-ligatures:normal;font-variant-numeric:normal;font-variant-position:normal;font-variation-settings:normal;inline-size:0;isolation:auto;mix-blend-mode:normal;shape-margin:0;shape-padding:0;text-decoration-color:#000000;text-decoration-line:none;text-decoration-style:solid;text-indent:0;text-orientation:mixed;text-transform:none;white-space:normal"/>
 <style><![CDATA[.B{clip-path:url(#C)}.C{fill:#3e2723}.D{fill-opacity:.15}.E{fill-opacity:.2}]]></style>
 <style><![CDATA[.B{clip-path:url(#C)}.C{fill:#3e2723}.D{fill-opacity:.15}.E{fill-opacity:.2}]]></style>
</svg>
