<?xml version="1.0" encoding="UTF-8" standalone="no"?>
<svg
   xmlns:dc="http://purl.org/dc/elements/1.1/"
   xmlns:cc="http://creativecommons.org/ns#"
   xmlns:rdf="http://www.w3.org/1999/02/22-rdf-syntax-ns#"
   xmlns:svg="http://www.w3.org/2000/svg"
   xmlns="http://www.w3.org/2000/svg"
   xmlns:sodipodi="http://sodipodi.sourceforge.net/DTD/sodipodi-0.dtd"
   xmlns:inkscape="http://www.inkscape.org/namespaces/inkscape"
   id="Foreground"
   width="42"
   height="42"
   enable-background="new 0 0 16 16"
   version="1.0"
   viewBox="0 0 30.545308 30.545308"
   sodipodi:docname="window-close-active.svg"
   inkscape:version="1.0.2 (e86c870879, 2021-01-15)">
  <metadata
     id="metadata16">
    <rdf:RDF>
      <cc:Work
         rdf:about="">
        <dc:format>image/svg+xml</dc:format>
        <dc:type
           rdf:resource="http://purl.org/dc/dcmitype/StillImage" />
        <dc:title />
      </cc:Work>
    </rdf:RDF>
  </metadata>
  <sodipodi:namedview
     pagecolor="#ffffff"
     bordercolor="#666666"
     borderopacity="1"
     objecttolerance="10"
     gridtolerance="10"
     guidetolerance="10"
     inkscape:pageopacity="0"
     inkscape:pageshadow="2"
     inkscape:window-width="1366"
     inkscape:window-height="708"
     id="namedview14"
     showgrid="false"
     inkscape:snap-bbox="true"
     inkscape:bbox-nodes="true"
     inkscape:snap-bbox-edge-midpoints="true"
     inkscape:zoom="2.4903847"
     inkscape:cx="-45.319802"
     inkscape:cy="-13.68765"
     inkscape:window-x="0"
     inkscape:window-y="28"
     inkscape:window-maximized="1"
     inkscape:current-layer="Foreground"
     inkscape:document-rotation="0">
    <inkscape:grid
       type="xygrid"
       id="grid849" />
  </sodipodi:namedview>
  <defs
     id="defs5">
    <filter
       id="filter879"
       x="-0.048"
       y="-0.048"
       width="1.096"
       height="1.096"
       color-interpolation-filters="sRGB">
      <feGaussianBlur
         stdDeviation="0.32"
         id="feGaussianBlur2" />
    </filter>
    <filter
       inkscape:collect="always"
       style="color-interpolation-filters:sRGB"
       id="filter1038"
       x="-0.038880002"
       width="1.07776"
       y="-0.038880002"
       height="1.07776">
      <feGaussianBlur
         inkscape:collect="always"
         stdDeviation="0.40057989"
         id="feGaussianBlur1040" />
    </filter>
  </defs>
  <circle
     cx="15.272654"
     cy="15.272654"
     r="12.363577"
     fill="#f75a61"
     stroke-width="0"
     id="circle968"
     style="opacity:0.1;fill:#000000;filter:url(#filter1038)" />
  <circle
     cx="15.272654"
     cy="14.545384"
     r="12.363577"
     fill="#f75a61"
     stroke-width="0"
     id="circle9-3" />
  <circle
     cx="15.272654"
     cy="14.545384"
     r="12.363577"
     fill="#f75a61"
     stroke-width="0"
     id="circle863"
     style="fill:#000000;opacity:0.15" />
  <path
     id="rect835-6"
     style="fill:#ffffff;stroke-width:1.48723;stroke-linecap:round;stroke-linejoin:round"
     d="m 21.186609,8.6314289 c -0.142449,-0.1424492 -0.371808,-0.1424492 -0.514257,0 L 15.272653,14.031127 9.8729549,8.6314289 c -0.1424492,-0.1424492 -0.3718078,-0.1424492 -0.514257,0 -0.1424492,0.1424492 -0.1424492,0.3718078 0,0.514257 l 5.3996981,5.3996981 -5.3996981,5.399699 c -0.1424492,0.142449 -0.1424492,0.371808 0,0.514257 0.1424492,0.142449 0.3718078,0.142449 0.514257,0 l 5.3996981,-5.399699 5.399699,5.399699 c 0.142449,0.142449 0.371808,0.142449 0.514257,0 0.142449,-0.142449 0.142449,-0.371808 0,-0.514257 L 15.78691,14.545384 21.186609,9.1456859 c 0.142449,-0.1424492 0.142449,-0.3718078 0,-0.514257 z" />
  <path
     id="circle840"
     d="M 15.268393,2.1818077 A 12.363577,12.363577 0 0 0 2.909077,14.545385 12.363577,12.363577 0 0 0 2.9147588,14.91186 12.363577,12.363577 0 0 1 15.272654,2.909077 12.363577,12.363577 0 0 1 27.63055,14.906179 12.363577,12.363577 0 0 0 27.63625,14.545385 12.363577,12.363577 0 0 0 15.272673,2.1818077 a 12.363577,12.363577 0 0 0 -0.0043,0 z"
     style="opacity:0.1;fill:#ffffff;stroke-width:0.727269" />
</svg>
