<?xml version="1.0" encoding="UTF-8" standalone="no"?>
<svg
   width="24"
   height="24"
   version="1.1"
   viewBox="0 0 24 24"
   id="svg6"
   sodipodi:docname="window-close-symbolic.svg"
   inkscape:version="1.1.2 (0a00cf5339, 2022-02-04)"
   xmlns:inkscape="http://www.inkscape.org/namespaces/inkscape"
   xmlns:sodipodi="http://sodipodi.sourceforge.net/DTD/sodipodi-0.dtd"
   xmlns="http://www.w3.org/2000/svg"
   xmlns:svg="http://www.w3.org/2000/svg"
   xmlns:rdf="http://www.w3.org/1999/02/22-rdf-syntax-ns#"
   xmlns:cc="http://creativecommons.org/ns#"
   xmlns:dc="http://purl.org/dc/elements/1.1/">
  <defs
     id="defs10" />
  <sodipodi:namedview
     pagecolor="#a9a9a9"
     bordercolor="#666666"
     borderopacity="1"
     objecttolerance="10"
     gridtolerance="10"
     guidetolerance="10"
     inkscape:pageopacity="0"
     inkscape:pageshadow="2"
     inkscape:window-width="1440"
     inkscape:window-height="746"
     id="namedview8"
     showgrid="true"
     inkscape:zoom="21.583333"
     inkscape:cx="9.822394"
     inkscape:cy="12.370657"
     inkscape:window-x="0"
     inkscape:window-y="32"
     inkscape:window-maximized="1"
     inkscape:current-layer="svg6"
     inkscape:pagecheckerboard="0">
    <inkscape:grid
       type="xygrid"
       id="grid822" />
  </sodipodi:namedview>
  <metadata
     id="metadata2">
    <rdf:RDF>
      <cc:Work
         rdf:about="">
        <dc:format>image/svg+xml</dc:format>
        <dc:type
           rdf:resource="http://purl.org/dc/dcmitype/StillImage" />
      </cc:Work>
    </rdf:RDF>
  </metadata>
  <path
     id="rect846"
     style="fill:#ffffff;fill-opacity:1"
     d="m 5.9895924,5.9895924 c -0.3917372,0.3917371 -0.3917372,1.0224764 0,1.4142135 L 10.585786,12 5.9895924,16.596194 c -0.3917372,0.391737 -0.3917372,1.022476 0,1.414214 0.3917371,0.391737 1.0224764,0.391737 1.4142135,0 L 12,13.414214 l 4.596194,4.596194 c 0.391737,0.391737 1.022476,0.391737 1.414214,0 0.391737,-0.391738 0.391737,-1.022477 0,-1.414214 L 13.414214,12 18.010408,7.4038059 c 0.391737,-0.3917371 0.391737,-1.0224764 0,-1.4142135 -0.391738,-0.3917372 -1.022477,-0.3917372 -1.414214,0 L 12,10.585786 7.4038059,5.9895924 c -0.3917371,-0.3917372 -1.0224764,-0.3917372 -1.4142135,0 z" />
</svg>
