<svg xmlns="http://www.w3.org/2000/svg" width="16" height="16">
    <g color="#000" fill="#2e3436">
        <path d="M4.707 5.293L3.293 6.707 8 11.414l4.707-4.707-1.414-1.414L8 8.586z" style="line-height:normal;font-variant-ligatures:normal;font-variant-position:normal;font-variant-caps:normal;font-variant-numeric:normal;font-variant-alternates:normal;font-feature-settings:normal;text-indent:0;text-align:start;text-decoration-line:none;text-decoration-style:solid;text-decoration-color:#000;text-transform:none;text-orientation:mixed;white-space:normal;shape-padding:0;isolation:auto;mix-blend-mode:normal;solid-color:#000;solid-opacity:1;marker:none" font-weight="400" font-family="sans-serif" overflow="visible"/>
        <path d="M12 6V5h1v1zM3 6V5h1v1z" style="marker:none" overflow="visible"/>
        <path d="M3 6c0-.554.446-1 1-1s1 .446 1 1-.446 1-1 1-1-.446-1-1zM11 6c0-.554.446-1 1-1s1 .446 1 1-.446 1-1 1-1-.446-1-1z" style="marker:none" overflow="visible"/>
    </g>
</svg>
