<?xml version="1.0" encoding="UTF-8" standalone="no"?>
<!-- Created with Inkscape (http://www.inkscape.org/) -->

<svg
   xmlns:dc="http://purl.org/dc/elements/1.1/"
   xmlns:cc="http://creativecommons.org/ns#"
   xmlns:rdf="http://www.w3.org/1999/02/22-rdf-syntax-ns#"
   xmlns:svg="http://www.w3.org/2000/svg"
   xmlns="http://www.w3.org/2000/svg"
   xmlns:sodipodi="http://sodipodi.sourceforge.net/DTD/sodipodi-0.dtd"
   xmlns:inkscape="http://www.inkscape.org/namespaces/inkscape"
   width="64px"
   height="64px"
   id="svg3393"
   version="1.1"
   inkscape:version="0.92.3 (2405546, 2018-03-11)"
   sodipodi:docname="no-notifications.svg">
  <defs
     id="defs3395">
    <clipPath
       id="clipPath6262-0"
       clipPathUnits="userSpaceOnUse">
      <rect
         style="color:#bebebe;display:inline;overflow:visible;visibility:visible;fill:#bebebe;fill-opacity:1;fill-rule:nonzero;stroke:none;stroke-width:2;marker:none"
         id="rect6264-6"
         width="3.8250003"
         height="6.3750005"
         x="26.849981"
         y="220.75" />
    </clipPath>
    <clipPath
       id="clipPath6258-0"
       clipPathUnits="userSpaceOnUse">
      <rect
         style="color:#bebebe;display:inline;overflow:visible;visibility:visible;fill:#bebebe;fill-opacity:1;fill-rule:nonzero;stroke:none;stroke-width:2;marker:none"
         id="rect6260-6"
         width="2.8977275"
         height="5.3129687"
         x="26.965673"
         y="221.28162" />
    </clipPath>
    <clipPath
       id="clipPath6254-6"
       clipPathUnits="userSpaceOnUse">
      <rect
         style="color:#bebebe;display:inline;overflow:visible;visibility:visible;fill:#bebebe;fill-opacity:1;stroke:none;stroke-width:2;marker:none"
         id="rect6256-6"
         width="1.876245"
         height="4.8783236"
         x="26.998718"
         y="221.50153" />
    </clipPath>
    <clipPath
       id="clipPath8028-3"
       clipPathUnits="userSpaceOnUse">
      <path
         style="fill:none;stroke:#000000;stroke-width:1px;stroke-linecap:butt;stroke-linejoin:miter;stroke-opacity:1"
         d="m -73,-30 -7,-7 v -4.5 h 16.5 v 4.5 l -7.5,7 z"
         id="path8030-6"
         inkscape:connector-curvature="0"
         sodipodi:nodetypes="ccccccc" />
    </clipPath>
    <clipPath
       clipPathUnits="userSpaceOnUse"
       id="clipPath6810-7-87-7">
      <rect
         style="color:#bebebe;display:inline;overflow:visible;visibility:visible;fill:none;stroke:#ffffff;stroke-width:2;stroke-linecap:round;stroke-linejoin:round;stroke-miterlimit:4;stroke-dasharray:none;stroke-dashoffset:0;stroke-opacity:1;marker:none"
         id="rect6812-2-4-5"
         width="14"
         height="11"
         x="21"
         y="281" />
    </clipPath>
    <clipPath
       id="clipPath6262"
       clipPathUnits="userSpaceOnUse">
      <rect
         style="color:#bebebe;display:inline;overflow:visible;visibility:visible;fill:#bebebe;fill-opacity:1;fill-rule:nonzero;stroke:none;stroke-width:2;marker:none"
         id="rect6264"
         width="3.8250003"
         height="6.3750005"
         x="26.849981"
         y="220.75" />
    </clipPath>
    <clipPath
       id="clipPath6258"
       clipPathUnits="userSpaceOnUse">
      <rect
         style="color:#bebebe;display:inline;overflow:visible;visibility:visible;fill:#bebebe;fill-opacity:1;fill-rule:nonzero;stroke:none;stroke-width:2;marker:none"
         id="rect6260"
         width="2.8977275"
         height="5.3129687"
         x="26.965673"
         y="221.28162" />
    </clipPath>
    <clipPath
       id="clipPath6254"
       clipPathUnits="userSpaceOnUse">
      <rect
         style="color:#bebebe;display:inline;overflow:visible;visibility:visible;fill:#bebebe;fill-opacity:1;stroke:none;stroke-width:2;marker:none"
         id="rect6256"
         width="1.876245"
         height="4.8783236"
         x="26.998718"
         y="221.50153" />
    </clipPath>
    <inkscape:path-effect
       effect="spiro"
       id="path-effect3951"
       is_visible="true" />
  </defs>
  <sodipodi:namedview
     id="base"
     pagecolor="#ffffff"
     bordercolor="#666666"
     borderopacity="1.0"
     inkscape:pageopacity="0.0"
     inkscape:pageshadow="2"
     inkscape:zoom="1"
     inkscape:cx="125.08157"
     inkscape:cy="-13.805087"
     inkscape:current-layer="layer1"
     showgrid="true"
     inkscape:document-units="px"
     inkscape:grid-bbox="true"
     inkscape:window-width="1664"
     inkscape:window-height="1034"
     inkscape:window-x="1479"
     inkscape:window-y="252"
     inkscape:window-maximized="0" />
  <metadata
     id="metadata3398">
    <rdf:RDF>
      <cc:Work
         rdf:about="">
        <dc:format>image/svg+xml</dc:format>
        <dc:type
           rdf:resource="http://purl.org/dc/dcmitype/StillImage" />
        <dc:title></dc:title>
      </cc:Work>
    </rdf:RDF>
  </metadata>
  <g
     id="layer1"
     inkscape:label="Layer 1"
     inkscape:groupmode="layer">
    <g
       style="display:inline"
       transform="matrix(4,0,0,4,-79.702662,-0.35415646)"
       id="g19245">
      <g
         id="g19247"
         inkscape:label="status"
         style="display:inline"
         transform="translate(-323.02908,-649.02581)" />
      <g
         id="g19249"
         inkscape:label="devices"
         transform="translate(-323.02908,-649.02581)" />
      <g
         id="g19251"
         inkscape:label="apps"
         transform="translate(-323.02908,-649.02581)">
        <path
           inkscape:connector-curvature="0"
           d="m 331.9377,653 c 0.0187,0.16677 0.0625,0.32822 0.0625,0.5 0,2.48528 -2.01472,4.5 -4.5,4.5 -0.11769,0 -0.22834,-0.0224 -0.34375,-0.0312 v 2.21875 c 0,1.00412 0.80838,1.8125 1.8125,1.8125 l 1.54511,-5e-5 2,2.04688 2.0625,-2.04688 h 1.61114 c 1.00413,0 1.8125,-0.80838 1.8125,-1.8125 v -5.375 c 0,-1.00412 -0.80837,-1.8125 -1.8125,-1.8125 z"
           id="path19253"
           sodipodi:nodetypes="csscsscccssssc"
           style="color:#000000;display:inline;overflow:visible;visibility:visible;opacity:0.5;fill:#c3c3c3;fill-opacity:1;fill-rule:nonzero;stroke:none;stroke-width:2;marker:none;enable-background:accumulate" />
        <path
           inkscape:connector-curvature="0"
           d="m 327.5002,650 c -1.933,0 -3.5,1.567 -3.5,3.5 0,1.933 1.567,3.5 3.5,3.5 1.933,0 3.5,-1.567 3.5,-3.5 0,-1.933 -1.567,-3.5 -3.5,-3.5 z m -0.53125,1 h 1.03125 l -0.0625,1.375 a 0.19951718,0.19951718 0 0 0 0,0.0625 0.19951718,0.19951718 0 0 0 0,0.0312 0.19951718,0.19951718 0 0 0 0.125,0.125 0.19951718,0.19951718 0 0 0 0.0312,0 0.19951718,0.19951718 0 0 0 0.0625,0 0.19951718,0.19951718 0 0 0 0.0625,0 0.19951718,0.19951718 0 0 0 0.0312,-0.0312 l 1.15625,-0.75 0.5,0.90625 -1.21875,0.625 a 0.19951718,0.19951718 0 0 0 -0.0312,0 0.19951718,0.19951718 0 0 0 -0.0312,0.0312 0.19951718,0.19951718 0 0 0 -0.0312,0.0937 0.19951718,0.19951718 0 0 0 0,0.0625 0.19951718,0.19951718 0 0 0 0,0.0312 0.19951718,0.19951718 0 0 0 0.0312,0.0625 0.19951718,0.19951718 0 0 0 0.0312,0.0312 0.19951718,0.19951718 0 0 0 0.0312,0.0312 l 1.25,0.625 -0.53125,0.90625 -1.15625,-0.781 a 0.19951718,0.19951718 0 0 0 -0.0312,0 0.19951718,0.19951718 0 0 0 -0.0625,-0.0312 0.19951718,0.19951718 0 0 0 -0.0625,0 0.19951718,0.19951718 0 0 0 -0.125,0.0937 0.19951718,0.19951718 0 0 0 -0.0312,0.0312 0.19951718,0.19951718 0 0 0 0,0.0312 0.19951718,0.19951718 0 0 0 0,0.0625 L 328.0002,656 h -1.03125 l 0.0937,-1.375 a 0.19951718,0.19951718 0 0 0 -0.0312,-0.0937 0.19951718,0.19951718 0 0 0 -0.0312,-0.0625 0.19951718,0.19951718 0 0 0 -0.0625,-0.0312 0.19951718,0.19951718 0 0 0 -0.0625,-0.0312 0.19951718,0.19951718 0 0 0 -0.0312,0 0.19951718,0.19951718 0 0 0 -0.0937,0.0312 l -1.1875,0.78125 -0.5,-0.90625 1.25,-0.625 a 0.19951718,0.19951718 0 0 0 0.0312,-0.0312 0.19951718,0.19951718 0 0 0 0.0312,-0.0312 0.19951718,0.19951718 0 0 0 0.0312,-0.0625 0.19951718,0.19951718 0 0 0 0,-0.0312 0.19951718,0.19951718 0 0 0 0,-0.0625 0.19951718,0.19951718 0 0 0 0,-0.0312 0.19951718,0.19951718 0 0 0 -0.0312,-0.0625 0.19951718,0.19951718 0 0 0 -0.0312,-0.0312 0.19951718,0.19951718 0 0 0 -0.0312,0 l -1.25,-0.625 0.5,-0.90625 1.1875,0.75 a 0.19951718,0.19951718 0 0 0 0.0312,0.0312 0.19951718,0.19951718 0 0 0 0.0625,0 0.19951718,0.19951718 0 0 0 0.0625,0 0.19951718,0.19951718 0 0 0 0.0312,0 0.19951718,0.19951718 0 0 0 0.0312,-0.0312 0.19951718,0.19951718 0 0 0 0.0312,-0.0312 0.19951718,0.19951718 0 0 0 0.0312,-0.0312 0.19951718,0.19951718 0 0 0 0,-0.0312 0.19951718,0.19951718 0 0 0 0.0312,-0.0625 0.19951718,0.19951718 0 0 0 0,-0.0312 z"
           id="path19255"
           style="color:#000000;display:inline;overflow:visible;visibility:visible;fill:#bebebe;fill-opacity:1;fill-rule:nonzero;stroke:none;marker:none;enable-background:accumulate" />
      </g>
      <g
         id="g19257"
         inkscape:label="places"
         transform="translate(-323.02908,-649.02581)" />
      <g
         id="g19259"
         inkscape:label="mimetypes"
         transform="translate(-323.02908,-649.02581)" />
      <g
         id="g19261"
         inkscape:label="emblems"
         style="display:inline"
         transform="translate(-323.02908,-649.02581)" />
      <g
         id="g19263"
         inkscape:label="emotes"
         style="display:inline"
         transform="translate(-323.02908,-649.02581)" />
      <g
         id="g19265"
         inkscape:label="categories"
         style="display:inline"
         transform="translate(-323.02908,-649.02581)" />
      <g
         id="g19267"
         inkscape:label="actions"
         style="display:inline"
         transform="translate(-323.02908,-649.02581)" />
    </g>
    <g
       style="opacity:1;vector-effect:none;fill:#bebebe;fill-opacity:1;stroke:none;stroke-width:1;stroke-linecap:butt;stroke-linejoin:miter;stroke-miterlimit:4;stroke-dasharray:none;stroke-dashoffset:0;stroke-opacity:1;marker:none;enable-background:new"
       inkscape:label="preferences-system-notifications"
       id="g13967"
       transform="matrix(4,0,0,4,-1044.0008,-2172)">
      <path
         inkscape:connector-curvature="0"
         d="m 268.94244,544.94838 c -2.20914,0 -3.33013,1.5 -4,4 l -1,5 c -0.10831,0.54156 -0.44772,1 -1,1 v 1 h 12 v -1 c -0.55229,0 -0.89169,-0.45844 -1,-1 l -1,-5 c -0.53033,-2.5 -1.79086,-4 -4,-4 z"
         id="path40220"
         sodipodi:nodetypes="ccsccccscc"
         style="opacity:1;vector-effect:none;fill:#bebebe;fill-opacity:1;stroke:none;stroke-width:1;stroke-linecap:butt;stroke-linejoin:miter;stroke-miterlimit:4;stroke-dasharray:none;stroke-dashoffset:0;stroke-opacity:1;marker:none;paint-order:normal" />
      <path
         inkscape:connector-curvature="0"
         d="m 269.11822,556.94838 a 1.5,1.5 0 0 0 1.41211,1 1.5,1.5 0 0 0 1.41211,-1 z"
         id="path40774"
         style="opacity:1;vector-effect:none;fill:#bebebe;fill-opacity:1;stroke:none;stroke-width:1;stroke-linecap:butt;stroke-linejoin:miter;stroke-miterlimit:4;stroke-dasharray:none;stroke-dashoffset:0;stroke-opacity:1;marker:none;paint-order:normal" />
    </g>
  </g>
</svg>
