<?xml version="1.0" encoding="UTF-8" standalone="no"?>
<svg
   xmlns:dc="http://purl.org/dc/elements/1.1/"
   xmlns:cc="http://creativecommons.org/ns#"
   xmlns:rdf="http://www.w3.org/1999/02/22-rdf-syntax-ns#"
   xmlns:svg="http://www.w3.org/2000/svg"
   xmlns="http://www.w3.org/2000/svg"
   xmlns:sodipodi="http://sodipodi.sourceforge.net/DTD/sodipodi-0.dtd"
   xmlns:inkscape="http://www.inkscape.org/namespaces/inkscape"
   width="20"
   height="20"
   id="svg2">
  <g
     id="g835">
    <path
       style="color:#000000;shape-padding:0;clip-rule:nonzero;display:block;overflow:visible;visibility:visible;opacity:1;solid-color:#000000;solid-opacity:1;fill:#464646;fill-opacity:1;fill-rule:nonzero;stroke:none;stroke-width:1.5;stroke-linecap:butt;stroke-linejoin:miter;stroke-miterlimit:10;stroke-dasharray:none;stroke-dashoffset:0;stroke-opacity:1;marker:none;enable-background:accumulate"
       d="M 10.705078 1.671875 C 9.8685536 1.7465699 8.886927 1.5353073 8.2578125 2.2480469 C 8.0785627 2.7511513 7.8667422 2.9777446 7.3125 2.8652344 C 6.5186841 2.8141575 5.6105879 2.9190179 5.125 3.6386719 C 4.5700923 4.4696324 4.8113194 5.4949043 4.7578125 6.4316406 L 4.7578125 7.9335938 C 4.2480917 7.6156216 3.6258927 7.8015358 3.0585938 7.7519531 C 2.6157606 7.7312277 2.1774807 7.7771069 1.7402344 7.84375 C 1.7971654 10.529678 1.813967 13.217089 1.8613281 15.902344 C 1.9550191 17.204635 3.0933719 18.307155 4.40625 18.326172 C 5.0391993 18.341272 5.8885801 18.332951 6.6308594 18.337891 C 9.8526764 18.325821 13.076973 18.38774 16.296875 18.28125 C 17.459088 18.161027 18.510143 17.092798 18.367188 15.884766 L 18.367188 6.4042969 C 17.660379 5.4636119 16.551912 4.623434 15.308594 4.8339844 C 15.009045 4.3804158 14.822476 3.3608651 14.082031 3.0351562 C 13.727176 2.744118 13.242443 2.9253873 12.822266 2.8730469 C 12.524824 2.8003648 11.966366 3.0655864 11.953125 2.6210938 C 11.795774 2.0995736 11.23789 1.7125276 10.705078 1.671875 z M 10.599609 3.1757812 C 10.764131 3.4472414 10.782382 3.9294982 10.818359 4.3007812 C 10.824915 4.3076775 10.838155 4.3066925 10.845703 4.3125 C 10.836598 4.3123268 10.827465 4.3126732 10.818359 4.3125 L 11.3125 10.212891 L 11.976562 4.3710938 L 13.322266 4.375 C 13.858345 4.7645492 13.735252 5.5154752 13.876953 6.0976562 C 13.865826 6.1651282 13.88335 6.1937019 13.892578 6.234375 C 13.891928 6.2343667 13.891276 6.2343833 13.890625 6.234375 L 13.902344 6.3203125 L 14.384766 10.185547 L 15.048828 6.265625 C 15.622863 6.228498 16.206517 6.3041365 16.607422 6.7675781 C 17.017062 6.9844433 16.823063 7.4565491 16.867188 7.8261719 L 16.867188 16.167969 C 16.530129 17.131654 15.267211 16.71624 14.492188 16.828125 C 11.121671 16.841205 7.7500508 16.861953 4.3808594 16.814453 C 3.4051926 16.786173 3.2389196 15.744474 3.3398438 14.972656 C 3.3282027 13.065594 3.2950998 11.158732 3.2617188 9.2519531 C 3.5880829 9.2584131 3.9376766 9.2391948 4.25 9.2617188 C 4.7438842 10.17694 4.7346154 11.262903 4.7578125 12.277344 C 5.2504494 12.270544 5.8011939 12.317174 6.2578125 12.277344 C 6.2669593 9.7577406 6.2393741 7.2373172 6.2714844 4.71875 C 6.3763823 4.198849 7.0022289 4.409587 7.3828125 4.3652344 L 8.0585938 4.3652344 L 8.546875 10.212891 L 9.2167969 4.3359375 L 9.2128906 4.3359375 C 9.2438386 3.9531035 9.0622615 3.4401006 9.4609375 3.2167969 L 10.599609 3.1757812 z "
       id="path5630" />
  </g>
</svg>
