<?xml version="1.0" encoding="UTF-8" standalone="no"?>
<svg
   xmlns:dc="http://purl.org/dc/elements/1.1/"
   xmlns:cc="http://creativecommons.org/ns#"
   xmlns:rdf="http://www.w3.org/1999/02/22-rdf-syntax-ns#"
   xmlns:svg="http://www.w3.org/2000/svg"
   xmlns="http://www.w3.org/2000/svg"
   xmlns:sodipodi="http://sodipodi.sourceforge.net/DTD/sodipodi-0.dtd"
   xmlns:inkscape="http://www.inkscape.org/namespaces/inkscape"
   width="20"
   height="20"
   id="svg2">
  <g
     id="layer1"
     style="display:inline">
    <g
       id="id1"
       transform="translate(-19,-0.75)">
      <path
         style="color:#000000;shape-padding:0;clip-rule:nonzero;display:block;overflow:visible;visibility:visible;opacity:1;solid-color:#000000;solid-opacity:1;fill:#464646;fill-opacity:1;fill-rule:nonzero;stroke:none;stroke-width:1.5;stroke-linecap:butt;stroke-linejoin:miter;stroke-miterlimit:10;stroke-dasharray:none;stroke-dashoffset:0;stroke-opacity:1;marker:none;enable-background:accumulate"
         d="m 19.855469,0.45507812 c 0,6.69466128 0,13.38932288 0,20.08398388 1.414713,-1.38151 2.829427,-2.763021 4.24414,-4.144531 0.5882,1.18866 1.158389,2.386561 1.758464,3.569127 1.108631,1.640259 4.157538,0.465128 3.89799,-1.495859 0.01057,-0.470226 -0.405577,-0.908445 -0.434651,-1.313638 0.259401,-0.25321 0.518802,-0.50642 0.778203,-0.75963 0.5882,1.18866 1.158389,2.386561 1.758464,3.569127 1.108631,1.640259 4.157538,0.465128 3.89799,-1.495859 -0.192325,-0.904303 -0.717854,-1.698026 -1.068629,-2.548967 -0.238908,-0.512658 -0.477817,-1.025315 -0.716725,-1.537973 1.755859,0 3.511719,0 5.267578,0 C 34.777352,9.738932 30.31641,5.0970051 25.855469,0.45507812 c 0,2.08138018 0,4.16276048 0,6.24414068 -2,-2.0813802 -4,-4.1627605 -6,-6.24414068 z m 1.5,3.72656248 c 2,2.0813801 4,4.1627603 6,6.2441404 0,-2.0813801 0,-4.1627603 0,-6.2441404 2.786458,2.8997395 5.572917,5.7994789 8.359375,8.6992184 -1.366537,0 -2.733073,0 -4.09961,0 0.883468,1.903435 1.781983,3.800273 2.656081,5.707817 0.0065,0.622781 -1.227555,0.980575 -1.325116,0.207118 -0.80433,-1.640251 -1.608661,-3.280501 -2.412991,-4.920752 -1.020182,0.995443 -2.040365,1.990885 -3.060547,2.986328 0.263642,0.608048 0.596803,1.192457 0.814693,1.816134 -0.182662,0.601037 -1.26833,0.8373 -1.365856,0.06795 -0.796094,-1.623456 -1.592189,-3.246912 -2.388284,-4.870368 -1.059245,1.033854 -2.118489,2.067708 -3.177734,3.101562 -4e-6,-4.265002 -7e-6,-8.5300036 -1.1e-5,-12.7950054 z"
         id="path5565" />
    </g>
    <g
       id="id2"
       transform="translate(-25,-0.75)" />
  </g>
</svg>
