<?xml version="1.0" encoding="UTF-8" standalone="no"?>
<svg
   xmlns:dc="http://purl.org/dc/elements/1.1/"
   xmlns:cc="http://creativecommons.org/ns#"
   xmlns:rdf="http://www.w3.org/1999/02/22-rdf-syntax-ns#"
   xmlns:svg="http://www.w3.org/2000/svg"
   xmlns="http://www.w3.org/2000/svg"
   xmlns:sodipodi="http://sodipodi.sourceforge.net/DTD/sodipodi-0.dtd"
   xmlns:inkscape="http://www.inkscape.org/namespaces/inkscape"
   width="20"
   height="20"
   id="svg2"
   version="1.1">
  <g
     id="layer1"
     style="display:inline">
    <g
       id="id1"
       transform="translate(-22.25,-0.75)">
      <path
         style="color:#000000;shape-padding:0;clip-rule:nonzero;display:block;overflow:visible;visibility:visible;opacity:1;solid-color:#000000;solid-opacity:1;fill:#464646;fill-opacity:1;fill-rule:nonzero;stroke:none;stroke-width:1.5;stroke-linecap:butt;stroke-linejoin:miter;stroke-miterlimit:10;stroke-dasharray:none;stroke-dashoffset:0;stroke-opacity:1;marker:none;enable-background:accumulate"
         d="m 25.855469,0.45507812 c 0,6.69466128 0,13.38932288 0,20.08398388 1.414713,-1.380859 2.829427,-2.761719 4.24414,-4.142578 0.612408,1.215372 1.173049,2.460221 1.819709,3.656095 1.141947,1.476279 3.975266,0.389006 3.846009,-1.473608 -0.09413,-0.822519 -0.594755,-1.521423 -0.899969,-2.277599 -0.298869,-0.640171 -0.597739,-1.280342 -0.896608,-1.920513 1.75651,0 3.513021,0 5.269531,0 C 34.777344,9.738932 30.316406,5.0970051 25.855469,0.45507812 Z m 1.5,3.72656248 c 2.786458,2.8997395 5.572917,5.7994789 8.359375,8.6992184 -1.367188,0 -2.734375,0 -4.101563,0 0.885072,1.903196 1.781799,3.80152 2.659622,5.707744 0.0349,0.566084 -1.149057,0.988823 -1.282093,0.297971 -0.818567,-1.671162 -1.637133,-3.342323 -2.455699,-5.013485 -1.059896,1.034505 -2.119791,2.06901 -3.179687,3.103515 1.5e-5,-4.264988 3e-5,-8.5299756 4.5e-5,-12.7949634 z"
         id="path5565" />
    </g>
  </g>
</svg>
