<?xml version="1.0" encoding="UTF-8" standalone="no"?>
<!-- Created with Inkscape (http://www.inkscape.org/) -->

<svg
   xmlns:osb="http://www.openswatchbook.org/uri/2009/osb"
   xmlns:dc="http://purl.org/dc/elements/1.1/"
   xmlns:cc="http://creativecommons.org/ns#"
   xmlns:rdf="http://www.w3.org/1999/02/22-rdf-syntax-ns#"
   xmlns:svg="http://www.w3.org/2000/svg"
   xmlns="http://www.w3.org/2000/svg"
   xmlns:sodipodi="http://sodipodi.sourceforge.net/DTD/sodipodi-0.dtd"
   xmlns:inkscape="http://www.inkscape.org/namespaces/inkscape"
   inkscape:export-ydpi="90.000000"
   inkscape:export-xdpi="90.000000"
   width="24"
   height="24"
   id="svg11300"
   sodipodi:version="0.32"
   inkscape:version="0.92.4 (5da689c313, 2019-01-14)"
   sodipodi:docname="activities-ubuntu.svg"
   inkscape:output_extension="org.inkscape.output.svg.inkscape"
   version="1.0"
   style="display:inline;enable-background:new">
  <sodipodi:namedview
     stroke="#ef2929"
     fill="#f57900"
     id="base"
     pagecolor="#bebebe"
     bordercolor="#525252"
     borderopacity="1"
     inkscape:pageopacity="1"
     inkscape:pageshadow="2"
     inkscape:zoom="8"
     inkscape:cx="-0.995913"
     inkscape:cy="5.92008"
     inkscape:current-layer="layer1"
     showgrid="true"
     inkscape:grid-bbox="true"
     inkscape:document-units="px"
     inkscape:showpageshadow="true"
     inkscape:window-width="1366"
     inkscape:window-height="710"
     inkscape:window-x="0"
     inkscape:window-y="28"
     width="400px"
     height="300px"
     inkscape:snap-nodes="true"
     inkscape:snap-bbox="true"
     gridtolerance="10000"
     inkscape:object-nodes="true"
     inkscape:snap-grids="true"
     showguides="false"
     inkscape:guide-bbox="true"
     inkscape:window-maximized="1"
     inkscape:bbox-nodes="true"
     inkscape:bbox-paths="false"
     inkscape:snap-bbox-edge-midpoints="false"
     inkscape:snap-bbox-midpoints="false"
     objecttolerance="10000"
     guidetolerance="10000"
     borderlayer="true"
     showborder="true"
     guidecolor="#ff0b00"
     guideopacity="1"
     guidehicolor="#001aff"
     guidehiopacity="0.49803922">
    <inkscape:grid
       type="xygrid"
       id="grid3123"
       empspacing="4"
       visible="true"
       enabled="true"
       snapvisiblegridlinesonly="true" />
    <sodipodi:guide
       position="12,12"
       orientation="1,0"
       id="guide4135"
       inkscape:locked="false" />
  </sodipodi:namedview>
  <defs
     id="defs3">
    <linearGradient
       id="selected_bg_color"
       osb:paint="solid">
      <stop
         style="stop-color:#5294e2;stop-opacity:1;"
         offset="0"
         id="stop4140" />
    </linearGradient>
  </defs>
  <metadata
     id="metadata4">
    <rdf:RDF>
      <cc:Work
         rdf:about="">
        <dc:format>image/svg+xml</dc:format>
        <dc:type
           rdf:resource="http://purl.org/dc/dcmitype/StillImage" />
        <dc:creator>
          <cc:Agent>
            <dc:title />
          </cc:Agent>
        </dc:creator>
        <dc:source />
        <cc:license
           rdf:resource="" />
        <dc:title></dc:title>
        <dc:subject>
          <rdf:Bag />
        </dc:subject>
        <dc:date />
        <dc:rights>
          <cc:Agent>
            <dc:title />
          </cc:Agent>
        </dc:rights>
        <dc:publisher>
          <cc:Agent>
            <dc:title />
          </cc:Agent>
        </dc:publisher>
        <dc:identifier />
        <dc:relation />
        <dc:language />
        <dc:coverage />
        <dc:description />
        <dc:contributor>
          <cc:Agent>
            <dc:title />
          </cc:Agent>
        </dc:contributor>
      </cc:Work>
      <cc:Work
         rdf:about="">
        <dc:format>image/svg+xml</dc:format>
        <dc:type
           rdf:resource="http://purl.org/dc/dcmitype/StillImage" />
      </cc:Work>
    </rdf:RDF>
  </metadata>
  <g
     style="display:inline"
     inkscape:groupmode="layer"
     inkscape:label="Base"
     id="layer1"
     transform="translate(0,-276)">
    <path
       inkscape:connector-curvature="0"
       style="fill:#dedede;fill-opacity:1;stroke-width:3.77960205"
       d="m 12,279 a 9,9 0 1 0 0,18 9,9 0 0 0 0,-18 z m 3.207984,2.50857 a 1.1990079,1.1990079 0 0 1 0.892878,1.79213 1.2011338,1.2011338 0 1 1 -0.892878,-1.79213 z m -3.21011,1.27128 c 0.484706,0 0.952404,0.0659 1.396717,0.18921 a 1.6858392,1.6858392 0 0 0 2.259832,1.30955 c 0.888627,0.87375 1.466871,2.06213 1.551907,3.38657 l -1.711349,0.0234 a 3.5098618,3.5098618 0 0 0 -4.974608,-2.86996 L 9.684894,283.31985 A 5.2020787,5.2020787 0 0 1 12,282.77988 Z m -2.895476,0.87588 0.880123,1.47324 a 3.50561,3.50561 0 0 0 0,5.74206 l -0.880123,1.47112 a 5.2254636,5.2254636 0 0 1 -2.155664,-3.03365 1.6815874,1.6815874 0 0 0 0,-2.61699 5.2297154,5.2297154 0 0 1 2.155664,-3.03578 z m -3.222866,3.14208 a 1.2021968,1.2021968 0 1 1 0,2.40439 1.201135,1.201135 0 0 1 0,-2.40227 z m 9.615449,1.51151 1.711349,0.0276 a 5.2042046,5.2042046 0 0 1 -1.551907,3.38443 1.6794615,1.6794615 0 0 0 -2.259832,1.30743 5.21696,5.21696 0 0 1 -3.709697,-0.34865 l 0.835479,-1.49664 a 3.5077359,3.5077359 0 0 0 4.974608,-2.87421 z m -0.584623,3.79686 a 1.2037273,1.2037273 0 1 1 0.293374,2.38951 1.2037273,1.2037273 0 0 1 -0.293374,-2.38951 z"
       id="path14" />
  </g>
</svg>
