<?xml version="1.0" encoding="UTF-8" standalone="no"?>
<svg
   xmlns:dc="http://purl.org/dc/elements/1.1/"
   xmlns:cc="http://creativecommons.org/ns#"
   xmlns:rdf="http://www.w3.org/1999/02/22-rdf-syntax-ns#"
   xmlns:svg="http://www.w3.org/2000/svg"
   xmlns="http://www.w3.org/2000/svg"
   id="svg5556"
   version="1.1"
   viewBox="0 0 6.3499999 6.3500002"
   height="24"
   width="24">
  <defs
     id="defs5550" />
  <metadata
     id="metadata5553">
    <rdf:RDF>
      <cc:Work
         rdf:about="">
        <dc:format>image/svg+xml</dc:format>
        <dc:type
           rdf:resource="http://purl.org/dc/dcmitype/StillImage" />
        <dc:title></dc:title>
      </cc:Work>
    </rdf:RDF>
  </metadata>
  <g
     transform="translate(0,-290.64998)"
     id="layer1">
    <g
       transform="matrix(0.02262785,0,0,0.02262785,0.27826107,291.44373)"
       id="g5457">
      <path
         id="path5443"
         transform="translate(-178.44539,-506.5705)"
         d="m 306.46289,506.57031 c -22.03188,0.0468 -43.49376,7.00749 -61.35937,19.90039 l 23.90234,23.90235 c 11.27745,-6.8986 24.23694,-10.55955 37.45703,-10.58203 39.77241,-8e-5 72.01375,32.24125 72.01367,72.01367 -0.0318,13.21538 -3.69961,26.16761 -10.60156,37.4375 l 23.94727,23.94922 c 12.8888,-17.87595 19.84123,-39.3488 19.875,-61.38672 0,-58.11963 -47.11476,-105.23438 -105.23438,-105.23438 z m -85.36133,43.84961 c -12.88881,17.87594 -19.84123,39.34684 -19.875,61.38477 0,58.11962 47.1167,105.23633 105.23633,105.23633 22.03188,-0.0468 43.4918,-7.00749 61.35742,-19.9004 l -23.90234,-23.90234 c -11.27745,6.89859 -24.235,10.55956 -37.45508,10.58203 -39.77242,8e-5 -72.0157,-32.24321 -72.01562,-72.01562 0.0318,-13.21538 3.6996,-26.16566 10.60156,-37.43555 z m 85.34375,27.88281 a 33.503357,33.503357 0 0 0 -33.5039,33.50196 33.503357,33.503357 0 0 0 33.5039,33.5039 33.503357,33.503357 0 0 0 33.50391,-33.5039 33.503357,33.503357 0 0 0 -33.50391,-33.50196 z"
         style="fill:#dedede" />
    </g>
  </g>
</svg>
