<svg xmlns="http://www.w3.org/2000/svg" xmlns:xlink="http://www.w3.org/1999/xlink" width="48" height="48">
 <defs>
  <clipPath>
   <rect width="42" x="307" y="223" rx="9" height="42" transform="rotate(90)" fill="url(#3)" color="#bebebe"/>
  </clipPath>
  <clipPath>
   <rect width="240" x="24" y="36" rx="50" height="240" fill="#986767" color="#bebebe"/>
  </clipPath>
  <clipPath>
   <rect width="16" x="432" y="116" rx="2" height="16" opacity="0.2" fill="#6d6d6d" color="#bebebe"/>
  </clipPath>
  <clipPath>
   <path d="m 98.03125,23.191212 c -41.492132,1.05238 -74.84375,35.06824 -74.84375,76.812498 0,42.40687 34.405632,76.8125 76.8125,76.8125 42.40687,0 76.8125,-34.40563 76.8125,-76.8125 0,-42.406866 -34.40563,-76.812498 -76.8125,-76.812498 -0.662607,0 -1.310145,-0.0167 -1.96875,0 z M 100,50.659962 c 27.24464,0 49.34375,22.099114 49.34375,49.343748 -1e-5,27.24464 -22.09911,49.34375 -49.34375,49.34375 -27.244636,-1e-5 -49.34375,-22.09911 -49.34375,-49.34375 0,-27.244634 22.099114,-49.343748 49.34375,-49.343748 z"/>
  </clipPath>
  <clipPath>
   <path d="m 152,204 a 8,8 0 1 1 -16,0 8,8 0 1 1 16,0 z"/>
  </clipPath>
  <clipPath>
   <path d="m 145,215 c 33.13708,0 60,-26.86292 60,-60 0,-33.13708 -26.86292,-60 -60,-60 -33.13708,0 -60,26.86292 -60,60 0,12.50698 3.8285,24.10633 10.375,33.71875 L 89,211 111.28125,204.625 C 120.89367,211.1715 132.49302,215 145,215 z"/>
  </clipPath>
  <clipPath>
   <rect width="16" x="432" y="116" rx="3" height="16" color="#bebebe"/>
  </clipPath>
  <clipPath>
   <path d="m 144,70 c -49.705627,0 -90,40.29437 -90,90 0,49.70563 40.294373,90 90,90 49.70563,0 90,-40.29437 90,-90 0,-49.70563 -40.29437,-90 -90,-90 z m 0,32.1875 c 32.03251,0 58,25.96748 58,58 0,32.03252 -25.96749,58 -58,58 -32.03251,0 -58,-25.96748 -58,-58 0,-32.03252 25.96749,-58 58,-58 z"/>
  </clipPath>
  <clipPath>
   <rect width="22" x="433" y="77" rx="3" height="22" opacity="0.2" fill="#6d6d6d" color="#bebebe"/>
  </clipPath>
  <clipPath>
   <rect width="30" x="433" y="29" rx="4" height="30" opacity="0.2" fill="#6d6d6d" color="#bebebe"/>
  </clipPath>
  <clipPath>
   <rect width="90" x="307" y="31" rx="18.75" height="90" fill="url(#1)" color="#bebebe"/>
  </clipPath>
  <clipPath>
   <rect width="60" x="306" y="142" rx="12.5" height="60" transform="matrix(0 -1 1 0 0 0)" fill="url(#0)" color="#bebebe"/>
  </clipPath>
  <clipPath>
   <rect width="30" x="433" y="29" rx="6" height="30" color="#bebebe"/>
  </clipPath>
  <clipPath>
   <rect width="22" x="433" y="77" rx="5" height="22" color="#bebebe"/>
  </clipPath>
  <clipPath>
   <rect width="22" x="433" y="77" rx="4" height="22" color="#bebebe"/>
  </clipPath>
  <clipPath>
   <rect width="20" x="434" y="78" rx="4" height="20" color="#bebebe"/>
  </clipPath>
  <linearGradient gradientTransform="matrix(.25 0 0 .25 299.99999 131.99999)" id="0" xlink:href="#2" y1="230" y2="90" x2="0" gradientUnits="userSpaceOnUse"/>
  <linearGradient gradientTransform="matrix(.375 0 0 .375 298 16)" id="1" xlink:href="#2" y1="230" y2="90" x2="0" gradientUnits="userSpaceOnUse"/>
  <linearGradient id="2">
   <stop stop-color="#151515"/>
   <stop offset="1" stop-color="#222"/>
  </linearGradient>
  <linearGradient gradientTransform="matrix(.175 0 0 .175 302.79999 215.99997)" id="3" xlink:href="#2" y1="280" y2="40" x2="0" gradientUnits="userSpaceOnUse"/>
 </defs>
 <g transform="translate(0,-1004.3622)">
  <path d="M 5.1875,1 C 2.8707723,1 1,2.8707723 1,5.1875 l 0,37.625 C 1,45.129228 2.8707723,47 5.1875,47 l 37.625,0 C 45.129228,47 47,45.129228 47,42.8125 L 47,5.1875 C 47,2.8707723 45.129228,1 42.8125,1 L 5.1875,1 z m 0.1875,0.25 37.25,0 c 2.291546,0 4.125,1.8334541 4.125,4.125 l 0,37.25 c 0,2.291546 -1.833454,4.125 -4.125,4.125 l -37.25,0 C 3.0834541,46.75 1.25,44.916546 1.25,42.625 l 0,-37.25 C 1.25,3.0834541 3.0834541,1.25 5.375,1.25 z" transform="translate(0,1004.3622)" opacity="0.05"/>
  <path d="M 5.375,1.25 C 3.0834541,1.25 1.25,3.0834541 1.25,5.375 l 0,37.25 c 0,2.291546 1.8334541,4.125 4.125,4.125 l 37.25,0 c 2.291546,0 4.125,-1.833454 4.125,-4.125 l 0,-37.25 C 46.75,3.0834541 44.916546,1.25 42.625,1.25 l -37.25,0 z m 0.21875,0.25 36.8125,0 C 44.672614,1.5 46.5,3.3273859 46.5,5.59375 l 0,36.8125 C 46.5,44.672614 44.672614,46.5 42.40625,46.5 l -36.8125,0 C 3.3273859,46.5 1.5,44.672614 1.5,42.40625 l 0,-36.8125 C 1.5,3.3273859 3.3273859,1.5 5.59375,1.5 z" transform="translate(0,1004.3622)" opacity="0.1"/>
  <path d="M 5.59375,1.5 C 3.3273859,1.5 1.5,3.3273859 1.5,5.59375 l 0,36.8125 C 1.5,44.672614 3.3273859,46.5 5.59375,46.5 l 36.8125,0 C 44.672614,46.5 46.5,44.672614 46.5,42.40625 l 0,-36.8125 C 46.5,3.3273859 44.672614,1.5 42.40625,1.5 l -36.8125,0 z m 0.09375,0.125 36.625,0 c 2.253773,0 4.0625,1.8087269 4.0625,4.0625 l 0,36.625 c 0,2.253773 -1.808727,4.0625 -4.0625,4.0625 l -36.625,0 c -2.2537731,0 -4.0625,-1.808727 -4.0625,-4.0625 l 0,-36.625 C 1.625,3.4337269 3.4337269,1.625 5.6875,1.625 z" transform="translate(0,1004.3622)" opacity="0.2"/>
  <path d="M 5.6875,1.625 C 3.4337269,1.625 1.625,3.4337269 1.625,5.6875 l 0,36.625 c 0,2.253773 1.8087269,4.0625 4.0625,4.0625 l 36.625,0 c 2.253773,0 4.0625,-1.808727 4.0625,-4.0625 l 0,-36.625 c 0,-2.2537731 -1.808727,-4.0625 -4.0625,-4.0625 l -36.625,0 z m 0.09375,0.125 36.4375,0 c 2.241182,0 4.03125,1.7900679 4.03125,4.03125 l 0,36.4375 c 0,2.241182 -1.790068,4.03125 -4.03125,4.03125 l -36.4375,0 C 3.5400679,46.25 1.75,44.459932 1.75,42.21875 l 0,-36.4375 C 1.75,3.5400679 3.5400679,1.75 5.78125,1.75 z" transform="translate(0,1004.3622)" opacity="0.3"/>
  <path d="M 5.78125,1.75 C 3.5400679,1.75 1.75,3.5400679 1.75,5.78125 l 0,36.4375 c 0,2.241182 1.7900679,4.03125 4.03125,4.03125 l 36.4375,0 c 2.241182,0 4.03125,-1.790068 4.03125,-4.03125 l 0,-36.4375 C 46.25,3.5400679 44.459932,1.75 42.21875,1.75 l -36.4375,0 z m 0.125,0.125 36.1875,0 c 2.228591,0 4.03125,1.802659 4.03125,4.03125 l 0,36.1875 c 0,2.228591 -1.802659,4.03125 -4.03125,4.03125 l -36.1875,0 C 3.677659,46.125 1.875,44.322341 1.875,42.09375 l 0,-36.1875 C 1.875,3.677659 3.677659,1.875 5.90625,1.875 z" transform="translate(0,1004.3622)" opacity="0.4"/>
  <rect rx="4.02" y="1006.24" x="1.875" height="44.25" width="44.25" opacity="0.5"/>
 </g>
 <rect rx="4" y="1.998" x="2" height="44" width="44" fill="#dd4814"/>
 <path d="M 24.000004,12.000001 C 17.372557,12.000001 12,17.372389 12,24 c 0,6.627189 5.372557,12 12.000004,12 6.62744,0 12,-5.372896 12,-12 0,-6.627611 -5.37256,-11.999999 -12,-11.999999 z m 4.125,3.33125 c 0.25818,0.0067 0.51682,0.07428 0.75625,0.2125 0.76631,0.442467 1.02996,1.427433 0.5875,2.19375 -0.44222,0.765978 -1.42127,1.023802 -2.1875,0.58125 -0.76607,-0.442214 -1.0298,-1.421522 -0.5875,-2.1875 0.30419,-0.526843 0.86325,-0.814741 1.43125,-0.8 z m -4.125,1.70625 c 0.64422,0 1.27051,0.09242 1.8625,0.25625 0.10464,0.64355 0.48482,1.235964 1.09375,1.5875 0.60815,0.351196 1.30965,0.386373 1.91875,0.15625 1.18473,1.164757 1.95639,2.74771 2.06875,4.512499 l -2.28125,0.0375 c -0.21023,-2.390305 -2.21759,-4.268749 -4.6625,-4.268749 -0.704516,0 -1.36957,0.158693 -1.968754,0.4375 l -1.112499,-1.99375 c 0.929807,-0.460586 1.973301,-0.725 3.081253,-0.725 z m -3.862503,1.16875 1.174999,1.9625 c -1.203195,0.846834 -1.993749,2.2479 -1.993749,3.831249 0,1.583603 0.790554,2.984585 1.993749,3.83125 l -1.174999,1.9625 c -1.402078,-0.936666 -2.441846,-2.372586 -2.875,-4.05 0.506136,-0.41241 0.825,-1.039747 0.825,-1.74375 0,-0.704171 -0.31895,-1.331254 -0.825,-1.74375 0.433238,-1.677243 1.472922,-3.113249 2.875,-4.049999 z m -4.3,4.193749 c 0.884764,0 1.60625,0.714896 1.60625,1.6 0,0.884681 -0.72157,1.6 -1.60625,1.6 -0.88502,0 -1.600001,-0.715319 -1.600001,-1.6 0,-0.885019 0.714981,-1.6 1.600001,-1.6 z m 12.825003,2.0125 2.28125,0.0375 c -0.11219,1.76479 -0.8841,3.347658 -2.06875,4.5125 -0.6091,-0.230208 -1.3106,-0.194777 -1.91875,0.15625 -0.60901,0.35179 -0.98911,0.94395 -1.09375,1.5875 -0.59208,0.163829 -1.21828,0.25625 -1.8625,0.25625 -1.107952,0 -2.157612,-0.264583 -3.087503,-0.725 l 1.118749,-1.99375 c 0.599268,0.278807 1.264154,0.4375 1.968754,0.4375 2.44491,0 4.45244,-1.878105 4.6625,-4.26875 z m -0.625,5.05 c 0.56798,-0.01474 1.12717,0.27964 1.43125,0.80625 0.44238,0.766232 0.17856,1.745202 -0.5875,2.1875 -0.76632,0.442384 -1.74504,0.178818 -2.1875,-0.5875 -0.44222,-0.765978 -0.17882,-1.745117 0.5875,-2.1875 0.23939,-0.138218 0.49807,-0.212051 0.75625,-0.21875 z" fill="#f9f9f9"/>
</svg>
