<?xml version="1.0" encoding="UTF-8" standalone="no"?>
<svg
   width="224"
   height="217"
   version="1.1"
   viewBox="0 0 224 217"
   id="svg491"
   sodipodi:docname="assets-Light.svg"
   inkscape:version="1.2.2 (b0a8486541, 2022-12-01)"
   xmlns:inkscape="http://www.inkscape.org/namespaces/inkscape"
   xmlns:sodipodi="http://sodipodi.sourceforge.net/DTD/sodipodi-0.dtd"
   xmlns:xlink="http://www.w3.org/1999/xlink"
   xmlns="http://www.w3.org/2000/svg"
   xmlns:svg="http://www.w3.org/2000/svg">
  <sodipodi:namedview
     id="namedview493"
     pagecolor="#dfdfdf"
     bordercolor="#666666"
     borderopacity="1.0"
     inkscape:showpageshadow="2"
     inkscape:pageopacity="0"
     inkscape:pagecheckerboard="0"
     inkscape:deskcolor="#d1d1d1"
     showgrid="false"
     inkscape:zoom="3.0760774"
     inkscape:cx="-17.067191"
     inkscape:cy="117.84489"
     inkscape:window-width="1920"
     inkscape:window-height="1025"
     inkscape:window-x="0"
     inkscape:window-y="27"
     inkscape:window-maximized="1"
     inkscape:current-layer="svg491" />
  <defs
     id="defs9">
    <linearGradient
       id="selected_bg_color">
      <stop
         stop-color="#5294e2"
         offset="0"
         id="stop2" />
    </linearGradient>
    <linearGradient
       id="linearGradient4409"
       x1="152"
       x2="152"
       y1="564.36"
       y2="572.36"
       gradientTransform="translate(4.2857)"
       gradientUnits="userSpaceOnUse"
       xlink:href="#selected_bg_color" />
    <linearGradient
       id="linearGradient4411"
       x1="568.36"
       x2="568.36"
       y1="-156"
       y2="-148"
       gradientTransform="translate(0,-4.2857)"
       gradientUnits="userSpaceOnUse"
       xlink:href="#selected_bg_color" />
    <linearGradient
       id="linearGradient4413"
       x1="608.36"
       x2="608.36"
       y1="-158"
       y2="-150"
       gradientTransform="translate(0,-4.2857)"
       gradientUnits="userSpaceOnUse"
       xlink:href="#selected_bg_color" />
    <linearGradient
       id="linearGradient4415"
       x1="154"
       x2="154"
       y1="601.86"
       y2="606.36"
       gradientTransform="translate(4.2857)"
       gradientUnits="userSpaceOnUse"
       xlink:href="#selected_bg_color" />
  </defs>
  <use
     id="title-1-active"
     transform="matrix(0.16667,0,0,1,2.1905,-415.36)"
     width="100%"
     height="100%"
     xlink:href="#g4206" />
  <g
     id="stick-active"
     transform="translate(-6,-547.36)">
    <use
       id="use4210"
       transform="translate(139,2.8418e-5)"
       width="100%"
       height="100%"
       xlink:href="#g4206" />
    <g
       transform="translate(2,3)"
       fill="#adadad"
       id="g17">
      <rect
         x="155"
         y="564.35999"
         width="2"
         height="8"
         id="rect13" />
      <rect
         transform="rotate(90)"
         x="567.35999"
         y="-160"
         width="2"
         height="8"
         id="rect15" />
    </g>
  </g>
  <g
     id="stick-pressed"
     transform="translate(-0.2857,-547.35995)">
    <use
       transform="translate(23.286,-5.8418e-5)"
       width="100%"
       height="100%"
       xlink:href="#use4210"
       id="use20" />
    <g
       transform="translate(25,3)"
       id="g26">
      <rect
         x="155.28999"
         y="564.35999"
         width="2"
         height="8"
         fill="url(#linearGradient4409)"
         id="rect22"
         style="fill:url(#linearGradient4409)" />
      <rect
         transform="rotate(90)"
         x="567.35999"
         y="-160.28999"
         width="2"
         height="8"
         fill="url(#linearGradient4411)"
         id="rect24"
         style="fill:url(#linearGradient4411)" />
    </g>
  </g>
  <g
     id="stick-inactive"
     transform="translate(6.7143,-547.35995)">
    <use
       transform="translate(46.286,-5.8418e-5)"
       width="100%"
       height="100%"
       xlink:href="#use4210"
       id="use29" />
    <g
       transform="translate(48,3)"
       fill="#cccccc"
       id="g35">
      <rect
         x="155.28999"
         y="564.35999"
         width="2"
         height="8"
         id="rect31" />
      <rect
         transform="rotate(90)"
         x="567.35999"
         y="-160.28999"
         width="2"
         height="8"
         id="rect33" />
    </g>
  </g>
  <g
     id="shade-active"
     transform="translate(-6.286,-547.35995)">
    <use
       transform="translate(0.28571,33)"
       width="100%"
       height="100%"
       xlink:href="#use4210"
       id="use38" />
    <g
       transform="translate(-4.68e-6,-1)"
       fill="#adadad"
       id="g44">
      <rect
         transform="rotate(90)"
         x="607.35999"
         y="-162.28999"
         width="2"
         height="8"
         id="rect40" />
      <path
         d="m 158.29,601.86 4,4.5 h -8 z"
         id="path42" />
    </g>
  </g>
  <g
     id="shade-pressed"
     transform="translate(-0.2857,-547.35995)">
    <use
       transform="translate(23.286,33)"
       width="100%"
       height="100%"
       xlink:href="#use4210"
       id="use47" />
    <g
       transform="translate(23,-1)"
       id="g53">
      <rect
         transform="rotate(90)"
         x="607.35999"
         y="-162.28999"
         width="2"
         height="8"
         fill="url(#linearGradient4413)"
         id="rect49"
         style="fill:url(#linearGradient4413)" />
      <path
         d="m 158.29,601.86 4,4.5 h -8 z"
         fill="url(#linearGradient4415)"
         id="path51"
         style="fill:url(#linearGradient4415)" />
    </g>
  </g>
  <g
     id="shade-inactive"
     transform="translate(6.7143,-547.35995)">
    <use
       transform="translate(46.286,33)"
       width="100%"
       height="100%"
       xlink:href="#use4210"
       id="use56" />
    <g
       transform="translate(46,-1)"
       fill="#cccccc"
       id="g62">
      <rect
         transform="rotate(90)"
         x="607.35999"
         y="-162.28999"
         width="2"
         height="8"
         id="rect58" />
      <path
         d="m 158.29,601.86 4,4.5 h -8 z"
         id="path60" />
    </g>
  </g>
  <use
     id="title-2-active"
     transform="translate(7)"
     width="100%"
     height="100%"
     xlink:href="#title-1-active"
     x="0"
     y="0" />
  <use
     id="title-3-active"
     transform="translate(14)"
     width="100%"
     height="100%"
     xlink:href="#title-1-active"
     x="0"
     y="0" />
  <use
     id="title-4-active"
     transform="translate(21)"
     width="100%"
     height="100%"
     xlink:href="#title-1-active"
     x="0"
     y="0" />
  <use
     id="title-5-active"
     transform="translate(28)"
     width="100%"
     height="100%"
     xlink:href="#title-1-active"
     x="0"
     y="0" />
  <use
     id="title-1-inactive"
     transform="translate(35)"
     width="100%"
     height="100%"
     xlink:href="#title-1-active"
     x="0"
     y="0" />
  <use
     id="title-2-inactive"
     transform="translate(42)"
     width="100%"
     height="100%"
     xlink:href="#title-1-active"
     x="0"
     y="0" />
  <use
     id="title-3-inactive"
     transform="translate(49)"
     width="100%"
     height="100%"
     xlink:href="#title-1-active"
     x="0"
     y="0" />
  <use
     id="title-4-inactive"
     transform="translate(56)"
     width="100%"
     height="100%"
     xlink:href="#title-1-active"
     x="0"
     y="0" />
  <use
     id="title-5-inactive"
     transform="translate(63)"
     width="100%"
     height="100%"
     xlink:href="#title-1-active"
     x="0"
     y="0" />
  <g
     id="close-pressed"
     transform="translate(-2,-547.36)">
    <use
       transform="translate(66,-2.2617e-5)"
       width="100%"
       height="100%"
       xlink:href="#g4206"
       id="use74" />
    <g
       transform="translate(73,559.36)"
       enable-background="new"
       id="g91">
      <g
         transform="translate(0,-1028.4)"
         id="g89">
        <g
           id="titlebutton-close-active"
           transform="translate(-437,1218)">
          <g
             transform="translate(-882,-432.64)"
             id="g84">
            <g
               transform="translate(-103)"
               id="g76" />
            <g
               transform="translate(1323,246.87)"
               fill="#ffffff"
               id="g82">
              <g
                 transform="matrix(0.75,0,0,0.75,2,2.0547)"
                 fill="#ffffff"
                 id="g80">
                <g
                   transform="translate(-60,-518)"
                   fill="#ffffff"
                   id="g78" />
              </g>
            </g>
          </g>
          <rect
             x="441"
             y="-185.64"
             width="16"
             height="16"
             fill="none"
             id="rect86" />
        </g>
      </g>
    </g>
    <g
       transform="translate(73,-469)"
       enable-background="new"
       id="g97">
      <path
         d="m 12,1047.4 c 3.8659,0 6.9999,-3.134 6.9999,-7 0,-3.866 -3.134,-7 -6.9999,-7 -3.866,0 -7.0001,3.134 -7.0001,7 0,3.866 3.134,7 7.0001,7"
         fill="#d52735"
         fill-rule="evenodd"
         id="path93" />
      <path
         d="m 9.1716,1037.5 c -0.39174,0.3917 -0.39174,1.0224 0,1.4142 l 1.4142,1.4142 -1.4142,1.4142 c -0.39174,0.3918 -0.39174,1.0225 0,1.4142 0.39174,0.3918 1.0225,0.3918 1.4142,0 l 1.4142,-1.4142 1.4142,1.4142 c 0.39174,0.3918 1.0225,0.3918 1.4142,0 0.39174,-0.3917 0.39174,-1.0224 0,-1.4142 l -1.4142,-1.4142 1.4142,-1.4142 c 0.39174,-0.3918 0.39174,-1.0225 0,-1.4142 -0.39174,-0.3918 -1.0225,-0.3918 -1.4142,0 L 12,1038.9142 10.5858,1037.5 c -0.39174,-0.3918 -1.0225,-0.3918 -1.4142,0 z"
         enable-background="new"
         fill="#000000"
         opacity="0.5"
         id="path95" />
    </g>
  </g>
  <g
     id="maximize-pressed"
     transform="translate(-2,-547.36)">
    <use
       transform="translate(66,33)"
       width="100%"
       height="100%"
       xlink:href="#g4206"
       id="use100" />
    <g
       transform="translate(73,592.36)"
       enable-background="new"
       id="g113">
      <g
         transform="translate(0,-1028.4)"
         id="g111">
        <g
           id="titlebutton-max-active"
           transform="translate(-408,1218)">
          <g
             transform="translate(-882,-432.64)"
             id="g106">
            <g
               transform="translate(-132)"
               id="g102" />
            <g
               transform="translate(1294,247)"
               fill="#c0e3ff"
               id="g104" />
          </g>
          <rect
             x="412"
             y="-185.64"
             width="16"
             height="16"
             fill="none"
             id="rect108" />
        </g>
      </g>
    </g>
    <g
       transform="translate(73,-436)"
       enable-background="new"
       id="g119">
      <path
         d="m 12,1047.4 c 3.8659,0 6.9999,-3.134 6.9999,-7 0,-3.866 -3.134,-7 -6.9999,-7 -3.866,0 -7.0001,3.134 -7.0001,7 0,3.866 3.134,7 7.0001,7"
         fill="#13c11e"
         fill-rule="evenodd"
         id="path115" />
      <path
         d="m 10.414,1037.4 4.5859,4.5859 V 1038.4 c 0,-0.4155 -0.5845,-1 -1,-1 z m -1.4141,1.4141 v 3.5859 c 0,0.4155 0.5845,1 1,1 h 3.5859 z"
         fill="#000000"
         opacity="0.5"
         id="path117" />
    </g>
  </g>
  <g
     id="hide-pressed"
     transform="translate(-2,-547.36)">
    <use
       transform="translate(66,66)"
       width="100%"
       height="100%"
       xlink:href="#g4206"
       id="use122" />
    <g
       transform="translate(73,625.36)"
       enable-background="new"
       id="g135">
      <g
         transform="translate(0,-1028.4)"
         id="g133">
        <g
           id="titlebutton-min-active"
           transform="translate(-379,1218)">
          <g
             transform="translate(-882,-432.64)"
             id="g128">
            <g
               transform="translate(-161)"
               id="g124" />
            <g
               transform="translate(1265,247)"
               fill="#c0e3ff"
               id="g126" />
          </g>
          <rect
             x="383"
             y="-185.64"
             width="16"
             height="16"
             fill="none"
             id="rect130" />
        </g>
      </g>
    </g>
    <g
       transform="translate(73,-403)"
       enable-background="new"
       id="g141">
      <path
         d="m 12,1047.4 c 3.8659,0 6.9999,-3.134 6.9999,-7 0,-3.866 -3.134,-7 -6.9999,-7 -3.866,0 -7.0001,3.134 -7.0001,7 0,3.866 3.134,7 7.0001,7"
         fill="#da9e10"
         fill-rule="evenodd"
         id="path137" />
      <rect
         x="8"
         y="1039.4"
         width="8"
         height="2"
         ry="1"
         fill="#000000"
         opacity="0.5"
         id="rect139" />
    </g>
  </g>
  <g
     id="close-inactive"
     transform="translate(-2,-547.36)">
    <use
       transform="translate(99,-2.2617e-5)"
       width="100%"
       height="100%"
       xlink:href="#g4206"
       id="use144" />
    <g
       transform="translate(106,559.36)"
       enable-background="new"
       id="g161">
      <g
         transform="translate(0,-1028.4)"
         id="g159">
        <g
           id="titlebutton-close-backdrop"
           transform="translate(-641,1218)"
           opacity="0.45">
          <g
             transform="translate(-678,-432.64)"
             opacity="1"
             id="g154">
            <g
               transform="translate(-103)"
               opacity="1"
               id="g146" />
            <g
               transform="translate(1323,246.87)"
               fill="#ffffff"
               id="g152">
              <g
                 transform="matrix(0.75,0,0,0.75,2,2.0547)"
                 fill="#ffffff"
                 id="g150">
                <g
                   transform="translate(-60,-518)"
                   fill="#ffffff"
                   id="g148" />
              </g>
            </g>
          </g>
          <rect
             x="645"
             y="-185.64"
             width="16"
             height="16"
             fill="none"
             opacity="1"
             id="rect156" />
        </g>
      </g>
    </g>
    <g
       transform="translate(106,-469)"
       enable-background="new"
       id="g165">
      <path
         d="m 12,1047.4 c 3.8659,0 6.9999,-3.134 6.9999,-7 0,-3.866 -3.134,-7 -6.9999,-7 -3.866,0 -7.0001,3.134 -7.0001,7 0,3.866 3.134,7 7.0001,7"
         fill="#cecece"
         fill-rule="evenodd"
         id="path163" />
    </g>
  </g>
  <g
     id="maximize-inactive"
     transform="translate(-2,-547.36)">
    <use
       transform="translate(99,33)"
       width="100%"
       height="100%"
       xlink:href="#g4206"
       id="use168" />
    <g
       transform="translate(106,592.36)"
       enable-background="new"
       id="g179">
      <g
         transform="translate(0,-1028.4)"
         id="g177">
        <g
           id="titlebutton-max-backdrop"
           transform="translate(-612,1201)"
           opacity="0.45">
          <g
             transform="translate(-781,-415.64)"
             opacity="1"
             id="g172">
            <g
               transform="translate(-29)"
               opacity="1"
               id="g170" />
          </g>
          <rect
             x="616"
             y="-168.64"
             width="16"
             height="16"
             fill="none"
             opacity="1"
             id="rect174" />
        </g>
      </g>
    </g>
    <g
       transform="translate(106,-436)"
       enable-background="new"
       id="g183">
      <path
         d="m 12,1047.4 c 3.8659,0 6.9999,-3.134 6.9999,-7 0,-3.866 -3.134,-7 -6.9999,-7 -3.866,0 -7.0001,3.134 -7.0001,7 0,3.866 3.134,7 7.0001,7"
         fill="#cecece"
         fill-rule="evenodd"
         id="path181" />
    </g>
  </g>
  <g
     id="hide-inactive"
     transform="translate(-2,-547.36)">
    <use
       transform="translate(99,66)"
       width="100%"
       height="100%"
       xlink:href="#g4206"
       id="use186" />
    <g
       transform="translate(106,625.36)"
       enable-background="new"
       id="g197">
      <g
         transform="translate(0,-1028.4)"
         id="g195">
        <g
           id="titlebutton-min-backdrop"
           transform="translate(-583,1201)"
           opacity="0.45">
          <g
             transform="translate(-781,-415.64)"
             opacity="1"
             id="g190">
            <g
               transform="translate(-58)"
               opacity="1"
               id="g188" />
          </g>
          <rect
             x="587"
             y="-168.64"
             width="16"
             height="16"
             fill="none"
             opacity="1"
             id="rect192" />
        </g>
      </g>
    </g>
    <g
       transform="translate(106,-403)"
       enable-background="new"
       id="g201">
      <path
         d="m 12,1047.4 c 3.8659,0 6.9999,-3.134 6.9999,-7 0,-3.866 -3.134,-7 -6.9999,-7 -3.866,0 -7.0001,3.134 -7.0001,7 0,3.866 3.134,7 7.0001,7"
         fill="#cecece"
         fill-rule="evenodd"
         id="path199" />
    </g>
  </g>
  <g
     id="hide-prelight"
     transform="translate(-2,-547.36)">
    <use
       transform="translate(33,66)"
       width="100%"
       height="100%"
       xlink:href="#g4206"
       id="use204" />
    <g
       transform="translate(40,625.36)"
       enable-background="new"
       id="g215">
      <g
         transform="translate(0,-1028.4)"
         id="g213">
        <g
           id="titlebutton-min-hover"
           transform="translate(-480,1218)">
          <g
             transform="translate(-781,-432.64)"
             id="g208">
            <g
               transform="translate(1265,247)"
               fill="#c0e3ff"
               id="g206" />
          </g>
          <rect
             x="484"
             y="-185.64"
             width="16"
             height="16"
             fill="none"
             id="rect210" />
        </g>
      </g>
    </g>
    <g
       transform="translate(40,-403)"
       enable-background="new"
       id="g223">
      <path
         d="m 12,1047.4 c 3.8659,0 6.9999,-3.134 6.9999,-7 0,-3.866 -3.134,-7 -6.9999,-7 -3.866,0 -7.0001,3.134 -7.0001,7 0,3.866 3.134,7 7.0001,7"
         fill="#da9e10"
         fill-rule="evenodd"
         id="path217" />
      <path
         d="m 12,1046.9 c 3.5898,0 6.4999,-2.9103 6.4999,-6.5001 0,-3.5899 -2.9102,-6.5 -6.4999,-6.5 -3.5899,0 -6.5001,2.9101 -6.5001,6.5 0,3.5898 2.9102,6.5001 6.5001,6.5001"
         fill="#fac536"
         fill-rule="evenodd"
         id="path219" />
      <rect
         x="8"
         y="1039.4"
         width="8"
         height="2"
         ry="1"
         fill="#000000"
         opacity="0.5"
         id="rect221" />
    </g>
  </g>
  <g
     id="maximize-prelight"
     transform="translate(-2,-547.36)">
    <use
       transform="translate(33,33)"
       width="100%"
       height="100%"
       xlink:href="#g4206"
       id="use226" />
    <g
       transform="translate(40,592.36)"
       enable-background="new"
       id="g237">
      <g
         transform="translate(0,-1028.4)"
         id="g235">
        <g
           id="titlebutton-max-hover"
           transform="translate(-509,1218)">
          <g
             transform="translate(-781,-432.64)"
             id="g230">
            <g
               transform="translate(1294,247)"
               fill="#c0e3ff"
               id="g228" />
          </g>
          <rect
             x="513"
             y="-185.64"
             width="16"
             height="16"
             fill="none"
             id="rect232" />
        </g>
      </g>
    </g>
    <g
       transform="translate(40,-436)"
       enable-background="new"
       id="g245">
      <path
         d="m 12,1047.4 c 3.8659,0 6.9999,-3.134 6.9999,-7 0,-3.866 -3.134,-7 -6.9999,-7 -3.866,0 -7.0001,3.134 -7.0001,7 0,3.866 3.134,7 7.0001,7"
         fill="#13c11e"
         fill-rule="evenodd"
         id="path239" />
      <path
         d="m 12,1046.9 c 3.5898,0 6.4999,-2.9103 6.4999,-6.5001 0,-3.5899 -2.9102,-6.5 -6.4999,-6.5 -3.5899,0 -6.5001,2.9101 -6.5001,6.5 0,3.5898 2.9102,6.5001 6.5001,6.5001"
         fill="#39ea49"
         fill-rule="evenodd"
         id="path241" />
      <path
         d="m 10.414,1037.4 4.5859,4.5859 V 1038.4 c 0,-0.4155 -0.5845,-1 -1,-1 z m -1.4141,1.4141 v 3.5859 c 0,0.4155 0.5845,1 1,1 h 3.5859 z"
         fill="#000000"
         opacity="0.5"
         id="path243" />
    </g>
  </g>
  <g
     id="close-prelight"
     transform="translate(-2,-547.36)">
    <use
       transform="translate(33,-2.2617e-5)"
       width="100%"
       height="100%"
       xlink:href="#g4206"
       id="use248" />
    <g
       transform="translate(40,559.36)"
       enable-background="new"
       id="g265">
      <g
         transform="translate(0,-1028.4)"
         id="g263">
        <g
           id="titlebutton-close-hover"
           transform="translate(-538,1218)">
          <g
             transform="translate(-781,-432.64)"
             id="g258">
            <g
               transform="translate(-103)"
               id="g250" />
            <g
               transform="translate(1323,246.87)"
               fill="#ffffff"
               id="g256">
              <g
                 transform="matrix(0.75,0,0,0.75,2,2.0547)"
                 fill="#ffffff"
                 id="g254">
                <g
                   transform="translate(-60,-518)"
                   fill="#ffffff"
                   id="g252" />
              </g>
            </g>
          </g>
          <rect
             x="542"
             y="-185.64"
             width="16"
             height="16"
             fill="none"
             id="rect260" />
        </g>
      </g>
    </g>
    <g
       transform="translate(40,-469)"
       enable-background="new"
       id="g273">
      <path
         d="m 12,1047.4 c 3.8659,0 6.9999,-3.134 6.9999,-7 0,-3.866 -3.134,-7 -6.9999,-7 -3.866,0 -7.0001,3.134 -7.0001,7 0,3.866 3.134,7 7.0001,7"
         fill="#d52735"
         fill-rule="evenodd"
         id="path267" />
      <path
         d="m 12,1046.9 c 3.5898,0 6.4999,-2.9103 6.4999,-6.5001 0,-3.5899 -2.9102,-6.5 -6.4999,-6.5 -3.5899,0 -6.5001,2.9101 -6.5001,6.5 0,3.5898 2.9102,6.5001 6.5001,6.5001"
         fill="#f25056"
         fill-rule="evenodd"
         id="path269" />
      <path
         d="m 9.1716,1037.5 c -0.39174,0.3917 -0.39174,1.0224 0,1.4142 l 1.4142,1.4142 -1.4142,1.4142 c -0.39174,0.3918 -0.39174,1.0225 0,1.4142 0.39174,0.3918 1.0225,0.3918 1.4142,0 l 1.4142,-1.4142 1.4142,1.4142 c 0.39174,0.3918 1.0225,0.3918 1.4142,0 0.39174,-0.3917 0.39174,-1.0224 0,-1.4142 l -1.4142,-1.4142 1.4142,-1.4142 c 0.39174,-0.3918 0.39174,-1.0225 0,-1.4142 -0.39174,-0.3918 -1.0225,-0.3918 -1.4142,0 L 12,1038.9142 10.5858,1037.5 c -0.39174,-0.3918 -1.0225,-0.3918 -1.4142,0 z"
         enable-background="new"
         fill="#000000"
         opacity="0.5"
         id="path271" />
    </g>
  </g>
  <g
     id="hide-active"
     transform="translate(-2,-547.36)">
    <use
       transform="translate(0,66)"
       width="100%"
       height="100%"
       xlink:href="#g4206"
       id="use276" />
    <g
       transform="translate(7,625.36)"
       enable-background="new"
       id="g287">
      <g
         transform="translate(0,-1028.4)"
         id="g285">
        <g
           id="titlebutton-min"
           transform="translate(-583,1218)"
           opacity="0.8">
          <g
             transform="translate(-781,-432.64)"
             opacity="1"
             id="g280">
            <g
               transform="translate(-58)"
               opacity="1"
               id="g278" />
          </g>
          <rect
             x="587"
             y="-185.64"
             width="16"
             height="16"
             fill="none"
             opacity="1"
             id="rect282" />
        </g>
      </g>
    </g>
    <g
       transform="translate(7,-403)"
       enable-background="new"
       fill-rule="evenodd"
       id="g293">
      <path
         d="m 12,1047.4 c 3.8659,0 6.9999,-3.134 6.9999,-7 0,-3.866 -3.134,-7 -6.9999,-7 -3.866,0 -7.0001,3.134 -7.0001,7 0,3.866 3.134,7 7.0001,7"
         fill="#da9e10"
         id="path289" />
      <path
         d="m 12,1046.9 c 3.5898,0 6.4999,-2.9103 6.4999,-6.5001 0,-3.5899 -2.9102,-6.5 -6.4999,-6.5 -3.5899,0 -6.5001,2.9101 -6.5001,6.5 0,3.5898 2.9102,6.5001 6.5001,6.5001"
         fill="#fac536"
         id="path291" />
    </g>
  </g>
  <g
     id="maximize-active"
     transform="translate(-2,-547.36)">
    <use
       transform="translate(0,33)"
       width="100%"
       height="100%"
       xlink:href="#g4206"
       id="use296" />
    <g
       transform="translate(7,592.36)"
       enable-background="new"
       id="g307">
      <g
         transform="translate(0,-1028.4)"
         id="g305">
        <g
           id="titlebutton-max"
           transform="translate(-612,1218)"
           opacity="0.8">
          <g
             transform="translate(-781,-432.64)"
             opacity="1"
             id="g300">
            <g
               transform="translate(-29)"
               opacity="1"
               id="g298" />
          </g>
          <rect
             x="616"
             y="-185.64"
             width="16"
             height="16"
             fill="none"
             opacity="1"
             id="rect302" />
        </g>
      </g>
    </g>
    <g
       transform="translate(7,-436)"
       enable-background="new"
       fill-rule="evenodd"
       id="g313">
      <path
         d="m 12,1047.4 c 3.8659,0 6.9999,-3.134 6.9999,-7 0,-3.866 -3.134,-7 -6.9999,-7 -3.866,0 -7.0001,3.134 -7.0001,7 0,3.866 3.134,7 7.0001,7"
         fill="#13c11e"
         id="path309" />
      <path
         d="m 12,1046.9 c 3.5898,0 6.4999,-2.9103 6.4999,-6.5001 0,-3.5899 -2.9102,-6.5 -6.4999,-6.5 -3.5899,0 -6.5001,2.9101 -6.5001,6.5 0,3.5898 2.9102,6.5001 6.5001,6.5001"
         fill="#39ea49"
         id="path311" />
    </g>
  </g>
  <g
     id="close-active"
     transform="translate(-2,-547.36)">
    <g
       id="g4206">
      <rect
         x="7"
         y="557.35999"
         width="24"
         height="28"
         fill="#ffffff"
         id="rect316" />
      <rect
         x="7"
         y="558.35999"
         width="24"
         height="1"
         fill="#ffffff"
         opacity="0.65"
         id="rect318" />
      <rect
         x="7"
         y="557.35999"
         width="24"
         height="1"
         fill="#939393"
         id="rect320" />
    </g>
    <g
       transform="translate(7,559.36)"
       enable-background="new"
       id="g338">
      <g
         transform="translate(0,-1028.4)"
         id="g336">
        <g
           id="titlebutton-close"
           transform="translate(-641,1218)">
          <g
             transform="translate(-678,-432.64)"
             id="g331">
            <g
               transform="translate(-103)"
               id="g323" />
            <g
               transform="translate(1323,246.87)"
               fill="#ffffff"
               id="g329">
              <g
                 transform="matrix(0.75,0,0,0.75,2,2.0547)"
                 fill="#ffffff"
                 id="g327">
                <g
                   transform="translate(-60,-518)"
                   fill="#ffffff"
                   id="g325" />
              </g>
            </g>
          </g>
          <rect
             x="645"
             y="-185.64"
             width="16"
             height="16"
             fill="none"
             id="rect333" />
        </g>
      </g>
    </g>
    <g
       transform="translate(7,-469)"
       enable-background="new"
       fill-rule="evenodd"
       id="g344">
      <path
         d="m 12,1047.4 c 3.8659,0 6.9999,-3.134 6.9999,-7 0,-3.866 -3.134,-7 -6.9999,-7 -3.866,0 -7.0001,3.134 -7.0001,7 0,3.866 3.134,7 7.0001,7"
         fill="#d52735"
         id="path340" />
      <path
         d="m 12,1046.9 c 3.5898,0 6.4999,-2.9103 6.4999,-6.5001 0,-3.5899 -2.9102,-6.5 -6.4999,-6.5 -3.5899,0 -6.5001,2.9101 -6.5001,6.5 0,3.5898 2.9102,6.5001 6.5001,6.5001"
         fill="#f25056"
         id="path342" />
    </g>
  </g>
  <g
     id="left-active"
     transform="translate(77,-545.36)">
    <rect
       transform="scale(-1,1)"
       x="-47"
       y="734.35999"
       width="1"
       height="16"
       fill="#939393"
       id="rect347" />
  </g>
  <g
     id="left-inactive"
     transform="translate(82,-545.36)">
    <rect
       transform="scale(-1,1)"
       x="-47"
       y="734.35999"
       width="1"
       height="16"
       fill="#939393"
       id="rect350" />
  </g>
  <g
     id="right-inactive"
     transform="matrix(-1,0,0,1,186,-545.36)">
    <rect
       transform="scale(-1,1)"
       x="-47"
       y="734.35999"
       width="1"
       height="16"
       fill="#939393"
       id="rect353" />
  </g>
  <g
     id="right-active"
     transform="matrix(-1,0,0,1,181,-545.36)">
    <rect
       transform="scale(-1,1)"
       x="-47"
       y="734.35999"
       width="1"
       height="16"
       fill="#939393"
       id="rect356" />
  </g>
  <g
     id="bottom-left-active"
     transform="translate(54,-547.36)">
    <path
       d="m 97,730.36 -1,-1.2e-4 v 9.0001 h 1 v 1 l 9,-1.2e-4 v -0.99988 h -9 z"
       fill="#939393"
       id="path359" />
  </g>
  <g
     id="bottom-left-inactive"
     transform="translate(54,-535.36)">
    <path
       d="m 97,730.36 -1,-1.2e-4 v 9.0001 h 1 v 1 l 9,-1.2e-4 v -0.99988 h -9 z"
       fill="#939393"
       id="path362" />
  </g>
  <g
     id="bottom-right-inactive"
     transform="matrix(-1,0,0,1,286,-535.36)">
    <path
       d="m 97,730.36 -1,-1.2e-4 v 9.0001 h 1 v 1 l 9,-1.2e-4 v -0.99988 h -9 z"
       fill="#939393"
       id="path365" />
  </g>
  <g
     id="bottom-right-active"
     transform="matrix(-1,0,0,1,286,-547.36)">
    <path
       d="m 97,730.36 -1,-1.2e-4 v 9.0001 h 1 v 1 l 9,-1.2e-4 v -0.99988 h -9 z"
       fill="#939393"
       id="path368" />
  </g>
  <g
     id="bottom-active"
     transform="matrix(0,-1,-1,0,912.36,239)">
    <rect
       transform="scale(-1,1)"
       x="-47"
       y="734.35999"
       width="1"
       height="16"
       fill="#939393"
       id="rect371" />
  </g>
  <g
     id="bottom-inactive"
     transform="matrix(0,-1,-1,0,912.36,251)">
    <rect
       transform="scale(-1,1)"
       x="-47"
       y="734.35999"
       width="1"
       height="16"
       fill="#939393"
       id="rect374" />
  </g>
  <g
     id="maximize-toggled-inactive"
     transform="translate(-2,-481.36)">
    <use
       transform="translate(99,33)"
       width="100%"
       height="100%"
       xlink:href="#g4206"
       id="use377" />
    <g
       transform="translate(106,592.36)"
       enable-background="new"
       id="g389">
      <g
         transform="translate(0,-1028.4)"
         id="g387">
        <g
           transform="translate(-612,1201)"
           opacity="0.45"
           id="g385">
          <g
             transform="translate(-781,-415.64)"
             opacity="1"
             id="g381">
            <g
               transform="translate(-29)"
               opacity="1"
               id="g379" />
          </g>
          <rect
             x="616"
             y="-168.64"
             width="16"
             height="16"
             fill="none"
             opacity="1"
             id="rect383" />
        </g>
      </g>
    </g>
    <g
       transform="translate(106,-436)"
       enable-background="new"
       id="g393">
      <path
         d="m 12,1047.4 c 3.8659,0 6.9999,-3.134 6.9999,-7 0,-3.866 -3.134,-7 -6.9999,-7 -3.866,0 -7.0001,3.134 -7.0001,7 0,3.866 3.134,7 7.0001,7"
         fill="#cecece"
         fill-rule="evenodd"
         id="path391" />
    </g>
  </g>
  <g
     id="maximize-toggled-active"
     transform="translate(-2,-481.36)">
    <use
       transform="translate(0,33)"
       width="100%"
       height="100%"
       xlink:href="#g4206"
       id="use396" />
    <g
       transform="translate(7,592.36)"
       enable-background="new"
       id="g408">
      <g
         transform="translate(0,-1028.4)"
         id="g406">
        <g
           transform="translate(-612,1218)"
           opacity="0.8"
           id="g404">
          <g
             transform="translate(-781,-432.64)"
             opacity="1"
             id="g400">
            <g
               transform="translate(-29)"
               opacity="1"
               id="g398" />
          </g>
          <rect
             x="616"
             y="-185.64"
             width="16"
             height="16"
             fill="none"
             opacity="1"
             id="rect402" />
        </g>
      </g>
    </g>
    <g
       transform="translate(7,-436)"
       enable-background="new"
       fill-rule="evenodd"
       id="g414">
      <path
         d="m 12,1047.4 c 3.8659,0 6.9999,-3.134 6.9999,-7 0,-3.866 -3.134,-7 -6.9999,-7 -3.866,0 -7.0001,3.134 -7.0001,7 0,3.866 3.134,7 7.0001,7"
         fill="#13c11e"
         id="path410" />
      <path
         d="m 12,1046.9 c 3.5898,0 6.4999,-2.9103 6.4999,-6.5001 0,-3.5899 -2.9102,-6.5 -6.4999,-6.5 -3.5899,0 -6.5001,2.9101 -6.5001,6.5 0,3.5898 2.9102,6.5001 6.5001,6.5001"
         fill="#39ea49"
         id="path412" />
    </g>
  </g>
  <g
     id="maximize-toggled-prelight"
     transform="translate(-2,-547.36)">
    <use
       transform="translate(33,99)"
       width="100%"
       height="100%"
       xlink:href="#g4206"
       id="use417" />
    <g
       transform="translate(40,658.36)"
       enable-background="new"
       id="g429">
      <g
         transform="translate(0,-1028.4)"
         id="g427">
        <g
           transform="translate(-509,1218)"
           id="g425">
          <g
             transform="translate(-781,-432.64)"
             id="g421">
            <g
               transform="translate(1294,247)"
               fill="#c0e3ff"
               id="g419" />
          </g>
          <rect
             x="513"
             y="-185.64"
             width="16"
             height="16"
             fill="none"
             id="rect423" />
        </g>
      </g>
    </g>
    <path
       d="m 52,677.36 c 3.8659,0 6.9999,-3.134 6.9999,-7 0,-3.866 -3.134,-7 -6.9999,-7 -3.866,0 -7.0001,3.134 -7.0001,7 0,3.866 3.134,7 7.0001,7"
       fill="#13c11e"
       fill-rule="evenodd"
       id="path431" />
    <path
       d="m 52,676.86 c 3.5898,0 6.4999,-2.9103 6.4999,-6.5001 0,-3.5899 -2.9102,-6.5 -6.4999,-6.5 -3.5899,0 -6.5001,2.9101 -6.5001,6.5 0,3.5898 2.9102,6.5001 6.5001,6.5001"
       fill="#39ea49"
       fill-rule="evenodd"
       id="path433" />
    <g
       transform="translate(-132,891)"
       fill="#000000"
       fill-rule="evenodd"
       opacity="0.5"
       id="g439">
      <path
         d="m 188.21,-220.64 h -3.395 c -0.4504,0 -0.8188,-0.36842 -0.8188,-0.81875 v -3.3951 l 4.2138,4.2138"
         opacity="1"
         id="path435" />
      <path
         d="m 179.79,-220.64 h 3.395 c 0.4504,0 0.8188,0.36842 0.8188,0.81875 v 3.3951 l -4.2138,-4.2138"
         opacity="1"
         id="path437" />
    </g>
  </g>
  <g
     id="maximize-toggled-pressed"
     transform="translate(-2,-547.36)">
    <use
       transform="translate(66,99)"
       width="100%"
       height="100%"
       xlink:href="#g4206"
       id="use442" />
    <g
       transform="translate(73,658.36)"
       enable-background="new"
       id="g456">
      <g
         transform="translate(0,-1028.4)"
         id="g454">
        <g
           transform="translate(-408,1218)"
           id="g452">
          <g
             transform="translate(-882,-432.64)"
             id="g448">
            <g
               transform="translate(-132)"
               id="g444" />
            <g
               transform="translate(1294,247)"
               fill="#c0e3ff"
               id="g446" />
          </g>
          <rect
             x="412"
             y="-185.64"
             width="16"
             height="16"
             fill="none"
             id="rect450" />
        </g>
      </g>
    </g>
    <path
       d="m 85,677.36 c 3.8659,0 6.9999,-3.134 6.9999,-7 0,-3.866 -3.134,-7 -6.9999,-7 -3.866,0 -7.0001,3.134 -7.0001,7 0,3.866 3.134,7 7.0001,7"
       fill="#13c11e"
       fill-rule="evenodd"
       id="path458" />
    <g
       transform="translate(-99,891)"
       fill="#000000"
       fill-rule="evenodd"
       opacity="0.5"
       id="g464">
      <path
         d="m 188.21,-220.64 h -3.395 c -0.4504,0 -0.8188,-0.36842 -0.8188,-0.81875 v -3.3951 l 4.2138,4.2138"
         opacity="1"
         id="path460" />
      <path
         d="m 179.79,-220.64 h 3.395 c 0.4504,0 0.8188,0.36842 0.8188,0.81875 v 3.3951 l -4.2138,-4.2138"
         opacity="1"
         id="path462" />
    </g>
  </g>
  <g
     id="menu-active"
     transform="translate(-6.286,-547.36)">
    <use
       transform="translate(0.28571,66)"
       width="100%"
       height="100%"
       xlink:href="#use4210"
       id="use467" />
    <path
       id="setting-icon"
       d="m 164.25,636.7 c -0.019,-0.16869 -0.21567,-0.29545 -0.38574,-0.29545 -0.54988,0 -1.0378,-0.32287 -1.2425,-0.82219 -0.20907,-0.51144 -0.0743,-1.1079 0.33555,-1.4838 0.12899,-0.11792 0.14467,-0.31532 0.0365,-0.45244 -0.28144,-0.35739 -0.60132,-0.6802 -0.95059,-0.95998 -0.13676,-0.10976 -0.33742,-0.0945 -0.45602,0.0368 -0.35765,0.3961 -1.0001,0.54331 -1.4965,0.33617 -0.51662,-0.21731 -0.84239,-0.74079 -0.81051,-1.3027 0.0105,-0.1765 -0.11851,-0.32997 -0.29448,-0.35046 -0.4482,-0.0518 -0.90035,-0.0535 -1.3499,-0.004 -0.17396,0.0192 -0.30295,0.16904 -0.2971,0.34332 0.0195,0.55639 -0.31015,1.0707 -0.82164,1.2802 -0.49049,0.20034 -1.1284,0.0544 -1.4854,-0.33819 -0.11797,-0.12931 -0.31537,-0.1452 -0.45281,-0.0381 -0.35962,0.28215 -0.68669,0.60523 -0.97072,0.95968 -0.11078,0.13778 -0.0945,0.33751 0.0358,0.45606 0.41762,0.37818 0.55247,0.9798 0.33551,1.4971 -0.20714,0.49321 -0.71929,0.81108 -1.3056,0.81108 -0.19026,-0.006 -0.32577,0.12157 -0.34658,0.29455 -0.0528,0.45079 -0.0534,0.91012 -0.003,1.3646 0.0188,0.16941 0.22152,0.29505 0.39347,0.29505 0.52251,-0.0134 1.0242,0.31014 1.2346,0.82224 0.20976,0.51143 0.0749,1.1075 -0.33552,1.4837 -0.12837,0.11793 -0.14466,0.31501 -0.0365,0.45214 0.27881,0.35511 0.59873,0.67824 0.94925,0.96034 0.13747,0.11078 0.33751,0.0951 0.45669,-0.0362 0.35899,-0.39707 1.0014,-0.54402 1.4959,-0.33649 0.51791,0.21665 0.84369,0.74009 0.81181,1.3023 -0.0103,0.17659 0.11922,0.33032 0.29447,0.3505 0.22929,0.0268 0.45995,0.0401 0.69125,0.0401 0.21955,0 0.43914,-0.0121 0.6587,-0.0365 0.174,-0.0192 0.30291,-0.16905 0.29706,-0.34363 -0.0201,-0.55608 0.31015,-1.0704 0.82096,-1.2796 0.4938,-0.20169 1.129,-0.0541 1.486,0.33809 0.11864,0.12904 0.31465,0.14462 0.45285,0.0379 0.35896,-0.28148 0.68535,-0.6043 0.97072,-0.95972 0.11073,-0.13748 0.0951,-0.33751 -0.0359,-0.45602 -0.41762,-0.37819 -0.55314,-0.97989 -0.33618,-1.4969 0.20397,-0.48665 0.6971,-0.8134 1.2275,-0.8134 l 0.0742,0.001 c 0.17204,0.014 0.33033,-0.11855 0.35118,-0.29416 0.0529,-0.45119 0.0535,-0.91011 0.002,-1.3646 z m -5.9531,2.6804 c -1.1037,0 -2.0014,-0.89774 -2.0014,-2.0014 0,-1.1036 0.89775,-2.0014 2.0014,-2.0014 1.1036,0 2.0014,0.89779 2.0014,2.0014 0,1.1037 -0.89776,2.0014 -2.0014,2.0014 z"
       clip-rule="evenodd"
       fill="#adadad"
       fill-rule="evenodd"
       stroke-width="0.058824" />
  </g>
  <g
     id="menu-pressed"
     transform="translate(-0.2857,-547.36)">
    <use
       transform="translate(23.286,66)"
       width="100%"
       height="100%"
       xlink:href="#use4210"
       id="use471" />
    <path
       d="m 187.25,636.7 c -0.019,-0.16869 -0.21567,-0.29545 -0.38574,-0.29545 -0.54988,0 -1.0378,-0.32287 -1.2425,-0.82219 -0.20907,-0.51144 -0.0743,-1.1079 0.33555,-1.4838 0.12899,-0.11792 0.14467,-0.31532 0.0365,-0.45244 -0.28144,-0.35739 -0.60132,-0.6802 -0.95059,-0.95998 -0.13676,-0.10976 -0.33742,-0.0945 -0.45602,0.0368 -0.35765,0.3961 -1.0001,0.54331 -1.4965,0.33617 -0.51662,-0.21731 -0.84239,-0.74079 -0.81051,-1.3027 0.0105,-0.1765 -0.11851,-0.32997 -0.29448,-0.35046 -0.4482,-0.0518 -0.90035,-0.0535 -1.3499,-0.004 -0.17396,0.0192 -0.30295,0.16904 -0.2971,0.34332 0.0195,0.55639 -0.31015,1.0707 -0.82164,1.2802 -0.49049,0.20034 -1.1284,0.0544 -1.4854,-0.33819 -0.11797,-0.12931 -0.31537,-0.1452 -0.45281,-0.0381 -0.35962,0.28215 -0.68669,0.60523 -0.97072,0.95968 -0.11078,0.13778 -0.0945,0.33751 0.0358,0.45606 0.41762,0.37818 0.55247,0.9798 0.33551,1.4971 -0.20714,0.49321 -0.71929,0.81108 -1.3056,0.81108 -0.19026,-0.006 -0.32577,0.12157 -0.34658,0.29455 -0.0528,0.45079 -0.0534,0.91012 -0.003,1.3646 0.0188,0.16941 0.22152,0.29505 0.39347,0.29505 0.52251,-0.0134 1.0242,0.31014 1.2346,0.82224 0.20976,0.51143 0.0749,1.1075 -0.33552,1.4837 -0.12837,0.11793 -0.14466,0.31501 -0.0365,0.45214 0.27881,0.35511 0.59873,0.67824 0.94925,0.96034 0.13747,0.11078 0.33751,0.0951 0.45669,-0.0362 0.35899,-0.39707 1.0014,-0.54402 1.4959,-0.33649 0.51791,0.21665 0.84369,0.74009 0.81181,1.3023 -0.0103,0.17659 0.11922,0.33032 0.29447,0.3505 0.22929,0.0268 0.45995,0.0401 0.69125,0.0401 0.21955,0 0.43914,-0.0121 0.6587,-0.0365 0.174,-0.0192 0.30291,-0.16905 0.29706,-0.34363 -0.0201,-0.55608 0.31015,-1.0704 0.82096,-1.2796 0.4938,-0.20169 1.129,-0.0541 1.486,0.33809 0.11864,0.12904 0.31465,0.14462 0.45285,0.0379 0.35896,-0.28148 0.68535,-0.6043 0.97072,-0.95972 0.11073,-0.13748 0.0951,-0.33751 -0.0359,-0.45602 -0.41762,-0.37819 -0.55314,-0.97989 -0.33618,-1.4969 0.20397,-0.48665 0.6971,-0.8134 1.2275,-0.8134 l 0.0742,0.001 c 0.17204,0.014 0.33033,-0.11855 0.35118,-0.29416 0.0529,-0.45119 0.0535,-0.91011 0.002,-1.3646 z m -5.9531,2.6804 c -1.1037,0 -2.0014,-0.89774 -2.0014,-2.0014 0,-1.1036 0.89775,-2.0014 2.0014,-2.0014 1.1036,0 2.0014,0.89779 2.0014,2.0014 0,1.1037 -0.89776,2.0014 -2.0014,2.0014 z"
       clip-rule="evenodd"
       fill="#5294e2"
       fill-rule="evenodd"
       stroke-width="0.058824"
       id="path473" />
  </g>
  <g
     id="menu-inactive"
     transform="translate(6.7143,-547.36)">
    <use
       transform="translate(46.286,66)"
       width="100%"
       height="100%"
       xlink:href="#use4210"
       id="use476" />
    <path
       d="m 210.25,636.7 c -0.019,-0.16869 -0.21567,-0.29545 -0.38574,-0.29545 -0.54988,0 -1.0378,-0.32287 -1.2425,-0.82219 -0.20907,-0.51144 -0.0743,-1.1079 0.33555,-1.4838 0.12899,-0.11792 0.14467,-0.31532 0.0365,-0.45244 -0.28144,-0.35739 -0.60132,-0.6802 -0.95059,-0.95998 -0.13676,-0.10976 -0.33742,-0.0945 -0.45602,0.0368 -0.35765,0.3961 -1.0001,0.54331 -1.4965,0.33617 -0.51662,-0.21731 -0.84239,-0.74079 -0.81051,-1.3027 0.0105,-0.1765 -0.11851,-0.32997 -0.29448,-0.35046 -0.4482,-0.0518 -0.90035,-0.0535 -1.3499,-0.004 -0.17396,0.0192 -0.30295,0.16904 -0.2971,0.34332 0.0195,0.55639 -0.31015,1.0707 -0.82164,1.2802 -0.49049,0.20034 -1.1284,0.0544 -1.4854,-0.33819 -0.11797,-0.12931 -0.31537,-0.1452 -0.45281,-0.0381 -0.35962,0.28215 -0.68669,0.60523 -0.97072,0.95968 -0.11078,0.13778 -0.0945,0.33751 0.0358,0.45606 0.41762,0.37818 0.55247,0.9798 0.33551,1.4971 -0.20714,0.49321 -0.71929,0.81108 -1.3056,0.81108 -0.19026,-0.006 -0.32577,0.12157 -0.34658,0.29455 -0.0528,0.45079 -0.0534,0.91012 -0.003,1.3646 0.0188,0.16941 0.22152,0.29505 0.39347,0.29505 0.52251,-0.0134 1.0242,0.31014 1.2346,0.82224 0.20976,0.51143 0.0749,1.1075 -0.33552,1.4837 -0.12837,0.11793 -0.14466,0.31501 -0.0365,0.45214 0.27881,0.35511 0.59873,0.67824 0.94925,0.96034 0.13747,0.11078 0.33751,0.0951 0.45669,-0.0362 0.35899,-0.39707 1.0014,-0.54402 1.4959,-0.33649 0.51791,0.21665 0.84369,0.74009 0.81181,1.3023 -0.0103,0.17659 0.11922,0.33032 0.29447,0.3505 0.22929,0.0268 0.45995,0.0401 0.69125,0.0401 0.21955,0 0.43914,-0.0121 0.6587,-0.0365 0.174,-0.0192 0.30291,-0.16905 0.29706,-0.34363 -0.0201,-0.55608 0.31015,-1.0704 0.82096,-1.2796 0.4938,-0.20169 1.129,-0.0541 1.486,0.33809 0.11864,0.12904 0.31465,0.14462 0.45285,0.0379 0.35896,-0.28148 0.68535,-0.6043 0.97072,-0.95972 0.11073,-0.13748 0.0951,-0.33751 -0.0359,-0.45602 -0.41762,-0.37819 -0.55314,-0.97989 -0.33618,-1.4969 0.20397,-0.48665 0.6971,-0.8134 1.2275,-0.8134 l 0.0742,0.001 c 0.17204,0.014 0.33033,-0.11855 0.35118,-0.29416 0.0529,-0.45119 0.0535,-0.91011 0.002,-1.3646 z m -5.9531,2.6804 c -1.1037,0 -2.0014,-0.89774 -2.0014,-2.0014 0,-1.1036 0.89775,-2.0014 2.0014,-2.0014 1.1036,0 2.0014,0.89779 2.0014,2.0014 0,1.1037 -0.89776,2.0014 -2.0014,2.0014 z"
       clip-rule="evenodd"
       fill="#cccccc"
       fill-rule="evenodd"
       stroke-width="0.058824"
       id="path478" />
  </g>
  <use
     id="top-left-inactive"
     transform="translate(18)"
     width="100%"
     height="100%"
     xlink:href="#top-left-active"
     x="0"
     y="0" />
  <use
     id="top-right-active"
     transform="matrix(-1,0,0,1,58,0)"
     width="100%"
     height="100%"
     xlink:href="#top-left-active"
     x="0"
     y="0" />
  <use
     id="top-right-inactive"
     transform="matrix(-1,0,0,1,76,3e-5)"
     width="100%"
     height="100%"
     xlink:href="#top-left-active"
     x="0"
     y="0" />
  <g
     id="top-left-active"
     transform="translate(5,-594.36)">
    <path
       transform="translate(-5,594.36)"
       d="m 14,179 v 0.34961 c -0.69826,0.16383 -1.3762,0.37955 -2.0254,0.65039 h -0.97461 v 0.45898 c -0.32257,0.16738 -0.63552,0.34811 -0.94141,0.54102 h -1.0586 v 0.74219 C 8.89116,181.82705 8.78175,181.91178 8.67576,182 H 7.99998 v 0.60742 C 7.8663,182.73551 7.73549,182.86632 7.6074,183 H 6.99998 v 0.67578 C 6.91176,183.78177 6.82703,183.89118 6.74217,184 H 5.99998 v 1 0.0606 C 5.80739,185.36581 5.62608,185.67794 5.45896,186 H 4.99998 v 0.97461 c -0.13959,0.3346 -0.2632,0.67712 -0.375,1.0254 h -0.625 v 4 14 h 15 v -27 h -2 -3 z"
       fill="#ffffff"
       stroke-linecap="round"
       stroke-linejoin="round"
       stroke-width="2.1158"
       style="paint-order:stroke fill markers"
       id="path484" />
    <path
       transform="translate(-5,547.36)"
       d="m 14,225 v 1 h 5 v -1 h -4 z m 0,1 h -3 v 1 h 3 z m -3,1 H 9 v 1 h 2 z m -2,1 H 8 v 1 h 1 z m -1,1 H 7 v 1 h 1 z m -1,1 H 6 v 1 h 1 z m -1,1 H 5 v 2 h 1 v -1 z m -1,2 H 4 v 2 h 1 v -1 z m -1,2 H 3 v 18 h 1 z"
       fill="#939393"
       stroke-linecap="round"
       stroke-linejoin="round"
       stroke-width="9.2376"
       style="paint-order:stroke fill markers"
       id="path486" />
  </g>
</svg>
