<?xml version="1.0" encoding="UTF-8" standalone="no"?>
<svg
   width="224"
   height="217"
   version="1.1"
   viewBox="0 0 224 217"
   id="svg490"
   sodipodi:docname="assets-Light-nord.svg"
   inkscape:version="1.2.2 (b0a8486541, 2022-12-01)"
   xmlns:inkscape="http://www.inkscape.org/namespaces/inkscape"
   xmlns:sodipodi="http://sodipodi.sourceforge.net/DTD/sodipodi-0.dtd"
   xmlns:xlink="http://www.w3.org/1999/xlink"
   xmlns="http://www.w3.org/2000/svg"
   xmlns:svg="http://www.w3.org/2000/svg">
  <defs
     id="defs494" />
  <sodipodi:namedview
     id="namedview492"
     pagecolor="#dbdbdb"
     bordercolor="#666666"
     borderopacity="1.0"
     inkscape:showpageshadow="2"
     inkscape:pageopacity="0"
     inkscape:pagecheckerboard="0"
     inkscape:deskcolor="#d1d1d1"
     showgrid="false"
     inkscape:zoom="3.0760774"
     inkscape:cx="64.855325"
     inkscape:cy="184.4882"
     inkscape:window-width="1920"
     inkscape:window-height="1025"
     inkscape:window-x="0"
     inkscape:window-y="27"
     inkscape:window-maximized="1"
     inkscape:current-layer="svg490" />
  <use
     id="title-1-active"
     transform="matrix(0.16667,0,0,1,2.1905,-415.36)"
     width="100%"
     height="100%"
     xlink:href="#g4206" />
  <g
     id="stick-active"
     transform="translate(-6,-547.36)">
    <use
       id="use4210"
       transform="translate(139,2.8418e-5)"
       width="100%"
       height="100%"
       xlink:href="#g4206" />
    <g
       transform="translate(2,3)"
       fill="#a0a9ba"
       id="g8">
      <rect
         x="155"
         y="564.35999"
         width="2"
         height="8"
         id="rect4" />
      <rect
         transform="rotate(90)"
         x="567.35999"
         y="-160"
         width="2"
         height="8"
         id="rect6" />
    </g>
  </g>
  <g
     id="stick-pressed"
     transform="translate(-0.2857,-547.35995)">
    <use
       transform="translate(23.286,-5.8418e-5)"
       width="100%"
       height="100%"
       xlink:href="#use4210"
       id="use11" />
    <g
       transform="translate(25,3)"
       fill="#5271ad"
       id="g17">
      <rect
         x="155.28999"
         y="564.35999"
         width="2"
         height="8"
         id="rect13" />
      <rect
         transform="rotate(90)"
         x="567.35999"
         y="-160.28999"
         width="2"
         height="8"
         id="rect15" />
    </g>
  </g>
  <g
     id="stick-inactive"
     transform="translate(6.7143,-547.35995)">
    <use
       transform="translate(46.286,-5.8418e-5)"
       width="100%"
       height="100%"
       xlink:href="#use4210"
       id="use20" />
    <g
       transform="translate(48,3)"
       fill="#c4c9d4"
       id="g26">
      <rect
         x="155.28999"
         y="564.35999"
         width="2"
         height="8"
         id="rect22" />
      <rect
         transform="rotate(90)"
         x="567.35999"
         y="-160.28999"
         width="2"
         height="8"
         id="rect24" />
    </g>
  </g>
  <g
     id="shade-active"
     transform="translate(-6.286,-547.35995)">
    <use
       transform="translate(0.28571,33)"
       width="100%"
       height="100%"
       xlink:href="#use4210"
       id="use29" />
    <g
       transform="translate(-4.68e-6,-1)"
       fill="#a0a9ba"
       id="g35">
      <rect
         transform="rotate(90)"
         x="607.35999"
         y="-162.28999"
         width="2"
         height="8"
         id="rect31" />
      <path
         d="m 158.29,601.86 4,4.5 h -8 z"
         id="path33" />
    </g>
  </g>
  <g
     id="shade-pressed"
     transform="translate(-0.2857,-547.35995)">
    <use
       transform="translate(23.286,33)"
       width="100%"
       height="100%"
       xlink:href="#use4210"
       id="use38" />
    <g
       transform="translate(23,-1)"
       fill="#5271ad"
       id="g44">
      <rect
         transform="rotate(90)"
         x="607.35999"
         y="-162.28999"
         width="2"
         height="8"
         id="rect40" />
      <path
         d="m 158.29,601.86 4,4.5 h -8 z"
         id="path42" />
    </g>
  </g>
  <g
     id="shade-inactive"
     transform="translate(6.7143,-547.35995)">
    <use
       transform="translate(46.286,33)"
       width="100%"
       height="100%"
       xlink:href="#use4210"
       id="use47" />
    <g
       transform="translate(46,-1)"
       fill="#c4c9d4"
       id="g53">
      <rect
         transform="rotate(90)"
         x="607.35999"
         y="-162.28999"
         width="2"
         height="8"
         id="rect49" />
      <path
         d="m 158.29,601.86 4,4.5 h -8 z"
         id="path51" />
    </g>
  </g>
  <use
     id="title-2-active"
     transform="translate(7)"
     width="100%"
     height="100%"
     xlink:href="#title-1-active"
     x="0"
     y="0" />
  <use
     id="title-3-active"
     transform="translate(14)"
     width="100%"
     height="100%"
     xlink:href="#title-1-active"
     x="0"
     y="0" />
  <use
     id="title-4-active"
     transform="translate(21)"
     width="100%"
     height="100%"
     xlink:href="#title-1-active"
     x="0"
     y="0" />
  <use
     id="title-5-active"
     transform="translate(28)"
     width="100%"
     height="100%"
     xlink:href="#title-1-active"
     x="0"
     y="0" />
  <use
     id="title-1-inactive"
     transform="translate(35)"
     width="100%"
     height="100%"
     xlink:href="#title-1-active"
     x="0"
     y="0" />
  <use
     id="title-2-inactive"
     transform="translate(42)"
     width="100%"
     height="100%"
     xlink:href="#title-1-active"
     x="0"
     y="0" />
  <use
     id="title-3-inactive"
     transform="translate(49)"
     width="100%"
     height="100%"
     xlink:href="#title-1-active"
     x="0"
     y="0" />
  <use
     id="title-4-inactive"
     transform="translate(56)"
     width="100%"
     height="100%"
     xlink:href="#title-1-active"
     x="0"
     y="0" />
  <use
     id="title-5-inactive"
     transform="translate(63)"
     width="100%"
     height="100%"
     xlink:href="#title-1-active"
     x="0"
     y="0" />
  <g
     id="close-pressed"
     transform="translate(-2,-547.36)">
    <use
       transform="translate(66,-2.2617e-5)"
       width="100%"
       height="100%"
       xlink:href="#g4206"
       id="use65" />
    <g
       transform="translate(73,559.36)"
       enable-background="new"
       id="g82">
      <g
         transform="translate(0,-1028.4)"
         id="g80">
        <g
           id="titlebutton-close-active"
           transform="translate(-437,1218)">
          <g
             transform="translate(-882,-432.64)"
             id="g75">
            <g
               transform="translate(-103)"
               id="g67" />
            <g
               transform="translate(1323,246.87)"
               fill="#ffffff"
               id="g73">
              <g
                 transform="matrix(0.75,0,0,0.75,2,2.0547)"
                 fill="#ffffff"
                 id="g71">
                <g
                   transform="translate(-60,-518)"
                   fill="#ffffff"
                   id="g69" />
              </g>
            </g>
          </g>
          <rect
             x="441"
             y="-185.64"
             width="16"
             height="16"
             fill="none"
             id="rect77" />
        </g>
      </g>
    </g>
    <g
       transform="translate(73,-469)"
       enable-background="new"
       id="g88">
      <path
         d="m 12,1047.4 c 3.8659,0 6.9999,-3.134 6.9999,-7 0,-3.866 -3.134,-7 -6.9999,-7 -3.866,0 -7.0001,3.134 -7.0001,7 0,3.866 3.134,7 7.0001,7"
         fill="#9d585e"
         fill-rule="evenodd"
         id="path84" />
      <path
         d="m 9.1716,1037.5 c -0.39174,0.3917 -0.39174,1.0224 0,1.4142 l 1.4142,1.4142 -1.4142,1.4142 c -0.39174,0.3918 -0.39174,1.0225 0,1.4142 0.39174,0.3918 1.0225,0.3918 1.4142,0 l 1.4142,-1.4142 1.4142,1.4142 c 0.39174,0.3918 1.0225,0.3918 1.4142,0 0.39174,-0.3917 0.39174,-1.0224 0,-1.4142 l -1.4142,-1.4142 1.4142,-1.4142 c 0.39174,-0.3918 0.39174,-1.0225 0,-1.4142 -0.39174,-0.3918 -1.0225,-0.3918 -1.4142,0 L 12,1038.9142 10.5858,1037.5 c -0.39174,-0.3918 -1.0225,-0.3918 -1.4142,0 z"
         enable-background="new"
         fill="#000000"
         opacity="0.5"
         id="path86" />
    </g>
  </g>
  <g
     id="maximize-pressed"
     transform="translate(-2,-547.36)">
    <use
       transform="translate(66,33)"
       width="100%"
       height="100%"
       xlink:href="#g4206"
       id="use91" />
    <g
       transform="translate(73,592.36)"
       enable-background="new"
       id="g104">
      <g
         transform="translate(0,-1028.4)"
         id="g102">
        <g
           id="titlebutton-max-active"
           transform="translate(-408,1218)">
          <g
             transform="translate(-882,-432.64)"
             id="g97">
            <g
               transform="translate(-132)"
               id="g93" />
            <g
               transform="translate(1294,247)"
               fill="#c0e3ff"
               id="g95" />
          </g>
          <rect
             x="412"
             y="-185.64"
             width="16"
             height="16"
             fill="none"
             id="rect99" />
        </g>
      </g>
    </g>
    <g
       transform="translate(73,-436)"
       enable-background="new"
       id="g110">
      <path
         d="m 12,1047.4 c 3.8659,0 6.9999,-3.134 6.9999,-7 0,-3.866 -3.134,-7 -6.9999,-7 -3.866,0 -7.0001,3.134 -7.0001,7 0,3.866 3.134,7 7.0001,7"
         fill="#829870"
         fill-rule="evenodd"
         id="path106" />
      <path
         d="m 10.414,1037.4 4.5859,4.5859 V 1038.4 c 0,-0.4155 -0.5845,-1 -1,-1 z m -1.4141,1.4141 v 3.5859 c 0,0.4155 0.5845,1 1,1 h 3.5859 z"
         fill="#000000"
         opacity="0.5"
         id="path108" />
    </g>
  </g>
  <g
     id="hide-pressed"
     transform="translate(-2,-547.36)">
    <use
       transform="translate(66,66)"
       width="100%"
       height="100%"
       xlink:href="#g4206"
       id="use113" />
    <g
       transform="translate(73,625.36)"
       enable-background="new"
       id="g126">
      <g
         transform="translate(0,-1028.4)"
         id="g124">
        <g
           id="titlebutton-min-active"
           transform="translate(-379,1218)">
          <g
             transform="translate(-882,-432.64)"
             id="g119">
            <g
               transform="translate(-161)"
               id="g115" />
            <g
               transform="translate(1265,247)"
               fill="#c0e3ff"
               id="g117" />
          </g>
          <rect
             x="383"
             y="-185.64"
             width="16"
             height="16"
             fill="none"
             id="rect121" />
        </g>
      </g>
    </g>
    <g
       transform="translate(73,-403)"
       enable-background="new"
       id="g132">
      <path
         d="m 12,1047.4 c 3.8659,0 6.9999,-3.134 6.9999,-7 0,-3.866 -3.134,-7 -6.9999,-7 -3.866,0 -7.0001,3.134 -7.0001,7 0,3.866 3.134,7 7.0001,7"
         fill="#bca26f"
         fill-rule="evenodd"
         id="path128" />
      <rect
         x="8"
         y="1039.4"
         width="8"
         height="2"
         ry="1"
         fill="#000000"
         opacity="0.5"
         id="rect130" />
    </g>
  </g>
  <g
     id="close-inactive"
     transform="translate(-2,-547.36)">
    <use
       transform="translate(99,-2.2617e-5)"
       width="100%"
       height="100%"
       xlink:href="#g4206"
       id="use135" />
    <g
       transform="translate(106,559.36)"
       enable-background="new"
       id="g152">
      <g
         transform="translate(0,-1028.4)"
         id="g150">
        <g
           id="titlebutton-close-backdrop"
           transform="translate(-641,1218)"
           opacity="0.45">
          <g
             transform="translate(-678,-432.64)"
             opacity="1"
             id="g145">
            <g
               transform="translate(-103)"
               opacity="1"
               id="g137" />
            <g
               transform="translate(1323,246.87)"
               fill="#ffffff"
               id="g143">
              <g
                 transform="matrix(0.75,0,0,0.75,2,2.0547)"
                 fill="#ffffff"
                 id="g141">
                <g
                   transform="translate(-60,-518)"
                   fill="#ffffff"
                   id="g139" />
              </g>
            </g>
          </g>
          <rect
             x="645"
             y="-185.64"
             width="16"
             height="16"
             fill="none"
             opacity="1"
             id="rect147" />
        </g>
      </g>
    </g>
    <g
       transform="translate(106,-469)"
       enable-background="new"
       fill-rule="evenodd"
       id="g158">
      <path
         d="m 12,1047.4 c 3.8659,0 6.9999,-3.134 6.9999,-7 0,-3.866 -3.134,-7 -6.9999,-7 -3.866,0 -7.0001,3.134 -7.0001,7 0,3.866 3.134,7 7.0001,7"
         fill="#afb6c5"
         id="path154" />
      <path
         d="m 12,1046.9 c 3.5898,0 6.4999,-2.9101 6.4999,-6.5 0,-3.5899 -2.9102,-6.5 -6.4999,-6.5 -3.5899,0 -6.5001,2.9101 -6.5001,6.5 0,3.5899 2.9102,6.5 6.5001,6.5"
         fill="#c7ccd6"
         id="path156" />
    </g>
  </g>
  <g
     id="maximize-inactive"
     transform="translate(-2,-547.36)">
    <use
       transform="translate(99,33)"
       width="100%"
       height="100%"
       xlink:href="#g4206"
       id="use161" />
    <g
       transform="translate(106,592.36)"
       enable-background="new"
       id="g172">
      <g
         transform="translate(0,-1028.4)"
         id="g170">
        <g
           id="titlebutton-max-backdrop"
           transform="translate(-612,1201)"
           opacity="0.45">
          <g
             transform="translate(-781,-415.64)"
             opacity="1"
             id="g165">
            <g
               transform="translate(-29)"
               opacity="1"
               id="g163" />
          </g>
          <rect
             x="616"
             y="-168.64"
             width="16"
             height="16"
             fill="none"
             opacity="1"
             id="rect167" />
        </g>
      </g>
    </g>
    <g
       transform="translate(106,-436)"
       enable-background="new"
       fill-rule="evenodd"
       id="g178">
      <path
         d="m 12,1047.4 c 3.8659,0 6.9999,-3.134 6.9999,-7 0,-3.866 -3.134,-7 -6.9999,-7 -3.866,0 -7.0001,3.134 -7.0001,7 0,3.866 3.134,7 7.0001,7"
         fill="#afb6c5"
         id="path174" />
      <path
         d="m 12,1046.9 c 3.5898,0 6.4999,-2.9101 6.4999,-6.5 0,-3.5899 -2.9102,-6.5 -6.4999,-6.5 -3.5899,0 -6.5001,2.9101 -6.5001,6.5 0,3.5899 2.9102,6.5 6.5001,6.5"
         fill="#c7ccd6"
         id="path176" />
    </g>
  </g>
  <g
     id="hide-inactive"
     transform="translate(-2,-547.36)">
    <use
       transform="translate(99,66)"
       width="100%"
       height="100%"
       xlink:href="#g4206"
       id="use181" />
    <g
       transform="translate(106,625.36)"
       enable-background="new"
       id="g192">
      <g
         transform="translate(0,-1028.4)"
         id="g190">
        <g
           id="titlebutton-min-backdrop"
           transform="translate(-583,1201)"
           opacity="0.45">
          <g
             transform="translate(-781,-415.64)"
             opacity="1"
             id="g185">
            <g
               transform="translate(-58)"
               opacity="1"
               id="g183" />
          </g>
          <rect
             x="587"
             y="-168.64"
             width="16"
             height="16"
             fill="none"
             opacity="1"
             id="rect187" />
        </g>
      </g>
    </g>
    <g
       transform="translate(106,-403)"
       enable-background="new"
       fill-rule="evenodd"
       id="g198">
      <path
         d="m 12,1047.4 c 3.8659,0 6.9999,-3.134 6.9999,-7 0,-3.866 -3.134,-7 -6.9999,-7 -3.866,0 -7.0001,3.134 -7.0001,7 0,3.866 3.134,7 7.0001,7"
         fill="#afb6c5"
         id="path194" />
      <path
         d="m 12,1046.9 c 3.5898,0 6.4999,-2.9101 6.4999,-6.5 0,-3.5899 -2.9102,-6.5 -6.4999,-6.5 -3.5899,0 -6.5001,2.9101 -6.5001,6.5 0,3.5899 2.9102,6.5 6.5001,6.5"
         fill="#c7ccd6"
         id="path196" />
    </g>
  </g>
  <g
     id="hide-prelight"
     transform="translate(-2,-547.36)">
    <use
       transform="translate(33,66)"
       width="100%"
       height="100%"
       xlink:href="#g4206"
       id="use201" />
    <g
       transform="translate(40,625.36)"
       enable-background="new"
       id="g212">
      <g
         transform="translate(0,-1028.4)"
         id="g210">
        <g
           id="titlebutton-min-hover"
           transform="translate(-480,1218)">
          <g
             transform="translate(-781,-432.64)"
             id="g205">
            <g
               transform="translate(1265,247)"
               fill="#c0e3ff"
               id="g203" />
          </g>
          <rect
             x="484"
             y="-185.64"
             width="16"
             height="16"
             fill="none"
             id="rect207" />
        </g>
      </g>
    </g>
    <g
       transform="translate(40,-403)"
       enable-background="new"
       id="g220">
      <path
         d="m 12,1047.4 c 3.8659,0 6.9999,-3.134 6.9999,-7 0,-3.866 -3.134,-7 -6.9999,-7 -3.866,0 -7.0001,3.134 -7.0001,7 0,3.866 3.134,7 7.0001,7"
         fill="#bca26f"
         fill-rule="evenodd"
         id="path214" />
      <path
         d="m 12,1046.9 c 3.5898,0 6.4999,-2.9103 6.4999,-6.5001 0,-3.5899 -2.9102,-6.5 -6.4999,-6.5 -3.5899,0 -6.5001,2.9101 -6.5001,6.5 0,3.5898 2.9102,6.5001 6.5001,6.5001"
         fill="#ebcb8b"
         fill-rule="evenodd"
         id="path216" />
      <rect
         x="8"
         y="1039.4"
         width="8"
         height="2"
         ry="1"
         fill="#000000"
         opacity="0.5"
         id="rect218" />
    </g>
  </g>
  <g
     id="maximize-prelight"
     transform="translate(-2,-547.36)">
    <use
       transform="translate(33,33)"
       width="100%"
       height="100%"
       xlink:href="#g4206"
       id="use223" />
    <g
       transform="translate(40,592.36)"
       enable-background="new"
       id="g234">
      <g
         transform="translate(0,-1028.4)"
         id="g232">
        <g
           id="titlebutton-max-hover"
           transform="translate(-509,1218)">
          <g
             transform="translate(-781,-432.64)"
             id="g227">
            <g
               transform="translate(1294,247)"
               fill="#c0e3ff"
               id="g225" />
          </g>
          <rect
             x="513"
             y="-185.64"
             width="16"
             height="16"
             fill="none"
             id="rect229" />
        </g>
      </g>
    </g>
    <g
       transform="translate(40,-436)"
       enable-background="new"
       id="g242">
      <path
         d="m 12,1047.4 c 3.8659,0 6.9999,-3.134 6.9999,-7 0,-3.866 -3.134,-7 -6.9999,-7 -3.866,0 -7.0001,3.134 -7.0001,7 0,3.866 3.134,7 7.0001,7"
         fill="#829870"
         fill-rule="evenodd"
         id="path236" />
      <path
         d="m 12,1046.9 c 3.5898,0 6.4999,-2.9103 6.4999,-6.5001 0,-3.5899 -2.9102,-6.5 -6.4999,-6.5 -3.5899,0 -6.5001,2.9101 -6.5001,6.5 0,3.5898 2.9102,6.5001 6.5001,6.5001"
         fill="#a3be8c"
         fill-rule="evenodd"
         id="path238" />
      <path
         d="m 10.414,1037.4 4.5859,4.5859 V 1038.4 c 0,-0.4155 -0.5845,-1 -1,-1 z m -1.4141,1.4141 v 3.5859 c 0,0.4155 0.5845,1 1,1 h 3.5859 z"
         fill="#000000"
         opacity="0.5"
         id="path240" />
    </g>
  </g>
  <g
     id="close-prelight"
     transform="translate(-2,-547.36)">
    <use
       transform="translate(33,-2.2617e-5)"
       width="100%"
       height="100%"
       xlink:href="#g4206"
       id="use245" />
    <g
       transform="translate(40,559.36)"
       enable-background="new"
       id="g262">
      <g
         transform="translate(0,-1028.4)"
         id="g260">
        <g
           id="titlebutton-close-hover"
           transform="translate(-538,1218)">
          <g
             transform="translate(-781,-432.64)"
             id="g255">
            <g
               transform="translate(-103)"
               id="g247" />
            <g
               transform="translate(1323,246.87)"
               fill="#ffffff"
               id="g253">
              <g
                 transform="matrix(0.75,0,0,0.75,2,2.0547)"
                 fill="#ffffff"
                 id="g251">
                <g
                   transform="translate(-60,-518)"
                   fill="#ffffff"
                   id="g249" />
              </g>
            </g>
          </g>
          <rect
             x="542"
             y="-185.64"
             width="16"
             height="16"
             fill="none"
             id="rect257" />
        </g>
      </g>
    </g>
    <g
       transform="translate(40,-469)"
       enable-background="new"
       id="g270">
      <path
         d="m 12,1047.4 c 3.8659,0 6.9999,-3.134 6.9999,-7 0,-3.866 -3.134,-7 -6.9999,-7 -3.866,0 -7.0001,3.134 -7.0001,7 0,3.866 3.134,7 7.0001,7"
         fill="#9d585e"
         fill-rule="evenodd"
         id="path264" />
      <path
         d="m 12,1046.9 c 3.5898,0 6.4999,-2.9103 6.4999,-6.5001 0,-3.5899 -2.9102,-6.5 -6.4999,-6.5 -3.5899,0 -6.5001,2.9101 -6.5001,6.5 0,3.5898 2.9102,6.5001 6.5001,6.5001"
         fill="#c46e76"
         fill-rule="evenodd"
         id="path266" />
      <path
         d="m 9.1716,1037.5 c -0.39174,0.3917 -0.39174,1.0224 0,1.4142 l 1.4142,1.4142 -1.4142,1.4142 c -0.39174,0.3918 -0.39174,1.0225 0,1.4142 0.39174,0.3918 1.0225,0.3918 1.4142,0 l 1.4142,-1.4142 1.4142,1.4142 c 0.39174,0.3918 1.0225,0.3918 1.4142,0 0.39174,-0.3917 0.39174,-1.0224 0,-1.4142 l -1.4142,-1.4142 1.4142,-1.4142 c 0.39174,-0.3918 0.39174,-1.0225 0,-1.4142 -0.39174,-0.3918 -1.0225,-0.3918 -1.4142,0 L 12,1038.9142 10.5858,1037.5 c -0.39174,-0.3918 -1.0225,-0.3918 -1.4142,0 z"
         enable-background="new"
         fill="#000000"
         opacity="0.5"
         id="path268" />
    </g>
  </g>
  <g
     id="hide-active"
     transform="translate(-2,-547.36)">
    <use
       transform="translate(0,66)"
       width="100%"
       height="100%"
       xlink:href="#g4206"
       id="use273" />
    <g
       transform="translate(7,625.36)"
       enable-background="new"
       id="g284">
      <g
         transform="translate(0,-1028.4)"
         id="g282">
        <g
           id="titlebutton-min"
           transform="translate(-583,1218)"
           opacity="0.8">
          <g
             transform="translate(-781,-432.64)"
             opacity="1"
             id="g277">
            <g
               transform="translate(-58)"
               opacity="1"
               id="g275" />
          </g>
          <rect
             x="587"
             y="-185.64"
             width="16"
             height="16"
             fill="none"
             opacity="1"
             id="rect279" />
        </g>
      </g>
    </g>
    <g
       transform="translate(7,-403)"
       enable-background="new"
       fill-rule="evenodd"
       id="g290">
      <path
         d="m 12,1047.4 c 3.8659,0 6.9999,-3.134 6.9999,-7 0,-3.866 -3.134,-7 -6.9999,-7 -3.866,0 -7.0001,3.134 -7.0001,7 0,3.866 3.134,7 7.0001,7"
         fill="#bca26f"
         id="path286" />
      <path
         d="m 12,1046.9 c 3.5898,0 6.4999,-2.9103 6.4999,-6.5001 0,-3.5899 -2.9102,-6.5 -6.4999,-6.5 -3.5899,0 -6.5001,2.9101 -6.5001,6.5 0,3.5898 2.9102,6.5001 6.5001,6.5001"
         fill="#ebcb8b"
         id="path288" />
    </g>
  </g>
  <g
     id="maximize-active"
     transform="translate(-2,-547.36)">
    <use
       transform="translate(0,33)"
       width="100%"
       height="100%"
       xlink:href="#g4206"
       id="use293" />
    <g
       transform="translate(7,592.36)"
       enable-background="new"
       id="g304">
      <g
         transform="translate(0,-1028.4)"
         id="g302">
        <g
           id="titlebutton-max"
           transform="translate(-612,1218)"
           opacity="0.8">
          <g
             transform="translate(-781,-432.64)"
             opacity="1"
             id="g297">
            <g
               transform="translate(-29)"
               opacity="1"
               id="g295" />
          </g>
          <rect
             x="616"
             y="-185.64"
             width="16"
             height="16"
             fill="none"
             opacity="1"
             id="rect299" />
        </g>
      </g>
    </g>
    <g
       transform="translate(7,-436)"
       enable-background="new"
       fill-rule="evenodd"
       id="g310">
      <path
         d="m 12,1047.4 c 3.8659,0 6.9999,-3.134 6.9999,-7 0,-3.866 -3.134,-7 -6.9999,-7 -3.866,0 -7.0001,3.134 -7.0001,7 0,3.866 3.134,7 7.0001,7"
         fill="#829870"
         id="path306" />
      <path
         d="m 12,1046.9 c 3.5898,0 6.4999,-2.9103 6.4999,-6.5001 0,-3.5899 -2.9102,-6.5 -6.4999,-6.5 -3.5899,0 -6.5001,2.9101 -6.5001,6.5 0,3.5898 2.9102,6.5001 6.5001,6.5001"
         fill="#a3be8c"
         id="path308" />
    </g>
  </g>
  <g
     id="close-active"
     transform="translate(-2,-547.36)">
    <g
       id="g4206">
      <rect
         x="7"
         y="557.35999"
         width="24"
         height="28"
         fill="#fbfcfd"
         id="rect313" />
      <rect
         x="7"
         y="558.35999"
         width="24"
         height="1"
         fill="#ffffff"
         opacity="0.65"
         id="rect315" />
      <rect
         x="7"
         y="557.35999"
         width="24"
         height="1"
         fill="#939393"
         id="rect317" />
    </g>
    <g
       transform="translate(7,559.36)"
       enable-background="new"
       id="g335">
      <g
         transform="translate(0,-1028.4)"
         id="g333">
        <g
           id="titlebutton-close"
           transform="translate(-641,1218)">
          <g
             transform="translate(-678,-432.64)"
             id="g328">
            <g
               transform="translate(-103)"
               id="g320" />
            <g
               transform="translate(1323,246.87)"
               fill="#ffffff"
               id="g326">
              <g
                 transform="matrix(0.75,0,0,0.75,2,2.0547)"
                 fill="#ffffff"
                 id="g324">
                <g
                   transform="translate(-60,-518)"
                   fill="#ffffff"
                   id="g322" />
              </g>
            </g>
          </g>
          <rect
             x="645"
             y="-185.64"
             width="16"
             height="16"
             fill="none"
             id="rect330" />
        </g>
      </g>
    </g>
    <g
       transform="translate(7,-469)"
       enable-background="new"
       fill-rule="evenodd"
       id="g341">
      <path
         d="m 12,1047.4 c 3.8659,0 6.9999,-3.134 6.9999,-7 0,-3.866 -3.134,-7 -6.9999,-7 -3.866,0 -7.0001,3.134 -7.0001,7 0,3.866 3.134,7 7.0001,7"
         fill="#9d585e"
         id="path337" />
      <path
         d="m 12,1046.9 c 3.5898,0 6.4999,-2.9103 6.4999,-6.5001 0,-3.5899 -2.9102,-6.5 -6.4999,-6.5 -3.5899,0 -6.5001,2.9101 -6.5001,6.5 0,3.5898 2.9102,6.5001 6.5001,6.5001"
         fill="#c46e76"
         id="path339" />
    </g>
  </g>
  <g
     id="left-active"
     transform="translate(77,-545.36)">
    <rect
       transform="scale(-1,1)"
       x="-47"
       y="734.35999"
       width="1"
       height="16"
       fill="#939393"
       id="rect344" />
  </g>
  <g
     id="left-inactive"
     transform="translate(82,-545.36)">
    <rect
       transform="scale(-1,1)"
       x="-47"
       y="734.35999"
       width="1"
       height="16"
       fill="#939393"
       id="rect347" />
  </g>
  <g
     id="right-inactive"
     transform="matrix(-1,0,0,1,186,-545.36)">
    <rect
       transform="scale(-1,1)"
       x="-47"
       y="734.35999"
       width="1"
       height="16"
       fill="#939393"
       id="rect350" />
  </g>
  <g
     id="right-active"
     transform="matrix(-1,0,0,1,181,-545.36)">
    <rect
       transform="scale(-1,1)"
       x="-47"
       y="734.35999"
       width="1"
       height="16"
       fill="#939393"
       id="rect353" />
  </g>
  <g
     id="bottom-left-active"
     transform="translate(54,-547.36)">
    <path
       d="m 97,730.36 -1,-1.2e-4 v 9.0001 h 1 v 1 l 9,-1.2e-4 v -0.99988 h -9 z"
       fill="#939393"
       id="path356" />
  </g>
  <g
     id="bottom-left-inactive"
     transform="translate(54,-535.36)">
    <path
       d="m 97,730.36 -1,-1.2e-4 v 9.0001 h 1 v 1 l 9,-1.2e-4 v -0.99988 h -9 z"
       fill="#939393"
       id="path359" />
  </g>
  <g
     id="bottom-right-inactive"
     transform="matrix(-1,0,0,1,286,-535.36)">
    <path
       d="m 97,730.36 -1,-1.2e-4 v 9.0001 h 1 v 1 l 9,-1.2e-4 v -0.99988 h -9 z"
       fill="#939393"
       id="path362" />
  </g>
  <g
     id="bottom-right-active"
     transform="matrix(-1,0,0,1,286,-547.36)">
    <path
       d="m 97,730.36 -1,-1.2e-4 v 9.0001 h 1 v 1 l 9,-1.2e-4 v -0.99988 h -9 z"
       fill="#939393"
       id="path365" />
  </g>
  <g
     id="bottom-active"
     transform="matrix(0,-1,-1,0,912.36,239)">
    <rect
       transform="scale(-1,1)"
       x="-47"
       y="734.35999"
       width="1"
       height="16"
       fill="#939393"
       id="rect368" />
  </g>
  <g
     id="bottom-inactive"
     transform="matrix(0,-1,-1,0,912.36,251)">
    <rect
       transform="scale(-1,1)"
       x="-47"
       y="734.35999"
       width="1"
       height="16"
       fill="#939393"
       id="rect371" />
  </g>
  <g
     id="maximize-toggled-inactive"
     transform="translate(-2,-481.36)">
    <use
       transform="translate(99,33)"
       width="100%"
       height="100%"
       xlink:href="#g4206"
       id="use374" />
    <g
       transform="translate(106,592.36)"
       enable-background="new"
       id="g386">
      <g
         transform="translate(0,-1028.4)"
         id="g384">
        <g
           transform="translate(-612,1201)"
           opacity="0.45"
           id="g382">
          <g
             transform="translate(-781,-415.64)"
             opacity="1"
             id="g378">
            <g
               transform="translate(-29)"
               opacity="1"
               id="g376" />
          </g>
          <rect
             x="616"
             y="-168.64"
             width="16"
             height="16"
             fill="none"
             opacity="1"
             id="rect380" />
        </g>
      </g>
    </g>
    <g
       transform="translate(106,-436)"
       enable-background="new"
       fill-rule="evenodd"
       id="g392">
      <path
         d="m 12,1047.4 c 3.8659,0 6.9999,-3.134 6.9999,-7 0,-3.866 -3.134,-7 -6.9999,-7 -3.866,0 -7.0001,3.134 -7.0001,7 0,3.866 3.134,7 7.0001,7"
         fill="#afb6c5"
         id="path388" />
      <path
         d="m 12,1046.9 c 3.5898,0 6.4999,-2.9101 6.4999,-6.5 0,-3.5899 -2.9102,-6.5 -6.4999,-6.5 -3.5899,0 -6.5001,2.9101 -6.5001,6.5 0,3.5899 2.9102,6.5 6.5001,6.5"
         fill="#c7ccd6"
         id="path390" />
    </g>
  </g>
  <g
     id="maximize-toggled-active"
     transform="translate(-2,-481.36)">
    <use
       transform="translate(0,33)"
       width="100%"
       height="100%"
       xlink:href="#g4206"
       id="use395" />
    <g
       transform="translate(7,592.36)"
       enable-background="new"
       id="g407">
      <g
         transform="translate(0,-1028.4)"
         id="g405">
        <g
           transform="translate(-612,1218)"
           opacity="0.8"
           id="g403">
          <g
             transform="translate(-781,-432.64)"
             opacity="1"
             id="g399">
            <g
               transform="translate(-29)"
               opacity="1"
               id="g397" />
          </g>
          <rect
             x="616"
             y="-185.64"
             width="16"
             height="16"
             fill="none"
             opacity="1"
             id="rect401" />
        </g>
      </g>
    </g>
    <g
       transform="translate(7,-436)"
       enable-background="new"
       fill-rule="evenodd"
       id="g413">
      <path
         d="m 12,1047.4 c 3.8659,0 6.9999,-3.134 6.9999,-7 0,-3.866 -3.134,-7 -6.9999,-7 -3.866,0 -7.0001,3.134 -7.0001,7 0,3.866 3.134,7 7.0001,7"
         fill="#829870"
         id="path409" />
      <path
         d="m 12,1046.9 c 3.5898,0 6.4999,-2.9103 6.4999,-6.5001 0,-3.5899 -2.9102,-6.5 -6.4999,-6.5 -3.5899,0 -6.5001,2.9101 -6.5001,6.5 0,3.5898 2.9102,6.5001 6.5001,6.5001"
         fill="#a3be8c"
         id="path411" />
    </g>
  </g>
  <g
     id="maximize-toggled-prelight"
     transform="translate(-2,-547.36)">
    <use
       transform="translate(33,99)"
       width="100%"
       height="100%"
       xlink:href="#g4206"
       id="use416" />
    <g
       transform="translate(40,658.36)"
       enable-background="new"
       id="g428">
      <g
         transform="translate(0,-1028.4)"
         id="g426">
        <g
           transform="translate(-509,1218)"
           id="g424">
          <g
             transform="translate(-781,-432.64)"
             id="g420">
            <g
               transform="translate(1294,247)"
               fill="#c0e3ff"
               id="g418" />
          </g>
          <rect
             x="513"
             y="-185.64"
             width="16"
             height="16"
             fill="none"
             id="rect422" />
        </g>
      </g>
    </g>
    <path
       d="m 52,677.36 c 3.8659,0 6.9999,-3.134 6.9999,-7 0,-3.866 -3.134,-7 -6.9999,-7 -3.866,0 -7.0001,3.134 -7.0001,7 0,3.866 3.134,7 7.0001,7"
       fill="#829870"
       fill-rule="evenodd"
       id="path430" />
    <path
       d="m 52,676.86 c 3.5898,0 6.4999,-2.9103 6.4999,-6.5001 0,-3.5899 -2.9102,-6.5 -6.4999,-6.5 -3.5899,0 -6.5001,2.9101 -6.5001,6.5 0,3.5898 2.9102,6.5001 6.5001,6.5001"
       fill="#a3be8c"
       fill-rule="evenodd"
       id="path432" />
    <g
       transform="translate(-132,891)"
       fill="#000000"
       fill-rule="evenodd"
       opacity="0.5"
       id="g438">
      <path
         d="m 188.21,-220.64 h -3.395 c -0.4504,0 -0.8188,-0.36842 -0.8188,-0.81875 v -3.3951 l 4.2138,4.2138"
         opacity="1"
         id="path434" />
      <path
         d="m 179.79,-220.64 h 3.395 c 0.4504,0 0.8188,0.36842 0.8188,0.81875 v 3.3951 l -4.2138,-4.2138"
         opacity="1"
         id="path436" />
    </g>
  </g>
  <g
     id="maximize-toggled-pressed"
     transform="translate(-2,-547.36)">
    <use
       transform="translate(66,99)"
       width="100%"
       height="100%"
       xlink:href="#g4206"
       id="use441" />
    <g
       transform="translate(73,658.36)"
       enable-background="new"
       id="g455">
      <g
         transform="translate(0,-1028.4)"
         id="g453">
        <g
           transform="translate(-408,1218)"
           id="g451">
          <g
             transform="translate(-882,-432.64)"
             id="g447">
            <g
               transform="translate(-132)"
               id="g443" />
            <g
               transform="translate(1294,247)"
               fill="#c0e3ff"
               id="g445" />
          </g>
          <rect
             x="412"
             y="-185.64"
             width="16"
             height="16"
             fill="none"
             id="rect449" />
        </g>
      </g>
    </g>
    <path
       d="m 85,677.36 c 3.8659,0 6.9999,-3.134 6.9999,-7 0,-3.866 -3.134,-7 -6.9999,-7 -3.866,0 -7.0001,3.134 -7.0001,7 0,3.866 3.134,7 7.0001,7"
       fill="#829870"
       fill-rule="evenodd"
       id="path457" />
    <g
       transform="translate(-99,891)"
       fill="#000000"
       fill-rule="evenodd"
       opacity="0.5"
       id="g463">
      <path
         d="m 188.21,-220.64 h -3.395 c -0.4504,0 -0.8188,-0.36842 -0.8188,-0.81875 v -3.3951 l 4.2138,4.2138"
         opacity="1"
         id="path459" />
      <path
         d="m 179.79,-220.64 h 3.395 c 0.4504,0 0.8188,0.36842 0.8188,0.81875 v 3.3951 l -4.2138,-4.2138"
         opacity="1"
         id="path461" />
    </g>
  </g>
  <g
     id="menu-active"
     transform="translate(-6.286,-547.36)">
    <use
       transform="translate(0.28571,66)"
       width="100%"
       height="100%"
       xlink:href="#use4210"
       id="use466" />
    <path
       id="setting-icon"
       d="m 164.25,636.7 c -0.019,-0.16869 -0.21567,-0.29545 -0.38574,-0.29545 -0.54988,0 -1.0378,-0.32287 -1.2425,-0.82219 -0.20907,-0.51144 -0.0743,-1.1079 0.33555,-1.4838 0.12899,-0.11792 0.14467,-0.31532 0.0365,-0.45244 -0.28144,-0.35739 -0.60132,-0.6802 -0.95059,-0.95998 -0.13676,-0.10976 -0.33742,-0.0945 -0.45602,0.0368 -0.35765,0.3961 -1.0001,0.54331 -1.4965,0.33617 -0.51662,-0.21731 -0.84239,-0.74079 -0.81051,-1.3027 0.0105,-0.1765 -0.11851,-0.32997 -0.29448,-0.35046 -0.4482,-0.0518 -0.90035,-0.0535 -1.3499,-0.004 -0.17396,0.0192 -0.30295,0.16904 -0.2971,0.34332 0.0195,0.55639 -0.31015,1.0707 -0.82164,1.2802 -0.49049,0.20034 -1.1284,0.0544 -1.4854,-0.33819 -0.11797,-0.12931 -0.31537,-0.1452 -0.45281,-0.0381 -0.35962,0.28215 -0.68669,0.60523 -0.97072,0.95968 -0.11078,0.13778 -0.0945,0.33751 0.0358,0.45606 0.41762,0.37818 0.55247,0.9798 0.33551,1.4971 -0.20714,0.49321 -0.71929,0.81108 -1.3056,0.81108 -0.19026,-0.006 -0.32577,0.12157 -0.34658,0.29455 -0.0528,0.45079 -0.0534,0.91012 -0.003,1.3646 0.0188,0.16941 0.22152,0.29505 0.39347,0.29505 0.52251,-0.0134 1.0242,0.31014 1.2346,0.82224 0.20976,0.51143 0.0749,1.1075 -0.33552,1.4837 -0.12837,0.11793 -0.14466,0.31501 -0.0365,0.45214 0.27881,0.35511 0.59873,0.67824 0.94925,0.96034 0.13747,0.11078 0.33751,0.0951 0.45669,-0.0362 0.35899,-0.39707 1.0014,-0.54402 1.4959,-0.33649 0.51791,0.21665 0.84369,0.74009 0.81181,1.3023 -0.0103,0.17659 0.11922,0.33032 0.29447,0.3505 0.22929,0.0268 0.45995,0.0401 0.69125,0.0401 0.21955,0 0.43914,-0.0121 0.6587,-0.0365 0.174,-0.0192 0.30291,-0.16905 0.29706,-0.34363 -0.0201,-0.55608 0.31015,-1.0704 0.82096,-1.2796 0.4938,-0.20169 1.129,-0.0541 1.486,0.33809 0.11864,0.12904 0.31465,0.14462 0.45285,0.0379 0.35896,-0.28148 0.68535,-0.6043 0.97072,-0.95972 0.11073,-0.13748 0.0951,-0.33751 -0.0359,-0.45602 -0.41762,-0.37819 -0.55314,-0.97989 -0.33618,-1.4969 0.20397,-0.48665 0.6971,-0.8134 1.2275,-0.8134 l 0.0742,0.001 c 0.17204,0.014 0.33033,-0.11855 0.35118,-0.29416 0.0529,-0.45119 0.0535,-0.91011 0.002,-1.3646 z m -5.9531,2.6804 c -1.1037,0 -2.0014,-0.89774 -2.0014,-2.0014 0,-1.1036 0.89775,-2.0014 2.0014,-2.0014 1.1036,0 2.0014,0.89779 2.0014,2.0014 0,1.1037 -0.89776,2.0014 -2.0014,2.0014 z"
       clip-rule="evenodd"
       fill="#a0a9ba"
       fill-rule="evenodd"
       stroke-width="0.058824" />
  </g>
  <g
     id="menu-pressed"
     transform="translate(-0.2857,-547.36)">
    <use
       transform="translate(23.286,66)"
       width="100%"
       height="100%"
       xlink:href="#use4210"
       id="use470" />
    <path
       d="m 187.25,636.7 c -0.019,-0.16869 -0.21567,-0.29545 -0.38574,-0.29545 -0.54988,0 -1.0378,-0.32287 -1.2425,-0.82219 -0.20907,-0.51144 -0.0743,-1.1079 0.33555,-1.4838 0.12899,-0.11792 0.14467,-0.31532 0.0365,-0.45244 -0.28144,-0.35739 -0.60132,-0.6802 -0.95059,-0.95998 -0.13676,-0.10976 -0.33742,-0.0945 -0.45602,0.0368 -0.35765,0.3961 -1.0001,0.54331 -1.4965,0.33617 -0.51662,-0.21731 -0.84239,-0.74079 -0.81051,-1.3027 0.0105,-0.1765 -0.11851,-0.32997 -0.29448,-0.35046 -0.4482,-0.0518 -0.90035,-0.0535 -1.3499,-0.004 -0.17396,0.0192 -0.30295,0.16904 -0.2971,0.34332 0.0195,0.55639 -0.31015,1.0707 -0.82164,1.2802 -0.49049,0.20034 -1.1284,0.0544 -1.4854,-0.33819 -0.11797,-0.12931 -0.31537,-0.1452 -0.45281,-0.0381 -0.35962,0.28215 -0.68669,0.60523 -0.97072,0.95968 -0.11078,0.13778 -0.0945,0.33751 0.0358,0.45606 0.41762,0.37818 0.55247,0.9798 0.33551,1.4971 -0.20714,0.49321 -0.71929,0.81108 -1.3056,0.81108 -0.19026,-0.006 -0.32577,0.12157 -0.34658,0.29455 -0.0528,0.45079 -0.0534,0.91012 -0.003,1.3646 0.0188,0.16941 0.22152,0.29505 0.39347,0.29505 0.52251,-0.0134 1.0242,0.31014 1.2346,0.82224 0.20976,0.51143 0.0749,1.1075 -0.33552,1.4837 -0.12837,0.11793 -0.14466,0.31501 -0.0365,0.45214 0.27881,0.35511 0.59873,0.67824 0.94925,0.96034 0.13747,0.11078 0.33751,0.0951 0.45669,-0.0362 0.35899,-0.39707 1.0014,-0.54402 1.4959,-0.33649 0.51791,0.21665 0.84369,0.74009 0.81181,1.3023 -0.0103,0.17659 0.11922,0.33032 0.29447,0.3505 0.22929,0.0268 0.45995,0.0401 0.69125,0.0401 0.21955,0 0.43914,-0.0121 0.6587,-0.0365 0.174,-0.0192 0.30291,-0.16905 0.29706,-0.34363 -0.0201,-0.55608 0.31015,-1.0704 0.82096,-1.2796 0.4938,-0.20169 1.129,-0.0541 1.486,0.33809 0.11864,0.12904 0.31465,0.14462 0.45285,0.0379 0.35896,-0.28148 0.68535,-0.6043 0.97072,-0.95972 0.11073,-0.13748 0.0951,-0.33751 -0.0359,-0.45602 -0.41762,-0.37819 -0.55314,-0.97989 -0.33618,-1.4969 0.20397,-0.48665 0.6971,-0.8134 1.2275,-0.8134 l 0.0742,0.001 c 0.17204,0.014 0.33033,-0.11855 0.35118,-0.29416 0.0529,-0.45119 0.0535,-0.91011 0.002,-1.3646 z m -5.9531,2.6804 c -1.1037,0 -2.0014,-0.89774 -2.0014,-2.0014 0,-1.1036 0.89775,-2.0014 2.0014,-2.0014 1.1036,0 2.0014,0.89779 2.0014,2.0014 0,1.1037 -0.89776,2.0014 -2.0014,2.0014 z"
       clip-rule="evenodd"
       fill="#5271ad"
       fill-rule="evenodd"
       stroke-width="0.058824"
       id="path472" />
  </g>
  <g
     id="menu-inactive"
     transform="translate(6.7143,-547.36)">
    <use
       transform="translate(46.286,66)"
       width="100%"
       height="100%"
       xlink:href="#use4210"
       id="use475" />
    <path
       d="m 210.25,636.7 c -0.019,-0.16869 -0.21567,-0.29545 -0.38574,-0.29545 -0.54988,0 -1.0378,-0.32287 -1.2425,-0.82219 -0.20907,-0.51144 -0.0743,-1.1079 0.33555,-1.4838 0.12899,-0.11792 0.14467,-0.31532 0.0365,-0.45244 -0.28144,-0.35739 -0.60132,-0.6802 -0.95059,-0.95998 -0.13676,-0.10976 -0.33742,-0.0945 -0.45602,0.0368 -0.35765,0.3961 -1.0001,0.54331 -1.4965,0.33617 -0.51662,-0.21731 -0.84239,-0.74079 -0.81051,-1.3027 0.0105,-0.1765 -0.11851,-0.32997 -0.29448,-0.35046 -0.4482,-0.0518 -0.90035,-0.0535 -1.3499,-0.004 -0.17396,0.0192 -0.30295,0.16904 -0.2971,0.34332 0.0195,0.55639 -0.31015,1.0707 -0.82164,1.2802 -0.49049,0.20034 -1.1284,0.0544 -1.4854,-0.33819 -0.11797,-0.12931 -0.31537,-0.1452 -0.45281,-0.0381 -0.35962,0.28215 -0.68669,0.60523 -0.97072,0.95968 -0.11078,0.13778 -0.0945,0.33751 0.0358,0.45606 0.41762,0.37818 0.55247,0.9798 0.33551,1.4971 -0.20714,0.49321 -0.71929,0.81108 -1.3056,0.81108 -0.19026,-0.006 -0.32577,0.12157 -0.34658,0.29455 -0.0528,0.45079 -0.0534,0.91012 -0.003,1.3646 0.0188,0.16941 0.22152,0.29505 0.39347,0.29505 0.52251,-0.0134 1.0242,0.31014 1.2346,0.82224 0.20976,0.51143 0.0749,1.1075 -0.33552,1.4837 -0.12837,0.11793 -0.14466,0.31501 -0.0365,0.45214 0.27881,0.35511 0.59873,0.67824 0.94925,0.96034 0.13747,0.11078 0.33751,0.0951 0.45669,-0.0362 0.35899,-0.39707 1.0014,-0.54402 1.4959,-0.33649 0.51791,0.21665 0.84369,0.74009 0.81181,1.3023 -0.0103,0.17659 0.11922,0.33032 0.29447,0.3505 0.22929,0.0268 0.45995,0.0401 0.69125,0.0401 0.21955,0 0.43914,-0.0121 0.6587,-0.0365 0.174,-0.0192 0.30291,-0.16905 0.29706,-0.34363 -0.0201,-0.55608 0.31015,-1.0704 0.82096,-1.2796 0.4938,-0.20169 1.129,-0.0541 1.486,0.33809 0.11864,0.12904 0.31465,0.14462 0.45285,0.0379 0.35896,-0.28148 0.68535,-0.6043 0.97072,-0.95972 0.11073,-0.13748 0.0951,-0.33751 -0.0359,-0.45602 -0.41762,-0.37819 -0.55314,-0.97989 -0.33618,-1.4969 0.20397,-0.48665 0.6971,-0.8134 1.2275,-0.8134 l 0.0742,0.001 c 0.17204,0.014 0.33033,-0.11855 0.35118,-0.29416 0.0529,-0.45119 0.0535,-0.91011 0.002,-1.3646 z m -5.9531,2.6804 c -1.1037,0 -2.0014,-0.89774 -2.0014,-2.0014 0,-1.1036 0.89775,-2.0014 2.0014,-2.0014 1.1036,0 2.0014,0.89779 2.0014,2.0014 0,1.1037 -0.89776,2.0014 -2.0014,2.0014 z"
       clip-rule="evenodd"
       fill="#c4c9d4"
       fill-rule="evenodd"
       stroke-width="0.058824"
       id="path477" />
  </g>
  <use
     id="top-left-inactive"
     transform="translate(18)"
     width="100%"
     height="100%"
     xlink:href="#top-left-active"
     x="0"
     y="0" />
  <use
     id="top-right-active"
     transform="matrix(-1,0,0,1,58,0)"
     width="100%"
     height="100%"
     xlink:href="#top-left-active"
     x="0"
     y="0" />
  <use
     id="top-right-inactive"
     transform="matrix(-1,0,0,1,76,3e-5)"
     width="100%"
     height="100%"
     xlink:href="#top-left-active"
     x="0"
     y="0" />
  <g
     id="top-left-active"
     transform="translate(5,-594.36)">
    <path
       transform="translate(-5,594.36)"
       d="m 14,179 v 0.34961 c -0.69826,0.16383 -1.3762,0.37955 -2.0254,0.65039 h -0.97461 v 0.45898 c -0.32257,0.16738 -0.63552,0.34811 -0.94141,0.54102 h -1.0586 v 0.74219 C 8.89116,181.82705 8.78175,181.91178 8.67576,182 H 7.99998 v 0.60742 C 7.8663,182.73551 7.73549,182.86632 7.6074,183 H 6.99998 v 0.67578 C 6.91176,183.78177 6.82703,183.89118 6.74217,184 H 5.99998 v 1 0.0606 C 5.80739,185.36581 5.62608,185.67794 5.45896,186 H 4.99998 v 0.97461 c -0.13959,0.3346 -0.2632,0.67712 -0.375,1.0254 h -0.625 v 4 14 h 15 v -27 h -2 -3 z"
       fill="#fbfcfd"
       stroke-linecap="round"
       stroke-linejoin="round"
       stroke-width="2.1158"
       style="paint-order:stroke fill markers"
       id="path483" />
    <path
       transform="translate(-5,547.36)"
       d="m 14,225 v 1 h 5 v -1 h -4 z m 0,1 h -3 v 1 h 3 z m -3,1 H 9 v 1 h 2 z m -2,1 H 8 v 1 h 1 z m -1,1 H 7 v 1 h 1 z m -1,1 H 6 v 1 h 1 z m -1,1 H 5 v 2 h 1 v -1 z m -1,2 H 4 v 2 h 1 v -1 z m -1,2 H 3 v 18 h 1 z"
       fill="#939393"
       stroke-linecap="round"
       stroke-linejoin="round"
       stroke-width="9.2376"
       style="paint-order:stroke fill markers"
       id="path485" />
  </g>
</svg>
