<svg width="35" height="200" version="1.1" xmlns="http://www.w3.org/2000/svg">
 <defs>
  <filter id="filter4154" x="-.132" y="-.020842" width="1.264" height="1.0417" color-interpolation-filters="sRGB">
   <feGaussianBlur stdDeviation="1.6500004"/>
  </filter>
 </defs>
 <g transform="translate(0 -852.36)" shape-rendering="auto">
  <path d="m7.2 858.36h28v190h-28c-1.108 0-2-0.892-2-2v-186c0-1.108 0.892-2 2-2z" fill="#000000" fill-opacity=".44" filter="url(#filter4154)"/>
  <path d="m7 857.36h28v190h-28c-1.108 0-2-0.892-2-2v-186c0-1.108 0.892-2 2-2z" fill="#0860f2"/>
  <path transform="translate(0 852.36)" d="m18 94c-0.554 0-1 0.446-1 1v4h-4c-0.554 0-1 0.446-1 1s0.446 1 1 1h4v4c0 0.554 0.446 1 1 1s1-0.446 1-1v-4h4c0.554 0 1-0.446 1-1s-0.446-1-1-1h-4v-4c0-0.554-0.446-1-1-1zm8 6a8 8 0 0 1-8 8 8 8 0 0 1-8-8 8 8 0 0 1 8-8 8 8 0 0 1 8 8z" fill="#ffffff"/>
 </g>
</svg>
