<svg width="20" height="20" version="1.1" xmlns="http://www.w3.org/2000/svg">
 <g>
  <g transform="translate(-19 -.75)">
   <path d="m19.855 0.45508v20.084c1.4147-1.3815 2.8294-2.763 4.2441-4.1445 0.5882 1.1887 1.1584 2.3866 1.7585 3.5691 1.1086 1.6403 4.1575 0.46513 3.898-1.4959 0.01057-0.47023-0.40558-0.90844-0.43465-1.3136l0.7782-0.75963c0.5882 1.1887 1.1584 2.3866 1.7585 3.5691 1.1086 1.6403 4.1575 0.46513 3.898-1.4959-0.19232-0.9043-0.71785-1.698-1.0686-2.549-0.23891-0.51266-0.47782-1.0253-0.71672-1.538h5.2676c-4.4609-4.6419-8.9219-9.2839-13.383-13.926v6.2441c-2-2.0814-4-4.1628-6-6.2441zm1.5 3.7266c2 2.0814 4 4.1628 6 6.2441v-6.2441c2.7865 2.8997 5.5729 5.7995 8.3594 8.6992h-4.0996c0.88347 1.9034 1.782 3.8003 2.6561 5.7078 0.0065 0.62278-1.2276 0.98058-1.3251 0.20712-0.80433-1.6403-1.6087-3.2805-2.413-4.9208-1.0202 0.99544-2.0404 1.9909-3.0605 2.9863 0.26364 0.60805 0.5968 1.1925 0.81469 1.8161-0.18266 0.60104-1.2683 0.8373-1.3659 0.06795-0.79609-1.6235-1.5922-3.2469-2.3883-4.8704-1.0592 1.0339-2.1185 2.0677-3.1777 3.1016-4e-6 -4.265-7e-6 -8.53-1.1e-5 -12.795z" fill="#363636"/>
  </g>
 </g>
</svg>
