<svg width="20" height="20" version="1.1" xmlns="http://www.w3.org/2000/svg">
 <g>
  <g transform="translate(-22.25 -.75)">
   <path d="m25.855 0.45508v20.084c1.4147-1.3809 2.8294-2.7617 4.2441-4.1426 0.61241 1.2154 1.173 2.4602 1.8197 3.6561 1.1419 1.4763 3.9753 0.38901 3.846-1.4736-0.09413-0.82252-0.59476-1.5214-0.89997-2.2776-0.29887-0.64017-0.59774-1.2803-0.89661-1.9205h5.2695c-4.4609-4.6419-8.9219-9.2839-13.383-13.926zm1.5 3.7266c2.7865 2.8997 5.5729 5.7995 8.3594 8.6992h-4.1016c0.88507 1.9032 1.7818 3.8015 2.6596 5.7077 0.0349 0.56608-1.1491 0.98882-1.2821 0.29797-0.81857-1.6712-1.6371-3.3423-2.4557-5.0135-1.0599 1.0345-2.1198 2.069-3.1797 3.1035 1.5e-5 -4.265 3e-5 -8.53 4.5e-5 -12.795z" fill="#363636"/>
  </g>
 </g>
</svg>
