<svg width="20" height="20" version="1.1" xmlns="http://www.w3.org/2000/svg">
 <path d="m10.705 1.6719c-0.83652 0.074695-1.8182-0.13657-2.4473 0.57617-0.17925 0.5031-0.39107 0.7297-0.94531 0.61719-0.79382-0.051077-1.7019 0.053784-2.1875 0.77344-0.55491 0.83096-0.31368 1.8562-0.36719 2.793v1.502c-0.50972-0.31797-1.1319-0.13206-1.6992-0.18164-0.44283-0.020725-0.88111 0.025154-1.3184 0.091797 0.056931 2.6859 0.073733 5.3733 0.12109 8.0586 0.093691 1.3023 1.232 2.4048 2.5449 2.4238 0.63295 0.0151 1.4823 0.006779 2.2246 0.011719 3.2218-0.01207 6.4461 0.049849 9.666-0.056641 1.1622-0.12022 2.2133-1.1885 2.0703-2.3965v-9.4805c-0.70681-0.94068-1.8153-1.7809-3.0586-1.5703-0.29955-0.45357-0.48612-1.4731-1.2266-1.7988-0.35486-0.29104-0.83959-0.10977-1.2598-0.16211-0.29744-0.072682-0.8559 0.19254-0.86914-0.25195-0.15735-0.52152-0.71524-0.90857-1.248-0.94922zm-0.10547 1.5039c0.16452 0.27146 0.18277 0.75372 0.21875 1.125 0.006556 0.0068963 0.019796 0.0059113 0.027344 0.011719-0.009105-1.732e-4 -0.018238 1.732e-4 -0.027344 0l0.49414 5.9004 0.66406-5.8418 1.3457 0.0039062c0.53608 0.38955 0.41299 1.1405 0.55469 1.7227-0.011127 0.067472 0.006397 0.096046 0.015625 0.13672-6.5e-4 -8.3e-6 -0.001302 8.3e-6 -0.001953 0l0.011719 0.085938 0.48242 3.8652 0.66406-3.9199c0.57404-0.037127 1.1577 0.038512 1.5586 0.50195 0.40964 0.21687 0.21564 0.68897 0.25977 1.0586v8.3418c-0.33706 0.96368-1.6 0.54827-2.375 0.66016-3.3705 0.01308-6.7421 0.033828-10.111-0.013672-0.97567-0.02828-1.1419-1.07-1.041-1.8418-0.011641-1.9071-0.044744-3.8139-0.078125-5.7207 0.32636 0.00646 0.67596-0.012758 0.98828 0.0097657 0.49388 0.91522 0.48462 2.0012 0.50781 3.0156 0.49264-0.0068 1.0434 0.03983 1.5 0 0.0091468-2.5196-0.018438-5.04 0.013672-7.5586 0.1049-0.5199 0.73074-0.30916 1.1113-0.35352h0.67578l0.48828 5.8477 0.66992-5.877h-0.0039063c0.030948-0.38283-0.15063-0.89584 0.24805-1.1191l1.1387-0.041016z" fill="#363636"/>
</svg>
