<?xml version="1.0" encoding="UTF-8"?>
<svg height="32px" viewBox="0 0 32 32" width="32px" xmlns="http://www.w3.org/2000/svg">
    <path d="m 3.5 2 c -1.929688 0.007812 -3.4921875 1.570312 -3.5 3.5 c 0 1.386719 0.820312 2.59375 2 3.15625 v 3.34375 h 2 v -3.035156 c 1.53125 -0.230469 2.734375 -1.433594 2.964844 -2.964844 h 2.035156 v -2 h -2.34375 c -0.578125 -1.21875 -1.808594 -1.996094 -3.15625 -2 z m 25 0 c -1.347656 0.003906 -2.578125 0.78125 -3.15625 2 h -2.34375 v 2 h 2.035156 c 0.230469 1.53125 1.433594 2.734375 2.964844 2.964844 v 3.035156 h 2 v -3.34375 c 1.21875 -0.578125 1.996094 -1.808594 2 -3.15625 c 0 -1.921875 -1.578125 -3.5 -3.5 -3.5 z m -25 2 c 0.839844 0 1.5 0.660156 1.5 1.5 s -0.660156 1.5 -1.5 1.5 s -1.5 -0.660156 -1.5 -1.5 s 0.660156 -1.5 1.5 -1.5 z m 7.5 0 v 2 h 4 v -2 z m 6 0 v 2 h 4 v -2 z m 11.5 0 c 0.839844 0 1.5 0.660156 1.5 1.5 s -0.660156 1.5 -1.5 1.5 s -1.5 -0.660156 -1.5 -1.5 s 0.660156 -1.5 1.5 -1.5 z m -26.5 10 v 4 h 2 v -4 z m 26 0 v 4 h 2 v -4 z m -26 6 v 3.34375 c -1.21875 0.578125 -1.99609375 1.808594 -2 3.15625 c 0 1.921875 1.578125 3.5 3.5 3.5 c 1.347656 -0.003906 2.578125 -0.78125 3.15625 -2 h 2.34375 v -2 h -2.035156 c -0.230469 -1.53125 -1.433594 -2.734375 -2.964844 -2.964844 v -3.035156 z m 26 0 v 3.035156 c -1.53125 0.230469 -2.734375 1.433594 -2.964844 2.964844 h -2.035156 v 2 h 2.34375 c 0.578125 1.21875 1.808594 1.996094 3.15625 2 c 1.921875 0 3.5 -1.578125 3.5 -3.5 c -0.003906 -1.347656 -0.78125 -2.578125 -2 -3.15625 v -3.34375 z m -24.5 5 c 0.839844 0 1.5 0.660156 1.5 1.5 s -0.660156 1.5 -1.5 1.5 s -1.5 -0.660156 -1.5 -1.5 s 0.660156 -1.5 1.5 -1.5 z m 25 0 c 0.839844 0 1.5 0.660156 1.5 1.5 s -0.660156 1.5 -1.5 1.5 s -1.5 -0.660156 -1.5 -1.5 s 0.660156 -1.5 1.5 -1.5 z m -17.5 1 v 2 h 4 v -2 z m 6 0 v 2 h 4 v -2 z m 0 0" fill="#241f31"/>
</svg>
