<?xml version="1.0" encoding="UTF-8"?>
<svg height="32px" viewBox="0 0 32 32" width="32px" xmlns="http://www.w3.org/2000/svg">
    <path d="m 3 3 c -1.644531 0 -3 1.355469 -3 3 v 14 c 0 1.644531 1.355469 3 3 3 h 4 v 3 c 0 1.644531 1.351562 3 3 3 h 18.996094 c 1.644531 0 3 -1.355469 3 -3 v -14 c 0 -1.644531 -1.355469 -3 -3 -3 h -4 v -3 c 0 -1.644531 -1.355469 -3 -3 -3 z m 0 2 h 18.996094 c 0.570312 0 1 0.429688 1 1 v 3 h -12.996094 c -1.648438 0 -3 1.355469 -3 3 v 9 h -4 c -0.570312 0 -1 -0.429688 -1 -1 v -14 c 0 -0.570312 0.429688 -1 1 -1 z m 7 6 h 18.996094 c 0.570312 0 1 0.429688 1 1 v 14 c 0 0.570312 -0.429688 1 -1 1 h -18.996094 c -0.574219 0 -1 -0.429688 -1 -1 v -14 c 0 -0.570312 0.425781 -1 1 -1 z m 0 0" fill="#241f31"/>
</svg>
