<?xml version="1.0" encoding="UTF-8"?>
<svg height="32px" viewBox="0 0 32 32" width="32px" xmlns="http://www.w3.org/2000/svg">
    <path d="m 4 4 c -1.660156 0 -3 1.339844 -3 3 v 14 c 0 1.660156 1.339844 3 3 3 h 10 v 3 h -3 c -1.09375 -0.003906 -2 0.90625 -2 2 h 14 c 0 -1.09375 -0.910156 -2 -2 -2 h -3 v -3 h 10 c 1.660156 0 3 -1.339844 3 -3 v -14 c 0 -1.660156 -1.339844 -3 -3 -3 z m 0 2 h 24 c 0.554688 0 1 0.445312 1 1 v 14 c 0 0.554688 -0.445312 1 -1 1 h -24 c -0.554688 0 -1 -0.445312 -1 -1 v -14 c 0 -0.554688 0.445312 -1 1 -1 z m 0 0" fill="#241f31"/>
</svg>
