<svg width="16px" height="16px" version="1.1" viewBox="0 0 16 16" xmlns="http://www.w3.org/2000/svg">
 <path d="m9 7a1.0001 1.0001 0 0 0-0.70703 0.29297l-0.70703 0.70703h-1.5859a1.0001 1.0001 0 0 0-1 1v6a1.0001 1.0001 0 0 0 1 1h9a1.0001 1.0001 0 0 0 1-1v-6a1.0001 1.0001 0 0 0-1-1h-1.5859l-0.70703-0.70703a1.0001 1.0001 0 0 0-0.70703-0.29297h-3zm0 1h3l1 1h2v6h-9v-6h2z" color="#000000" fill="#5d656b" stroke-linecap="round" stroke-linejoin="round"/>
 <path d="m10.5 9a2.5 2.5 0 0 0-2.5 2.5 2.5 2.5 0 0 0 2.5 2.5 2.5 2.5 0 0 0 2.5-2.5 2.5 2.5 0 0 0-2.5-2.5zm0 1a1.5 1.5 0 0 1 1.5 1.5 1.5 1.5 0 0 1-1.5 1.5 1.5 1.5 0 0 1-1.5-1.5 1.5 1.5 0 0 1 1.5-1.5z" fill="#5d656b" fill-rule="evenodd" stop-color="#000000" stroke-linecap="round" stroke-linejoin="round" stroke-width="2"/>
 <path d="m2 1c-1.108 0-2 0.892-2 2v7c0 1.108 0.892 2 2 2h2v-1h-2c-0.554 0-1-0.446-1-1v-7c0-0.554 0.446-1 1-1h10c0.554 0 1 0.446 1 1v4h1v-4c0-1.108-0.892-2-2-2z" fill="#5d656b" fill-rule="evenodd" stop-color="#000000" stroke-linecap="round" stroke-linejoin="round" stroke-width="2"/>
</svg>
