<svg width="150" height="150" version="1.1" viewBox="0 0 39.687 39.688" xmlns="http://www.w3.org/2000/svg" xmlns:xlink="http://www.w3.org/1999/xlink">
 <defs>
  <clipPath id="clipPath1084">
   <rect x="6.35" y="262.34" width="26.458" height="8.4667" rx=".086816" ry=".077982" fill="#ffffff" opacity=".15" style="paint-order:stroke fill markers"/>
  </clipPath>
  <linearGradient id="linearGradient1094" x1="19.844" x2="19.844" y1="270.81" y2="263.4" gradientUnits="userSpaceOnUse">
   <stop stop-color="#e2e2e2" offset="0"/>
   <stop stop-color="#f5f5f5" offset="1"/>
  </linearGradient>
  <filter id="filter1152" x="-.062" y="-.21257" width="1.124" height="1.4251" color-interpolation-filters="sRGB">
   <feGaussianBlur stdDeviation="0.65616681"/>
  </filter>
  <clipPath id="clipPath1164">
   <rect x="7.1316" y="262.47" width="25.644" height="7.3972" rx=".084145" ry=".068132" fill="#ffffff" opacity=".15" style="paint-order:stroke fill markers"/>
  </clipPath>
  <linearGradient id="linearGradient1244" x1="19.844" x2="19.844" y1="270.81" y2="263.4" gradientUnits="userSpaceOnUse">
   <stop stop-color="#3e3e3e" offset="0"/>
   <stop stop-color="#434343" offset="1"/>
  </linearGradient>
 </defs>
 <g transform="translate(0 -257.31)">
  <g id="thumbnail-light">
   <path transform="matrix(1.0318 0 0 1.1446 -1.0081 -38.08)" d="m6.35 263.4 23.812-1e-5c0.87948 0 1.5875 0.70803 1.5875 1.5875v4.2333l1e-6 1.5875h-25.4l-6e-7 -1.5875v-4.2333z" clip-path="url(#clipPath1164)" fill="#000000" filter="url(#filter1152)" opacity=".5" style="paint-order:stroke fill markers"/>
   <path d="m6.35 263.4 23.812-1e-5c0.87948 0 1.5875 0.70803 1.5875 1.5875v4.2333l1e-6 1.5875h-25.4l-6e-7 -1.5875v-4.2333z" clip-path="url(#clipPath1084)" fill="#ffffff" opacity=".15" stroke="#000000" stroke-linecap="round" stroke-width=".52917" style="paint-order:stroke fill markers"/>
   <path d="m6.35 263.4 23.812-1e-5c0.87948 0 1.5875 0.70803 1.5875 1.5875v4.2333l1e-6 1.5875h-25.4l-6e-7 -1.5875v-4.2333z" fill="url(#linearGradient1094)" style="paint-order:stroke fill markers"/>
   <g id="titlebutton-close-hover" transform="matrix(.26458 0 0 .26458 -52.123 322.3)">
    <rect x="293" y="-216.64" width="16" height="16" ry="1.6931e-5" opacity="0" stroke-width=".47432" style="paint-order:markers stroke fill"/>
    <g transform="translate(294 -215.64)" enable-background="new">
     <g transform="translate(-5 -1033.4)">
      <path d="m12 1047.4c3.8659 0 6.9999-3.134 6.9999-7s-3.134-7-6.9999-7c-3.866 0-7.0001 3.134-7.0001 7s3.134 7 7.0001 7" fill="#cb4e43" fill-rule="evenodd"/>
      <path d="m12 1046.9c3.5898 0 6.4999-2.9103 6.4999-6.5001 0-3.5899-2.9102-6.5-6.4999-6.5-3.5899 0-6.5001 2.9101-6.5001 6.5 0 3.5898 2.9102 6.5001 6.5001 6.5001" fill="#fe6254" fill-rule="evenodd"/>
      <path d="m9.1716 1037.5c-0.39174 0.3917-0.39174 1.0224 0 1.4142l1.4142 1.4142-1.4142 1.4142c-0.39174 0.3918-0.39174 1.0225 0 1.4142 0.39174 0.3918 1.0225 0.3918 1.4142 0l1.4142-1.4142 1.4142 1.4142c0.39174 0.3918 1.0225 0.3918 1.4142 0 0.39174-0.3917 0.39174-1.0224 0-1.4142l-1.4142-1.4142 1.4142-1.4142c0.39174-0.3918 0.39174-1.0225 0-1.4142-0.39174-0.3918-1.0225-0.3918-1.4142 0l-1.4142 1.4142-1.4142-1.4142c-0.39174-0.3918-1.0225-0.3918-1.4142 0z" enable-background="new" fill="#000000" opacity=".5"/>
     </g>
    </g>
   </g>
   <g id="titlebutton-maximize-hover" transform="matrix(.26458 0 0 .26458 -52.656 322.3)">
    <rect x="273" y="-216.64" width="16" height="16" ry="1.6931e-5" opacity="0" stroke-width=".47432" style="paint-order:markers stroke fill"/>
    <g transform="translate(274 -215.64)" enable-background="new">
     <g transform="translate(-5 -1033.4)">
      <path d="m12 1047.4c3.8659 0 6.9999-3.134 6.9999-7s-3.134-7-6.9999-7c-3.866 0-7.0001 3.134-7.0001 7s3.134 7 7.0001 7" fill="#20a932" fill-rule="evenodd"/>
      <path d="m12 1046.9c3.5898 0 6.4999-2.9103 6.4999-6.5001 0-3.5899-2.9102-6.5-6.4999-6.5-3.5899 0-6.5001 2.9101-6.5001 6.5 0 3.5898 2.9102 6.5001 6.5001 6.5001" fill="#28d33f" fill-rule="evenodd"/>
      <path d="m10.414 1037.4 4.5859 4.5859v-3.5859c0-0.4155-0.5845-1-1-1zm-1.4141 1.4141v3.5859c0 0.4155 0.5845 1 1 1h3.5859z" fill="#000000" opacity=".5"/>
     </g>
    </g>
   </g>
   <g id="titlebutton-minimize-hover" transform="matrix(.26458 0 0 .26458 -53.185 322.3)">
    <rect x="253" y="-216.64" width="16" height="16" ry="1.6931e-5" opacity="0" stroke-width=".47432" style="paint-order:markers stroke fill"/>
    <g transform="translate(254 -215.64)" enable-background="new">
     <g transform="translate(-5 -1033.4)">
      <path d="m12 1047.4c3.8659 0 6.9999-3.134 6.9999-7s-3.134-7-6.9999-7c-3.866 0-7.0001 3.134-7.0001 7s3.134 7 7.0001 7" fill="#caa124" fill-rule="evenodd"/>
      <path d="m12 1046.9c3.5898 0 6.4999-2.9103 6.4999-6.5001 0-3.5899-2.9102-6.5-6.4999-6.5-3.5899 0-6.5001 2.9101-6.5001 6.5 0 3.5898 2.9102 6.5001 6.5001 6.5001" fill="#fdc92d" fill-rule="evenodd"/>
      <rect x="8" y="1039.4" width="8" height="2" ry="1" fill="#000000" opacity=".5"/>
     </g>
    </g>
   </g>
  </g>
  <g id="thumbnail-dark" transform="translate(0 15.61)">
   <path transform="matrix(1.0318 0 0 1.1446 -1.0081 -38.08)" d="m6.35 263.4 23.812-1e-5c0.87948 0 1.5875 0.70803 1.5875 1.5875v4.2333l1e-6 1.5875h-25.4l-6e-7 -1.5875v-4.2333z" clip-path="url(#clipPath1164)" fill="#000000" filter="url(#filter1152)" opacity=".5" style="paint-order:stroke fill markers"/>
   <path d="m6.35 263.4 23.812-1e-5c0.87948 0 1.5875 0.70803 1.5875 1.5875v4.2333l1e-6 1.5875h-25.4l-6e-7 -1.5875v-4.2333z" clip-path="url(#clipPath1084)" fill="#424242" opacity=".8" stroke="#000000" stroke-linecap="round" stroke-width=".52917" style="paint-order:stroke fill markers"/>
   <path d="m6.35 263.4 23.812-1e-5c0.87948 0 1.5875 0.70803 1.5875 1.5875v4.2333l1e-6 1.5875h-25.4l-6e-7 -1.5875v-4.2333z" fill="url(#linearGradient1244)" style="paint-order:stroke fill markers"/>
   <g transform="matrix(.26458 0 0 .26458 -52.123 322.3)">
    <rect x="293" y="-216.64" width="16" height="16" ry="1.6931e-5" opacity="0" stroke-width=".47432" style="paint-order:markers stroke fill"/>
    <g transform="translate(294 -215.64)" enable-background="new">
     <g transform="translate(-5 -1033.4)">
      <path d="m12 1047.4c3.8659 0 6.9999-3.134 6.9999-7s-3.134-7-6.9999-7c-3.866 0-7.0001 3.134-7.0001 7s3.134 7 7.0001 7" fill="#fe6254" fill-rule="evenodd"/>
      <path d="m12 1046.9c3.5898 0 6.4999-2.9103 6.4999-6.5001 0-3.5899-2.9102-6.5-6.4999-6.5-3.5899 0-6.5001 2.9101-6.5001 6.5 0 3.5898 2.9102 6.5001 6.5001 6.5001" fill="#fe6254" fill-rule="evenodd"/>
      <path d="m9.1716 1037.5c-0.39174 0.3917-0.39174 1.0224 0 1.4142l1.4142 1.4142-1.4142 1.4142c-0.39174 0.3918-0.39174 1.0225 0 1.4142 0.39174 0.3918 1.0225 0.3918 1.4142 0l1.4142-1.4142 1.4142 1.4142c0.39174 0.3918 1.0225 0.3918 1.4142 0 0.39174-0.3917 0.39174-1.0224 0-1.4142l-1.4142-1.4142 1.4142-1.4142c0.39174-0.3918 0.39174-1.0225 0-1.4142-0.39174-0.3918-1.0225-0.3918-1.4142 0l-1.4142 1.4142-1.4142-1.4142c-0.39174-0.3918-1.0225-0.3918-1.4142 0z" enable-background="new" fill="#000000" opacity=".5"/>
     </g>
    </g>
   </g>
   <g transform="matrix(.26458 0 0 .26458 -52.656 322.3)">
    <rect x="273" y="-216.64" width="16" height="16" ry="1.6931e-5" opacity="0" stroke-width=".47432" style="paint-order:markers stroke fill"/>
    <g transform="translate(274 -215.64)" enable-background="new">
     <g transform="translate(-5 -1033.4)">
      <path d="m12 1047.4c3.8659 0 6.9999-3.134 6.9999-7s-3.134-7-6.9999-7c-3.866 0-7.0001 3.134-7.0001 7s3.134 7 7.0001 7" fill="#28d33f" fill-rule="evenodd"/>
      <path d="m12 1046.9c3.5898 0 6.4999-2.9103 6.4999-6.5001 0-3.5899-2.9102-6.5-6.4999-6.5-3.5899 0-6.5001 2.9101-6.5001 6.5 0 3.5898 2.9102 6.5001 6.5001 6.5001" fill="#28d33f" fill-rule="evenodd"/>
      <path d="m10.414 1037.4 4.5859 4.5859v-3.5859c0-0.4155-0.5845-1-1-1zm-1.4141 1.4141v3.5859c0 0.4155 0.5845 1 1 1h3.5859z" fill="#000000" opacity=".5"/>
     </g>
    </g>
   </g>
   <g transform="matrix(.26458 0 0 .26458 -53.185 322.3)">
    <rect x="253" y="-216.64" width="16" height="16" ry="1.6931e-5" opacity="0" stroke-width=".47432" style="paint-order:markers stroke fill"/>
    <g transform="translate(254 -215.64)" enable-background="new">
     <g transform="translate(-5 -1033.4)">
      <path d="m12 1047.4c3.8659 0 6.9999-3.134 6.9999-7s-3.134-7-6.9999-7c-3.866 0-7.0001 3.134-7.0001 7s3.134 7 7.0001 7" fill="#fdc92d" fill-rule="evenodd"/>
      <path d="m12 1046.9c3.5898 0 6.4999-2.9103 6.4999-6.5001 0-3.5899-2.9102-6.5-6.4999-6.5-3.5899 0-6.5001 2.9101-6.5001 6.5 0 3.5898 2.9102 6.5001 6.5001 6.5001" fill="#fdc92d" fill-rule="evenodd"/>
      <rect x="8" y="1039.4" width="8" height="2" ry="1" fill="#000000" opacity=".5"/>
     </g>
    </g>
   </g>
   <path transform="matrix(.26458 0 0 .26458 0 241.7)" d="m24 82v1h90c3.6111 0 6 2.2642 6 5.7852v-0.78516c0-3.324-2.676-6-6-6h-90z" fill="#ffffff" opacity=".1" style="paint-order:stroke fill markers"/>
  </g>
 </g>
</svg>
