<?xml version="1.0" encoding="UTF-8" standalone="no"?>
<svg
   width="78"
   height="80"
   version="1.1"
   viewBox="0 0 78 80"
   id="svg15"
   sodipodi:docname="menu.svg"
   inkscape:version="1.1.2 (0a00cf5339, 2022-02-04)"
   xmlns:inkscape="http://www.inkscape.org/namespaces/inkscape"
   xmlns:sodipodi="http://sodipodi.sourceforge.net/DTD/sodipodi-0.dtd"
   xmlns="http://www.w3.org/2000/svg"
   xmlns:svg="http://www.w3.org/2000/svg">
  <sodipodi:namedview
     id="namedview17"
     pagecolor="#ffffff"
     bordercolor="#666666"
     borderopacity="1.0"
     inkscape:pageshadow="2"
     inkscape:pageopacity="0.0"
     inkscape:pagecheckerboard="0"
     showgrid="false"
     inkscape:zoom="4.6315494"
     inkscape:cx="41.67072"
     inkscape:cy="42.102541"
     inkscape:window-width="1440"
     inkscape:window-height="746"
     inkscape:window-x="0"
     inkscape:window-y="32"
     inkscape:window-maximized="1"
     inkscape:current-layer="svg15" />
  <defs
     id="defs5">
    <filter
       id="filter852"
       x="-0.108"
       y="-0.108"
       width="1.216"
       height="1.216"
       color-interpolation-filters="sRGB">
      <feGaussianBlur
         stdDeviation="2.88"
         id="feGaussianBlur2" />
    </filter>
  </defs>
  <rect
     x="7"
     y="9"
     width="64"
     height="64"
     rx="12"
     ry="12"
     fill="#000000"
     filter="url(#filter852)"
     opacity=".3325"
     stroke-width="2.9091"
     id="rect7" />
  <path
     d="m19 5c-7.202 0-13 5.798-13 13v40c0 7.202 5.798 13 13 13h40c7.202 0 13-5.798 13-13v-40c0-7.202-5.798-13-13-13h-40zm0 1h40c6.648 0 12 5.352 12 12v40c0 6.648-5.352 12-12 12h-40c-6.648 0-12-5.352-12-12v-40c0-6.648 5.352-12 12-12z"
     fill="#000000"
     opacity=".15"
     stroke-width="3"
     id="path9" />
  <rect
     x="7"
     y="6"
     width="64"
     height="64"
     rx="12"
     ry="12"
     fill="#f5f5f5"
     opacity=".95"
     stroke-width="2.9091"
     id="rect11"
     style="fill:#f3f4f7;fill-opacity:1" />
  <path
     d="m19 6c-6.648 0-12 5.352-12 12v40c0 6.648 5.352 12 12 12h40c6.648 0 12-5.352 12-12v-40c0-6.648-5.352-12-12-12zm0 1h40c6.094 0 11 4.906 11 11v40c0 6.094-4.906 11-11 11h-40c-6.094 0-11-4.906-11-11v-40c0-6.094 4.906-11 11-11z"
     fill="#fbfcfd"
     opacity=".1"
     stroke-width="2.9091"
     id="path13" />
</svg>
