<svg width="78" height="80" version="1.1" viewBox="0 0 78 80" xmlns="http://www.w3.org/2000/svg">
 <defs>
  <filter id="filter852" x="-.108" y="-.108" width="1.216" height="1.216" color-interpolation-filters="sRGB">
   <feGaussianBlur stdDeviation="2.88"/>
  </filter>
 </defs>
 <rect x="7" y="9" width="64" height="64" rx="12" ry="12" fill="#000000" filter="url(#filter852)" opacity=".3325" stroke-width="2.9091"/>
 <path d="m19 5c-7.202 0-13 5.798-13 13v40c0 7.202 5.798 13 13 13h40c7.202 0 13-5.798 13-13v-40c0-7.202-5.798-13-13-13h-40zm0 1h40c6.648 0 12 5.352 12 12v40c0 6.648-5.352 12-12 12h-40c-6.648 0-12-5.352-12-12v-40c0-6.648 5.352-12 12-12z" fill="#000000" opacity=".15" stroke-width="3"/>
 <rect x="7" y="6" width="64" height="64" rx="12" ry="12" fill="#f5f5f5" opacity=".95" stroke-width="2.9091"/>
 <path d="m19 6c-6.648 0-12 5.352-12 12v40c0 6.648 5.352 12 12 12h40c6.648 0 12-5.352 12-12v-40c0-6.648-5.352-12-12-12zm0 1h40c6.094 0 11 4.906 11 11v40c0 6.094-4.906 11-11 11h-40c-6.094 0-11-4.906-11-11v-40c0-6.094 4.906-11 11-11z" fill="#ffffff" opacity=".1" stroke-width="2.9091"/>
</svg>
