<svg width="24" height="24" version="1.1" viewBox="0 0 24 24" xmlns="http://www.w3.org/2000/svg" xmlns:osb="http://www.openswatchbook.org/uri/2009/osb" xmlns:xlink="http://www.w3.org/1999/xlink">
 <defs>
  <linearGradient id="j" x1="18" x2="32" y1="38.362" y2="38.362" gradientUnits="userSpaceOnUse">
   <stop stop-color="#0860f2" offset="0"/>
  </linearGradient>
  <linearGradient id="be" x1="24" x2="24" y1="45.362" y2="32.253" gradientTransform="matrix(1 0 0 .99168 0 .3776)" gradientUnits="userSpaceOnUse">
   <stop stop-color="#000000" stop-opacity=".25" offset="0"/>
   <stop stop-color="#000000" stop-opacity=".1" offset="1"/>
  </linearGradient>
 </defs>
 <g id="checkbox-checked-dark" transform="translate(-32 3.638)">
  <g transform="translate(19)">
   <g transform="translate(0,-30)">
    <rect x="17" y="30.362" width="16" height="16" color="#000000" fill="none"/>
    <rect x="17" y="30.362" width="16" height="16" rx="2.2857" ry="2.2857" color="#000000" opacity=".12" style="paint-order:fill markers stroke"/>
    <rect x="18" y="31.362" width="14" height="14" rx="2" ry="2" color="#000000" fill="url(#j)" style="paint-order:fill markers stroke"/>
    <rect x="18" y="31.362" width="14" height="14" rx="2" ry="2" color="#000000" fill="#ffffff" opacity=".1" style="paint-order:fill markers stroke"/>
    <rect x="18" y="32.362" width="14" height="13" rx="2" ry="1.8571" color="#000000" fill="url(#be)" style="paint-order:fill markers stroke"/>
   </g>
  </g>
  <g transform="translate(36,-1036)">
   <g transform="rotate(45,7.5,1026.4)">
    <g transform="translate(12.374,11.531)">
     <g transform="translate(-3,-5)" fill="#3b3c3e">
      <path transform="rotate(-45,1304,694.22)" d="m154.16 15.881c-0.25562 0-0.51116 0.0971-0.70703 0.29297l-3.5352 3.5352-1.4785-1.4766c-0.35638-0.35638-0.95788-0.32923-1.3496 0.0625-0.39174 0.39173-0.42083 0.99519-0.0645 1.3516l2.1856 2.1836 0.0644 0.06445c0.35638 0.35638 0.95788 0.32728 1.3496-0.06445l4.2422-4.2422c0.39174-0.39174 0.39174-1.0223 0-1.4141-0.19587-0.19587-0.45141-0.29297-0.70703-0.29297z" fill="#ffffff" filter="url(#bn)"/>
     </g>
     <rect transform="translate(0,1036.4)" x="5" y="-8" width="3" height="1" fill-opacity="0"/>
    </g>
   </g>
  </g>
 </g>
</svg>
