<svg id="Foreground" width="26" height="26" enable-background="new 0 0 16 16" version="1.0" viewBox="0 0 18.909 18.909" xmlns="http://www.w3.org/2000/svg">
 <defs>
  <filter id="filter839" x="-.048" y="-.048" width="1.096" height="1.096" color-interpolation-filters="sRGB">
   <feGaussianBlur stdDeviation="0.32"/>
  </filter>
 </defs>
 <circle cx="9.4545" cy="10.182" r="8" fill="#000000" filter="url(#filter839)" opacity=".1" stroke-width="0"/>
 <circle cx="9.4545" cy="9.4545" r="8" fill="#d8354a" stroke-width="0"/>
 <path d="m6.1115 5.7478c-0.092952 1e-7 -0.18588 0.035309-0.2571 0.10653-0.14245 0.14245-0.14245 0.37175 0 0.5142l3.0852 3.0866-3.0852 3.0852c-0.14245 0.14245-0.14245 0.37175 0 0.5142 0.14245 0.14245 0.37317 0.14245 0.51562 0l3.0852-3.0852 3.0852 3.0852c0.14245 0.14245 0.37175 0.14245 0.5142 0 0.14245-0.14245 0.14245-0.37175 0-0.5142l-3.0852-3.0852 3.0852-3.0866c0.14245-0.14245 0.14245-0.37175 0-0.5142-0.14245-0.14245-0.37175-0.14245-0.5142 0l-3.0852 3.0852-3.0852-3.0852c-0.071224-0.071224-0.16557-0.10653-0.25852-0.10653z" fill="#ffffff" stroke-linecap="round" stroke-linejoin="round" stroke-width="1.3606" style="paint-order:markers stroke fill"/>
</svg>
