<svg width="40" height="24" version="1.1" viewBox="0 0 40 24" xmlns="http://www.w3.org/2000/svg" xmlns:xlink="http://www.w3.org/1999/xlink">
 <defs>
  <filter id="filter1034" x="-.037565" y="-.037565" width="1.0751" height="1.0751" color-interpolation-filters="sRGB">
   <feGaussianBlur stdDeviation="0.36"/>
  </filter>
  <filter id="filter1038" x="-.0216" y="-.070497" width="1.0432" height="1.141" color-interpolation-filters="sRGB">
   <feGaussianBlur stdDeviation="0.36"/>
  </filter>
  <linearGradient id="linearGradient862" x1="19" x2="19" y1="24" gradientUnits="userSpaceOnUse">
   <stop stop-color="#ffffff" offset="0"/>
   <stop stop-color="#ffffff" stop-opacity="0" offset="1"/>
  </linearGradient>
 </defs>
 <rect width="40" height="24" rx="12" ry="12" fill="#0860f2" stroke-linecap="round" stroke-linejoin="round" stroke-width=".495" style="paint-order:markers stroke fill"/>
 <rect width="40" height="24" rx="12" ry="12" fill="url(#linearGradient862)" opacity=".3" stroke-linecap="round" stroke-linejoin="round" stroke-width=".495" style="paint-order:markers stroke fill"/>
 <rect y="-.038" width="40" height="24" opacity="0" stroke-width=".87706"/>
 <circle cx="28" cy="12.5" r="11.5" fill="#000000" filter="url(#filter1034)" opacity=".1" stroke-width="1.2778"/>
 <circle cx="28" cy="12" r="11" fill="#ffffff" stroke-width="1.2222"/>
 <path d="m12 0c-6.648 0-12 5.352-12 12 0 0.086409 0.011872 0.1699 0.013672 0.25586 0.13601-6.2562 5.4243-11.256 11.986-11.256h16c6.562 0 11.85 4.9996 11.986 11.256 0.0018-0.085962 0.013672-0.16945 0.013672-0.25586 0-6.648-5.352-12-12-12h-16z" fill="#000000" filter="url(#filter1038)" opacity=".1" stroke-linecap="round" stroke-linejoin="round" stroke-width=".495" style="paint-order:markers stroke fill"/>
</svg>
