<?xml version="1.0" encoding="UTF-8" standalone="no"?>
<svg
   width="16"
   height="16"
   version="1.1"
   id="svg14"
   sodipodi:docname="titlebutton-close-active.svg"
   inkscape:version="1.1.2 (0a00cf5339, 2022-02-04, custom)"
   xmlns:inkscape="http://www.inkscape.org/namespaces/inkscape"
   xmlns:sodipodi="http://sodipodi.sourceforge.net/DTD/sodipodi-0.dtd"
   xmlns="http://www.w3.org/2000/svg"
   xmlns:svg="http://www.w3.org/2000/svg">
  <defs
     id="defs18" />
  <sodipodi:namedview
     id="namedview16"
     pagecolor="#ffffff"
     bordercolor="#666666"
     borderopacity="1.0"
     inkscape:pageshadow="2"
     inkscape:pageopacity="0.0"
     inkscape:pagecheckerboard="0"
     showgrid="false"
     inkscape:zoom="12.794213"
     inkscape:cx="-0.85976368"
     inkscape:cy="6.4482276"
     inkscape:window-width="1920"
     inkscape:window-height="1010"
     inkscape:window-x="0"
     inkscape:window-y="0"
     inkscape:window-maximized="1"
     inkscape:current-layer="svg14" />
  <g
     transform="matrix(3.7795 0 0 3.7795 -322 -580.52)"
     id="g12">
    <g
       transform="matrix(.34018 0 0 .34018 84.931 153.33)"
       enable-background="new"
       id="g8">
      <g
         transform="translate(-5,-1033.4)"
         id="g6">
        <g
           fill-rule="evenodd"
           id="g4">
          <path
             d="m12.003 1045.9c3.0068 0 5.4444-2.4375 5.4444-5.4444s-2.4376-5.4445-5.4444-5.4445c-3.0069 0-5.4445 2.4376-5.4445 5.4445s2.4376 5.4444 5.4445 5.4444"
             fill="#cb4e43"
             stroke-width=".77778"
             id="path2"
             style="fill:#bf5f69;fill-opacity:1" />
          <path
             d="m12.003 1045.9c3.0068 0 5.4444-2.4375 5.4444-5.4444s-2.4376-5.4445-5.4444-5.4445c-3.0069 0-5.4445 2.4376-5.4445 5.4445s2.4376 5.4444 5.4445 5.4444"
             fill="#cb4e43"
             stroke-width=".77778"
             id="path853"
             style="fill:#000000;fill-opacity:1;opacity:0.2" />
        </g>
      </g>
    </g>
    <path
       d="m86.564 154.96c-0.10365 0.10364-0.10365 0.27051 0 0.37417l0.37417 0.37418-0.37417 0.37417c-0.10365 0.10366-0.10365 0.27054 0 0.37417 0.10364 0.10367 0.27053 0.10367 0.37417 0l0.37418-0.37417 0.37418 0.37417c0.10364 0.10367 0.27053 0.10367 0.37417 0 0.10365-0.10363 0.10365-0.27051 0-0.37417l-0.37417-0.37417 0.37417-0.37418c0.10365-0.10366 0.10365-0.27053 0-0.37417-0.10364-0.10367-0.27053-0.10367-0.37417 0l-0.37418 0.37417-0.37418-0.37417c-0.10364-0.10367-0.27053-0.10367-0.37417 0z"
       enable-background="new"
       opacity=".5"
       id="path10" />
  </g>
</svg>
