<?xml version="1.0" encoding="UTF-8" standalone="no"?>
<svg
   width="16"
   height="16"
   version="1.1"
   id="svg6"
   sodipodi:docname="titlebutton-unmaximize-backdrop-active.svg"
   inkscape:version="1.1.2 (0a00cf5339, 2022-02-04, custom)"
   xmlns:inkscape="http://www.inkscape.org/namespaces/inkscape"
   xmlns:sodipodi="http://sodipodi.sourceforge.net/DTD/sodipodi-0.dtd"
   xmlns="http://www.w3.org/2000/svg"
   xmlns:svg="http://www.w3.org/2000/svg">
  <defs
     id="defs10" />
  <sodipodi:namedview
     id="namedview8"
     pagecolor="#ffffff"
     bordercolor="#666666"
     borderopacity="1.0"
     inkscape:pageshadow="2"
     inkscape:pageopacity="0.0"
     inkscape:pagecheckerboard="0"
     showgrid="false"
     inkscape:zoom="36.1875"
     inkscape:cx="7.9861831"
     inkscape:cy="8"
     inkscape:window-width="1920"
     inkscape:window-height="1010"
     inkscape:window-x="0"
     inkscape:window-y="0"
     inkscape:window-maximized="1"
     inkscape:current-layer="svg6" />
  <path
     d="m 8,15 c 3.8659,0 6.9999,-3.134 6.9999,-7 C 14.9999,4.134 11.8659,1 8,1 4.134,1 0.9999,4.134 0.9999,8 c 0,3.866 3.134,7 7.0001,7"
     fill="#4d576b"
     id="path4-3"
     style="fill:#4d576b;fill-opacity:1;fill-rule:evenodd" />
  <path
     d="m 8,15 c 3.8659,0 6.9999,-3.134 6.9999,-7 C 14.9999,4.134 11.8659,1 8,1 4.134,1 0.9999,4.134 0.9999,8 c 0,3.866 3.134,7 7.0001,7"
     fill="#4d576b"
     id="path929"
     style="opacity:0.2;fill:#000000;fill-opacity:1;fill-rule:evenodd" />
  <path
     d="m8.0254 3.4141v3.5859c0 0.41552 0.58448 1 1 1h3.5859zm-4.6367 4.5859 4.5859 4.5859v-3.5859c0-0.41552-0.58448-1-1-1z"
     opacity=".5"
     stroke-width="3.7795"
     id="path4" />
</svg>
