<?xml version="1.0" encoding="UTF-8" standalone="no"?>
<svg
   width="16"
   height="16"
   version="1.1"
   id="svg8"
   sodipodi:docname="titlebutton-unmaximize-active.svg"
   inkscape:version="1.1.2 (0a00cf5339, 2022-02-04, custom)"
   xmlns:inkscape="http://www.inkscape.org/namespaces/inkscape"
   xmlns:sodipodi="http://sodipodi.sourceforge.net/DTD/sodipodi-0.dtd"
   xmlns="http://www.w3.org/2000/svg"
   xmlns:svg="http://www.w3.org/2000/svg">
  <defs
     id="defs12" />
  <sodipodi:namedview
     id="namedview10"
     pagecolor="#ffffff"
     bordercolor="#666666"
     borderopacity="1.0"
     inkscape:pageshadow="2"
     inkscape:pageopacity="0.0"
     inkscape:pagecheckerboard="0"
     showgrid="false"
     inkscape:zoom="36.1875"
     inkscape:cx="7.9861831"
     inkscape:cy="8"
     inkscape:window-width="1920"
     inkscape:window-height="1010"
     inkscape:window-x="0"
     inkscape:window-y="0"
     inkscape:window-maximized="1"
     inkscape:current-layer="svg8" />
  <g
     transform="matrix(3.7795 0 0 3.7795 -341 -468.52)"
     fill-rule="evenodd"
     id="g4">
    <path
       d="m92.34 127.93c1.0229 0 1.8521-0.82923 1.8521-1.8521 0-1.0229-0.82921-1.8521-1.8521-1.8521-1.0229 0-1.8521 0.82923-1.8521 1.8521 0 1.0229 0.82921 1.8521 1.8521 1.8521"
       fill="#20a932"
       stroke-width=".77781"
       id="path2"
       style="fill:#9cb983;fill-opacity:1" />
    <path
       d="m92.34 127.93c1.0229 0 1.8521-0.82923 1.8521-1.8521 0-1.0229-0.82921-1.8521-1.8521-1.8521-1.0229 0-1.8521 0.82923-1.8521 1.8521 0 1.0229 0.82921 1.8521 1.8521 1.8521"
       fill="#20a932"
       stroke-width=".77781"
       id="path847"
       style="fill:#000000;fill-opacity:1;opacity:0.2" />
  </g>
  <path
     d="m8.0254 3.4141v3.5859c0 0.41552 0.58448 1 1 1h3.5859l-4.5859-4.5859zm-4.6367 4.5859 4.5859 4.5859v-3.5859c0-0.41552-0.58448-1-1-1h-3.5859z"
     opacity=".5"
     stroke-width="3.7795"
     id="path6" />
</svg>
