<?xml version="1.0" encoding="UTF-8" standalone="no"?>
<svg
   width="16"
   height="16"
   version="1.1"
   id="svg13"
   sodipodi:docname="titlebutton-close-backdrop-active.svg"
   inkscape:version="1.1.2 (0a00cf5339, 2022-02-04, custom)"
   xmlns:inkscape="http://www.inkscape.org/namespaces/inkscape"
   xmlns:sodipodi="http://sodipodi.sourceforge.net/DTD/sodipodi-0.dtd"
   xmlns="http://www.w3.org/2000/svg"
   xmlns:svg="http://www.w3.org/2000/svg">
  <defs
     id="defs17" />
  <sodipodi:namedview
     id="namedview15"
     pagecolor="#ffffff"
     bordercolor="#666666"
     borderopacity="1.0"
     inkscape:pageshadow="2"
     inkscape:pageopacity="0.0"
     inkscape:pagecheckerboard="0"
     showgrid="false"
     inkscape:zoom="36.1875"
     inkscape:cx="7.9861831"
     inkscape:cy="8"
     inkscape:window-width="1920"
     inkscape:window-height="1010"
     inkscape:window-x="0"
     inkscape:window-y="0"
     inkscape:window-maximized="1"
     inkscape:current-layer="svg13" />
  <path
     d="m 8,15 c 3.8659,0 6.9999,-3.134 6.9999,-7 C 14.9999,4.134 11.8659,1 8,1 4.134,1 0.9999,4.134 0.9999,8 c 0,3.866 3.134,7 7.0001,7"
     fill="#4d576b"
     id="path4"
     style="fill:#4d576b;fill-opacity:1;fill-rule:evenodd" />
  <path
     d="m5.1686 5.0913c-0.39175 0.39171-0.39175 1.0224 0 1.4142l1.4142 1.4142-1.4142 1.4142c-0.39175 0.39178-0.39175 1.0225 0 1.4142 0.39171 0.39182 1.0225 0.39182 1.4142 0l1.4142-1.4142 1.4142 1.4142c0.39171 0.39182 1.0225 0.39182 1.4142 0 0.39174-0.39167 0.39174-1.0224 0-1.4142l-1.4142-1.4142 1.4142-1.4142c0.39174-0.39178 0.39174-1.0225 0-1.4142-0.39171-0.39182-1.0225-0.39182-1.4142 0l-1.4142 1.4142-1.4142-1.4142c-0.39171-0.39182-1.0225-0.39182-1.4142 0z"
     enable-background="new"
     opacity=".5"
     stroke-width="3.7795"
     id="path11" />
  <path
     d="m 8,15 c 3.8659,0 6.9999,-3.134 6.9999,-7 C 14.9999,4.134 11.8659,1 8,1 4.134,1 0.9999,4.134 0.9999,8 c 0,3.866 3.134,7 7.0001,7"
     fill="#4d576b"
     id="path929"
     style="fill:#000000;fill-opacity:1;fill-rule:evenodd;opacity:0.2" />
</svg>
