<svg xmlns="http://www.w3.org/2000/svg" width="16" height="16" fill="context-fill" fill-opacity="context-fill-opacity">
 <path d="m12.738 1.2891c-0.37566 0.026625-0.62445 0.49009-0.2832 0.87109a8 8 0 0 1 2.5449 5.8398 8 8 0 0 1-2.5547 5.8516c-0.446 0.471 0.18074 1.1485 0.67774 0.72852a9 9 0 0 0 2.877-6.5801 9 9 0 0 0-2.8613-6.5723c-0.13625-0.107-0.27517-0.14755-0.40039-0.13867zm-2.3906 1.416c-0.39562 0.011812-0.64211 0.53577-0.25586 0.91602a6 6 0 0 1 1.9082 4.3789 6 6 0 0 1-1.916 4.3887c-0.469 0.446 0.17269 1.1465 0.67969 0.72852a7 7 0 0 0 2.2363-5.1172 7 7 0 0 0-2.2246-5.1113c-0.14675-0.13375-0.29586-0.18753-0.42774-0.18359zm-4.3477 0.29492-3 3h-2c-0.554 0-1 0.446-1 1v2c0 0.554 0.446 1 1 1h2l3 3v-10zm2.0176 1.1836c-0.37584 0.016312-0.64502 0.51398-0.29102 0.89648a4 4 0 0 1 1.2734 2.9199 4 4 0 0 1-1.2773 2.9258c-0.473 0.43 0.13969 1.1525 0.67969 0.73047a5 5 0 0 0 1.5977-3.6562 5 5 0 0 0-1.5898-3.6504c-0.13-0.1235-0.2673-0.17145-0.39258-0.16602z"/>
</svg>
