<svg xmlns="http://www.w3.org/2000/svg" width="16" height="16" fill="context-fill" fill-opacity="context-fill-opacity">
 <path d="m3 1c-1.108 0-2 0.892-2 2v10c0 1.108 0.892 2 2 2h5.7617a4.5 4.5 0 0 1-0.49805-1h-5.2637c-0.554 0-1-0.446-1-1v-8c0-0.554 0.446-1 1-1h10c0.554 0 1 0.446 1 1v3.2637a4.5 4.5 0 0 1 1 0.49609v-5.7598c0-1.108-0.892-2-2-2h-10z"/>
 <path d="m14.975 10.025c-1.3668-1.3668-3.5829-1.3668-4.9497 0-1.3668 1.3668-1.3668 3.5829 0 4.9497 1.3668 1.3668 3.5829 1.3668 4.9497 0 1.3668-1.3668 1.3668-3.5829 0-4.9497zm-1.0607 0.35355 0.70711 0.70711-1.4142 1.4142 1.4142 1.4142-0.70711 0.70711-1.4142-1.4142-1.4142 1.4142-0.70711-0.70711 1.4142-1.4142-1.4142-1.4142 0.70711-0.70711 1.4142 1.4142z" fill="#ff8080"/>
</svg>
