<svg width="16" height="16" version="1.1" viewBox="0 0 16 16" xmlns="http://www.w3.org/2000/svg" fill="context-fill" fill-opacity="context-fill-opacity">
 <path d="m0.5 1a0.5 0.5 0 0 0-0.5 0.5 0.5 0.5 0 0 0 0.5 0.5h1.6152l1.9023 7.1289a0.50005 0.50005 0 0 0 0.48242 0.37109h9a0.50005 0.50005 0 0 0 0.47461-0.3418l1.5-4.5a0.50005 0.50005 0 0 0-0.47461-0.6582h-11.316l-0.70117-2.6289a0.50005 0.50005 0 0 0-0.48242-0.37109h-2zm3.4512 4h10.355l-1.168 3.5h-8.2539l-0.93359-3.5zm0.54883 6c-0.277 0-0.5 0.223-0.5 0.5s0.223 0.5 0.5 0.5h9c0.277 0 0.5-0.223 0.5-0.5s-0.223-0.5-0.5-0.5h-9zm1.75 1.5a1.25 1.25 0 0 0-1.25 1.25 1.25 1.25 0 0 0 1.25 1.25 1.25 1.25 0 0 0 1.25-1.25 1.25 1.25 0 0 0-1.25-1.25zm5.5 0a1.25 1.25 0 0 0-1.25 1.25 1.25 1.25 0 0 0 1.25 1.25 1.25 1.25 0 0 0 1.25-1.25 1.25 1.25 0 0 0-1.25-1.25zm-5.5 1a0.25 0.25 0 0 1 0.25 0.25 0.25 0.25 0 0 1-0.25 0.25 0.25 0.25 0 0 1-0.25-0.25 0.25 0.25 0 0 1 0.25-0.25zm5.5 0a0.25 0.25 0 0 1 0.25 0.25 0.25 0.25 0 0 1-0.25 0.25 0.25 0.25 0 0 1-0.25-0.25 0.25 0.25 0 0 1 0.25-0.25z"/>
</svg>
