<svg xmlns="http://www.w3.org/2000/svg" width="16" height="16" fill="context-fill" fill-opacity="context-fill-opacity">
 <g transform="translate(-.20339 -.13559)">
  <path d="m9.6176 6.7214c-0.12118-0.12118-0.25154-0.22665-0.38947-0.31763l-0.73473 0.73473c0.14934 0.07242 0.2917 0.16462 0.41709 0.29001 0.59372 0.59372 0.59372 1.5276 0 2.1213l-2.1213 2.1213c-0.59372 0.59372-1.5276 0.59372-2.1213 0-0.59372-0.59372-0.59372-1.5276 0-2.1213l0.60491-0.60491c-0.13649-0.39092-0.21105-0.79819-0.20578-1.2084l-1.1062 1.1062c-0.97323 0.97323-0.97323 2.5623 0 3.5355 0.97323 0.97323 2.5623 0.97323 3.5355 0l2.1213-2.1213c0.97323-0.97323 0.97323-2.5623 0-3.5355z"/>
  <path d="m6.7892 9.5498c0.12118 0.12118 0.25154 0.22665 0.38948 0.31763l0.73473-0.73473c-0.14934-0.07241-0.29166-0.16466-0.41705-0.29006-0.59372-0.59372-0.59372-1.5276 0-2.1213l2.1213-2.1213c0.59372-0.59372 1.5276-0.59372 2.1213 0 0.59372 0.59372 0.59372 1.5276 0 2.1213l-0.60491 0.60491c0.13649 0.39092 0.21105 0.79819 0.20578 1.2084l1.1062-1.1062c0.97323-0.97323 0.97323-2.5623 0-3.5355-0.97323-0.97323-2.5623-0.97323-3.5355 0l-2.1213 2.1213c-0.97323 0.97323-0.97323 2.5623 0 3.5355z"/>
 </g>
 <path d="m8 0a8 8 0 0 0-8 8 8 8 0 0 0 8 8 8 8 0 0 0 8-8 8 8 0 0 0-8-8zm0 1a7 7 0 0 1 7 7 7 7 0 0 1-7 7 7 7 0 0 1-7-7 7 7 0 0 1 7-7z"/>
</svg>
