<svg width="16" height="16" fill="context-fill" fill-opacity="context-fill-opacity" version="1.1" xmlns="http://www.w3.org/2000/svg">
 <path d="m2.5018 1c-0.27688 0-0.50176 0.22488-0.50176 0.50176v12.994c0 0.27688 0.22488 0.50176 0.50176 0.50176s0.49438-0.22488 0.49438-0.50176v-12.994c0-0.27688-0.2175-0.50176-0.49438-0.50176zm5.9916 1.0035c-0.27688 0-0.49438 0.22488-0.49438 0.50176v11.991c0 0.27688 0.2175 0.50176 0.49438 0.50176 0.27688 0 0.50176-0.22488 0.50176-0.50176v-11.991c0-0.27688-0.22488-0.50176-0.50176-0.50176zm-2.9958 0.99613c-0.27688 0-0.50176 0.22488-0.50176 0.50176v10.994c0 0.27688 0.22488 0.50176 0.50176 0.50176 0.27688 0 0.50176-0.22488 0.50176-0.50176v-10.994c0-0.27688-0.22488-0.50176-0.50176-0.50176zm5.9694 0.37632c-0.0332 0.00203-0.06987 0.0058-0.1033 0.014758-0.26744 0.071662-0.42584 0.34499-0.35418 0.61244l2.8482 10.625c0.07166 0.26744 0.34499 0.42584 0.61244 0.35418 0.26745-0.07166 0.42584-0.34499 0.35418-0.61244l-2.8482-10.625c-0.062704-0.23401-0.27673-0.38312-0.50914-0.36894z"/>
</svg>
