<svg fill="context-fill" fill-opacity="context-fill-opacity" data-name="icon" version="1.1" viewBox="0 0 16 16" xmlns="http://www.w3.org/2000/svg">
 <path d="m2 1c-0.554 0-1 0.446-1 1v4c0 0.554 0.446 1 1 1h4c0.554 0 1-0.446 1-1v-4c0-0.554-0.446-1-1-1h-4zm10 0c-0.277 0-0.5 0.223-0.5 0.5v2h-2c-0.277 0-0.5 0.223-0.5 0.5s0.223 0.5 0.5 0.5h2v2c0 0.277 0.223 0.5 0.5 0.5s0.5-0.223 0.5-0.5v-2h2c0.277 0 0.5-0.223 0.5-0.5s-0.223-0.5-0.5-0.5h-2v-2c0-0.277-0.223-0.5-0.5-0.5zm-10 1h4v4h-4v-4zm0 7c-0.554 0-1 0.446-1 1v4c0 0.554 0.446 1 1 1h4c0.554 0 1-0.446 1-1v-4c0-0.554-0.446-1-1-1h-4zm8 0c-0.554 0-1 0.446-1 1v4c0 0.554 0.446 1 1 1h4c0.554 0 1-0.446 1-1v-4c0-0.554-0.446-1-1-1h-4zm-8 1h4v4h-4v-4zm8 0h4v4h-4v-4z"/>
</svg>
