<svg xmlns="http://www.w3.org/2000/svg" width="16" height="16" fill="context-fill" fill-opacity="context-fill-opacity">
 <g>
  <path d="m1.5 4c-0.277 0-0.5 0.223-0.5 0.5s0.223 0.5 0.5 0.5h2.5879a1.5 1.5 0 0 1-0.087891-0.5 1.5 1.5 0 0 1 0.085938-0.5h-2.5859zm5.4121 0a1.5 1.5 0 0 1 0.087891 0.5 1.5 1.5 0 0 1-0.085938 0.5h7.5859c0.277 0 0.5-0.223 0.5-0.5s-0.223-0.5-0.5-0.5h-7.5879z"/>
  <path d="m1.5 11c-0.277 0-0.5 0.223-0.5 0.5s0.223 0.5 0.5 0.5h7.5879a1.5 1.5 0 0 1-0.087891-0.5 1.5 1.5 0 0 1 0.085938-0.5h-7.5859zm10.412 0a1.5 1.5 0 0 1 0.087891 0.5 1.5 1.5 0 0 1-0.085938 0.5h2.5859c0.277 0 0.5-0.223 0.5-0.5s-0.223-0.5-0.5-0.5h-2.5879z"/>
  <path d="m5.5 2a2.5 2.5 0 0 0-2.5 2.5 2.5 2.5 0 0 0 2.5 2.5 2.5 2.5 0 0 0 2.5-2.5 2.5 2.5 0 0 0-2.5-2.5zm0 1a1.5 1.5 0 0 1 1.5 1.5 1.5 1.5 0 0 1-1.5 1.5 1.5 1.5 0 0 1-1.5-1.5 1.5 1.5 0 0 1 1.5-1.5z"/>
  <path d="m10.5 9a2.5 2.5 0 0 0-2.5 2.5 2.5 2.5 0 0 0 2.5 2.5 2.5 2.5 0 0 0 2.5-2.5 2.5 2.5 0 0 0-2.5-2.5zm0 1a1.5 1.5 0 0 1 1.5 1.5 1.5 1.5 0 0 1-1.5 1.5 1.5 1.5 0 0 1-1.5-1.5 1.5 1.5 0 0 1 1.5-1.5z"/>
 </g>
</svg>
