<svg xmlns="http://www.w3.org/2000/svg" width="16" height="16" fill="context-fill" fill-opacity="context-fill-opacity">
 <path d="m3 0c-1.662 0-3 1.338-3 3v8c0 1.662 1.338 3 3 3h6v-1h-6c-1.108 0-2-0.892-2-2v-8c0-1.108 0.892-2 2-2h8c1.108 0 2 0.892 2 2v6h1v-6c0-1.662-1.338-3-3-3h-8zm0.75781 3.0508-0.70703 0.70703 4.2422 4.2422h-1.293v1h2 1v-1-2h-1v1.293l-4.2422-4.2422zm8.2422 6.9492c-1.108 0-2 0.892-2 2v2c0 1.108 0.892 2 2 2h2c1.108 0 2-0.892 2-2v-2c0-1.108-0.892-2-2-2h-2zm0 1h2c0.554 0 1 0.446 1 1v2c0 0.554-0.446 1-1 1h-2c-0.554 0-1-0.446-1-1v-2c0-0.554 0.446-1 1-1z"/>
</svg>
