<svg xmlns="http://www.w3.org/2000/svg" width="16" height="16" fill="context-fill" fill-opacity="context-fill-opacity">
 <g>
  <path d="m2 3c-1.108 0-2 0.892-2 2v6c0 1.108 0.892 2 2 2h2v-1h-2c-0.554 0-1-0.446-1-1v-6c0-0.554 0.446-1 1-1h12c0.554 0 1 0.446 1 1v6c0 0.554-0.446 1-1 1h-2v1h2c1.108 0 2-0.892 2-2v-6c0-1.108-0.892-2-2-2z"/>
  <path d="m5 0c-1.108 0-2.0366 0.8926-2 2v2h1v-2c0-0.554 0.446-1 1-1h6c0.554 0 1.0418 0.44758 1 1v2h1v-2c0-1.108-0.892-2-2-2z"/>
  <rect x="5" y="10" width="6" height="1"/>
  <rect x="5" y="12" width="6" height="1"/>
  <path d="m5 7c-1.108 0-2 0.892-2 2v5c0 1.108 0.892 2 2 2h6c1.108 0 2-0.892 2-2v-5c0-1.108-0.892-2-2-2zm0 1h6c0.554 0 1 0.446 1 1v5c0 0.554-0.446 1-1 1h-6c-0.554 0-1-0.446-1-1v-5c0-0.554 0.446-1 1-1z"/>
  <circle cx="13.5" cy="5.5" r=".5"/>
 </g>
</svg>
