<svg xmlns="http://www.w3.org/2000/svg" width="16" height="16" fill="context-fill" fill-opacity="context-fill-opacity">
 <path d="m3 0c-1.108 5.9212e-16 -2 0.892-2 2v12c0 1.108 0.892 2 2 2h10c1.108 0 2-0.892 2-2v-12c0-1.108-0.892-2-2-2h-10zm0 1h10c0.554 0 1 0.446 1 1v12c0 0.554-0.446 1-1 1h-10c-0.554 0-1-0.446-1-1v-12c0-0.554 0.446-1 1-1zm1.5 3c-0.277 0-0.5 0.223-0.5 0.5s0.223 0.5 0.5 0.5h7c0.277 0 0.5-0.223 0.5-0.5s-0.223-0.5-0.5-0.5h-7zm0 3c-0.277 0-0.5 0.223-0.5 0.5s0.223 0.5 0.5 0.5h7c0.277 0 0.5-0.223 0.5-0.5s-0.223-0.5-0.5-0.5h-7zm0 3c-0.277 0-0.5 0.223-0.5 0.5s0.223 0.5 0.5 0.5h3.5703c0.277 0 0.5-0.223 0.5-0.5s-0.223-0.5-0.5-0.5h-3.5703z"/>
</svg>
