<svg xmlns="http://www.w3.org/2000/svg" width="16" height="16" fill="context-fill" fill-opacity="context-fill-opacity">
 <path d="m3 1c-1.108 0-2 0.892-2 2v5c0 3.866 3.134 7 7 7 3.866 0 7-3.134 7-7v-5c0-1.108-0.892-2-2-2zm0.75781 3.9629c0.12781 0 0.25558 0.050504 0.35352 0.14844l3.8887 3.8887 3.8887-3.8887c0.19587-0.19587 0.51116-0.19587 0.70703 0s0.19587 0.51116 0 0.70703l-4.2422 4.2422c-0.19587 0.19587-0.51116 0.19587-0.70703 0l-4.2422-4.2422c-0.19587-0.19587-0.19587-0.51116 0-0.70703 0.09794-0.097937 0.22571-0.14844 0.35352-0.14844z"/>
</svg>
