<svg xmlns="http://www.w3.org/2000/svg" width="16" height="16" fill="context-fill" fill-opacity="context-fill-opacity">
 <path d="m3 1c-1.108 0-2 0.892-2 2v5c0 3.866 3.134 7 7 7 3.866 0 7-3.134 7-7v-5c0-1.108-0.892-2-2-2zm0 1h10c0.554 0 1 0.446 1 1v5c0 3.3137-2.6863 6-6 6-3.3137 0-6-2.6863-6-6v-5c0-0.554 0.446-1 1-1zm0.75781 2.9629c-0.12781 0-0.25558 0.050503-0.35352 0.14844-0.19587 0.19587-0.19587 0.51116 0 0.70703l4.2422 4.2422c0.19587 0.19587 0.51116 0.19587 0.70703 0l4.2422-4.2422c0.19587-0.19587 0.19587-0.51116 0-0.70703s-0.51116-0.19587-0.70703 0l-3.8887 3.8887-3.8887-3.8887c-0.097934-0.097934-0.22571-0.14844-0.35352-0.14844z"/>
</svg>
