<svg xmlns="http://www.w3.org/2000/svg" width="16" height="16" fill="context-fill" fill-opacity="context-fill-opacity">
 <g transform="scale(3.7795)">
  <path d="m0.57929 2.1627c0.017081-0.00191 0.03514-5.465e-4 0.05271 0.00465l0.76119 0.22531c0.070279 0.020789 0.11019 0.094051 0.0894 0.16433-0.020789 0.070279-0.094568 0.11019-0.16485 0.0894l-0.43408-0.12867a1.3229 1.3229 0 0 0 1.2599 0.92191 1.3229 1.3229 0 0 0 1.296-1.0583h0.26923a1.5875 1.5875 0 0 1-1.5653 1.3229 1.5875 1.5875 0 0 1-1.5064-1.0878l-0.14108 0.47646c-0.020789 0.07028-0.094052 0.11019-0.16433 0.0894-0.07028-0.020789-0.11019-0.094052-0.0894-0.16433l0.22531-0.76119c0.015592-0.052709 0.060378-0.088322 0.11162-0.094051z"/>
  <path d="m3.654 2.0707c-0.017081 0.00191-0.03514 5.464e-4 -0.05271-0.00465l-0.76119-0.22531c-0.07028-0.020789-0.11019-0.094051-0.0894-0.16433 0.020789-0.070279 0.094568-0.11019 0.16485-0.0894l0.43408 0.12867a1.3229 1.3229 0 0 0-1.2599-0.92191 1.3229 1.3229 0 0 0-1.296 1.0583h-0.26923a1.5875 1.5875 0 0 1 1.5653-1.3229 1.5875 1.5875 0 0 1 1.5064 1.0878l0.14108-0.47646c0.020789-0.07028 0.094052-0.11019 0.16433-0.0894 0.07028 0.020789 0.11019 0.094052 0.0894 0.16433l-0.22531 0.76119c-0.015592 0.052709-0.060378 0.088322-0.11162 0.094051z"/>
 </g>
</svg>
