<svg width="16" height="16" version="1.1" xmlns="http://www.w3.org/2000/svg">
 <defs>
  <style id="current-color-scheme" type="text/css">.ColorScheme-Text { color:#363636; }</style>
  <linearGradient id="linearGradient845" x1="-28.142" x2="-17.493" y1="7.9999" y2="7.9999" gradientTransform="translate(30.395 .10979)" gradientUnits="userSpaceOnUse">
   <stop stop-color="#005ed6" offset="0"/>
   <stop stop-color="#730aeb" offset="1"/>
  </linearGradient>
 </defs>
 <path d="m8 0.35156a1.0001 1.0001 0 0 0-0.37109 0.072266l-5 2a1.0001 1.0001 0 0 0-0.62891 0.92773v7c0 0.91667 0.49969 1.6132 1.0547 2.2012s1.2307 1.0936 1.8945 1.5312c1.3276 0.87537 2.6328 1.4727 2.6328 1.4727a1.0001 1.0001 0 0 0 0.83594 0s1.3052-0.59728 2.6328-1.4727c0.66379-0.43769 1.3395-0.9433 1.8945-1.5312 0.555-0.58795 1.0547-1.2845 1.0547-2.2012v-7a1.0001 1.0001 0 0 0-0.62891-0.92773l-5-2a1.0001 1.0001 0 0 0-0.37109-0.072266zm0 1 5 2v7c0 2-5 4.2969-5 4.2969z" fill="url(#linearGradient845)"/>
</svg>
