<svg xmlns="http://www.w3.org/2000/svg" width="16" height="16" fill="context-fill" fill-opacity="context-fill-opacity">
 <path d="m4.5352 3.9355c-0.15337 1e-7 -0.30631 0.05826-0.42383 0.17578-0.23504 0.23504-0.23504 0.61261 0 0.84766l3.041 3.041-3.041 3.041c-0.23504 0.23504-0.23504 0.61261 0 0.84766 0.23504 0.23504 0.61261 0.23504 0.84766 0l3.041-3.041 3.041 3.041c0.23504 0.23504 0.61261 0.23504 0.84766 0 0.23504-0.23504 0.23504-0.61261 0-0.84766l-3.041-3.041 3.041-3.041c0.23504-0.23504 0.23504-0.61261 0-0.84766s-0.61261-0.23504-0.84766 0l-3.041 3.041-3.041-3.041c-0.11752-0.11752-0.27046-0.17578-0.42383-0.17578z"/>
</svg>
