<?xml version="1.0" encoding="UTF-8" standalone="no"?>
<svg
   width="16"
   height="16"
   version="1.1"
   id="svg2494"
   sodipodi:docname="titlebutton-close-hover.svg"
   inkscape:version="1.2.2 (b0a8486541, 2022-12-01)"
   xmlns:inkscape="http://www.inkscape.org/namespaces/inkscape"
   xmlns:sodipodi="http://sodipodi.sourceforge.net/DTD/sodipodi-0.dtd"
   xmlns="http://www.w3.org/2000/svg"
   xmlns:svg="http://www.w3.org/2000/svg">
  <defs
     id="defs2498" />
  <sodipodi:namedview
     id="namedview2496"
     pagecolor="#ffffff"
     bordercolor="#666666"
     borderopacity="1.0"
     inkscape:showpageshadow="2"
     inkscape:pageopacity="0.0"
     inkscape:pagecheckerboard="0"
     inkscape:deskcolor="#d1d1d1"
     showgrid="false"
     inkscape:zoom="14.75"
     inkscape:cx="0.91525424"
     inkscape:cy="8"
     inkscape:window-width="1920"
     inkscape:window-height="1012"
     inkscape:window-x="0"
     inkscape:window-y="35"
     inkscape:window-maximized="1"
     inkscape:current-layer="svg2494" />
  <path
     d="m 8.0005437,15.002103 c 3.8658733,0 6.9999213,-3.134048 6.9999213,-7.00005 0,-3.8660023 -3.134048,-6.9999211 -6.9999213,-6.9999211 -3.8660023,0 -7.0000497,3.1339188 -7.0000497,6.9999211 0,3.866002 3.1340474,7.00005 7.0000497,7.00005"
     fill="#cb4e43"
     id="path2480" />
  <path
     d="m 8.0005437,14.487819 c 3.5897033,0 6.4999083,-2.910206 6.4999083,-6.5000373 0,-3.5899603 -2.910205,-6.5001656 -6.4999083,-6.5001656 -3.5899603,0 -6.500037,2.9102053 -6.500037,6.5001656 0,3.5898313 2.9102053,6.5000373 6.500037,6.5000373"
     fill="#fe6254"
     id="path2482" />
  <path
     d="m 5.168638,5.09132 c -0.3917452,0.3917074 -0.3917452,1.0223925 0,1.4141755 L 6.5828135,7.9197088 5.168638,9.3338843 c -0.3917452,0.391783 -0.3917452,1.0225057 0,1.4141757 0.3917074,0.391821 1.0224681,0.391821 1.4141755,0 L 7.9970268,9.3338843 9.4112401,10.74806 c 0.3917074,0.391821 1.0224679,0.391821 1.4141759,0 0.391745,-0.39167 0.391745,-1.0223927 0,-1.4141757 L 9.4112401,7.9197088 10.825416,6.5054955 c 0.391745,-0.391783 0.391745,-1.0224681 0,-1.4141755 -0.391708,-0.3918208 -1.0224685,-0.3918208 -1.4141759,0 L 7.9970268,6.5054955 6.5828135,5.09132 c -0.3917074,-0.3918208 -1.0224681,-0.3918208 -1.4141755,0 z"
     opacity="0.5"
     id="path2490" />
</svg>
