<svg width="16" height="16" version="1.1" xmlns="http://www.w3.org/2000/svg">
 <g transform="matrix(3.7795 0 0 3.7795 -322 -580.52)">
  <g transform="matrix(.34018 0 0 .34018 84.931 153.33)" enable-background="new">
   <g transform="translate(-5,-1033.4)">
    <g fill-rule="evenodd">
     <path d="m12.003 1046.6c3.4364 0 6.2222-2.7858 6.2222-6.2222 0-3.4365-2.7858-6.2223-6.2222-6.2223-3.4365 0-6.2223 2.7858-6.2223 6.2223 0 3.4364 2.7858 6.2222 6.2223 6.2222" fill="#cb4e43" stroke-width=".88889"/>
     <path d="m12.003 1046.2c3.2216 0 5.8333-2.6118 5.8333-5.8334 0-3.2218-2.6117-5.8335-5.8333-5.8335-3.2218 0-5.8334 2.6117-5.8334 5.8335 0 3.2216 2.6117 5.8334 5.8334 5.8334" fill="#fe6254" stroke-width=".88236"/>
    </g>
   </g>
  </g>
  <path d="m86.564 154.96c-0.10365 0.10364-0.10365 0.27051 0 0.37417l0.37417 0.37418-0.37417 0.37417c-0.10365 0.10366-0.10365 0.27054 0 0.37417 0.10364 0.10367 0.27053 0.10367 0.37417 0l0.37418-0.37417 0.37418 0.37417c0.10364 0.10367 0.27053 0.10367 0.37417 0 0.10365-0.10363 0.10365-0.27051 0-0.37417l-0.37417-0.37417 0.37417-0.37418c0.10365-0.10366 0.10365-0.27053 0-0.37417-0.10364-0.10367-0.27053-0.10367-0.37417 0l-0.37418 0.37417-0.37418-0.37417c-0.10364-0.10367-0.27053-0.10367-0.37417 0z" enable-background="new" opacity=".5"/>
 </g>
</svg>
