<svg width="16" height="16" version="1.1" xmlns="http://www.w3.org/2000/svg">
 <g transform="matrix(3.7795 0 0 3.7795 -342 -467.53)" fill-rule="evenodd">
  <path d="m92.605 127.67c1.0229 0 1.8521-0.82919 1.8521-1.8521 0-1.0229-0.8292-1.8521-1.8521-1.8521s-1.8521 0.8292-1.8521 1.8521 0.8292 1.8521 1.8521 1.8521" fill="#20a932" stroke-width=".77778"/>
  <path d="m92.605 127.54c0.94978 0 1.7198-0.77006 1.7198-1.7198 0-0.94986-0.76999-1.7198-1.7198-1.7198-0.94985 0-1.7198 0.76999-1.7198 1.7198 0 0.94978 0.76999 1.7198 1.7198 1.7198" fill="#28d33f" stroke-width=".76471"/>
 </g>
 <path d="m8.0254 3.4141v3.5859c0 0.41552 0.58448 1 1 1h3.5859zm-4.6367 4.5859 4.5859 4.5859v-3.5859c0-0.41552-0.58448-1-1-1z" opacity=".5" stroke-width="3.7795"/>
</svg>
