<svg width="16" height="16" version="1.1" xmlns="http://www.w3.org/2000/svg">
 <g transform="matrix(3.7795 0 0 3.7796 -296 -586.55)">
  <g transform="translate(-11.906,31.221)" fill-rule="evenodd">
   <path d="m92.339 128.2c1.169 0 2.1166-0.94765 2.1166-2.1166 0-1.169-0.94765-2.1166-2.1166-2.1166-1.169 0-2.1167 0.94766-2.1167 2.1166 0 1.169 0.94765 2.1166 2.1167 2.1166" fill="#20a932" stroke-width=".8889"/>
   <path d="m92.339 128.06c1.0959 0 1.9843-0.8885 1.9843-1.9844 0-1.0959-0.88845-1.9844-1.9843-1.9844-1.096 0-1.9844 0.88842-1.9844 1.9844 0 1.0958 0.88845 1.9844 1.9844 1.9844" fill="#28d33f" stroke-width=".88235"/>
  </g>
  <path d="m80.014 156.51 1.2134 1.2134v-0.94877c0-0.10994-0.15465-0.26458-0.26459-0.26458zm-0.37413 0.37414v0.94877c0 0.10994 0.15464 0.26459 0.26458 0.26459h0.94878z" opacity=".5"/>
 </g>
</svg>
