<svg width="16" height="16" version="1.1" xmlns="http://www.w3.org/2000/svg">
 <path d="m7.9965 15.998c4.4182 0 7.9997-3.5817 7.9997-7.9999 0-4.4184-3.5816-7.9999-7.9997-7.9999-4.4182 0-8.0001 3.5818-8.0001 7.9999 0 4.4184 3.5816 7.9999 8.0001 7.9999" fill-rule="evenodd" opacity=".25" stroke-width="3.3596"/>
 <path d="M 8.0002,15 C 11.8662,15 15,11.866 15,8 15,4.1339 11.8661,1 8.0002,1 4.1342,1 1,4.1341 1,8 c 0,3.8661 3.1339,7 7.0002,7" fill="#59c837" fill-rule="evenodd" stroke-width="2.9397"/>
 <path d="m6.4129 4.9952 4.586 4.5862v-3.586c0-0.41553-0.5845-1-1-1zm-1.414 1.4141v3.586c0 0.41553 0.58446 1 0.99998 1h3.5859z" opacity=".5" stroke-width="3.7796"/>
 <path d="m8.0002 15c3.866 0 6.9998-3.134 6.9998-7 0-3.8661-3.1339-7-6.9998-7-3.866 0-7.0002 3.1341-7.0002 7 0 3.8661 3.1339 7 7.0002 7" fill-rule="evenodd" opacity=".2" stroke-width="2.9397"/>
</svg>
