<svg width="150" height="150" version="1.1" viewBox="0 0 39.688 39.688" xmlns="http://www.w3.org/2000/svg" xmlns:osb="http://www.openswatchbook.org/uri/2009/osb" xmlns:xlink="http://www.w3.org/1999/xlink">
 <defs>
  <linearGradient id="linearGradient995" x1="86.28" x2="86.28" y1="268.46" y2="259.36" gradientTransform="translate(-66.807 20.754)" gradientUnits="userSpaceOnUse">
   <stop stop-color="#d2d2d2" offset="0"/>
   <stop stop-color="#e2e2e2" offset=".5"/>
   <stop stop-color="#e9e9e9" offset=".93895"/>
   <stop stop-color="#f5f5f5" offset="1"/>
  </linearGradient>
  <linearGradient id="linearGradient939" x1="80.036" x2="80.036" y1="266.99" y2="260.9" gradientTransform="translate(-66.807 20.754)" gradientUnits="userSpaceOnUse">
   <stop stop-color="#f1f1f1" offset="0"/>
   <stop stop-color="#fdfdfd" offset=".91305"/>
   <stop stop-color="#fefefe" offset="1"/>
  </linearGradient>
 </defs>
 <g transform="translate(0 -257.31)">
  <rect id="back" x=".066648" y="257.38" width="39.554" height="39.554" fill="#999999" stroke="#f2f2f2" stroke-width=".1333"/>
  <g id="thumbnail-dark" transform="translate(-66.807 8.3845)">
   <rect x="70.868" y="259.39" width="31.566" height="9.0768" rx="0" ry="0" fill="#333333"/>
   <g id="radio-checked-dark" transform="matrix(.26458 0 0 .26458 65.709 261.71)">
    <g transform="translate(19.004 -4.6993e-6)">
     <g>
      <g transform="matrix(.93617 0 0 .93566 -96.783 -244.76)">
       <g transform="translate(0 1.0688)" fill="#000000" opacity=".06">
        <g transform="matrix(.50892 0 0 .5174 181.79 197.56)" fill="#000000"></g>
       </g>
       <rect x="206.99" y="261.98" width="17.091" height="17.1" color="#000000" fill="none"/>
       <g>
        <g transform="matrix(.50892 0 0 .5174 181.79 197.56)">
         <g>
          <rect x="51.611" y="126.56" width="29.385" height="28.919" rx="14.692" ry="14.46" color="#000000" fill="#5294e2" stroke-width="0"/>
         </g>
        </g>
       </g>
      </g>
     </g>
    </g>
    <rect x="122" y="6.3622" width="4" height="4" rx="1.9989" ry="2" color="#000000" fill="#333333"/>
   </g>
   <g id="checkbox-checked-dark" transform="matrix(.26458 0 0 .26458 81.214 261.71)">
    <g transform="translate(19)">
     <g>
      <g transform="translate(0,-30)">
       <g transform="matrix(.92952 0 0 .92914 -156.75 -212.96)">
        <g transform="matrix(.50892 0 0 .5174 161.79 197.56)"></g>
       </g>
       <rect x="17" y="30.362" width="16" height="16" color="#000000" fill="none"/>
       <g>
        <rect x="18" y="31.362" width="14" height="14" rx="2" ry="2" color="#000000" fill="#5294e2" stroke-width="0"/>
       </g>
      </g>
     </g>
    </g>
    <g transform="translate(36,-1036)">
     <g transform="rotate(45 7.5 1026.4)">
      <g transform="translate(12.374 11.531)">
       <g transform="translate(-3 -5)" fill="#333333">
        <rect x="8" y="1033.4" width="5" height="2" rx=".66666" ry=".66666"/>
        <rect x="11" y="1027.4" width="2" height="8" ry="0"/>
       </g>
       <rect transform="translate(0 1036.4)" x="5" y="-8" width="3" height="1" fill-opacity="0"/>
      </g>
     </g>
    </g>
   </g>
   <rect x="72.611" y="260.89" width="16.183" height="6.0804" rx="0" ry="1.2994" fill="#cccccc" opacity=".15"/>
   <g transform="translate(.74844 .35313)" fill="#b3b3b3" stroke-width=".085214" aria-label="Button">
    <path d="m74.699 263.61v0.91039h0.53925q0.27129 0 0.40111-0.11151 0.13148-0.11317 0.13148-0.34451 0-0.23301-0.13148-0.34286-0.12982-0.11151-0.40111-0.11151zm0-1.0219v0.74895h0.49764q0.24632 0 0.36616-0.0915 0.1215-0.0932 0.1215-0.28294 0-0.18807-0.1215-0.28127-0.11983-0.0932-0.36616-0.0932zm-0.3362-0.27628h0.8588q0.38446 0 0.5925 0.15977 0.20804 0.15978 0.20804 0.45437 0 0.22801-0.10652 0.36282t-0.3129 0.1681q0.24799 0.0533 0.38446 0.22302 0.13814 0.1681 0.13814 0.42108 0 0.33287-0.22635 0.51428-0.22635 0.18142-0.6441 0.18142h-0.89209z"/>
    <path d="m76.708 264.06v-1.1284h0.30624v1.1168q0 0.26463 0.10319 0.39777 0.10319 0.13149 0.30957 0.13149 0.24799 0 0.39112-0.15812 0.1448-0.15811 0.1448-0.43106v-1.0569h0.30624v1.8641h-0.30624v-0.28627q-0.11151 0.16976-0.25964 0.25298-0.14646 0.0815-0.34119 0.0815-0.32122 0-0.48765-0.19972t-0.16643-0.58418z"/>
    <path d="m79.006 262.4v0.52926h0.63078v0.238h-0.63078v1.0119q0 0.22802 0.06158 0.29293 0.06324 0.0649 0.25464 0.0649h0.31456v0.25631h-0.31456q-0.3545 0-0.48932-0.13149-0.13481-0.13315-0.13481-0.48266v-1.0119h-0.22469v-0.238h0.22469v-0.52926z"/>
    <path d="m80.691 262.4v0.52926h0.63078v0.238h-0.63078v1.0119q0 0.22802 0.06158 0.29293 0.06325 0.0649 0.25464 0.0649h0.31456v0.25631h-0.31456q-0.3545 0-0.48932-0.13149-0.13481-0.13315-0.13481-0.48266v-1.0119h-0.22469v-0.238h0.22469v-0.52926z"/>
    <path d="m82.794 263.14q-0.24632 0-0.38946 0.19307-0.14313 0.1914-0.14313 0.52593t0.14147 0.52759q0.14313 0.1914 0.39112 0.1914 0.24466 0 0.38779-0.19306 0.14313-0.19306 0.14313-0.52593 0-0.3312-0.14313-0.52427-0.14313-0.19473-0.38779-0.19473zm0-0.25963q0.39944 0 0.62746 0.25963 0.22802 0.25964 0.22802 0.719 0 0.45769-0.22802 0.71899-0.22801 0.25964-0.62746 0.25964-0.40111 0-0.62912-0.25964-0.22635-0.2613-0.22635-0.71899 0-0.45936 0.22635-0.719 0.22801-0.25963 0.62912-0.25963z"/>
    <path d="m85.546 263.67v1.1251h-0.30624v-1.1151q0-0.26463-0.10319-0.39612-0.10319-0.13148-0.30957-0.13148-0.24799 0-0.39112 0.15811-0.14313 0.15812-0.14313 0.43107v1.0535h-0.3079v-1.8641h0.3079v0.2896q0.10985-0.1681 0.25797-0.25132 0.14979-0.0832 0.34452-0.0832 0.32122 0 0.48599 0.19972 0.16477 0.19805 0.16477 0.58418z"/>
   </g>
  </g>
  <g id="thumbnail-light">
   <rect x="4.0606" y="280.14" width="31.566" height="9.0768" rx="0" ry="0" fill="url(#linearGradient995)"/>
   <g transform="matrix(.26458 0 0 .26458 -1.0986 282.47)">
    <g transform="translate(19.004 -4.6993e-6)">
     <g>
      <g transform="matrix(.93617 0 0 .93566 -96.783 -244.76)">
       <g transform="translate(0 1.0688)" fill="#000000" opacity=".06">
        <g transform="matrix(.50892 0 0 .5174 181.79 197.56)" fill="#000000"></g>
       </g>
       <rect x="206.99" y="261.98" width="17.091" height="17.1" color="#000000" fill="none"/>
       <g>
        <g transform="matrix(.50892 0 0 .5174 181.79 197.56)">
         <g>
          <rect x="51.611" y="126.56" width="29.385" height="28.919" rx="14.692" ry="14.46" color="#000000" fill="#0e6bff" stroke-width="0"/>
         </g>
        </g>
       </g>
      </g>
     </g>
    </g>
    <rect x="122" y="6.3622" width="4" height="4" rx="1.9989" ry="2" color="#000000" fill="#f5f6f7"/>
   </g>
   <g transform="matrix(.26458 0 0 .26458 14.407 282.47)">
    <g transform="translate(19)">
     <g>
      <g transform="translate(0,-30)">
       <g transform="matrix(.92952 0 0 .92914 -156.75 -212.96)">
        <g transform="matrix(.50892 0 0 .5174 161.79 197.56)"></g>
       </g>
       <rect x="17" y="30.362" width="16" height="16" color="#000000" fill="none"/>
       <g>
        <rect x="18" y="31.362" width="14" height="14" rx="2" ry="2" color="#000000" fill="#0e6bff" stroke-width="0"/>
       </g>
      </g>
     </g>
    </g>
    <g transform="translate(36,-1036)">
     <g transform="rotate(45 7.5 1026.4)">
      <g transform="translate(12.374 11.531)">
       <g transform="translate(-3 -5)" fill="#f5f6f7">
        <rect x="8" y="1033.4" width="5" height="2" rx=".66666" ry=".66666"/>
        <rect x="11" y="1027.4" width="2" height="8" ry="0"/>
       </g>
       <rect transform="translate(0 1036.4)" x="5" y="-8" width="3" height="1" fill-opacity="0"/>
      </g>
     </g>
    </g>
   </g>
   <rect x="5.8038" y="281.64" width="16.183" height="6.0804" rx="0" ry="1.3462" fill="url(#linearGradient939)" stroke="#b5b5b5" stroke-width=".26458"/>
   <g transform="translate(-65.954 21.249)" fill="#ffffff" stroke-width=".085214" aria-label="Button">
    <path d="m74.699 263.61v0.91039h0.53925q0.27129 0 0.40111-0.11151 0.13148-0.11317 0.13148-0.34451 0-0.23301-0.13148-0.34286-0.12982-0.11151-0.40111-0.11151zm0-1.0219v0.74895h0.49764q0.24632 0 0.36616-0.0915 0.1215-0.0932 0.1215-0.28294 0-0.18807-0.1215-0.28127-0.11983-0.0932-0.36616-0.0932zm-0.3362-0.27628h0.8588q0.38446 0 0.5925 0.15977 0.20804 0.15978 0.20804 0.45437 0 0.22801-0.10652 0.36282t-0.3129 0.1681q0.24799 0.0533 0.38446 0.22302 0.13814 0.1681 0.13814 0.42108 0 0.33287-0.22635 0.51428-0.22635 0.18142-0.6441 0.18142h-0.89209z"/>
    <path d="m76.708 264.06v-1.1284h0.30624v1.1168q0 0.26463 0.10319 0.39777 0.10319 0.13149 0.30957 0.13149 0.24799 0 0.39112-0.15812 0.1448-0.15811 0.1448-0.43106v-1.0569h0.30624v1.8641h-0.30624v-0.28627q-0.11151 0.16976-0.25964 0.25298-0.14646 0.0815-0.34119 0.0815-0.32122 0-0.48765-0.19972t-0.16643-0.58418z"/>
    <path d="m79.006 262.4v0.52926h0.63078v0.238h-0.63078v1.0119q0 0.22802 0.06158 0.29293 0.06324 0.0649 0.25464 0.0649h0.31456v0.25631h-0.31456q-0.3545 0-0.48932-0.13149-0.13481-0.13315-0.13481-0.48266v-1.0119h-0.22469v-0.238h0.22469v-0.52926z"/>
    <path d="m80.691 262.4v0.52926h0.63078v0.238h-0.63078v1.0119q0 0.22802 0.06158 0.29293 0.06325 0.0649 0.25464 0.0649h0.31456v0.25631h-0.31456q-0.3545 0-0.48932-0.13149-0.13481-0.13315-0.13481-0.48266v-1.0119h-0.22469v-0.238h0.22469v-0.52926z"/>
    <path d="m82.794 263.14q-0.24632 0-0.38946 0.19307-0.14313 0.1914-0.14313 0.52593t0.14147 0.52759q0.14313 0.1914 0.39112 0.1914 0.24466 0 0.38779-0.19306 0.14313-0.19306 0.14313-0.52593 0-0.3312-0.14313-0.52427-0.14313-0.19473-0.38779-0.19473zm0-0.25963q0.39944 0 0.62746 0.25963 0.22802 0.25964 0.22802 0.719 0 0.45769-0.22802 0.71899-0.22801 0.25964-0.62746 0.25964-0.40111 0-0.62912-0.25964-0.22635-0.2613-0.22635-0.71899 0-0.45936 0.22635-0.719 0.22801-0.25963 0.62912-0.25963z"/>
    <path d="m85.546 263.67v1.1251h-0.30624v-1.1151q0-0.26463-0.10319-0.39612-0.10319-0.13148-0.30957-0.13148-0.24799 0-0.39112 0.15811-0.14313 0.15812-0.14313 0.43107v1.0535h-0.3079v-1.8641h0.3079v0.2896q0.10985-0.1681 0.25797-0.25132 0.14979-0.0832 0.34452-0.0832 0.32122 0 0.48599 0.19972 0.16477 0.19805 0.16477 0.58418z"/>
   </g>
   <g transform="translate(-66.059 21.107)" fill="#666666" stroke-width=".085214" aria-label="Button">
    <path d="m74.699 263.61v0.91039h0.53925q0.27129 0 0.40111-0.11151 0.13148-0.11317 0.13148-0.34451 0-0.23301-0.13148-0.34286-0.12982-0.11151-0.40111-0.11151zm0-1.0219v0.74895h0.49764q0.24632 0 0.36616-0.0915 0.1215-0.0932 0.1215-0.28294 0-0.18807-0.1215-0.28127-0.11983-0.0932-0.36616-0.0932zm-0.3362-0.27628h0.8588q0.38446 0 0.5925 0.15977 0.20804 0.15978 0.20804 0.45437 0 0.22801-0.10652 0.36282t-0.3129 0.1681q0.24799 0.0533 0.38446 0.22302 0.13814 0.1681 0.13814 0.42108 0 0.33287-0.22635 0.51428-0.22635 0.18142-0.6441 0.18142h-0.89209z"/>
    <path d="m76.708 264.06v-1.1284h0.30624v1.1168q0 0.26463 0.10319 0.39777 0.10319 0.13149 0.30957 0.13149 0.24799 0 0.39112-0.15812 0.1448-0.15811 0.1448-0.43106v-1.0569h0.30624v1.8641h-0.30624v-0.28627q-0.11151 0.16976-0.25964 0.25298-0.14646 0.0815-0.34119 0.0815-0.32122 0-0.48765-0.19972t-0.16643-0.58418z"/>
    <path d="m79.006 262.4v0.52926h0.63078v0.238h-0.63078v1.0119q0 0.22802 0.06158 0.29293 0.06324 0.0649 0.25464 0.0649h0.31456v0.25631h-0.31456q-0.3545 0-0.48932-0.13149-0.13481-0.13315-0.13481-0.48266v-1.0119h-0.22469v-0.238h0.22469v-0.52926z"/>
    <path d="m80.691 262.4v0.52926h0.63078v0.238h-0.63078v1.0119q0 0.22802 0.06158 0.29293 0.06325 0.0649 0.25464 0.0649h0.31456v0.25631h-0.31456q-0.3545 0-0.48932-0.13149-0.13481-0.13315-0.13481-0.48266v-1.0119h-0.22469v-0.238h0.22469v-0.52926z"/>
    <path d="m82.794 263.14q-0.24632 0-0.38946 0.19307-0.14313 0.1914-0.14313 0.52593t0.14147 0.52759q0.14313 0.1914 0.39112 0.1914 0.24466 0 0.38779-0.19306 0.14313-0.19306 0.14313-0.52593 0-0.3312-0.14313-0.52427-0.14313-0.19473-0.38779-0.19473zm0-0.25963q0.39944 0 0.62746 0.25963 0.22802 0.25964 0.22802 0.719 0 0.45769-0.22802 0.71899-0.22801 0.25964-0.62746 0.25964-0.40111 0-0.62912-0.25964-0.22635-0.2613-0.22635-0.71899 0-0.45936 0.22635-0.719 0.22801-0.25963 0.62912-0.25963z"/>
    <path d="m85.546 263.67v1.1251h-0.30624v-1.1151q0-0.26463-0.10319-0.39612-0.10319-0.13148-0.30957-0.13148-0.24799 0-0.39112 0.15811-0.14313 0.15812-0.14313 0.43107v1.0535h-0.3079v-1.8641h0.3079v0.2896q0.10985-0.1681 0.25797-0.25132 0.14979-0.0832 0.34452-0.0832 0.32122 0 0.48599 0.19972 0.16477 0.19805 0.16477 0.58418z"/>
   </g>
  </g>
 </g>
</svg>
