<svg width="16" height="16" version="1.1" viewBox="0 0 16 16" xmlns="http://www.w3.org/2000/svg">
 <defs>
  <style id="current-color-scheme" type="text/css">.ColorScheme-Text { color:#6e6e6e; } .ColorScheme-Highlight { color:#5294e2; }</style>
 </defs>
 <path d="m7 0c-1.108 0-2 0.892-2 2v1h-2.1543c-1.0228 0-1.8457 0.82293-1.8457 1.8457v3.1543h2c0.554 0 1 0.446 1 1s-0.446 1-1 1h-2v3.1543c0 1.0228 0.82293 1.8457 1.8457 1.8457h3.1543v-2c0-0.554 0.446-1 1-1s1 0.446 1 1v2h3.1543c1.0228 0 1.8457-0.82293 1.8457-1.8457v-2.1543h1c1.108 0 2-0.892 2-2s-0.892-2-2-2h-1v-2.1543c0-1.0228-0.82293-1.8457-1.8457-1.8457h-2.1543v-1c0-1.108-0.892-2-2-2zm0 1c0.554 0 1 0.446 1 1v2h3c0.554 0 1 0.446 1 1v3h2c0.554 0 1 0.446 1 1s-0.446 1-1 1h-2v3c0 0.554-0.446 1-1 1h-2v-1c0-1.108-0.892-2-2-2s-2 0.892-2 2v1h-2c-0.554 0-1-0.446-1-1v-2h1c1.108 0 2-0.892 2-2s-0.892-2-2-2h-1v-2c0-0.554 0.446-1 1-1h3v-2c0-0.554 0.446-1 1-1z" fill="#363636" opacity=".35"/>
 <rect transform="rotate(45)" x="1.3137" y="-.5" width="20" height="1" rx="0" ry="0" fill="#363636" stroke-linecap="round" stroke-linejoin="round" stroke-opacity=".86" stroke-width="2.2361"/>
</svg>
