<svg width="16" height="16" version="1.1" xmlns="http://www.w3.org/2000/svg">
 <defs>
  <style id="current-color-scheme" type="text/css">.ColorScheme-Text { color:#363636; }</style>
 </defs>
 <path d="m8 0a8 8 0 0 0-8 8 8 8 0 0 0 8 8 8 8 0 0 0 8-8 8 8 0 0 0-8-8zm0 1a7 7 0 0 1 7 7 7 7 0 0 1-7 7 7 7 0 0 1-7-7 7 7 0 0 1 7-7z" color="#363636" fill="#363636"/>
 <rect transform="scale(-1)" x="-8.5" y="-4" width="1" height="4" rx=".5" ry=".5" color="#363636" fill="#363636" stroke-width=".8165"/>
 <rect transform="scale(-1)" x="-8.5" y="-16" width="1" height="4" rx=".5" ry=".5" color="#363636" fill="#363636" stroke-width=".8165"/>
 <rect transform="rotate(-90)" x="-8.5" y="12" width="1" height="4" rx=".5" ry=".5" color="#363636" fill="#363636" stroke-width=".8165"/>
 <rect transform="rotate(-90)" x="-8.5" width="1" height="4" rx=".5" ry=".5" color="#363636" fill="#363636" stroke-width=".8165"/>
 <path d="m7.9492 5a3 3 0 0 0-2.9492 3 3 3 0 0 0 3 3 3 3 0 0 0 3-3 3 3 0 0 0-3-3 3 3 0 0 0-0.050781 0zm0.0019531 1a2 2 0 0 1 0.048828 0 2 2 0 0 1 2 2 2 2 0 0 1-2 2 2 2 0 0 1-2-2 2 2 0 0 1 1.9512-2z" fill="#363636" stroke-width="0" style="paint-order:stroke fill markers"/>
</svg>
