<?xml version="1.0" encoding="UTF-8" standalone="no"?>
<svg
   width="64"
   height="64"
   version="1.1"
   viewBox="0 0 16.933 16.933"
   id="svg1806"
   sodipodi:docname="icon.svg"
   inkscape:version="1.2 (dc2aedaf03, 2022-05-15)"
   xmlns:inkscape="http://www.inkscape.org/namespaces/inkscape"
   xmlns:sodipodi="http://sodipodi.sourceforge.net/DTD/sodipodi-0.dtd"
   xmlns:xlink="http://www.w3.org/1999/xlink"
   xmlns="http://www.w3.org/2000/svg"
   xmlns:svg="http://www.w3.org/2000/svg">
  <sodipodi:namedview
     id="namedview1808"
     pagecolor="#ffffff"
     bordercolor="#666666"
     borderopacity="1.0"
     inkscape:showpageshadow="2"
     inkscape:pageopacity="0.0"
     inkscape:pagecheckerboard="0"
     inkscape:deskcolor="#d1d1d1"
     showgrid="false"
     inkscape:zoom="1.84375"
     inkscape:cx="-25.220339"
     inkscape:cy="48.813559"
     inkscape:window-width="1280"
     inkscape:window-height="650"
     inkscape:window-x="0"
     inkscape:window-y="34"
     inkscape:window-maximized="1"
     inkscape:current-layer="svg1806" />
  <defs
     id="defs1756">
    <linearGradient
       inkscape:collect="always"
       id="linearGradient3797">
      <stop
         style="stop-color:#ffd137;stop-opacity:1;"
         offset="0"
         id="stop3793" />
      <stop
         style="stop-color:#e50d71;stop-opacity:1;"
         offset="1"
         id="stop3795" />
    </linearGradient>
    <linearGradient
       inkscape:collect="always"
       xlink:href="#linearGradient3797"
       id="linearGradient3799"
       x1="2.1166253"
       y1="2.1166253"
       x2="14.816375"
       y2="14.816375"
       gradientUnits="userSpaceOnUse" />
  </defs>
  <g
     id="g3791"
     style="fill-opacity:1;fill:url(#linearGradient3799)">
    <path
       id="path3844"
       d="m 8.4665003,2.1166252 c -3.5069391,0 -6.349875,2.8429359 -6.349875,6.349875 0,3.5069388 2.8429359,6.3498748 6.349875,6.3498748 3.5069387,0 6.3498747,-2.842936 6.3498747,-6.3498748 0,-3.5069391 -2.842936,-6.349875 -6.3498747,-6.349875 z m 0,1.1906015 A 5.1592735,5.1592735 0 0 1 13.625774,8.4665002 5.1592735,5.1592735 0 0 1 8.4665003,13.625774 5.1592735,5.1592735 0 0 1 3.3072268,8.4665002 5.1592735,5.1592735 0 0 1 8.4665003,3.3072267 Z"
       style="opacity:0.45;fill-opacity:1;fill:url(#linearGradient3799)" />
    <circle
       id="circle3846"
       cx="8.4665003"
       cy="8.4665003"
       r="1.1906016"
       style="opacity:0.45;fill-opacity:1;fill:url(#linearGradient3799)" />
    <path
       id="path3998"
       d="M 8.4665003,4.4978283 A 3.9686719,3.9686719 0 0 0 4.4978284,8.4665002 3.9686719,3.9686719 0 0 0 8.4665003,12.435172 3.9686719,3.9686719 0 0 0 12.345257,9.2602346 H 10.70973 A 2.3812032,2.3812032 0 0 1 8.4665003,10.847703 2.3812032,2.3812032 0 0 1 6.0852972,8.4665002 2.3812032,2.3812032 0 0 1 8.4665003,6.0852971 2.3812032,2.3812032 0 0 1 10.70973,7.6727658 h 1.644829 A 3.9686719,3.9686719 0 0 0 8.4665003,4.4978283 Z"
       style="fill-opacity:1;fill:url(#linearGradient3799)" />
  </g>
</svg>
