<svg width="16px" height="16px" version="1.1" viewBox="0 0 16 16" xmlns="http://www.w3.org/2000/svg">
 <rect x="8" y="7" width="8" height="1" rx=".5" ry=".5" fill="#333333"/>
 <rect x="11" y="7" width="1" height="5" rx=".5" ry=".5" fill="#333333"/>
 <rect x="13" y="7" width="1" height="5" rx=".5" ry=".5" fill="#333333"/>
 <path d="m4.5 3a4.5 4.5 0 0 0-4.5 4.5 4.5 4.5 0 0 0 4.5 4.5 4.5 4.5 0 0 0 4.5-4.5 4.5 4.5 0 0 0-4.5-4.5zm0 1a3.5 3.5 0 0 1 3.5 3.5 3.5 3.5 0 0 1-3.5 3.5 3.5 3.5 0 0 1-3.5-3.5 3.5 3.5 0 0 1 3.5-3.5z" fill="#333333"/>
</svg>
