<svg width="16" height="16" version="1.1" xmlns="http://www.w3.org/2000/svg">
 <path d="m8 0c-1.662 0-3 1.338-3 3v6c0 1.662 1.338 3 3 3s3-1.338 3-3v-6c0-1.662-1.338-3-3-3zm0 1c1.108 0 2 0.892 2 2v6c0 1.108-0.892 2-2 2s-2-0.892-2-2v-6c0-1.108 0.892-2 2-2z" fill="#363636" stroke-width="1.0954"/>
 <path class="ColorScheme-Text" d="m3.5 7c-0.277 0-0.5 0.223-0.5 0.5v1.5c0 2.6008 1.967 4.7248 4.5 4.9746v1.0254h-2c-0.277 0-0.5 0.223-0.5 0.5s0.223 0.5 0.5 0.5h5c0.277 0 0.5-0.223 0.5-0.5s-0.223-0.5-0.5-0.5h-2v-1.0254c2.533-0.24983 4.5-2.3738 4.5-4.9746v-1.5c0-0.277-0.223-0.5-0.5-0.5-0.277 0-0.5 0.223-0.5 0.5v1.5c0 2.216-1.784 4-4 4-2.216 0-4-1.784-4-4v-1.5c0-0.277-0.223-0.5-0.5-0.5z" color="#ffffff" fill="#363636"/>
</svg>
