<svg width="4.2333mm" height="4.2333mm" version="1.1" viewBox="0 0 4.2333 4.2333" xmlns="http://www.w3.org/2000/svg">
 <path d="m0.79375 0.52917c0-0.29316 0.23601-0.52917 0.52917-0.52917h1.5875c0.29316 0 0.52917 0.23601 0.52917 0.52917v3.175c0 0.29316-0.23601 0.52917-0.52917 0.52917h-1.5875c-0.29316 0-0.52917-0.23601-0.52917-0.52917zm0.26458 0v3.175c0 0.14658 0.118 0.26458 0.26458 0.26458h1.5875c0.14658 0 0.26458-0.118 0.26458-0.26458v-3.175c0-0.14658-0.118-0.26458-0.26458-0.26458h-1.5875c-0.14658 0-0.26458 0.118-0.26458 0.26458z" color="#363636" fill="#333333" stroke-width=".26458"/>
 <rect x="1.5875" y="3.4396" width="1.0583" height=".26458" rx=".13229" ry=".13229" fill="#333333" stroke-linecap="square" stroke-width=".40002"/>
</svg>
