<?xml version="1.0" encoding="UTF-8" standalone="no"?>
<svg
   width="16"
   height="16"
   version="1.1"
   id="svg2169"
   sodipodi:docname="save-to-pocket-open-light.svg"
   inkscape:version="1.2.2 (b0a8486541, 2022-12-01)"
   xmlns:inkscape="http://www.inkscape.org/namespaces/inkscape"
   xmlns:sodipodi="http://sodipodi.sourceforge.net/DTD/sodipodi-0.dtd"
   xmlns="http://www.w3.org/2000/svg"
   xmlns:svg="http://www.w3.org/2000/svg">
  <sodipodi:namedview
     id="namedview2171"
     pagecolor="#ffffff"
     bordercolor="#666666"
     borderopacity="1.0"
     inkscape:showpageshadow="2"
     inkscape:pageopacity="0.0"
     inkscape:pagecheckerboard="0"
     inkscape:deskcolor="#d1d1d1"
     showgrid="true"
     inkscape:zoom="14.75"
     inkscape:cx="0.50847458"
     inkscape:cy="6.7118644"
     inkscape:window-width="1920"
     inkscape:window-height="1012"
     inkscape:window-x="0"
     inkscape:window-y="32"
     inkscape:window-maximized="1"
     inkscape:current-layer="svg2169">
    <inkscape:grid
       type="xygrid"
       id="grid234" />
  </sodipodi:namedview>
  <defs
     id="defs2165">
    <style
       id="current-color-scheme"
       type="text/css">.ColorScheme-Text { color:#363636; }</style>
  </defs>
  <path
     id="path2167"
     d="M 3,1 C 1.8920011,1 1,1.8920011 1,3 v 5 c 0,3.865989 3.1340107,7 7,7 3.865989,0 7,-3.134011 7,-7 V 3 C 15,1.8920011 14.107999,1 13,1 Z m 0.7578125,3.9628906 c 0.1278099,0 0.2555817,0.050504 0.3535156,0.1484375 L 8,9 11.888672,5.1113281 c 0.19587,-0.1958698 0.511161,-0.1958698 0.707031,0 0.19587,0.1958698 0.19587,0.5111615 0,0.7070313 L 8.3535156,10.060546 c -0.1958698,0.19587 -0.5111614,0.19587 -0.7070312,0 L 3.4042969,5.8183594 c -0.1958698,-0.1958698 -0.1958698,-0.5111615 0,-0.7070313 0.09794,-0.097937 0.2257057,-0.1484375 0.3535156,-0.1484375 z"
     style="fill:#dedede;fill-opacity:1"
     sodipodi:nodetypes="ssssssssscccscccscs" />
</svg>
