<svg width="16" height="16" enable-background="new" version="1.1" xmlns="http://www.w3.org/2000/svg">
 <title>Gnome Symbolic Icons</title>
 <path d="m8.0601 0.84236a0.50005 0.50005 0 0 0-0.52052 0.27575l-2.0383 4.1518-4.575 0.67561a0.50005 0.50005 0 0 0-0.27448 0.85273l3.3195 3.2204-0.77068 4.5601a0.50005 0.50005 0 0 0 0.7266 0.52653l4.0884-2.1632 4.0985 2.1425a0.50005 0.50005 0 0 0 0.72395-0.5286l-0.79268-4.5563 3.3038-3.2357a0.50005 0.50005 0 0 0-0.27869-0.85219l-4.5782-0.65453-2.0566-4.1425a0.50005 0.50005 0 0 0-0.37554-0.27241zm-0.070268 1.6258 1.7242 3.47a0.50005 0.50005 0 0 0 0.37711 0.27265l3.8361 0.54683-2.7687 2.7114a0.50005 0.50005 0 0 0-0.14319 0.44393l0.66377 3.8159-3.4341-1.7945a0.50005 0.50005 0 0 0-0.46488 0.0015l-3.4258 1.8115 0.64729-3.8205a0.50005 0.50005 0 0 0-0.14487-0.44227l-2.7802-2.699 3.8311-0.56494a0.50005 0.50005 0 0 0 0.37583-0.27581z" color="#000000" color-rendering="auto" dominant-baseline="auto" enable-background="accumulate" fill="#333" image-rendering="auto" shape-rendering="auto" solid-color="#000000" stop-color="#000000" style="font-feature-settings:normal;font-variant-alternates:normal;font-variant-caps:normal;font-variant-east-asian:normal;font-variant-ligatures:normal;font-variant-numeric:normal;font-variant-position:normal;font-variation-settings:normal;inline-size:0;isolation:auto;mix-blend-mode:normal;shape-margin:0;shape-padding:0;text-decoration-color:#000000;text-decoration-line:none;text-decoration-style:solid;text-indent:0;text-orientation:mixed;text-transform:none;white-space:normal"/>
</svg>
