<svg xmlns="http://www.w3.org/2000/svg" viewBox="0 0 16 16" width="16" height="16" fill="context-fill" fill-opacity="context-fill-opacity">
 <defs>
  <style id="current-color-scheme" type="text/css">.ColorScheme-Text {
        color:#363636;
      }</style>
 </defs>
 <path class="ColorScheme-Text" d="m2 2c-1.108 0-2 0.892-2 2v8c0 1.108 0.892 2 2 2h6.7617c-0.20691-0.31135-0.37421-0.64727-0.49805-1h-6.2637c-0.554 0-1-0.446-1-1l5e-5 -5h14v0.75977c0.37755 0.25248 0.7147 0.56065 1 0.91406v-4.6738c0-1.108-0.892-2-2-2h-12zm0 1h12c0.554 0 1 0.446 1 1v2h-7v-1h-7v-1c0-0.554 0.446-1 1-1z" fill="currentColor"/>
 <path d="m12.5 8.0215c-1.933 0-3.5 1.567-3.5 3.5 0 1.933 1.567 3.5 3.5 3.5s3.5-1.567 3.5-3.5c0-1.933-1.567-3.5-3.5-3.5zm-0.013672 0.97852a2.5 2.5 0 0 1 1.8848 0.8418l-0.89844 0.51953a1.5 1.5 0 0 0-1.7227-0.16016 1.5 1.5 0 0 0-0.72461 1.5723l-0.89453 0.51758a2.5 2.5 0 0 1 1.1191-2.957 2.5 2.5 0 0 1 1.2363-0.33398zm2.3828 1.709a2.5 2.5 0 0 1-1.1191 2.957 2.5 2.5 0 0 1-3.1211-0.50781l0.89844-0.51953a1.5 1.5 0 0 0 1.7227 0.16016 1.5 1.5 0 0 0 0.72461-1.5723l0.89453-0.51758z" fill="#363636"/>
</svg>
