<svg width="16" height="16" version="1.1" xmlns="http://www.w3.org/2000/svg">
 <defs>
  <style id="current-color-scheme" type="text/css">.ColorScheme-Text { color:#363636; }</style>
  <linearGradient id="linearGradient856" x1="-13.242" x2="-2.3679" y1="8" y2="8" gradientTransform="translate(15.882 .10979)" gradientUnits="userSpaceOnUse">
   <stop stop-color="#005ed6" offset="0"/>
   <stop stop-color="#730aeb" offset="1"/>
  </linearGradient>
 </defs>
 <path d="m8 15.292c0.11552 0 0.30325-0.04332 0.48375-0.14439 4.1083-2.3032 5.5162-3.2779 5.5162-5.9133v-5.5235c0-0.75812-0.32488-0.99639-0.93863-1.2563-0.85191-0.35379-3.6029-1.343-4.4548-1.639-0.19495-0.064985-0.40434-0.1083-0.6065-0.1083s-0.41155 0.057758-0.59928 0.1083c-0.852 0.24549-3.6101 1.2924-4.4621 1.639-0.6065 0.2527-0.93863 0.49819-0.93863 1.2563v5.5235c0 2.6354 1.4152 3.6029 5.5163 5.9133 0.18773 0.10107 0.36823 0.14439 0.48375 0.14439zm0.28881-13.357c1.0903 0.43322 3.2058 1.1986 4.3249 1.5812 0.19493 0.072204 0.23824 0.17329 0.23824 0.41878v5.0325c0 2.231-1.0686 2.8159-4.4043 4.8448-0.12274 0.07942-0.21661 0.12273-0.29603 0.14439v-12.065c0.043317 0.00722 0.086643 0.021658 0.13718 0.043317z" fill="url(#linearGradient856)" stroke-width=".86983"/>
</svg>
