<svg xmlns="http://www.w3.org/2000/svg" viewBox="0 0 16 16" width="16" height="16" fill="context-fill" fill-opacity="context-fill-opacity">
 <defs>
  <style id="current-color-scheme" type="text/css">.ColorScheme-Text {
        color:#363636;
      }</style>
 </defs>
 <path d="m3 1c-1.108 0-2 0.892-2 2v10c0 1.108 0.892 2 2 2h5.7617a4.5 4.5 0 0 1-0.49805-1h-5.2637c-0.554 0-1-0.446-1-1v-8c0-0.554 0.446-1 1-1h10c0.554 0 1 0.446 1 1v3.2637a4.5 4.5 0 0 1 1 0.49609v-5.7598c0-1.108-0.892-2-2-2h-10z" class="ColorScheme-Text" fill="currentColor"/>
 <path class="ColorScheme-Text" d="m12.5 9c-1.933 0-3.5 1.567-3.5 3.5s1.567 3.5 3.5 3.5 3.5-1.567 3.5-3.5-1.567-3.5-3.5-3.5zm-0.5 1h1v2h2v1h-2v2h-1v-2h-2v-1h2z" fill="currentColor"/>
</svg>
