<svg width="16" height="16" version="1.1" xmlns="http://www.w3.org/2000/svg">
 <path d="m11.02 0.53711a1.0001 1.0001 0 0 0-0.58984 0.19336c-0.89811 0.65868-1.4296 1.7085-1.4297 2.8223 0.00118 1.3259 0.86654 2.3529 2 2.9434v1.1797a7 7 0 0 1 1 0.58008v-2.2559c-1.1632-0.23743-1.9989-1.2601-2-2.4473 9.8e-5 -0.7962 0.37943-1.5447 1.0215-2.0156-4e-3 0.036332-0.021484 0.068046-0.021484 0.10547v2c0 0.554 0.446 1 1 1h1c0.554 0 1-0.446 1-1v-2c0-0.037422-0.017524-0.069136-0.021484-0.10547 0.64204 0.47088 1.0214 1.2194 1.0215 2.0156-1.29e-4 1.1879-0.83612 2.2116-2 2.4492v3.0996a7 7 0 0 1 1 1.2949v-3.9004c1.134-0.59095 1.9999-1.6166 2-2.9434-1.38e-4 -1.1138-0.53157-2.1636-1.4297-2.8223a1.0001 1.0001 0 0 0-1.5859 0.91602c0.01271 0.11643 0.014165 0.1478 0.015625 0.16797v1.8281h-1v-1.8281c0.0015-0.020168 0.002895-0.051534 0.015625-0.16797a1.0001 1.0001 0 0 0-0.99609-1.1094zm-3.0195 7.4629a6 6 0 0 0-6 6h-2v1h16v-1h-2a6 6 0 0 0-6-6zm0 1a5 5 0 0 1 5 5h-1a4 4 0 0 0-4-4 4 4 0 0 0-0.060547 0 4 4 0 0 0-3.9395 4h-1a5 5 0 0 1 5-5zm-0.052734 2a3 3 0 0 1 0.0019532 0 3 3 0 0 1 0.050781 0 3 3 0 0 1 3 3h-6a3 3 0 0 1 2.9473-3z" fill="#363636"/>
</svg>
