<svg width="16" height="16" enable-background="new" version="1.1" xmlns="http://www.w3.org/2000/svg">
 <path d="m8 0c-1.1046 0-2 0.89543-2 2h-1-0.93945-0.060547v0.0058594c-1.113 0.032581-2 0.93345-2 2.0547v8.8789c0 1.142 0.91853 2.0605 2.0605 2.0605h7.8789c1.142 0 2.0605-0.91853 2.0605-2.0605v-8.8789c0-1.142-0.91853-2.0605-2.0605-2.0605h-0.93945-1c0-0.138-0.00525-0.27625-0.03125-0.40625-0.19615-0.93036-1.0179-1.5956-1.9688-1.5938zm-0.011719 1c0.0039062-2.289e-5 0.0078126-2.289e-5 0.011719 0 0.414 0 0.75425 0.266 0.90625 0.625 0.056891 0.11716 0.088816 0.24486 0.09375 0.375-6.1e-5 0.88813-1.0716 1.3352-1.7031 0.71094-0.63157-0.62426-0.19666-1.7005 0.69141-1.7109zm-3.9883 2h1 1v1s-1 0-1 1h6c0-0.75-0.56275-0.953-0.84375-1h-0.15625v-1h1 1c0.554 0 1 0.446 1 1v9c0 0.554-0.446 1-1 1h-8c-0.554 0-1-0.446-1-1v-9c0-0.554 0.446-1 1-1z" fill="#363636"/>
</svg>
