<svg width="16" height="16" enable-background="new" version="1.1" xmlns="http://www.w3.org/2000/svg">
 <path d="m2 0c-1.108 0-2 0.892-2 2v8c0 1.108 0.892 2 2 2h7c1.108 0 2-0.892 2-2v-8c0-1.108-0.892-2-2-2h-7zm0 1h7c0.554 0 1 0.446 1 1v8c0 0.554-0.446 1-1 1h-7c-0.554 0-1-0.446-1-1v-8c0-0.554 0.446-1 1-1z" fill="#363636"/>
 <path d="m12 4v1h1c0.554 0 1 0.446 1 1v8c0 0.554-0.446 1-1 1h-7c-0.554 0-1-0.446-1-1v-1h-1v1c0 1.108 0.892 2 2 2h7c1.108 0 2-0.892 2-2v-8c0-1.108-0.892-2-2-2h-1z" fill="#363636"/>
</svg>
