<svg width="16" height="16" enable-background="new" version="1.1" xmlns="http://www.w3.org/2000/svg">
 <path d="m12 15c1.108 0 2-0.892 2-2v-10c0-1.108-0.892-2-2-2h-8c-1.108 0-2 0.892-2 2v5.6797a4.3293 4.3293 0 0 1 1-0.2832v-5.3965c0-0.554 0.446-1 1-1h8c0.554 0 1 0.446 1 1v10c0 0.554-0.446 1-1 1h-4.2109a4.3293 4.3293 0 0 1-0.47461 1h4.6855z" fill="#363636"/>
 <path d="m7 12.5a3.5 3.5 0 0 1-3.5 3.5 3.5 3.5 0 0 1-3.5-3.5 3.5 3.5 0 0 1 3.5-3.5 3.5 3.5 0 0 1 3.5 3.5zm-1.0859 0-2.5-2.5-0.70703 0.70703 1.293 1.293h-3v1h3l-1.293 1.293 0.70703 0.70703 2.5-2.5z" fill="#363636"/>
</svg>
