<svg width="16" height="16" version="1.1" xmlns="http://www.w3.org/2000/svg">
 <g fill="#333">
  <path d="m1.5 4c-0.277 0-0.5 0.223-0.5 0.5s0.223 0.5 0.5 0.5h2.5879a1.5 1.5 0 0 1-0.087891-0.5 1.5 1.5 0 0 1 0.085938-0.5h-2.5859zm5.4121 0a1.5 1.5 0 0 1 0.087891 0.5 1.5 1.5 0 0 1-0.085938 0.5h7.5859c0.277 0 0.5-0.223 0.5-0.5s-0.223-0.5-0.5-0.5h-7.5879z" stroke-linecap="round" stroke-linejoin="round" stroke-width="2.3664"/>
  <path d="m1.5 11c-0.277 0-0.5 0.223-0.5 0.5s0.223 0.5 0.5 0.5h7.5879a1.5 1.5 0 0 1-0.087891-0.5 1.5 1.5 0 0 1 0.085938-0.5h-7.5859zm10.412 0a1.5 1.5 0 0 1 0.087891 0.5 1.5 1.5 0 0 1-0.085938 0.5h2.5859c0.277 0 0.5-0.223 0.5-0.5s-0.223-0.5-0.5-0.5h-2.5879z" stroke-linecap="round" stroke-linejoin="round" stroke-width="2.3664"/>
  <path d="m5.5 2a2.5 2.5 0 0 0-2.5 2.5 2.5 2.5 0 0 0 2.5 2.5 2.5 2.5 0 0 0 2.5-2.5 2.5 2.5 0 0 0-2.5-2.5zm0 1a1.5 1.5 0 0 1 1.5 1.5 1.5 1.5 0 0 1-1.5 1.5 1.5 1.5 0 0 1-1.5-1.5 1.5 1.5 0 0 1 1.5-1.5z" stroke-linecap="square" stroke-width="2"/>
  <path d="m10.5 9a2.5 2.5 0 0 0-2.5 2.5 2.5 2.5 0 0 0 2.5 2.5 2.5 2.5 0 0 0 2.5-2.5 2.5 2.5 0 0 0-2.5-2.5zm0 1a1.5 1.5 0 0 1 1.5 1.5 1.5 1.5 0 0 1-1.5 1.5 1.5 1.5 0 0 1-1.5-1.5 1.5 1.5 0 0 1 1.5-1.5z" stroke-linecap="square" stroke-width="2"/>
 </g>
</svg>
