<svg width="4.2333mm" height="4.2333mm" version="1.1" viewBox="0 0 4.2333 4.2333" xmlns="http://www.w3.org/2000/svg">
 <g fill="#333">
  <path d="m0.52917 0.79375c0-0.29316 0.23601-0.52917 0.52917-0.52917h2.1166c0.29316 0 0.52917 0.23601 0.52917 0.52917v2.6458c0 0.29316-0.23601 0.52917-0.52917 0.52917h-2.1166c-0.29316 0-0.52917-0.23601-0.52917-0.52917zm0.26458 0v2.6458c0 0.14658 0.118 0.26458 0.26458 0.26458h2.1166c0.14658 0 0.26458-0.118 0.26458-0.26458v-2.6458c0-0.14658-0.118-0.26458-0.26458-0.26458h-2.1166c-0.14658 0-0.26458 0.118-0.26458 0.26458z" color="#363636" stroke-width=".26458"/>
  <g stroke-linecap="square">
   <g stroke-width=".48991">
    <rect x="1.3229" y="1.0583" width="1.5875" height=".26458" ry=".13229"/>
    <rect x="1.3229" y="1.5875" width="1.5875" height=".26458" ry=".13229"/>
    <rect x="1.3229" y="2.1167" width="1.5875" height=".26458" ry=".13229"/>
   </g>
   <rect x="1.3229" y="2.6458" width=".90714" height=".26458" ry=".13229" stroke-width=".37034"/>
  </g>
 </g>
</svg>
