<svg width="4.2333mm" height="4.2333mm" version="1.1" viewBox="0 0 4.2333 4.2333" xmlns="http://www.w3.org/2000/svg">
 <g fill="#333">
  <path d="m0.26459 0.52917c0-0.29316 0.23601-0.52917 0.52917-0.52917h2.6458c0.29316 0 0.52917 0.23601 0.52917 0.52917v3.175c0 0.29316-0.23601 0.52917-0.52917 0.52917h-2.6458c-0.29316 0-0.52917-0.23601-0.52917-0.52917zm0.26458 0v3.175c0 0.14658 0.118 0.26458 0.26458 0.26458h2.6458c0.14658 0 0.26458-0.118 0.26458-0.26458v-3.175c0-0.14658-0.118-0.26458-0.26458-0.26458h-2.6458c-0.14658 0-0.26458 0.118-0.26458 0.26458z" color="#363636" stroke-width=".26458"/>
  <g stroke-linecap="square">
   <g stroke-width=".5657">
    <rect x="1.0583" y="1.0583" width="2.1167" height=".26458" ry=".13229"/>
    <rect x="1.0583" y="1.8521" width="2.1167" height=".26458" ry=".13229"/>
   </g>
   <rect x="1.0583" y="2.6458" width="1.2095" height=".26458" ry=".13229" stroke-width=".42763"/>
  </g>
 </g>
</svg>
