<svg width="16" height="16" version="1.1" xmlns="http://www.w3.org/2000/svg">
 <defs>
  <style id="current-color-scheme" type="text/css">.ColorScheme-Text { color:#363636; }</style>
 </defs>
 <path d="m3 2c-1.108 0-2 0.892-2 2v4a7 7 0 0 0 7 7 7 7 0 0 0 7-7v-4c0-1.108-0.892-2-2-2h-10zm0 1h10c0.554 0 1 0.446 1 1v4a6 6 0 0 1-6 6 6 6 0 0 1-6-6v-4c0-0.554 0.446-1 1-1zm0.75781 2.5488c-0.12781 0-0.25558 0.050503-0.35352 0.14844-0.19587 0.19587-0.19587 0.51116 0 0.70703l4.2422 4.2422c0.19587 0.19587 0.51116 0.19587 0.70703 0l4.2422-4.2422c0.19587-0.19587 0.19587-0.51116 0-0.70703-0.19587-0.19587-0.51116-0.19587-0.70703 0l-3.8887 3.8887-3.8887-3.8887c-0.097934-0.097934-0.22571-0.14844-0.35352-0.14844z" fill="#333" stroke-linecap="round" stroke-linejoin="round" stroke-width="2.0755"/>
</svg>
