<svg width="16" height="16" version="1.1" xmlns="http://www.w3.org/2000/svg">
  <defs>
    <style id="current-color-scheme" type="text/css">.ColorScheme-Text { color:#363636; }</style>
  </defs>
  <path class="ColorScheme-Text" d="m2 2c-1.108 0-2 0.892-2 2v9c0 1.108 0.892 2 2 2h7.6777a4.5 4.5 0 0 1-0.91602-1h-6.7617c-0.554 0-1-0.446-1-1v-6h14v0.75977a4.5 4.5 0 0 1 1 0.91406v-3.6738c0-1.108-0.892-2-2-2h-7.6289c-0.57985-0.0229-0.6047 0.076884-1.0391-0.35742-0.43381-0.43381-0.613-0.64213-1.332-0.64258h-2zm0 1h2c0.31116-1.7e-6 0.52033 1.414e-4 0.99805 0.4707 0.47877 0.47161 0.6388 0.5293 1 0.5293h8.002c0.554 0 1 0.446 1 1v1h-14v-2c0-0.554 0.446-1 1-1z" fill="currentColor" />
  <path d="M 12.5,15 A 3.5,-3.5 0 0 1 9,11.5 3.5,-3.5 0 0 1 12.5,8 3.5,-3.5 0 0 1 16,11.5 3.5,-3.5 0 0 1 12.5,15 Z m 0,-1.0859 2.5,-2.5 -0.70703,-0.70703 -1.293,1.293 v -3 h -1 v 3 l -1.293,-1.293 -0.70703,0.70703 2.5,2.5 z" fill="currentColor" class="ColorScheme-Text" />
</svg>
