<svg width="16" height="16" enable-background="new" version="1.1" xmlns="http://www.w3.org/2000/svg">
 <title>Gnome Symbolic Icons</title>
 <path d="m8.0601 0.84236c-0.21498-0.030874-0.42531 0.080549-0.52052 0.27575l-2.0383 4.1518-4.575 0.67561c-0.40881 0.061502-0.57065 0.56431-0.27448 0.85273l3.3195 3.2204-0.77068 4.5601c-0.070098 0.40901 0.35975 0.7205 0.7266 0.52653l4.0884-2.1632 4.0985 2.1425c0.36709 0.19143 0.7945-0.12065 0.72395-0.5286l-0.79268-4.5563 3.3038-3.2357c0.29592-0.28985 0.13131-0.7932-0.27869-0.85219l-4.5782-0.65453-2.0566-4.1425c-0.072934-0.14689-0.21326-0.24868-0.37554-0.27241z" color="#000000" color-rendering="auto" dominant-baseline="auto" enable-background="accumulate" fill="#ff7f2a" image-rendering="auto" shape-rendering="auto" solid-color="#000000" stop-color="#000000" style="font-feature-settings:normal;font-variant-alternates:normal;font-variant-caps:normal;font-variant-east-asian:normal;font-variant-ligatures:normal;font-variant-numeric:normal;font-variant-position:normal;font-variation-settings:normal;inline-size:0;isolation:auto;mix-blend-mode:normal;shape-margin:0;shape-padding:0;text-decoration-color:#000000;text-decoration-line:none;text-decoration-style:solid;text-indent:0;text-orientation:mixed;text-transform:none;white-space:normal"/>
</svg>
