<svg width="16" height="16" version="1.1" xmlns="http://www.w3.org/2000/svg">
 <g id="titlebutton-close-hover-alt-dark" transform="translate(-293 216.64)">
  <rect x="293" y="-216.64" width="16" height="16" ry="1.6931e-5" opacity="0" stroke-width=".47432" style="paint-order:markers stroke fill"/>
  <g transform="translate(294 -215.64)" enable-background="new">
   <g transform="translate(-5 -1033.4)" fill-rule="evenodd">
    <path d="m12 1047.4c3.8659 0 6.9999-3.134 6.9999-7s-3.134-7-6.9999-7c-3.866 0-7.0001 3.134-7.0001 7s3.134 7 7.0001 7" fill="#e9524a"/>
    <path d="m12 1043.4c1.6568 0 3-1.3432 3-3.0001 0-1.6568-1.3431-3-3-3-1.6569 0-3 1.3432-3 3 0 1.6569 1.3431 3.0001 3 3.0001" fill="#000000" opacity=".5"/>
   </g>
  </g>
 </g>
</svg>
