<svg width="16" height="16" version="1.1" xmlns="http://www.w3.org/2000/svg">
 <g id="titlebutton-maximize-active-alt-dark" transform="translate(-253 216.64)">
  <rect x="253" y="-216.64" width="16" height="16" ry="1.6931e-5" opacity="0" stroke-width=".47432" style="paint-order:markers stroke fill"/>
  <g transform="translate(254 -215.64)" enable-background="new">
   <g transform="translate(-5 -1033.4)">
    <path d="m12 1047.4c3.8659 0 6.9999-3.134 6.9999-7s-3.134-7-6.9999-7c-3.866 0-7.0001 3.134-7.0001 7s3.134 7 7.0001 7" fill="#59c837" fill-rule="evenodd"/>
    <path transform="translate(-378 969.36)" d="m390 66.998c-0.554 0-1 0.446-1 1v2h-2c-0.554 0-1 0.446-1 1s0.446 1 1 1h2v2c0 0.554 0.446 1 1 1s1-0.446 1-1v-2h2c0.554 0 1-0.446 1-1s-0.446-1-1-1h-2v-2c0-0.554-0.446-1-1-1z" fill="#000000" opacity=".5"/>
    <path d="m12 1047.4c3.8659 0 6.9999-3.134 6.9999-7s-3.134-7-6.9999-7c-3.866 0-7.0001 3.134-7.0001 7s3.134 7 7.0001 7" fill="#000000" fill-rule="evenodd" opacity=".2"/>
   </g>
  </g>
 </g>
</svg>
