<svg xmlns="http://www.w3.org/2000/svg" width="16" height="16"><g fill-rule="evenodd"><path fill="#bababa" d="M8 15A7 7 0 1 0 8 1a7 7 0 0 0 0 14"/><path fill="#cecece" d="M8 14.5a6.5 6.5 0 1 0 0-13 6.5 6.5 0 0 0 0 13"/></g><path d="M5.169 5.091a1 1 0 0 0 0 1.415L6.583 7.92 5.169 9.334a1 1 0 0 0 0 1.414 1 1 0 0 0 1.414 0l1.414-1.414 1.414 1.414a1 1 0 0 0 1.414 0 1 1 0 0 0 0-1.414L9.411 7.92l1.414-1.414a1 1 0 0 0 0-1.415 1 1 0 0 0-1.414 0L7.997 6.505 6.583 5.092a1 1 0 0 0-1.414 0" opacity=".5"/></svg>