<?xml version="1.0" encoding="UTF-8" standalone="no"?>
<svg
   width="16"
   height="16"
   version="1.1"
   id="svg1636"
   sodipodi:docname="titlebutton-close-active-dark.svg"
   inkscape:version="1.2.2 (b0a8486541, 2022-12-01)"
   xmlns:inkscape="http://www.inkscape.org/namespaces/inkscape"
   xmlns:sodipodi="http://sodipodi.sourceforge.net/DTD/sodipodi-0.dtd"
   xmlns="http://www.w3.org/2000/svg"
   xmlns:svg="http://www.w3.org/2000/svg">
  <defs
     id="defs1640" />
  <sodipodi:namedview
     id="namedview1638"
     pagecolor="#ffffff"
     bordercolor="#666666"
     borderopacity="1.0"
     inkscape:showpageshadow="2"
     inkscape:pageopacity="0.0"
     inkscape:pagecheckerboard="0"
     inkscape:deskcolor="#d1d1d1"
     showgrid="false"
     inkscape:zoom="20.85965"
     inkscape:cx="6.8313706"
     inkscape:cy="7.4306136"
     inkscape:window-width="1920"
     inkscape:window-height="1012"
     inkscape:window-x="0"
     inkscape:window-y="35"
     inkscape:window-maximized="1"
     inkscape:current-layer="svg1636" />
  <path
     d="m8.0005 15.002c3.8659 0 6.9999-3.134 6.9999-7 0-3.866-3.134-6.9999-6.9999-6.9999-3.866 0-7 3.1339-7 6.9999 0 3.866 3.134 7 7 7"
     fill="#e9524a"
     fill-rule="evenodd"
     id="path1632" />
  <path
     d="m5.1686 5.0913c-0.39175 0.39171-0.39175 1.0224 0 1.4142l1.4142 1.4142-1.4142 1.4142c-0.39175 0.39178-0.39175 1.0225 0 1.4142 0.39171 0.39182 1.0225 0.39182 1.4142 0l1.4142-1.4142 1.4142 1.4142c0.39171 0.39182 1.0225 0.39182 1.4142 0 0.39174-0.39167 0.39174-1.0224 0-1.4142l-1.4142-1.4142 1.4142-1.4142c0.39174-0.39178 0.39174-1.0225 0-1.4142-0.39171-0.39182-1.0225-0.39182-1.4142 0l-1.4142 1.4142-1.4142-1.4142c-0.39171-0.39182-1.0225-0.39182-1.4142 0z"
     enable-background="new"
     opacity=".5"
     stroke-width="3.7795"
     id="path1634" />
  <path
     d="m8.0005 15.002c3.8659 0 6.9999-3.134 6.9999-7 0-3.866-3.134-6.9999-6.9999-6.9999-3.866 0-7 3.1339-7 6.9999 0 3.866 3.134 7 7 7"
     id="path1759"
     style="fill:#000000;opacity:0.15" />
</svg>
