<?xml version="1.0" encoding="UTF-8" standalone="no"?>
<svg
   width="16"
   height="16"
   version="1.1"
   id="svg2214"
   sodipodi:docname="titlebutton-unmaximize-active-dark.svg"
   inkscape:version="1.2.2 (b0a8486541, 2022-12-01)"
   xmlns:inkscape="http://www.inkscape.org/namespaces/inkscape"
   xmlns:sodipodi="http://sodipodi.sourceforge.net/DTD/sodipodi-0.dtd"
   xmlns="http://www.w3.org/2000/svg"
   xmlns:svg="http://www.w3.org/2000/svg">
  <defs
     id="defs2218" />
  <sodipodi:namedview
     id="namedview2216"
     pagecolor="#ffffff"
     bordercolor="#666666"
     borderopacity="1.0"
     inkscape:showpageshadow="2"
     inkscape:pageopacity="0.0"
     inkscape:pagecheckerboard="0"
     inkscape:deskcolor="#d1d1d1"
     showgrid="false"
     inkscape:zoom="14.75"
     inkscape:cx="4.440678"
     inkscape:cy="8"
     inkscape:window-width="1432"
     inkscape:window-height="466"
     inkscape:window-x="33"
     inkscape:window-y="68"
     inkscape:window-maximized="0"
     inkscape:current-layer="svg2214" />
  <g
     fill-rule="evenodd"
     id="g2210">
    <path
       d="M 8.0002,15 C 11.8662,15 15,11.866 15,8 15,4.1339 11.8661,1 8.0002,1 4.1342,1 1,4.1341 1,8 c 0,3.8661 3.1339,7 7.0002,7"
       fill="#59c837"
       stroke-width="2.9397"
       id="path2206" />
    <path
       d="m8.0002 15c3.866 0 6.9998-3.134 6.9998-7 0-3.8661-3.1339-7-6.9998-7-3.866 0-7.0002 3.1341-7.0002 7 0 3.8661 3.1339 7 7.0002 7"
       opacity=".2"
       stroke-width="2.9397"
       id="path2208" />
  </g>
  <path
     d="m8.0254 3.4141v3.5859c0 0.41552 0.58448 1 1 1h3.5859zm-4.6367 4.5859 4.5859 4.5859v-3.5859c0-0.41552-0.58448-1-1-1z"
     opacity=".5"
     stroke-width="3.7795"
     id="path2212" />
</svg>
