<?xml version="1.0" encoding="UTF-8" standalone="no"?>
<svg
   width="16"
   height="16"
   version="1.1"
   id="svg3190"
   sodipodi:docname="titlebutton-maximize-active-dark.svg"
   inkscape:version="1.2.2 (b0a8486541, 2022-12-01)"
   xmlns:inkscape="http://www.inkscape.org/namespaces/inkscape"
   xmlns:sodipodi="http://sodipodi.sourceforge.net/DTD/sodipodi-0.dtd"
   xmlns="http://www.w3.org/2000/svg"
   xmlns:svg="http://www.w3.org/2000/svg">
  <defs
     id="defs3194" />
  <sodipodi:namedview
     id="namedview3192"
     pagecolor="#ffffff"
     bordercolor="#666666"
     borderopacity="1.0"
     inkscape:showpageshadow="2"
     inkscape:pageopacity="0.0"
     inkscape:pagecheckerboard="0"
     inkscape:deskcolor="#d1d1d1"
     showgrid="false"
     inkscape:zoom="14.75"
     inkscape:cx="4.440678"
     inkscape:cy="8"
     inkscape:window-width="1920"
     inkscape:window-height="1012"
     inkscape:window-x="0"
     inkscape:window-y="35"
     inkscape:window-maximized="1"
     inkscape:current-layer="svg3190" />
  <path
     d="m8.0019 14.999c3.8661 0 7-3.1339 7-7 0-3.8661-3.134-7-7-7-3.8661 0-7 3.134-7 7 0 3.8661 3.134 7 7 7"
     fill="#59c837"
     fill-rule="evenodd"
     stroke-width="2.9396"
     id="path3186" />
  <path
     d="m6.4107 4.9791 4.586 4.586v-3.5859c0-0.41552-0.5845-0.99998-1-0.99998zm-1.414 1.4141v3.5859c0 0.41552 0.58446 1 0.99998 1h3.5859z"
     opacity=".5"
     stroke-width="3.7795"
     id="path3188" />
  <path
     d="m8.0019 14.999c3.8661 0 7-3.1339 7-7 0-3.8661-3.134-7-7-7-3.8661 0-7 3.134-7 7 0 3.8661 3.134 7 7 7"
     id="path3313"
     style="fill:#000000;opacity:0.15" />
</svg>
