<?xml version="1.0" encoding="UTF-8" standalone="no"?>
<svg
   width="16"
   height="16"
   version="1.1"
   id="svg15"
   sodipodi:docname="titlebutton-shade-backdrop.svg"
   inkscape:version="1.1.2 (0a00cf5339, 2022-02-04, custom)"
   xmlns:inkscape="http://www.inkscape.org/namespaces/inkscape"
   xmlns:sodipodi="http://sodipodi.sourceforge.net/DTD/sodipodi-0.dtd"
   xmlns="http://www.w3.org/2000/svg"
   xmlns:svg="http://www.w3.org/2000/svg">
  <defs
     id="defs19" />
  <sodipodi:namedview
     id="namedview17"
     pagecolor="#ffffff"
     bordercolor="#666666"
     borderopacity="1.0"
     inkscape:pageshadow="2"
     inkscape:pageopacity="0.0"
     inkscape:pagecheckerboard="0"
     showgrid="false"
     inkscape:zoom="36.1875"
     inkscape:cx="7.9861831"
     inkscape:cy="8"
     inkscape:window-width="1920"
     inkscape:window-height="1010"
     inkscape:window-x="0"
     inkscape:window-y="0"
     inkscape:window-maximized="1"
     inkscape:current-layer="svg15" />
  <g
     transform="translate(-253,268.63782)"
     style="display:inline"
     id="titlebutton-minimize-backdrop"
     inkscape:label="#g1595">
    <rect
       ry="1.6930764e-05"
       y="-268.63782"
       x="253"
       height="16"
       width="16"
       id="rect1557-60"
       style="opacity:0;fill:#000000;fill-opacity:1;stroke:none;stroke-width:0.474321;stroke-linejoin:miter;stroke-miterlimit:4;stroke-dasharray:none;stroke-opacity:1;paint-order:markers stroke fill" />
    <g
       inkscape:label="#g915"
       transform="translate(254,-267.63782)"
       id="titlebutton-minimize-backdrop-1-6"
       style="enable-background:new">
      <g
         transform="translate(-4.9999997,-1033.3622)"
         id="g6-6-2">
        <path
           style="fill:#afb6c5;fill-opacity:1;fill-rule:evenodd;stroke:none"
           d="m 12.000061,1047.3622 c 3.865929,0 6.999939,-3.134 6.999939,-7 0,-3.866 -3.13401,-7 -6.999939,-7 -3.8660427,0 -7.0000616,3.134 -7.0000616,7 0,3.866 3.1340189,7 7.0000616,7"
           id="path2-26-6"
           inkscape:connector-curvature="0" />
        <path
           style="opacity:1;fill:#c7ccd6;fill-opacity:1;fill-rule:evenodd;stroke:none"
           d="m 12.000067,1046.8623 c 3.589781,0 6.499933,-2.9103 6.499933,-6.5001 0,-3.5899 -2.910152,-6.5 -6.499933,-6.5 -3.5899136,0 -6.5000676,2.9101 -6.5000676,6.5 0,3.5898 2.910154,6.5001 6.5000676,6.5001"
           id="path4-1"
           inkscape:connector-curvature="0" />
      </g>
    </g>
  </g>
  <path
     d="m8 5-2 3h1v4h2v-4h1z"
     color="#000000"
     fill="#000000"
     opacity=".5"
     style="text-decoration-line:none;text-indent:0;text-transform:none"
     id="path13" />
</svg>
