<?xml version="1.0" encoding="UTF-8" standalone="no"?>
<svg
   width="16"
   height="16"
   version="1.1"
   id="svg13"
   sodipodi:docname="titlebutton-shade.svg"
   inkscape:version="1.1.2 (0a00cf5339, 2022-02-04, custom)"
   xmlns:inkscape="http://www.inkscape.org/namespaces/inkscape"
   xmlns:sodipodi="http://sodipodi.sourceforge.net/DTD/sodipodi-0.dtd"
   xmlns="http://www.w3.org/2000/svg"
   xmlns:svg="http://www.w3.org/2000/svg">
  <defs
     id="defs17" />
  <sodipodi:namedview
     id="namedview15"
     pagecolor="#ffffff"
     bordercolor="#666666"
     borderopacity="1.0"
     inkscape:pageshadow="2"
     inkscape:pageopacity="0.0"
     inkscape:pagecheckerboard="0"
     showgrid="false"
     inkscape:zoom="18.09375"
     inkscape:cx="13.374784"
     inkscape:cy="7.2677029"
     inkscape:window-width="1920"
     inkscape:window-height="1010"
     inkscape:window-x="0"
     inkscape:window-y="0"
     inkscape:window-maximized="1"
     inkscape:current-layer="svg13" />
  <g
     id="shade"
     transform="translate(-253 242.64)">
    <rect
       x="253"
       y="-242.64"
       width="16"
       height="16"
       ry="1.6931e-5"
       opacity="0"
       stroke-width=".47432"
       style="paint-order:markers stroke fill"
       id="rect2" />
    <g
       transform="translate(254 -241.64)"
       enable-background="new"
       id="g10">
      <g
         transform="translate(-5 -1033.4)"
         fill-rule="evenodd"
         id="g8">
        <path
           d="m12 1047.4c3.8659 0 6.9999-3.134 6.9999-7s-3.134-7-6.9999-7c-3.866 0-7.0001 3.134-7.0001 7s3.134 7 7.0001 7"
           fill="#0b67ef"
           id="path4"
           style="fill:#425a8a;fill-opacity:1" />
        <path
           d="m12 1046.9c3.5898 0 6.4999-2.9103 6.4999-6.5001 0-3.5899-2.9102-6.5-6.4999-6.5-3.5899 0-6.5001 2.9101-6.5001 6.5 0 3.5898 2.9102 6.5001 6.5001 6.5001"
           fill="#4285f4"
           id="path6"
           style="fill:#5271ad;fill-opacity:1" />
      </g>
    </g>
  </g>
</svg>
