<?xml version="1.0" encoding="UTF-8" standalone="no"?>
<svg
   xmlns:dc="http://purl.org/dc/elements/1.1/"
   xmlns:cc="http://creativecommons.org/ns#"
   xmlns:rdf="http://www.w3.org/1999/02/22-rdf-syntax-ns#"
   xmlns:svg="http://www.w3.org/2000/svg"
   xmlns="http://www.w3.org/2000/svg"
   xmlns:sodipodi="http://sodipodi.sourceforge.net/DTD/sodipodi-0.dtd"
   xmlns:inkscape="http://www.inkscape.org/namespaces/inkscape"
   width="78"
   height="80"
   version="1.1"
   viewBox="0 0 78 80"
   id="svg17"
   sodipodi:docname="menu.svg"
   inkscape:version="1.0.2 (e86c870879, 2021-01-15, custom)">
  <metadata
     id="metadata21">
    <rdf:RDF>
      <cc:Work
         rdf:about="">
        <dc:format>image/svg+xml</dc:format>
        <dc:type
           rdf:resource="http://purl.org/dc/dcmitype/StillImage" />
        <dc:title></dc:title>
      </cc:Work>
    </rdf:RDF>
  </metadata>
  <sodipodi:namedview
     pagecolor="#ffffff"
     bordercolor="#666666"
     borderopacity="1"
     objecttolerance="10"
     gridtolerance="10"
     guidetolerance="10"
     inkscape:pageopacity="0"
     inkscape:pageshadow="2"
     inkscape:window-width="1920"
     inkscape:window-height="962"
     id="namedview19"
     showgrid="false"
     inkscape:snap-bbox="true"
     inkscape:bbox-nodes="true"
     inkscape:snap-bbox-edge-midpoints="true"
     showguides="true"
     inkscape:guide-bbox="true"
     inkscape:zoom="6.363961"
     inkscape:cx="36.930272"
     inkscape:cy="39.026794"
     inkscape:window-x="0"
     inkscape:window-y="28"
     inkscape:window-maximized="1"
     inkscape:current-layer="svg17">
    <inkscape:grid
       type="xygrid"
       id="grid846" />
    <sodipodi:guide
       position="59,74"
       orientation="1,0"
       id="guide864" />
    <sodipodi:guide
       position="59,62"
       orientation="0,-1"
       id="guide866" />
  </sodipodi:namedview>
  <defs
     id="defs5">
    <filter
       inkscape:collect="always"
       style="color-interpolation-filters:sRGB"
       id="filter852"
       x="-0.108"
       width="1.216"
       y="-0.108"
       height="1.216">
      <feGaussianBlur
         inkscape:collect="always"
         stdDeviation="2.88"
         id="feGaussianBlur854" />
    </filter>
  </defs>
  <rect
     x="7"
     y="9.0000248"
     width="64"
     height="64"
     rx="12"
     ry="12"
     fill="#323232"
     opacity="0.3325"
     id="rect848"
     style="fill:#000000;stroke-width:2.9091;filter:url(#filter852)" />
  <path
     id="rect869"
     style="stroke-width:3.00001;fill:#000000;opacity:0.75"
     d="M 19 5 C 11.798 5 6 10.797995 6 18 L 6 58 C 6 65.202005 11.798 71 19 71 L 59 71 C 66.202 71 72 65.202005 72 58 L 72 18 C 72 10.797995 66.202 5 59 5 L 19 5 z M 19 6 L 59 6 C 65.648 6 71 11.352 71 18 L 71 58 C 71 64.648 65.648 70 59 70 L 19 70 C 12.352 70 7 64.648 7 58 L 7 18 C 7 11.352 12.352 6 19 6 z " />
  <rect
     x="7"
     y="6.0000243"
     width="64"
     height="64"
     rx="12"
     ry="12"
     fill="#323232"
     opacity="0.95"
     id="rect11"
     style="stroke-width:2.9091" />
  <path
     id="rect856"
     style="opacity:0.1;fill:#ffffff;stroke-width:2.9091"
     d="M 19,6 C 12.352,6 7,11.352 7,18 v 40 c 0,6.648 5.352,12 12,12 h 40 c 6.648,0 12,-5.352 12,-12 V 18 C 71,11.352 65.648,6 59,6 Z m 0,1 h 40 c 6.094,0 11,4.905995 11,11 v 40 c 0,6.094005 -4.906,11 -11,11 H 19 C 12.906,69 8,64.094005 8,58 V 18 C 8,11.905995 12.906,7 19,7 Z" />
</svg>
