<svg width="36" height="36" version="1.1" viewBox="0 0 36 36" xmlns="http://www.w3.org/2000/svg">
 <defs>
  <filter id="filter922" x="-.18" y="-.18" width="1.36" height="1.36" color-interpolation-filters="sRGB">
   <feGaussianBlur stdDeviation="1.949998"/>
  </filter>
 </defs>
 <g transform="translate(0 -1016.4)">
  <rect transform="matrix(1.0181 0 0 1.0181 -.32511 -18.718)" x="5" y="1023.4" width="26" height="26" rx="9.4545" ry="9.4546" fill="#000000" filter="url(#filter922)" opacity=".15"/>
  <rect x="6.5" y="1022.9" width="23" height="23" rx="10.5" ry="10.5" fill="none" opacity=".75" stroke="#000000" stroke-linecap="round"/>
  <rect x="7" y="1023.4" width="22" height="22" rx="10" ry="10" fill="#323232" opacity=".95"/>
  <path transform="translate(0 1016.4)" d="m17 7c-5.54 0-10 4.46-10 10v2c0 5.54 4.46 10 10 10h2c5.54 0 10-4.46 10-10v-2c0-5.54-4.46-10-10-10h-2zm0 1h2c4.986 0 9 4.014 9 9v2c0 4.986-4.014 9-9 9h-2c-4.986 0-9-4.014-9-9v-2c0-4.986 4.014-9 9-9z" fill="#ffffff" opacity=".08"/>
 </g>
</svg>
