<svg xmlns="http://www.w3.org/2000/svg" width="48" height="48" style="display:inline;enable-background:new" version="1.0"><g style="display:inline"><path d="M24 282a18 18 0 0 0-18 18 18 18 0 0 0 18 18 18 18 0 0 0 18-18 18 18 0 0 0-18-18Zm-.293 6c-.196.108-.385.189-.566.316.73-.172.696.076 1.441-.023-.26.04-.578.14-.527.18.836.096.963-.258 1.734 0l-.05-.227c1.076.386 1.3.32 2.464.938.408.022.451-.25 1.067 0 .11.192-.022.226.738.68.085-.035-.156-.253-.34-.423 1.525.817 3.187 2.559 3.691 4.418-.473-.87-.046.443-.21.375A10.133 10.133 0 0 1 33.64 296c-.142-.499-.448-1.7-.98-2.477-.046.502-.695-.344-.34.758.269.391.054-.397.386.297.006.332.13.66.207 1.09-.116-.02-.255-.475-.34-.348.116.542.305.821.38.864-.04.09-.133-.084-.141.285.045.847.237.487.328.527-.094.417-.466.908-.282 1.625-.053-.218-.155-.438-.234-.644-.074.612.135.733-.148 1.476.204-.669.18-1.272-.012-.98.085.95-.751 1.677-.66 2.28l-.242-.335c-.66.952-.013.523-.461 1.246.164-.283-.09-.114.125-.437-.142.008-.636.605-1.086.957-1.772 1.417-3.884 1.605-5.93.84-.08.065.363.411.691.581.78.287 1.661.302 2.356.274-1.502.63-4.362-.635-5.297-2.313.213.046.936 1.18 1.48 1.364-.32-.258-.568-.585-.8-.922a4.705 4.705 0 0 0 1.539 1.176c-.019-.071.02-.113.03-.16.011-.048-.007-.1-.144-.192-1.734-1.33-2.763-2.459-2.406-5.078.264-.198.335-1.29.942-1.672.368-.816 1.479-1.572 2.664-1.59 1.21-.065 2.232.645 2.742 1.317-.93-.87-2.462-1.132-3.766-.489-1.332.601-2.117 2.068-2.004 3.528.048-.071.09-.026.114-.207-.04 2.84 3.062 4.92 5.293 3.87l.027.063c.907-.246.793-.454 1.383-.86-.046.094-.398.34-.188.34.286-.076 1.187-.907 1.63-1.304.203-.437-.109-.236.175-.79l.348-.167c.192-.556.404-.87.378-1.52l-.203.426c.298-.901.13-1.879.172-2.726l-.086-.024c-.07-2.131-1.914-4.398-3.558-5.164-1.412-.655-3.587-.764-4.59-.273.136-.122.687-.176.52-.27-1.574.156-1.219.55-2.426.86-.33.32.966-.258.27.156-.647.178-.953-.113-1.911.879.085.142.611-.406.172.144-.902-.11-2.848 2.058-3.262 2.778l.215.039c-.354.89-.82 1.455-.883 1.988-.09 1.31-.549 3.696.086 4.43l-.062.613c.085.176.154.351.261.516l-.14.011c.669 2.106.719.039 1.597 2.227-.127-.043-.255-.089-.445-.344-.02.196.276.771.625 1.219l-.152.172c.198.354.375.429.511.55-.725-.396.676 1.31.801 1.528l.11-.2c-.015.284.207.65.62 1.16l.344-.01c.142.283.665.789.977.812l-.211.273c.794.25.388.333 1.363.676l-.199-.344c.499.428.648.804 1.348 1.133.972.337 1.102.209 2.097.492-.844-.025-1.835-.013-2.504-.254-4.557-1.233-8.728-6.578-8.421-12.086-.074-1.114.11-2.51-.075-2.785.261-.85.562-1.884 1.168-3.117-.045-.08.102.242.41-.285.188-.411.34-.865.575-1.262l.125-.027c.119-.706 1.644-1.788 2.097-2.332l.032.207c.989-.927 2.754-1.55 3.746-1.993-.261.29.586-.03 1.195-.066z" style="fill:#fff;fill-opacity:1;stroke-width:7.5592;paint-order:stroke markers fill" transform="translate(0 -276)"/></g></svg>