<svg xmlns="http://www.w3.org/2000/svg" width="48" height="48"><path fill="#fff" d="M24 6a18 18 0 1 0 0 36 18 18 0 0 0 0-36zm0 4A14.001 14.001 0 1 1 24 38a13.895 13.895 0 0 1-9.503-3.75c.808-.11 2.084-.128 3.75.063 2.437.277 3.772.37 5.375.251 3.656-.276 6.071-.88 8.75-2.19 1.403-.68 1.701-.99 1.999-1.81.293-.779.4-1.502.255-1.502-.056 0-.515.179-1.063.438-2.062.978-3.87 1.459-5.443 1.378-1.628-.085-4.26-1.037-7.432-2.564l-1.5-.689-1.127-2.81 1.063.684a31.57 31.57 0 0 0 6.564 3.19c2.73.862 4.86.743 7.058-.375.779-.395 2.254-1.36 2.254-1.5 0-.256-.757-2.79-1.19-3.938-1.08-2.866-1.842-3.835-3.623-4.685-1.981-.944-4.175-1.586-8.189-2.5-1.913-.409-3.801-.821-5.748-1.063l-.064 2.372a64.712 64.712 0 0 0-3.687-1 14.03 14.03 0 0 1 11.502-5.994zm3.312 10.124a2.976 2.976 0 0 1 2.934 2.313c.191.744.132 1.276-.247 2.062a2.874 2.874 0 0 1-3.125 1.565 2.921 2.921 0 0 1-2.19-1.688c-.518-1.127-.276-2.623.626-3.44a3.091 3.091 0 0 1 1.998-.808zm.685 1.565c-1.046 0-1.701.765-1.123 1.31.468.442 1.25.51 1.871.19.408-.208.544-.522.442-.935-.076-.31-.68-.565-1.19-.565z" overflow="visible"/></svg>