<svg xmlns="http://www.w3.org/2000/svg" width="48" height="48"><path fill="#fff" d="M24.002 6A17.998 17.998 0 0 0 6 24.002 17.998 17.998 0 0 0 24.002 42 17.998 17.998 0 0 0 42 24.002 17.998 17.998 0 0 0 24.002 6Zm4.813 4.21c.51-.01.931.05 1.433.131 1.837.298 3.606 1.475 4.728 3.423 1.518 2.627 1.16 5.952-.536 7.78-.922.851-1.118.915-1.688 1.302.391-.612.46-.731.553-1.297-.021-.315-.013-.446-.179-.872a2.279 2.279 0 0 0-1.02-1.1 3.682 3.682 0 0 0-1.586-.315c-.319 0-.514-.009-.944.055-1.973.544-4.184-.213-5.221-2.016-1.242-2.15-.34-5.004 1.888-6.288a5.315 5.315 0 0 1 2.028-.761c.195-.026.374-.034.544-.043zm-13.09 5.863c.318.008.628.05.934.123 1.195.37 1.348.506 1.969.808-.723-.03-.863-.034-1.399.17-.263.174-.382.234-.663.59a2.279 2.279 0 0 0-.446 1.434 3.682 3.682 0 0 0 .518 1.53c.162.277.251.451.523.787 1.459 1.441 1.905 3.733.863 5.531-1.241 2.156-4.166 2.794-6.39 1.51a5.315 5.315 0 0 1-1.671-1.378 6.412 6.412 0 0 1-.915-1.76c-.663-1.735-.527-3.856.596-5.804 1.33-2.3 3.84-3.626 6.075-3.546Zm13.902 11.585c2.488 0 4.503 2.211 4.503 4.784 0 .757-.072 1.47-.357 2.134-.31.723-.638 1.14-1.063 1.667-1.174 1.445-3.083 2.385-5.332 2.385-3.032 0-5.74-1.973-6.467-4.358-.276-1.22-.234-1.42-.28-2.109.335.646.4.765.841 1.122.285.145.396.213.847.285a2.296 2.296 0 0 0 1.462-.336 3.67 3.67 0 0 0 1.067-1.211c.158-.277.268-.443.425-.846.51-1.982 2.28-3.512 4.359-3.512z"/></svg>