<svg xmlns="http://www.w3.org/2000/svg" width="48" height="48" style="display:inline;enable-background:new" version="1.0"><g style="display:inline"><path d="M24 282a18 18 0 1 0 0 36 18 18 0 0 0 0-36zm6.416 5.017a2.398 2.398 0 0 1 1.786 3.584 2.402 2.402 0 1 1-1.786-3.584zm-6.42 2.543c.97 0 1.905.131 2.793.378a3.372 3.372 0 0 0 4.52 2.62 10.417 10.417 0 0 1 3.104 6.772l-3.423.047a7.02 7.02 0 0 0-9.95-5.74l-1.67-2.997a10.404 10.404 0 0 1 4.63-1.08Zm-5.791 1.751 1.76 2.947a7.011 7.011 0 0 0 0 11.484l-1.76 2.942a10.45 10.45 0 0 1-4.312-6.067 3.363 3.363 0 0 0 0-5.234 10.46 10.46 0 0 1 4.312-6.072zm-6.446 6.285a2.404 2.404 0 1 1 0 4.808 2.402 2.402 0 0 1 0-4.804zm19.231 3.023 3.423.055a10.408 10.408 0 0 1-3.104 6.769 3.359 3.359 0 0 0-4.52 2.615 10.434 10.434 0 0 1-7.42-.698l1.672-2.993a7.015 7.015 0 0 0 9.949-5.748zm-1.17 7.593a2.407 2.407 0 1 1 .587 4.78 2.407 2.407 0 0 1-.586-4.78z" style="fill:#fff;fill-opacity:1;stroke-width:7.5592" transform="translate(0 -276)"/></g></svg>