<svg xmlns="http://www.w3.org/2000/svg" width="48" height="48" style="display:inline;enable-background:new" version="1.0"><g style="display:inline"><path d="M24.01 282c-9.94 0-17.99 8.052-18.007 17.992H6v13.928h.003a4.09 4.09 0 0 0 4.09 4.08h13.918C33.953 317.994 42 309.943 42 300.008c0-9.94-8.057-17.992-18.006-17.992zm3.657 7.409c3.023 0 5.877 2.313 5.877 5.505 0 .296.001.592-.047.928-.084.849-.86 1.459-1.705 1.34a1.503 1.503 0 0 1-1.263-1.764c.015-.095.02-.246.02-.505 0-1.81-1.482-2.508-2.882-2.508-1.4 0-2.663 1.177-2.664 2.509.024 1.54 0 3.067 0 4.605l2.599-.02c2.029-.042 2.052 3.012.023 2.998l-2.622.02c-.006 1.239.01 1.015.003 1.639 0 0 .022 1.515-.023 2.662-.314 3.373-3.186 6.068-6.638 6.068-3.66 0-6.673-2.989-6.673-6.655.11-3.77 3.118-6.737 6.907-6.702l2.114-.018v2.992l-2.114.02h-.011c-2.082.062-3.867 1.475-3.9 3.704a3.658 3.658 0 0 0 3.678 3.658c2.035 0 3.663-1.48 3.663-3.654l-.003-11.335c0-.21.007-.377.03-.61.344-2.772 2.825-4.884 5.633-4.884z" style="fill:#fff;fill-opacity:1;stroke-width:7.56025" transform="translate(0 -276)"/></g></svg>