<svg xmlns="http://www.w3.org/2000/svg" width="48" height="48"><path d="M306.463 506.57a105.236 105.236 0 0 0-61.36 19.9l23.903 23.903a72.016 72.016 0 0 1 37.457-10.582c39.772 0 72.014 32.241 72.014 72.014a72.016 72.016 0 0 1-10.602 37.437l23.947 23.95a105.24 105.24 0 0 0 19.875-61.387c0-58.12-47.114-105.235-105.234-105.235zm-85.361 43.85a105.235 105.235 0 0 0-19.875 61.385c0 58.12 47.116 105.236 105.236 105.236a105.23 105.23 0 0 0 61.357-19.9l-23.902-23.903a72.01 72.01 0 0 1-37.455 10.582c-39.773 0-72.016-32.243-72.016-72.015a72.009 72.009 0 0 1 10.602-37.436zm85.343 27.883a33.503 33.503 0 0 0-33.504 33.502 33.503 33.503 0 0 0 33.504 33.504 33.503 33.503 0 0 0 33.504-33.504 33.503 33.503 0 0 0-33.504-33.502z" style="fill:#fff" transform="matrix(.17105 0 0 .17105 -28.419 -80.646)"/></svg>