<?xml version="1.0" encoding="UTF-8"?>
<!-- Generator: Adobe Illustrator 24.0.2, SVG Export Plug-In . SVG Version: 6.00 Build 0)  -->
<svg version="1.1" id="Layer_1" xmlns="http://www.w3.org/2000/svg" xmlns:xlink="http://www.w3.org/1999/xlink" x="0px" y="0px" viewBox="0 0 48 48" style="enable-background:new 0 0 48 48;" xml:space="preserve">
<style type="text/css">
	.st0{fill:#FFFFFF;}
	.st1{fill:#202020;}
</style>
<title>Artboard 1</title>
<g>
	<path class="st0" d="M16.5,1.5h15c8.3,0,15,6.7,15,15v15c0,8.3-6.7,15-15,15h-15c-8.3,0-15-6.7-15-15v-15C1.5,8.2,8.2,1.5,16.5,1.5   z"/>
	<path id="path3" class="st1" d="M39.3,35.4L39.3,35.4c-0.3-0.5-0.5-1-0.5-1.5c-0.1-0.7-0.4-1.3-0.8-1.7l0,0   c-0.1-0.1-0.2-0.2-0.3-0.2l-0.3-0.1c0.6-2,0.5-4.2-0.3-6.1c-0.9-2.1-2.1-4.1-3.6-5.8c-1.3-1.7-2.6-3.3-2.6-5.6   c0-3.6,0.4-10.2-5.9-10.2H24c-7,0.6-5.2,8-5.3,10.5c-0.1,1.8-0.7,3.5-1.8,5c-1.9,2.2-3.5,4.7-4.5,7.5c-0.5,1.4-0.6,2.8-0.4,4.3   l-0.2,0.2c-0.4,0.5-0.8,1-1.1,1.4c-0.4,0.3-0.8,0.5-1.3,0.7c-0.6,0.2-1.1,0.6-1.4,1.1l0,0c-0.2,0.3-0.2,0.7-0.2,1   c0,0.3,0,0.6,0.1,0.9C8,37.1,8,37.6,7.9,38.2c-0.4,0.8-0.5,1.7-0.2,2.5c0.3,0.6,0.9,0.9,1.6,1c1.4,0.3,3.2,0.2,4.6,1l0.1-0.2   l-0.1,0.2c1.3,0.8,2.9,1,4.4,0.8c0.9-0.2,1.6-0.8,2-1.6c1,0,2-0.4,3.8-0.5c1.2-0.1,2.6,0.4,4.3,0.3c0,0.2,0.1,0.4,0.2,0.5l0,0   c0.6,1.2,1.8,1.9,3.1,1.8c1.5-0.2,2.8-1,3.8-2.2l-0.2-0.2l0.2,0.2c1-1.3,2.8-1.8,4-2.5c0.6-0.3,1-0.8,1.1-1.4   C40.4,36.9,40,36.1,39.3,35.4z"/>
	<path id="path5" class="st0" d="M40,37.7c0,0.4-0.3,0.7-0.8,1c-1.1,0.7-2.9,1.2-4.1,2.7c-0.8,1.1-2,1.8-3.4,2   c-1.1,0.1-2.2-0.5-2.7-1.5l0,0c-0.3-0.9-0.3-1.9,0.1-2.8c0.3-1,0.6-2.1,0.8-3.2l0,0c0-1,0.1-2,0.3-2.9c0.1-0.7,0.5-1.3,1.1-1.6   l0.1,0c0,1,0.6,1.9,1.5,2.2c1.1,0.1,2.3-0.4,3-1.3h0.4c0.5-0.1,1,0.1,1.4,0.4l0,0c0.3,0.4,0.6,0.9,0.6,1.4c0.1,0.6,0.3,1.2,0.7,1.8   l0,0C39.5,36.3,39.9,36.9,40,37.7z"/>
	<path id="path7" class="st0" d="M20,40.6L20,40.6c0,1.1-0.8,2-1.9,2.1c-1.4,0.2-2.8-0.1-4-0.8l0,0c-1.6-0.9-3.5-0.8-4.8-1   c-0.5,0-0.9-0.3-1.2-0.7c-0.2-0.7-0.1-1.4,0.2-2l0,0c0.1-0.6,0.1-1.3,0-1.9c-0.1-0.5-0.1-1.1,0.1-1.6l0,0c0.2-0.4,0.6-0.7,1.1-0.9   c0.6-0.1,1.1-0.4,1.5-0.8l0,0c0.4-0.4,0.7-1,1.1-1.4c0.3-0.3,0.6-0.5,1.1-0.5h0.3c0.7,0.2,1.3,0.6,1.7,1.3l1.5,2.8l0,0   c0.6,1,1.3,1.9,2,2.7C19.4,38.7,19.9,39.6,20,40.6z"/>
	<path id="path9" class="st0" d="M27.6,14.8c-0.2-0.3-0.5-0.5-0.8-0.6l0,0c-0.6-0.2-1.2-0.4-1.8-0.7c-0.6-0.4-1.3-0.7-2-0.8   c-0.3,0-0.5,0-0.8,0.1c-0.5,0.2-1,0.6-1.4,1l0,0L20.5,14l-0.8,0.6c-0.3,0.2-0.4,0.6-0.3,0.9c0.2,0.5,0.6,1,1.1,1.2l0,0   c0.4,0.2,0.7,0.5,1,0.8c0.2,0.1,0.3,0.2,0.5,0.3c0.2,0.1,0.5,0.2,0.7,0.2c0.6,0,1.2-0.1,1.7-0.4c0.4-0.3,0.9-0.6,1.3-0.8l0,0   c0.8-0.2,1.4-0.7,1.8-1.4C27.7,15.3,27.7,15,27.6,14.8z"/>
	<path id="path11" class="st1" d="M25.3,16.1c-0.7,0.5-1.6,0.8-2.5,0.8c-0.8,0-1.5-0.3-2.1-0.8c-0.2-0.2-0.4-0.3-0.6-0.5   c-0.3-0.2-0.2-0.5-0.1-0.5s0.2,0.3,0.3,0.4s0.4,0.3,0.6,0.5c0.5,0.5,1.2,0.7,1.9,0.8c0.8-0.1,1.6-0.4,2.3-0.8   c0.4-0.2,0.7-0.5,1.1-0.8c0.3-0.3,0.3-0.4,0.5-0.4s0.1,0.3-0.2,0.5C26.1,15.6,25.7,15.9,25.3,16.1z"/>
	<path id="path13" class="st0" d="M36.4,31.6h-0.3c0.3-0.8-0.3-1.4-1.8-2s-2.7-0.6-3,0.8v0.2L31,30.7c-0.7,0.4-1.2,1.2-1.3,2   c-0.2,1-0.3,2.1-0.3,3.1l0,0c-0.1,0.8-0.3,1.5-0.5,2.3c-2.5,1.8-6,2.5-8.9,0.5c-0.2-0.3-0.4-0.6-0.7-0.9l-0.5-0.6   c0.3,0,0.5,0,0.8-0.2c0.2-0.1,0.4-0.3,0.5-0.6c0.1-0.7-0.1-1.5-0.6-2c-0.8-1-1.9-1.9-3-2.5l0,0c-0.9-0.5-1.6-1.3-1.9-2.3   c-0.2-0.9-0.2-1.8,0-2.8c0.5-1.6,1.2-3.2,2.1-4.6c0.2-0.1,0.1,0.3-0.7,1.6s-1.9,4.1-0.2,6.4c0.1-1.7,0.4-3.3,1.1-4.8   c0.9-2.1,2.9-5.8,3.1-8.8l0.5,0.3l0,0c0.4,0.2,0.7,0.5,1,0.8c0.4,0.3,0.9,0.5,1.4,0.5H23c0.6,0,1.2-0.2,1.7-0.5   c0.4-0.3,0.8-0.5,1.2-0.7l0,0c0.7-0.2,1.3-0.6,1.7-1.2c0.7,2.6,1.7,5.1,2.9,7.4c0.9,1.6,1.5,3.3,1.8,5c0.3,0,0.6,0,0.8,0.1   c1.1-2.8-0.9-5.8-1.8-6.6c-0.4-0.4-0.4-0.5-0.2-0.5c1.4,1.3,2.3,2.9,2.8,4.7c0.2,0.9,0.2,1.9,0,2.8l0.3,0.1   C36.1,29.9,36.8,30.6,36.4,31.6z"/>
	<path id="path15" class="st0" d="M27.7,12c0,0.4-0.1,0.9-0.2,1.3c-0.1,0.2-0.2,0.4-0.4,0.6l-0.1-0.1l-0.5-0.2l-0.3-0.1   c0.1-0.1,0.2-0.2,0.3-0.4c0.1-0.2,0.1-0.5,0.1-0.7l0,0c0-0.2,0-0.5-0.1-0.7c-0.1-0.2-0.2-0.4-0.3-0.5c-0.1-0.1-0.3-0.2-0.4-0.2l0,0   c-0.2,0-0.3,0.1-0.4,0.2c-0.2,0.1-0.3,0.3-0.4,0.5c-0.1,0.2-0.1,0.5-0.1,0.7l0,0c0,0.1,0,0.3,0,0.4c-0.3-0.2-0.7-0.3-1-0.4v-0.3   l0,0c0-0.4,0-0.9,0.2-1.3c0.1-0.4,0.4-0.7,0.7-0.9c0.3-0.2,0.6-0.4,1-0.4l0,0c0.4,0,0.7,0.1,1,0.3c0.3,0.2,0.6,0.5,0.7,0.9   C27.6,11.1,27.7,11.6,27.7,12L27.7,12L27.7,12z"/>
	<path id="path17" class="st0" d="M22.3,12.4h-0.1c-0.2,0.1-0.5,0.2-0.7,0.3c0-0.1,0-0.3,0-0.4l0,0c0-0.2-0.1-0.4-0.1-0.6   c-0.1-0.1-0.2-0.3-0.3-0.4c-0.1-0.1-0.2-0.1-0.3-0.1l0,0c-0.1,0-0.2,0.1-0.3,0.2c-0.1,0.1-0.2,0.3-0.2,0.4c0,0.2,0,0.4,0,0.6l0,0   c0,0.2,0.1,0.4,0.1,0.6c0.1,0.1,0.2,0.3,0.3,0.4l0,0l-0.3,0.2l-0.2,0.2c-0.2-0.2-0.4-0.4-0.5-0.7c-0.1-0.3-0.2-0.7-0.3-1.1l0,0   c0-0.4,0-0.7,0.1-1.1c0.1-0.3,0.2-0.5,0.5-0.7c0.2-0.2,0.4-0.3,0.7-0.3h0c0.2,0,0.5,0.1,0.7,0.3c0.3,0.2,0.5,0.5,0.6,0.8   c0.1,0.3,0.2,0.7,0.2,1.1l0,0C22.3,12.2,22.3,12.3,22.3,12.4L22.3,12.4z"/>
	<path id="path28396-7" class="st1" d="M23.5,13.4c0,0.1,0.2,0.1,0.3,0.1s0.1,0.1,0.2,0.1s0.2,0,0.2-0.1s-0.1-0.2-0.3-0.2   C23.8,13.3,23.7,13.3,23.5,13.4C23.5,13.4,23.5,13.4,23.5,13.4L23.5,13.4z"/>
	<path id="path5461" class="st1" d="M22.6,13.4c0,0.1-0.2,0.1-0.3,0.1s-0.1,0.1-0.2,0.1s-0.2,0-0.2-0.1s0.1-0.2,0.2-0.2   C22.2,13.3,22.4,13.3,22.6,13.4C22.5,13.4,22.6,13.4,22.6,13.4L22.6,13.4z"/>
</g>
</svg>