<svg xmlns="http://www.w3.org/2000/svg" width="48" height="48" style="display:inline;enable-background:new" version="1.0"><g style="display:inline"><path d="M23.998 258c-1.603 3.928-2.568 6.5-4.354 10.31 1.093 1.16 2.436 2.508 4.618 4.038-2.343-.965-3.946-1.934-5.14-2.942C16.837 274.172 13.261 280.957 6 294c5.706-3.29 10.132-5.323 14.252-6.096a10.447 10.445 0 0 1-.268-2.445l.004-.183c.094-3.656 1.994-6.466 4.248-6.275 2.253.192 4 3.312 3.912 6.964a10.32 10.318 0 0 1-.23 1.964c4.077.8 8.453 2.823 14.082 6.071-1.11-2.04-2.1-3.881-3.049-5.637-1.488-1.157-3.044-2.657-6.211-4.286 2.176.566 3.741 1.22 4.953 1.952-9.618-17.907-10.396-20.287-13.695-28.029z" style="fill:#fff;fill-opacity:1;fill-rule:evenodd;stroke-width:7.55919552" transform="translate(0 -252)"/></g></svg>