<svg xmlns="http://www.w3.org/2000/svg" width="48" height="48"><path fill="#fff" d="M24 6A18 18 0 0 0 6 24a18 18 0 0 0 18 18 18 18 0 0 0 18-18A18 18 0 0 0 24 6Zm-3.11 5.336c1.52-.036 2.157.323 3.04.898a6.337 6.337 0 0 1 2.648 3.922c.353 1.619.248 2.878-.176 3.778v.07c-.847 1.835-2.26 3.312-4.238 4.031l1.695 4.496c.318.827.6 1.69.352 2.48-.247.792-1.38 1.044-2.191.18-1.554-1.69-6.78-12.337-7.168-13.129-.389-.791-.813-1.439-.813-2.23.035-1.187 1.836-2.408 2.719-3.02.883-.611 2.614-1.44 4.133-1.476zm-1.386 3.277c-1.099.031-.498 2.368-.274 3.02.248.72.919 2.229 1.66 2.984.177.18.355.324.567.36.212.036.636-.181.813-.469.176-.288.21-.501.21-.789a4.52 4.604 0 0 0-.07-1.727c-.318-1.115-.988-2.194-1.871-2.914-.177-.143-.39-.326-.637-.398a1.165 1.165 0 0 0-.398-.066zm11.95 2.72c.166-.004.328.008.464.034a3.059 3.194 0 0 1 1.664.852c.408.39.44.819.305 1.351-.136.533-.61 1.669-.985 2.485l-.953 1.879c-1.835 3.407-2.209 3.764-2.719 3.55-.611-.248-.406-3.655.172-7.808.17-1.136.44-1.704.746-1.988.23-.213.803-.347 1.305-.356zm-2.09 12c.797.013 1.136.895.945 1.577a1.114 1.114 0 0 1-.547.715c-.293.163-.989.163-1.39-.129-.403-.292-.474-.782-.364-1.172.11-.39.473-.811.984-.941.133-.037.257-.053.371-.05zm-12.048 3.6h14.09c.75 0 1.356.535 1.356 1.2 0 .665-.605 1.2-1.356 1.2h-14.09c-.75 0-1.355-.535-1.355-1.2 0-.665.605-1.2 1.355-1.2z" style="stroke-width:2"/></svg>