<?xml version="1.0" encoding="UTF-8" standalone="no"?>
<svg
   width="48"
   height="48"
   version="1.1"
   id="svg4"
   sodipodi:docname="activities-mxlinux.svg"
   inkscape:version="1.1 (c4e8f9ed74, 2021-05-24)"
   xmlns:inkscape="http://www.inkscape.org/namespaces/inkscape"
   xmlns:sodipodi="http://sodipodi.sourceforge.net/DTD/sodipodi-0.dtd"
   xmlns="http://www.w3.org/2000/svg"
   xmlns:svg="http://www.w3.org/2000/svg">
  <defs
     id="defs8" />
  <sodipodi:namedview
     id="namedview6"
     pagecolor="#b3b3b3"
     bordercolor="#666666"
     borderopacity="1.0"
     inkscape:pageshadow="2"
     inkscape:pageopacity="0"
     inkscape:pagecheckerboard="0"
     showgrid="false"
     inkscape:zoom="10.90123"
     inkscape:cx="2.3850521"
     inkscape:cy="23.300124"
     inkscape:window-width="1920"
     inkscape:window-height="1016"
     inkscape:window-x="0"
     inkscape:window-y="28"
     inkscape:window-maximized="1"
     inkscape:current-layer="svg4" />
  <path
     d="M 24,6 C 14.028,6 6,14.028 6,24 6,33.972 14.028,42 24,42 33.972,42 42,33.972 42,24 42,14.028 33.972,6 24,6 Z m -5.1822,8.3334 6.181,6.9532 5.9102,-6.9532 1.15234,1.15104 -5.9726,7.0274 4.1536,4.6732 0.66666,-0.76042 5.7578,6.9088 h -25.334 l 8.6368,-9.7878 1.61848,1.7526 1.28386,-1.51042 -6.3568,-7.1524 z m 5.1446,10.681 -1.26432,1.48698 4.181,4.5286 1.20572,-1.3789 z"
     fill="#ffffff"
     stroke-width="0.66666"
     id="path2" />
</svg>
