<svg xmlns="http://www.w3.org/2000/svg" width="48" height="48" version="1.0"><path fill="#fff" fill-rule="evenodd" d="M20.269 6.012c-7.76.369-13.837 7.376-13.532 11.19.304 3.71 9.74 6.967 9.634 7.078-1.928 1.623-3.206 2.72-4.817 4.19-3.874 3.527-6.552 6.14-5.199 9.813 1.571 4.235 4.993 4.06 9.017 3.276 10.397-2.045 27.477-15.12 26.595-19.944-.715-3.903-10.256-11.618-15.91-14.384a12.05 12.05 0 0 0-5.813-1.219m1.629 6.697c.972-.1 2.097.153 3.363.762 2.755 1.324 5.608 4.844 0 6.848-1.524.533-6.406-1.312-6.265-3.878.13-2.38 1.283-3.593 2.902-3.732" style="stroke-width:2.25029"/></svg>