<svg xmlns="http://www.w3.org/2000/svg" xml:space="preserve" id="Layer_1" x="0" y="0" style="enable-background:new 0 0 48 48" version="1.1" viewBox="0 0 48 48"><style id="style2" type="text/css">.st0{fill:#fff}.st1{fill:#202020}</style><path id="rect991" d="M16 6C10.46 6 6 10.46 6 16v16c0 5.54 4.46 10 10 10h16c5.54 0 10-4.46 10-10V16c0-5.54-4.46-10-10-10H16zm7.95 2h.804c5.064 0 4.742 5.306 4.742 8.2 0 1.848 1.045 3.135 2.09 4.501 1.206 1.367 2.17 2.974 2.893 4.662.643 1.528.724 3.295.242 4.903l.24.08c.08 0 .162.08.242.16.322.321.564.806.645 1.369 0 .402.159.803.4 1.205.563.563.884 1.206 1.045 2.01-.08.482-.403.884-.885 1.125-.964.563-2.41.965-3.215 2.01-.803.964-1.849 1.606-3.054 1.767-1.045.08-2.01-.483-2.493-1.447a.615.615 0 0 1-.16-.402c-1.366.08-2.492-.321-3.457-.24-1.447.08-2.249.402-3.052.402-.322.643-.884 1.124-1.608 1.285-1.206.16-2.492 0-3.537-.643-1.125-.643-2.572-.563-3.697-.804-.563-.08-1.046-.32-1.287-.803-.241-.643-.162-1.367.16-2.01.08-.482.08-.884 0-1.125s-.08-.481-.08-.723c0-.24 0-.563.16-.804a2.08 2.08 0 0 1 1.127-.883c.402-.16.721-.323 1.043-.565.241-.321.565-.723.887-1.125l.16-.16c-.161-1.205-.082-2.331.32-3.457.804-2.25 2.09-4.26 3.617-6.029a7.417 7.417 0 0 0 1.447-4.02c.08-2.01-1.366-7.957 4.26-8.439zm1.446 4.262c-.321 0-.561.16-.802.32s-.484.403-.565.725c-.16.321-.16.721-.16 1.043v.242c.241.08.564.161.805.322v-.322c0-.161 0-.402.08-.563.08-.16.161-.322.322-.402.08-.08.16-.16.32-.16.08 0 .24.08.32.16.081.08.163.242.243.402.08.161.08.402.08.563 0 .16 0 .402-.08.562-.08.161-.162.242-.242.323l.242.08.402.162.08.08c.161-.16.242-.322.323-.483.08-.321.16-.725.16-1.046 0-.322-.08-.724-.16-1.045-.08-.322-.322-.562-.563-.723a1.36 1.36 0 0 0-.805-.24zm-4.1.32a.729.729 0 0 0-.562.24c-.24.161-.322.324-.402.565-.08.321-.08.561-.08.883.08.321.16.643.24.884.08.241.242.404.403.565l.162-.162.24-.16c-.08-.08-.16-.242-.24-.323 0-.16-.08-.321-.08-.482v-.483c0-.08.08-.24.16-.32.08-.08.162-.162.242-.162.08 0 .16.002.24.082.08.08.16.24.24.32 0 .161.08.322.08.483v.32c.161-.08.402-.16.563-.24h.082c0-.08-.002-.162-.082-.242 0-.322-.08-.642-.16-.883a1.254 1.254 0 0 0-.483-.645.866.866 0 0 0-.562-.24zm1.85 2.25c-.24 0-.403.002-.644.082-.402.16-.802.483-1.123.805l-.242.16-.645.48a.65.65 0 0 0-.24.725c.16.402.483.802.885.963.321.16.561.403.802.644.161.08.242.162.403.243.16.08.402.16.562.16.483 0 .966-.081 1.367-.323a7.334 7.334 0 0 1 1.045-.642c.643-.16 1.126-.562 1.448-1.125.16-.08.16-.322.08-.483a1.25 1.25 0 0 0-.643-.482c-.482-.16-.965-.321-1.447-.562-.482-.322-1.045-.565-1.608-.645zm-.738.484h.014c.08 0 .241 0 .402.08 0 .08-.16.08-.24.08-.08 0-.082.08-.162.08s-.16 0-.16-.08c0-.075.071-.15.146-.16zm1.4 0h.061c.16 0 .24.08.24.16s-.08.08-.16.08-.08-.08-.16-.08-.24 0-.24-.08a.642.642 0 0 1 .26-.08zm2.311 1.205c.16 0 .081.242-.16.403-.322.241-.641.482-.963.642a3.518 3.518 0 0 1-2.01.643c-.643 0-1.207-.24-1.69-.643-.16-.16-.32-.241-.482-.402-.24-.16-.16-.402-.08-.402s.162.242.243.322c.08.08.321.242.482.402.402.402.965.563 1.527.643.643-.08 1.285-.321 1.848-.643.322-.16.561-.403.883-.644.24-.241.241-.32.402-.32zm.725.723c-.322.482-.805.804-1.367.965-.322.16-.644.321-.965.562-.402.242-.883.403-1.366.403h-.08c-.401 0-.805-.161-1.127-.403-.24-.24-.48-.481-.802-.642l-.403-.242c-.16 2.411-1.768 5.386-2.492 7.074-.562 1.206-.802 2.49-.883 3.857-1.366-1.848-.483-4.1.16-5.144.644-1.045.724-1.366.563-1.285-.723 1.125-1.286 2.41-1.687 3.697-.161.804-.161 1.528 0 2.252.24.804.803 1.446 1.527 1.848a8.254 8.254 0 0 1 2.41 2.01c.402.401.563 1.044.482 1.607a.824.824 0 0 1-.402.482c-.241.16-.4.16-.64.16l.4.483c.241.24.402.483.562.724 2.331 1.608 5.145 1.045 7.155-.402.16-.643.322-1.205.402-1.848 0-.803.08-1.69.24-2.494.08-.643.483-1.286 1.045-1.607l.242-.08v-.16c.242-1.126 1.207-1.125 2.412-.643 1.206.482 1.687.964 1.446 1.607h.242c.321-.803-.242-1.367-1.77-2.332l-.24-.08c.161-.723.161-1.526 0-2.25-.402-1.447-1.126-2.734-2.252-3.779-.16 0-.16.08.162.402.724.643 2.33 3.054 1.446 5.305-.161-.08-.4-.08-.641-.08a12.73 12.73 0 0 0-1.45-4.018 29.527 29.527 0 0 1-2.33-5.949zM15.268 29.623c-.402 0-.642.161-.883.402-.322.322-.563.804-.885 1.125a2.212 2.212 0 0 1-1.205.645c-.402.16-.724.4-.885.72-.16.403-.16.886-.08 1.288.08.482.08 1.045 0 1.527a2.209 2.209 0 0 0-.162 1.608c.241.321.565.562.967.562 1.045.16 2.571.081 3.857.805.965.562 2.09.803 3.215.642a1.67 1.67 0 0 0 1.527-1.687c-.08-.804-.482-1.527-1.045-2.17a15.209 15.209 0 0 1-1.607-2.172l-1.207-2.25c-.322-.563-.803-.884-1.365-1.045h-.242zm14.55.242c-.482.241-.804.723-.884 1.285-.161.724-.24 1.529-.24 2.332-.161.885-.404 1.767-.645 2.57-.322.724-.321 1.53-.08 2.253a2.228 2.228 0 0 0 2.17 1.205c1.125-.161 2.089-.723 2.732-1.608.965-1.205 2.413-1.607 3.297-2.17.402-.24.643-.483.643-.804a2.16 2.16 0 0 0-.803-1.446 3.612 3.612 0 0 1-.563-1.447c0-.402-.243-.805-.484-1.127-.322-.24-.721-.4-1.123-.32h-.322c-.563.723-1.528 1.125-2.412 1.045-.724-.241-1.206-.964-1.206-1.768h-.08z" style="opacity:1;fill:#fff;fill-rule:evenodd;stroke-width:.5;stroke-linecap:round;stroke-linejoin:round;stroke-opacity:.2;paint-order:stroke fill markers;stop-color:#000"/></svg>