<svg xmlns="http://www.w3.org/2000/svg" width="48" height="48" style="display:inline;enable-background:new" version="1.0"><g style="display:inline"><path d="M35.469 282c-7.109 0-8.44 10.8-4.443 10.8S42.578 282 35.469 282zm-11.284 1.225c-4.065.573-2.636 8.231-.468 8.376 2.16.14 4.537-8.946.468-8.376zm-7.356 2.38a2.492 2.492 0 0 0-.667.17c-3.806 1.446-.579 7.407 1.556 7.008 1.998-.379 2.228-7.48-.885-7.173zm-5 4.797a2.02 2.02 0 0 0-1.101.314c-3.13 1.845 1.054 6.301 2.891 5.613 1.616-.608.587-5.86-1.79-5.932zm14.592 3.6c-5.6-.101-12.99 2.841-14.248 8.743C10.81 309.135 17.79 318 25.078 318c3.584 0 7.717-3.389 8.49-7.679.591-3.27-7.432-1.956-7.16.204.221 1.77-.705 2.687-1.981 2.721-1.743-.212-2.594-1.22-2.827-2.742-.31-3.988 12.262-6.837 11.267-13.023-.366-2.266-3.083-3.419-6.446-3.478z" style="fill:#fff;fill-opacity:1;stroke-width:7.5592" transform="translate(0 -276)"/></g></svg>