<?xml version="1.0" encoding="UTF-8" standalone="no"?>
<svg
   width="48"
   height="48"
   version="1.1"
   id="svg4"
   sodipodi:docname="activities-popos.svg"
   inkscape:version="1.1 (c4e8f9ed74, 2021-05-24)"
   xmlns:inkscape="http://www.inkscape.org/namespaces/inkscape"
   xmlns:sodipodi="http://sodipodi.sourceforge.net/DTD/sodipodi-0.dtd"
   xmlns="http://www.w3.org/2000/svg"
   xmlns:svg="http://www.w3.org/2000/svg">
  <defs
     id="defs8" />
  <sodipodi:namedview
     id="namedview6"
     pagecolor="#d1d1d1"
     bordercolor="#666666"
     borderopacity="1.0"
     inkscape:pageshadow="2"
     inkscape:pageopacity="0"
     inkscape:pagecheckerboard="0"
     showgrid="false"
     inkscape:zoom="10.90123"
     inkscape:cx="-4.403173"
     inkscape:cy="15.044175"
     inkscape:window-width="1920"
     inkscape:window-height="1016"
     inkscape:window-x="0"
     inkscape:window-y="28"
     inkscape:window-maximized="1"
     inkscape:current-layer="svg4" />
  <path
     d="M 24,6 A 18,18 0 0 0 6,24 18,18 0 0 0 24,42 18,18 0 0 0 42,24 18,18 0 0 0 24,6 Z m -3.1094,5.336 c 1.5186,-0.03597 2.1562,0.3229 3.039,0.89844 1.34202,0.89928 2.2952,2.3032 2.6484,3.9218 0.35316,1.61874 0.24802,2.878 -0.17578,3.7774 v 0.07031 c -0.84762,1.83456 -2.2606,3.3118 -4.2382,4.0312 l 1.69532,4.496 c 0.31784,0.82734 0.59876,1.68906 0.35156,2.4804 -0.24722,0.7914 -1.37912,1.04298 -2.1914,0.17968 -1.55394,-1.69068 -6.7792,-12.3376 -7.168,-13.129 -0.38848,-0.79139 -0.8125,-1.43905 -0.8125,-2.23039 0.03532,-1.1871 1.83586,-2.408 2.7188,-3.0196 0.8829,-0.61152 2.6142,-1.44056 4.1328,-1.47656 z m -1.38672,3.2774 c -1.09842,0.03066 -0.49746,2.3676 -0.27344,3.0196 0.24722,0.71946 0.9185,2.229 1.66016,2.9844 0.17658,0.17986 0.3545,0.3234 0.5664,0.35938 0.2119,0.03596 0.63592,-0.18098 0.8125,-0.46876 0.17658,-0.28778 0.21094,-0.50128 0.21094,-0.78906 A 4.5206,4.6044 0 0 0 22.41013,17.9924 c -0.31784,-1.11516 -0.9882,-2.1946 -1.8711,-2.914 -0.17658,-0.143886 -0.3895,-0.3265 -0.63672,-0.39844 -0.152302,-0.05059 -0.2848,-0.06958 -0.39844,-0.06641 z m 11.9492,2.7188 c 0.16728,-0.0028 0.3289,0.0085 0.46484,0.03516 a 3.059,3.1944 0 0 1 1.66406,0.85156 c 0.40784,0.39042 0.44064,0.81912 0.30468,1.35156 -0.13594,0.53238 -0.61052,1.66808 -0.98438,2.4844 l -0.95312,1.8789 c -1.83534,3.4072 -2.209,3.7638 -2.7188,3.5508 -0.61176,-0.24844 -0.40592,-3.656 0.17188,-7.8086 0.16994,-1.13574 0.44022,-1.70436 0.7461,-1.98828 0.22942,-0.21296 0.80284,-0.34716 1.30468,-0.35546 z m -2.0898,12 c 0.79768,0.0138 1.1371,0.89626 0.94532,1.57812 -0.07308,0.29224 -0.2546,0.55248 -0.54688,0.71484 -0.29228,0.16236 -0.98874,0.16334 -1.39062,-0.1289 -0.40188,-0.29224 -0.47288,-0.78224 -0.36328,-1.17188 0.1096,-0.38966 0.47288,-0.81156 0.98438,-0.9414 0.13244,-0.03652 0.25714,-0.05274 0.3711,-0.05078 z m -12.0468,3.6016 h 14.0898 c 0.75056,0 1.35546,0.53442 1.35546,1.19922 0,0.6648 -0.6049,1.19922 -1.35546,1.19922 h -14.0898 c -0.75056,0 -1.35546,-0.53442 -1.35546,-1.19922 0,-0.6648 0.6049,-1.19922 1.35546,-1.19922 z"
     fill="#ffffff"
     id="path2"
     style="stroke-width:2" />
</svg>
