<svg xmlns="http://www.w3.org/2000/svg" width="48" height="48" style="display:inline;enable-background:new" version="1.0"><g style="display:inline"><path d="M29.3 263.776c1.242-1.547 2.084-3.647 1.852-5.776-1.789.075-4.017 1.242-5.308 2.743-1.14 1.332-2.153 3.509-1.89 5.56 2.006.15 4.062-1.015 5.347-2.527zm4.526 13.375c-.043-4.553 3.725-6.763 3.896-6.869-2.132-3.11-5.438-3.533-6.603-3.571-2.778-.283-5.467 1.67-6.884 1.67-1.443-.001-3.62-1.636-5.966-1.59-3.024.045-5.855 1.796-7.405 4.507-3.191 5.542-.812 13.68 2.252 18.148 1.536 2.2 3.324 4.648 5.67 4.551 2.294-.087 3.15-1.456 5.922-1.456 2.744 0 3.548 1.456 5.942 1.41 2.464-.041 4.013-2.204 5.495-4.413 1.765-2.52 2.478-4.99 2.507-5.12-.055-.021-4.776-1.816-4.826-7.267z" style="display:inline;fill:#fff;fill-opacity:1;fill-rule:evenodd;stroke-width:.40056705;enable-background:new" transform="translate(0 -252)"/></g></svg>