<?xml version="1.0" encoding="UTF-8" standalone="no"?>
<svg
   width="1920"
   height="1080"
   viewBox="0 0 1920 1080"
   fill="none"
   version="1.1"
   id="svg233"
   sodipodi:docname="Monterey-light.svg"
   inkscape:version="1.1 (c4e8f9ed74, 2021-05-24)"
   inkscape:export-filename="/home/vince/Documents/GitHub/WhiteSur-gtk-theme/src/wallpapers/Monterey-light.png"
   inkscape:export-xdpi="96"
   inkscape:export-ydpi="96"
   xmlns:inkscape="http://www.inkscape.org/namespaces/inkscape"
   xmlns:sodipodi="http://sodipodi.sourceforge.net/DTD/sodipodi-0.dtd"
   xmlns="http://www.w3.org/2000/svg"
   xmlns:svg="http://www.w3.org/2000/svg">
  <sodipodi:namedview
     id="namedview235"
     pagecolor="#ffffff"
     bordercolor="#666666"
     borderopacity="1.0"
     inkscape:pageshadow="2"
     inkscape:pageopacity="0.0"
     inkscape:pagecheckerboard="0"
     showgrid="false"
     inkscape:zoom="0.36015305"
     inkscape:cx="962.09098"
     inkscape:cy="584.47374"
     inkscape:window-width="1920"
     inkscape:window-height="932"
     inkscape:window-x="0"
     inkscape:window-y="28"
     inkscape:window-maximized="1"
     inkscape:current-layer="svg233" />
  <g
     clip-path="url(#clip0)"
     id="g62"
     transform="scale(0.96)">
    <rect
       width="2000"
       height="1125"
       fill="#c7bad8"
       id="rect2"
       x="0"
       y="0" />
    <path
       d="M 523.071,0 H 2000 V 1125 H -1 L 4.46725,639.133 134.118,602.001 c 239.763,0 202.868,-125.755 270.237,-327.861 C 495.735,0 442.625,114.554 523.071,0 Z"
       fill="#c7bad8"
       id="path4" />
    <path
       d="M 564.466,0 H 2000 V 1125 H -1 L 4.46725,639.133 134.118,602.001 c 239.763,0 202.868,-125.755 270.237,-327.861 C 495.735,0 484.02,114.554 564.466,0 Z"
       fill="#c7b6d5"
       id="path6" />
    <path
       d="M 1002.62,0 H 2000 V 1125 H -1 L 4.46725,639.133 398.107,602.001 c 239.762,0 327.897,-58.229 386.61,-263.079 19.592,-68.359 106.22,-178.546 106.22,-178.546 0,0 91.38,-65.5726 111.683,-160.376 z"
       fill="url(#paint0_radial)"
       id="path8"
       style="fill:url(#paint0_radial)" />
    <path
       d="M 1333.78,0 H 2000 V 1125 H -1 V 636.763 l 656.847,-25.281 c 239.762,0 349.763,-28.998 408.483,-233.849 19.59,-68.359 121.23,-200.597 152.3,-245.698 23.06,-33.4833 39.83,-55.3023 74.19,-84.5333 C 1310.35,16.5906 1333.78,0 1333.78,0 Z"
       fill="url(#paint1_radial)"
       id="path10"
       style="fill:url(#paint1_radial)" />
    <path
       d="M 1333.78,0 H 2000 V 1125 H -1 V 636.763 c 0,0 7.8103,-1.58 882.564,-1.58 239.766,0 195.126,-110.371 253.836,-315.222 19.59,-68.359 50.16,-142.925 81.23,-188.026 23.06,-33.4833 39.83,-55.3023 74.19,-84.5333 C 1310.35,16.5906 1333.78,0 1333.78,0 Z"
       fill="url(#paint2_linear)"
       id="path12"
       style="fill:url(#paint2_linear)" />
    <path
       d="M 1557.16,0 H 2000 V 1125 H -1 V 636.763 c 0,0 146.834,91.643 1021.59,91.643 239.76,0 315.62,-199.994 387.39,-400.544 C 1470.46,153.265 1557.16,0 1557.16,0 Z"
       fill="url(#paint3_linear)"
       id="path14"
       style="fill:url(#paint3_linear)" />
    <g
       filter="url(#filter0_b)"
       id="g18">
      <path
         d="M 1557.16,0 H 2000 V 1125 H -1 V 636.763 c 0,0 106.746,13.737 981.5,13.737 239.76,0 355.71,-122.088 427.48,-322.638 C 1470.46,153.265 1557.16,0 1557.16,0 Z"
         fill="#ffffff"
         fill-opacity="0.01"
         id="path16" />
    </g>
    <path
       d="M 1789.9,0 H 2000 V 1125 H -1 V 636.763 c 0,0 277.266,171.436 1152.02,171.436 239.76,0 409.82,-254.337 485.02,-470.067 C 1701.65,116.134 1789.9,0 1789.9,0 Z"
       fill="url(#paint4_linear)"
       id="path20"
       style="fill:url(#paint4_linear)" />
    <path
       d="m 2000,407 v 718 H -1 V 636.855 c 0,0 1065.33,257.5 1132.49,257.5 130.01,0 26.97,13.891 191.36,4.74 44.08,-2.455 118.53,17.116 251.49,11.848 C 1698.11,906.038 1901.59,679.508 2000,407 Z"
       fill="url(#paint5_linear)"
       id="path22"
       style="fill:url(#paint5_linear)" />
    <path
       d="M 2000,876.262 V 1125 H -1 V 637 c 0,0 253.835,323.754 1128.59,323.754 239.76,0 406.25,-8.754 570.15,-24.479 171.74,-16.477 48.36,-60.013 302.26,-60.013 z"
       fill="#8710db"
       id="path24" />
    <path
       d="m 477.272,0 c 0,0 7.808,33.9712 35.135,78.2128 17.041,27.5902 12.492,33.7482 30.45,46.6112 13.873,9.938 28.845,10.578 43.723,21.331 32.793,23.702 35.916,53.722 117.116,90.853 35.135,16.067 61.665,91.387 98.378,150.106 36.713,58.719 69.379,105.776 110.426,191.886 23.214,48.699 50.246,134.049 98,217.5 64.79,113.227 162.95,152.686 291.27,172.865 115.55,18.17 224.8,9.105 348.22,-32.392 C 1892.03,855.601 1999,626 1999,626 v 499 H 1 V 0 Z"
       fill="url(#paint6_linear)"
       id="path26"
       style="fill:url(#paint6_linear)" />
    <path
       d="m 389.825,0 c 0,0 54.654,63.9923 108.528,96.3834 23.889,14.3636 59.605,29.0836 88.227,49.7716 32.793,23.702 35.916,53.722 117.116,90.853 35.135,16.067 61.665,91.387 98.378,150.106 36.713,58.719 74.448,104.025 113.212,191.187 C 936.5,626 963.5,741.5 1019.91,790.818 c 64.79,113.227 153.54,158.368 281.86,178.547 115.55,18.17 224.8,9.105 348.22,-32.392 C 1892.03,855.601 1999,578.301 1999,578.301 V 1125 H 1 V 0 Z"
       fill="url(#paint7_linear)"
       id="path28"
       style="fill:url(#paint7_linear)" />
    <path
       d="m 247.725,0 c 0,0 121.019,41.0815 214.712,143.785 49.092,53.813 122.129,52.738 203.001,100.334 76.516,45.031 174.894,191.186 235.013,308.901 48.057,94.095 90.081,200.027 134.549,293.48 48.02,100.91 100.23,187.6 204,238.5 81.72,40.08 227.06,22.62 357.12,22.62 C 1881.88,1107.62 1999,884 1999,884 v 241 H 1 V 0 Z"
       fill="url(#paint8_linear)"
       id="path30"
       style="fill:url(#paint8_linear)" />
    <path
       d="m 1,17 c 0,0 79.4819,27.3872 135.111,110.374 62.478,93.207 237.233,107.854 353.786,139.02 135.886,36.337 234.99,120.452 356.129,286.729 C 1020.97,793.248 1096.53,905.092 1190.44,1033.37 1250.58,1115.52 1570,1125 1570,1125 H 1 Z"
       fill="url(#paint9_linear)"
       id="path32"
       style="fill:url(#paint9_linear)" />
    <path
       d="m 1,278.385 c 0,0 95.3977,-13.946 167.914,7.905 102.31,30.829 153.153,94.759 242.108,118.573 103.711,27.765 172.082,39.806 313.96,105.136 181.971,83.792 235.439,239.943 357.698,408.683 C 1202.95,1084.68 1242,1125 1242,1125 H 1 Z"
       fill="url(#paint10_linear)"
       id="path34"
       style="fill:url(#paint10_linear)" />
    <path
       d="m 1,448 c 0,0 118.072,87.82 301.256,134.294 88.088,22.348 177.432,14.765 302.036,57.667 190.432,65.568 209.943,206.971 346.523,312.827 C 1056.72,1034.87 1199,1125 1199,1125 H 1 Z"
       fill="url(#paint11_linear)"
       id="path36"
       style="fill:url(#paint11_linear)" />
    <path
       d="M 1,714 C 1,714 227.098,823.683 376.068,891.22 673.801,1026.2 794,1125 794,1125 H 1 Z"
       fill="url(#paint12_linear)"
       id="path38"
       style="fill:url(#paint12_linear)" />
    <path
       d="m 1,1039 c 0,0 83.627,21.45 136.689,37.08 C 215.016,1098.86 290,1125 290,1125 H 1 Z"
       fill="url(#paint13_linear)"
       id="path40"
       style="fill:url(#paint13_linear)" />
    <g
       filter="url(#filter1_b)"
       id="g44">
      <path
         d="m 969,699.5 c 0,0 138.56,43.777 195.5,37.5 141.36,-15.583 304.27,-96.245 437.5,-146 179.96,-67.207 397,-477 397,-477 v 1011 h -459.5 c 0,0 -75.88,-4.1 -151.5,-17 -60.21,-10.27 -118.73,-24.27 -157,-44 -48.5,-25 -106.5,-121 -106.5,-121 L 1025,818.5 c 0,0 -37.5,-70.5 -56,-119 z"
         fill="url(#paint14_linear)"
         fill-opacity="0.01"
         id="path42"
         style="fill:url(#paint14_linear)" />
    </g>
    <g
       filter="url(#filter2_b)"
       id="g48">
      <path
         d="m 1014.5,798.5 c -22.526,-41.687 -36,-76.5 -36,-76.5 0,0 66.32,53.867 178.5,41.5 C 1298.36,747.917 1515.64,622.849 1597,431 1644.5,319 1690,135.5 1792,7.62939e-6 L 1999,0 v 880 c 0,0 -52.67,106.012 -129.5,154.5 -101.1,63.81 -330,90.5 -330,90.5 0,0 -75.88,-4.09 -151.5,-17 -60.21,-10.27 -118.73,-24.27 -157,-44 -48.5,-25 -106.5,-121 -106.5,-121 l -69,-87 c 0,0 -21.56,-21.518 -41,-57.5 z"
         fill="#ffffff"
         fill-opacity="0.01"
         id="path46" />
    </g>
    <path
       d="m 1811,746 c 66.08,-93.689 187,-228 187,-228 V 785 L 1918.5,895.5 1811,937 1502.5,895.5 c 0,0 246.6,-61.739 308.5,-149.5 z"
       fill="url(#paint15_linear)"
       id="path50"
       style="fill:url(#paint15_linear)" />
    <path
       d="m 1811,746 c 66.08,-93.689 187,-228 187,-228 V 785 L 1918.5,895.5 1811,937 1502.5,895.5 c 0,0 246.6,-61.739 308.5,-149.5 z"
       fill="url(#paint16_linear)"
       id="path52"
       style="fill:url(#paint16_linear)" />
    <path
       opacity="0.2"
       d="m 1665.41,896.826 c -76.81,-5.327 -83.35,5.064 -119.85,-8.312 -29.19,-10.7 -53.61,-15.015 -62.18,-15.834 -33.65,-2.334 -63.91,7.09 -95.59,4.893 -24.37,-1.691 -43.99,6.438 -49.41,6.062 -5.41,-0.375 -17.32,14.388 -52.53,11.946 -35.21,-2.442 -101.6,3.121 -121.14,0.41 0,0 391.84,89.02 500.7,0.835 z"
       fill="url(#paint17_linear)"
       id="path54"
       style="fill:url(#paint17_linear)" />
    <path
       d="m 1031,915.761 c 105.58,10e-4 113.55,14.835 164.74,0 40.95,-11.867 74.76,-15.452 86.55,-15.761 h 77.25 c 6.51,5.254 26.25,15.761 53.05,15.761 33.51,0 59.56,12.98 67.01,12.98 7.45,0 22.34,21.324 70.73,21.324 48.4,0 138.68,13.907 165.67,12.053 0,0 -544.45,84.602 -685,-46.357 z"
       fill="url(#paint18_linear)"
       id="path56"
       style="fill:url(#paint18_linear)" />
    <path
       opacity="0.2"
       d="m 1010,847.032 c 64.81,0 126.4,-7.763 190.39,-9.032 34.17,0 65.77,9.032 98.73,9.032 36.77,0 68.32,19.657 104.36,19.657 36.67,0 105.07,7.969 125.52,6.907 0,0 -412.51,48.477 -519,-26.564 z"
       fill="url(#paint19_linear)"
       id="path58"
       style="fill:url(#paint19_linear)" />
    <path
       d="m 1811,947 c 66.08,-93.689 187,-228 187,-228 v 405.5 h -537 c 0,0 288.1,-89.74 350,-177.5 z"
       fill="url(#paint20_linear)"
       id="path60"
       style="fill:url(#paint20_linear)" />
  </g>
  <defs
     id="defs231">
    <filter
       id="filter0_b"
       x="-61"
       y="-60"
       width="2121"
       height="1245"
       filterUnits="userSpaceOnUse"
       color-interpolation-filters="sRGB">
      <feFlood
         flood-opacity="0"
         result="BackgroundImageFix"
         id="feFlood64" />
      <feGaussianBlur
         in="BackgroundImage"
         stdDeviation="30"
         id="feGaussianBlur66" />
      <feComposite
         in2="SourceAlpha"
         operator="in"
         result="effect1_backgroundBlur"
         id="feComposite68" />
      <feBlend
         mode="normal"
         in="SourceGraphic"
         in2="effect1_backgroundBlur"
         result="shape"
         id="feBlend70" />
    </filter>
    <filter
       id="filter1_b"
       x="890"
       y="35"
       width="1188"
       height="1169"
       filterUnits="userSpaceOnUse"
       color-interpolation-filters="sRGB">
      <feFlood
         flood-opacity="0"
         result="BackgroundImageFix"
         id="feFlood73" />
      <feGaussianBlur
         in="BackgroundImage"
         stdDeviation="39.5"
         id="feGaussianBlur75" />
      <feComposite
         in2="SourceAlpha"
         operator="in"
         result="effect1_backgroundBlur"
         id="feComposite77" />
      <feBlend
         mode="normal"
         in="SourceGraphic"
         in2="effect1_backgroundBlur"
         result="shape"
         id="feBlend79" />
    </filter>
    <filter
       id="filter2_b"
       x="890.5"
       y="-88"
       width="1196.5"
       height="1301"
       filterUnits="userSpaceOnUse"
       color-interpolation-filters="sRGB">
      <feFlood
         flood-opacity="0"
         result="BackgroundImageFix"
         id="feFlood82" />
      <feGaussianBlur
         in="BackgroundImage"
         stdDeviation="44"
         id="feGaussianBlur84" />
      <feComposite
         in2="SourceAlpha"
         operator="in"
         result="effect1_backgroundBlur"
         id="feComposite86" />
      <feBlend
         mode="normal"
         in="SourceGraphic"
         in2="effect1_backgroundBlur"
         result="shape"
         id="feBlend88" />
    </filter>
    <radialGradient
       id="paint0_radial"
       cx="0"
       cy="0"
       r="1"
       gradientUnits="userSpaceOnUse"
       gradientTransform="matrix(-146.99791,758.50014,-1349.1179,-261.46009,999,68)">
      <stop
         stop-color="#CEB5D1"
         id="stop91" />
      <stop
         offset="1"
         stop-color="#D19BCF"
         id="stop93" />
    </radialGradient>
    <radialGradient
       id="paint1_radial"
       cx="0"
       cy="0"
       r="1"
       gradientUnits="userSpaceOnUse"
       gradientTransform="matrix(-32.500253,595.49979,-1059.1937,-57.807013,1070,169)">
      <stop
         stop-color="#D6A4CC"
         id="stop96" />
      <stop
         offset="0.441035"
         stop-color="#D0ACD1"
         id="stop98" />
      <stop
         offset="1"
         stop-color="#D188C2"
         id="stop100" />
    </radialGradient>
    <linearGradient
       id="paint2_linear"
       x1="1478.5"
       y1="29"
       x2="724"
       y2="860.5"
       gradientUnits="userSpaceOnUse">
      <stop
         stop-color="#DFAECC"
         id="stop103" />
      <stop
         offset="0.332468"
         stop-color="#D589B4"
         id="stop105" />
      <stop
         offset="0.729049"
         stop-color="#D68BB6"
         id="stop107" />
      <stop
         offset="1"
         stop-color="#DB9CC2"
         stop-opacity="0"
         id="stop109" />
    </linearGradient>
    <linearGradient
       id="paint3_linear"
       x1="1706"
       y1="27.999901"
       x2="908"
       y2="1064"
       gradientUnits="userSpaceOnUse">
      <stop
         stop-color="#D794B9"
         id="stop112" />
      <stop
         offset="0.27231"
         stop-color="#D783B1"
         id="stop114" />
      <stop
         offset="0.701907"
         stop-color="#D46AA6"
         stop-opacity="0.41"
         id="stop116" />
      <stop
         offset="1"
         stop-color="#D98FB7"
         stop-opacity="0"
         id="stop118" />
    </linearGradient>
    <linearGradient
       id="paint4_linear"
       x1="1836"
       y1="0.00011728"
       x2="1549"
       y2="1125"
       gradientUnits="userSpaceOnUse">
      <stop
         stop-color="#D66CA2"
         id="stop121" />
      <stop
         offset="0.286267"
         stop-color="#D6619B"
         id="stop123" />
      <stop
         offset="0.698902"
         stop-color="#CE50A8"
         id="stop125" />
      <stop
         offset="1"
         stop-color="#C02DC8"
         id="stop127" />
    </linearGradient>
    <linearGradient
       id="paint5_linear"
       x1="1583.5"
       y1="465.5"
       x2="1371"
       y2="926"
       gradientUnits="userSpaceOnUse">
      <stop
         stop-color="#CD53A5"
         id="stop130" />
      <stop
         offset="1"
         stop-color="#8B12D9"
         id="stop132" />
    </linearGradient>
    <linearGradient
       id="paint6_linear"
       x1="573"
       y1="2.0634599e-05"
       x2="1074"
       y2="1177.5"
       gradientUnits="userSpaceOnUse">
      <stop
         stop-color="#D477B8"
         id="stop135" />
      <stop
         offset="0.482013"
         stop-color="#8A10D7"
         id="stop137" />
      <stop
         offset="0.803096"
         stop-color="#8710D7"
         id="stop139" />
      <stop
         offset="0.995093"
         stop-color="#520DCA"
         id="stop141" />
    </linearGradient>
    <linearGradient
       id="paint7_linear"
       x1="573"
       y1="6.1855699e-06"
       x2="1121.5"
       y2="946.5"
       gradientUnits="userSpaceOnUse">
      <stop
         stop-color="#D748A2"
         id="stop144" />
      <stop
         offset="0.560148"
         stop-color="#C826C3"
         id="stop146" />
      <stop
         offset="0.746417"
         stop-color="#9107DF"
         id="stop148" />
      <stop
         offset="1"
         stop-color="#B824E2"
         stop-opacity="0.62"
         id="stop150" />
    </linearGradient>
    <linearGradient
       id="paint8_linear"
       x1="782.5"
       y1="114"
       x2="1060"
       y2="965.5"
       gradientUnits="userSpaceOnUse">
      <stop
         stop-color="#CB34AB"
         id="stop153" />
      <stop
         offset="0.180718"
         stop-color="#CC30B2"
         id="stop155" />
      <stop
         offset="0.736495"
         stop-color="#BF19CD"
         id="stop157" />
      <stop
         offset="1"
         stop-color="#510BC9"
         id="stop159" />
    </linearGradient>
    <linearGradient
       id="paint9_linear"
       x1="785.5"
       y1="17"
       x2="785.5"
       y2="1125"
       gradientUnits="userSpaceOnUse">
      <stop
         offset="0.0016848"
         stop-color="#B62DAF"
         id="stop162" />
      <stop
         offset="0.45283"
         stop-color="#A41BC7"
         id="stop164" />
      <stop
         offset="1"
         stop-color="#8710D7"
         id="stop166" />
    </linearGradient>
    <linearGradient
       id="paint10_linear"
       x1="361.5"
       y1="274"
       x2="1180.5"
       y2="1125"
       gradientUnits="userSpaceOnUse">
      <stop
         stop-color="#A11CBD"
         id="stop169" />
      <stop
         offset="0.413611"
         stop-color="#A51EC1"
         id="stop171" />
      <stop
         offset="1"
         stop-color="#8710DB"
         id="stop173" />
    </linearGradient>
    <linearGradient
       id="paint11_linear"
       x1="33.5"
       y1="519"
       x2="600"
       y2="1125"
       gradientUnits="userSpaceOnUse">
      <stop
         stop-color="#7012C5"
         id="stop176" />
      <stop
         offset="1"
         stop-color="#510BC9"
         id="stop178" />
    </linearGradient>
    <linearGradient
       id="paint12_linear"
       x1="53.5"
       y1="714"
       x2="397.5"
       y2="1125"
       gradientUnits="userSpaceOnUse">
      <stop
         stop-color="#4E12B0"
         id="stop181" />
      <stop
         offset="1"
         stop-color="#3C12A4"
         id="stop183" />
    </linearGradient>
    <linearGradient
       id="paint13_linear"
       x1="58.5"
       y1="985"
       x2="31"
       y2="1125"
       gradientUnits="userSpaceOnUse">
      <stop
         stop-color="#21005F"
         id="stop186" />
      <stop
         offset="1"
         stop-color="#4411A9"
         id="stop188" />
    </linearGradient>
    <linearGradient
       id="paint14_linear"
       x1="1346.5"
       y1="688.5"
       x2="975"
       y2="809.5"
       gradientUnits="userSpaceOnUse">
      <stop
         stop-color="white"
         id="stop191" />
      <stop
         offset="1"
         stop-color="white"
         stop-opacity="0"
         id="stop193" />
    </linearGradient>
    <linearGradient
       id="paint15_linear"
       x1="1894"
       y1="649"
       x2="1892"
       y2="895.5"
       gradientUnits="userSpaceOnUse">
      <stop
         stop-color="#C53CC5"
         id="stop196" />
      <stop
         offset="1"
         stop-color="#AA18DD"
         stop-opacity="0"
         id="stop198" />
    </linearGradient>
    <linearGradient
       id="paint16_linear"
       x1="1894"
       y1="649"
       x2="1892"
       y2="895.5"
       gradientUnits="userSpaceOnUse">
      <stop
         stop-color="#C53CC5"
         id="stop201" />
      <stop
         offset="1"
         stop-color="#AA18DD"
         stop-opacity="0"
         id="stop203" />
    </linearGradient>
    <linearGradient
       id="paint17_linear"
       x1="1421.5699"
       y1="856.36401"
       x2="1422.65"
       y2="913.07397"
       gradientUnits="userSpaceOnUse">
      <stop
         stop-color="#8D13D7"
         id="stop206" />
      <stop
         offset="1"
         stop-color="#961FDB"
         stop-opacity="0"
         id="stop208" />
    </linearGradient>
    <linearGradient
       id="paint18_linear"
       x1="1386.14"
       y1="900"
       x2="1379.97"
       y2="982.95599"
       gradientUnits="userSpaceOnUse">
      <stop
         stop-color="#8D13D7"
         id="stop211" />
      <stop
         offset="1"
         stop-color="#961FDB"
         stop-opacity="0"
         id="stop213" />
    </linearGradient>
    <linearGradient
       id="paint19_linear"
       x1="1279.08"
       y1="838"
       x2="1281.61"
       y2="876.39398"
       gradientUnits="userSpaceOnUse">
      <stop
         stop-color="#8D13D7"
         id="stop216" />
      <stop
         offset="1"
         stop-color="#961FDB"
         stop-opacity="0"
         id="stop218" />
    </linearGradient>
    <linearGradient
       id="paint20_linear"
       x1="1922"
       y1="763.5"
       x2="1648.5"
       y2="1226"
       gradientUnits="userSpaceOnUse">
      <stop
         stop-color="#9511DE"
         id="stop221" />
      <stop
         offset="0.433705"
         stop-color="#7507E6"
         stop-opacity="0.57"
         id="stop223" />
      <stop
         offset="0.764652"
         stop-color="#8F1FD9"
         stop-opacity="0"
         id="stop225" />
    </linearGradient>
    <clipPath
       id="clip0">
      <rect
         width="2000"
         height="1125"
         fill="#ffffff"
         id="rect228"
         x="0"
         y="0" />
    </clipPath>
  </defs>
</svg>
