<?xml version="1.0" encoding="UTF-8" standalone="no"?>
<svg
   width="1920"
   height="1080"
   viewBox="0 0 1920 1080"
   fill="none"
   version="1.1"
   id="svg233"
   sodipodi:docname="Monterey-light.svg"
   inkscape:version="1.1 (c4e8f9ed74, 2021-05-24)"
   inkscape:export-filename="/home/vince/Documents/GitHub/WhiteSur-gtk-theme/src/wallpapers/Monterey-light.png"
   inkscape:export-xdpi="96"
   inkscape:export-ydpi="96"
   xmlns:inkscape="http://www.inkscape.org/namespaces/inkscape"
   xmlns:sodipodi="http://sodipodi.sourceforge.net/DTD/sodipodi-0.dtd"
   xmlns="http://www.w3.org/2000/svg"
   xmlns:svg="http://www.w3.org/2000/svg">
  <sodipodi:namedview
     id="namedview235"
     pagecolor="#ffffff"
     bordercolor="#666666"
     borderopacity="1.0"
     inkscape:pageshadow="2"
     inkscape:pageopacity="0.0"
     inkscape:pagecheckerboard="0"
     showgrid="false"
     inkscape:zoom="0.1767767"
     inkscape:cx="248.90159"
     inkscape:cy="56.568542"
     inkscape:window-width="1920"
     inkscape:window-height="936"
     inkscape:window-x="0"
     inkscape:window-y="28"
     inkscape:window-maximized="1"
     inkscape:current-layer="svg233">
    <inkscape:grid
       type="xygrid"
       id="grid947" />
  </sodipodi:namedview>
  <g
     id="g969"
     clip-path="url(#clipPath1075)">
    <rect
       width="1920"
       height="1080"
       fill="#c7bad8"
       id="rect2"
       x="0"
       y="0"
       style="stroke-width:0.96" />
    <path
       d="M 502.14816,0 H 1920 V 1080 H -0.96 L 4.28856,613.56768 128.75328,577.92096 c 230.17248,0 194.75328,-120.7248 259.42752,-314.74656 C 475.9056,0 424.92,109.97184 502.14816,0 Z"
       fill="#c7bad8"
       id="path4"
       style="stroke-width:0.96" />
    <path
       d="M 541.88736,0 H 1920 V 1080 H -0.96 L 4.28856,613.56768 128.75328,577.92096 c 230.17248,0 194.75328,-120.7248 259.42752,-314.74656 C 475.9056,0 464.6592,109.97184 541.88736,0 Z"
       fill="#c7b6d5"
       id="path6"
       style="stroke-width:0.96" />
    <path
       d="M 962.5152,0 H 1920 V 1080 H -0.96 L 4.28856,613.56768 382.18272,577.92096 c 230.17152,0 314.78112,-55.89984 371.1456,-252.55584 18.80832,-65.62464 101.9712,-171.40416 101.9712,-171.40416 0,0 87.7248,-62.949696 107.21568,-153.96096 z"
       fill="url(#paint0_radial)"
       id="path8"
       style="fill:url(#paint0_radial);stroke-width:0.96" />
    <path
       d="M 1280.7484,0 H 1920 V 1080 H 0 V 611.29248 l 630.25799,-24.26976 c 230.05649,0 335.60468,-27.83808 391.94771,-224.49504 18.797,-65.62464 116.3226,-192.57312 146.1349,-235.87008 22.1266,-32.143968 38.2177,-53.090208 71.1868,-81.151968 C 1258.2669,15.926976 1280.7484,0 1280.7484,0 Z"
       fill="url(#paint1_radial)"
       id="path10"
       style="fill:url(#paint1_radial);stroke-width:0.95976" />
    <path
       d="M 1281.3888,0 H 1920.96 V 1080 H 0 V 611.29248 c 0,0 7.497888,-1.5168 847.26144,-1.5168 230.17536,0 187.32096,-105.95616 243.68256,-302.61312 18.8064,-65.62464 48.1536,-137.208 77.9808,-180.50496 22.1376,-32.143968 38.2368,-53.090208 71.2224,-81.151968 C 1258.896,15.926976 1281.3888,0 1281.3888,0 Z"
       fill="url(#paint2_linear)"
       id="path12"
       style="fill:url(#paint2_linear);stroke-width:0.96" />
    <path
       d="M 1495.8336,0 H 1920.96 V 1080 H 0 V 611.29248 c 0,0 140.96064,87.97728 980.7264,87.97728 230.1696,0 302.9952,-191.99424 371.8944,-384.52224 C 1412.6016,147.1344 1495.8336,0 1495.8336,0 Z"
       fill="url(#paint3_linear)"
       id="path14"
       style="fill:url(#paint3_linear);stroke-width:0.96" />
    <path
       d="M 1557.16,0 H 2000 V 1125 H -1 V 636.763 c 0,0 106.746,13.737 981.5,13.737 239.76,0 355.71,-122.088 427.48,-322.638 C 1470.46,153.265 1557.16,0 1557.16,0 Z"
       fill="#ffffff"
       fill-opacity="0.01"
       id="path16"
       transform="matrix(0.96,0,0,0.96,58.56,0)"
       style="filter:url(#filter0_b)" />
    <path
       d="M 1719.264,0 H 1920.96 V 1080 H 0 V 611.29248 c 0,0 266.17536,164.57856 1105.9392,164.57856 230.1696,0 393.4272,-244.16352 465.6192,-451.26432 C 1634.544,111.48864 1719.264,0 1719.264,0 Z"
       fill="url(#paint4_linear)"
       id="path20"
       style="fill:url(#paint4_linear);stroke-width:0.96" />
    <path
       d="M 1920.96,390.72 V 1080 H 0 V 611.3808 c 0,0 1022.7168,247.2 1087.1904,247.2 124.8096,0 25.8912,13.33536 183.7056,4.5504 42.3168,-2.3568 113.7888,16.43136 241.4304,11.37408 118.8192,-4.7088 314.16,-222.1776 408.6336,-483.78528 z"
       fill="url(#paint5_linear)"
       id="path22"
       style="fill:url(#paint5_linear);stroke-width:0.96" />
    <path
       d="M 1920.96,841.21152 V 1080 H 0 V 611.52 c 0,0 243.6816,310.80384 1083.4464,310.80384 230.1696,0 390,-8.40384 547.344,-23.49984 164.8704,-15.81792 46.4256,-57.61248 290.1696,-57.61248 z"
       fill="#8710db"
       id="path24"
       style="stroke-width:0.96" />
    <path
       d="m 458.18112,0 c 0,0 7.49568,32.612352 33.7296,75.084288 16.35936,26.486592 11.99232,32.398272 29.232,44.746752 13.31808,9.54048 27.6912,10.15488 41.97408,20.47776 31.48128,22.75392 34.47936,51.57312 112.43136,87.21888 33.7296,15.42432 59.1984,87.73152 94.44288,144.10176 C 805.23552,427.99968 836.59488,473.1744 876,555.84 c 22.28544,46.75104 48.23616,128.68704 94.08,208.8 62.1984,108.69792 156.432,146.57856 279.6192,165.9504 110.928,17.4432 215.808,8.7408 334.2912,-31.09632 C 1816.3488,821.37696 1919.04,600.96 1919.04,600.96 V 1080 H 0.96 V 0 Z"
       fill="url(#paint6_linear)"
       id="path26"
       style="fill:url(#paint6_linear);stroke-width:0.96" />
    <path
       d="m 374.232,0 c 0,0 52.46784,61.432608 104.18688,92.528064 22.93344,13.789056 57.2208,27.920256 84.69792,47.780736 31.48128,22.75392 34.47936,51.57312 112.43136,87.21888 33.7296,15.42432 59.1984,87.73152 94.44288,144.10176 35.24448,56.37024 71.47008,99.864 108.68352,183.53952 C 899.04,600.96 924.96,711.84 979.1136,759.18528 c 62.1984,108.69792 147.3984,152.03328 270.5856,171.40512 110.928,17.4432 215.808,8.7408 334.2912,-31.09632 C 1816.3488,821.37696 1919.04,555.16896 1919.04,555.16896 V 1080 H 0.96 V 0 Z"
       fill="url(#paint7_linear)"
       id="path28"
       style="fill:url(#paint7_linear);stroke-width:0.96" />
    <path
       d="m 237.09309,0 c 0,0 116.29454,39.43824 206.32985,138.0336 47.1755,51.66048 117.3612,50.62848 195.07604,96.32064 73.52889,43.22976 168.0663,183.53856 225.83832,296.54496 46.1809,90.3312 86.56432,192.02592 129.2963,281.7408 46.1454,96.8736 96.3172,180.096 196.036,228.96 78.5298,38.4768 218.1958,21.7152 343.1784,21.7152 C 1807.4523,1063.3152 1920,848.64 1920,848.64 V 1080 H 0 V 0 Z"
       fill="url(#paint8_linear)"
       id="path30"
       style="fill:url(#paint8_linear);stroke-width:0.96048" />
    <path
       d="m 0,16.32 c 0,0 76.302624,26.291712 129.70656,105.95904 59.97888,89.47872 227.74368,103.53984 339.63456,133.4592 130.45056,34.88352 225.5904,115.63392 341.88384,275.25984 167.94624,230.52 240.48384,337.89024 330.63744,461.03712 C 1199.5968,1070.8992 1506.24,1080 1506.24,1080 H 0 Z"
       fill="url(#paint9_linear)"
       id="path32"
       style="fill:url(#paint9_linear);stroke-width:0.96" />
    <path
       d="m 0,267.2496 c 0,0 91.581792,-13.38816 161.19744,7.5888 98.2176,29.59584 147.02688,90.96864 232.42368,113.83008 99.56256,26.6544 165.19872,38.21376 301.4016,100.93056 174.69216,80.44032 226.02144,230.34528 343.39008,392.33568 C 1153.872,1041.2928 1191.36,1080 1191.36,1080 H 0 Z"
       fill="url(#paint10_linear)"
       id="path34"
       style="fill:url(#paint10_linear);stroke-width:0.96" />
    <path
       d="m 0,430.08 c 0,0 113.34912,84.3072 289.20576,128.92224 84.56448,21.45408 170.33472,14.1744 289.95456,55.36032 C 761.97504,677.30784 780.7056,813.05472 911.8224,914.67648 1013.4912,993.4752 1150.08,1080 1150.08,1080 H 0 Z"
       fill="url(#paint11_linear)"
       id="path36"
       style="fill:url(#paint11_linear);stroke-width:0.96" />
    <path
       d="m 0,685.44 c 0,0 217.05408,105.29568 360.06528,170.1312 C 645.88896,985.152 761.28,1080 761.28,1080 H 0 Z"
       fill="url(#paint12_linear)"
       id="path38"
       style="fill:url(#paint12_linear);stroke-width:0.96" />
    <path
       d="m 0,997.44 c 0,0 80.28192,20.592 131.22144,35.5968 C 205.45536,1054.9056 277.44,1080 277.44,1080 H 0 Z"
       fill="url(#paint13_linear)"
       id="path40"
       style="fill:url(#paint13_linear);stroke-width:0.96" />
    <path
       d="m 969,699.5 c 0,0 138.56,43.777 195.5,37.5 141.36,-15.583 304.27,-96.245 437.5,-146 179.96,-67.207 397,-477 397,-477 v 1011 h -459.5 c 0,0 -75.88,-4.1 -151.5,-17 -60.21,-10.27 -118.73,-24.27 -157,-44 -48.5,-25 -106.5,-121 -106.5,-121 L 1025,818.5 c 0,0 -37.5,-70.5 -56,-119 z"
       fill="url(#paint14_linear)"
       fill-opacity="0.01"
       id="path42"
       style="fill:url(#paint14_linear);filter:url(#filter1_b)"
       transform="scale(0.96)" />
    <path
       d="m 1015.5,798.5 c -22.526,-41.687 -36,-76.5 -36,-76.5 0,0 66.32,53.867 178.5,41.5 C 1299.36,747.917 1516.64,622.849 1598,431 1645.5,319 1691,135.5 1793,7.62939e-6 L 2000,0 v 880 c 0,0 -52.67,106.012 -129.5,154.5 -101.1,63.81 -330,90.5 -330,90.5 0,0 -75.88,-4.09 -151.5,-17 -60.21,-10.27 -118.73,-24.27 -157,-44 -48.5,-25 -106.5,-121 -106.5,-121 l -69,-87 c 0,0 -21.56,-21.518 -41,-57.5 z"
       fill="#ffffff"
       fill-opacity="0.01"
       id="path46"
       transform="scale(0.96)"
       style="filter:url(#filter2_b)" />
    <path
       d="M 1740.48,716.16 C 1803.9168,626.21856 1920,497.28 1920,497.28 V 753.6 l -76.32,106.08 -103.2,39.84 -296.16,-39.84 c 0,0 236.736,-59.26944 296.16,-143.52 z"
       fill="url(#paint15_linear)"
       id="path50"
       style="fill:url(#paint15_linear);stroke-width:0.96" />
    <path
       d="M 1740.48,716.16 C 1803.9168,626.21856 1920,497.28 1920,497.28 V 753.6 l -76.32,106.08 -103.2,39.84 -296.16,-39.84 c 0,0 236.736,-59.26944 296.16,-143.52 z"
       fill="url(#paint16_linear)"
       id="path52"
       style="fill:url(#paint16_linear);stroke-width:0.96" />
    <path
       opacity="0.2"
       d="m 1598.7936,860.95296 c -73.7376,-5.11392 -80.016,4.86144 -115.056,-7.97952 -28.0224,-10.272 -51.4656,-14.4144 -59.6928,-15.20064 -32.304,-2.24064 -61.3536,6.8064 -91.7664,4.69728 -23.3952,-1.62336 -42.2304,6.18048 -47.4336,5.81952 -5.1936,-0.36 -16.6272,13.81248 -50.4288,11.46816 -33.8016,-2.34432 -97.536,2.99616 -116.2944,0.3936 0,0 376.1664,85.4592 480.672,0.8016 z"
       fill="url(#paint17_linear)"
       id="path54"
       style="fill:url(#paint17_linear);stroke-width:0.96" />
    <path
       d="m 989.76,879.13056 c 101.3568,9.6e-4 109.008,14.2416 158.1504,0 39.312,-11.39232 71.7696,-14.83392 83.088,-15.13056 h 74.16 c 6.2496,5.04384 25.2,15.13056 50.928,15.13056 32.1696,0 57.1776,12.4608 64.3296,12.4608 7.152,0 21.4464,20.47104 67.9008,20.47104 46.464,0 133.1328,13.35072 159.0432,11.57088 0,0 -522.672,81.21792 -657.6,-44.50272 z"
       fill="url(#paint18_linear)"
       id="path56"
       style="fill:url(#paint18_linear);stroke-width:0.96" />
    <path
       opacity="0.2"
       d="m 969.6,813.15072 c 62.2176,0 121.344,-7.45248 182.7744,-8.67072 32.8032,0 63.1392,8.67072 94.7808,8.67072 35.2992,0 65.5872,18.87072 100.1856,18.87072 35.2032,0 100.8672,7.65024 120.4992,6.63072 0,0 -396.0096,46.53792 -498.24,-25.50144 z"
       fill="url(#paint19_linear)"
       id="path58"
       style="fill:url(#paint19_linear);stroke-width:0.96" />
    <path
       d="M 1740.48,909.12 C 1803.9168,819.17856 1920,690.24 1920,690.24 v 389.28 h -515.52 c 0,0 276.576,-86.1504 336,-170.4 z"
       fill="url(#paint20_linear)"
       id="path60"
       style="fill:url(#paint20_linear);stroke-width:0.96" />
  </g>
  <defs
     id="defs231">
    <filter
       id="filter0_b"
       x="-61"
       y="-60"
       width="2121"
       height="1245"
       filterUnits="userSpaceOnUse"
       color-interpolation-filters="sRGB">
      <feFlood
         flood-opacity="0"
         result="BackgroundImageFix"
         id="feFlood64" />
      <feGaussianBlur
         in="BackgroundImage"
         stdDeviation="30"
         id="feGaussianBlur66" />
      <feComposite
         in2="SourceAlpha"
         operator="in"
         result="effect1_backgroundBlur"
         id="feComposite68" />
      <feBlend
         mode="normal"
         in="SourceGraphic"
         in2="effect1_backgroundBlur"
         result="shape"
         id="feBlend70" />
    </filter>
    <filter
       id="filter1_b"
       x="890"
       y="35"
       width="1188"
       height="1169"
       filterUnits="userSpaceOnUse"
       color-interpolation-filters="sRGB">
      <feFlood
         flood-opacity="0"
         result="BackgroundImageFix"
         id="feFlood73" />
      <feGaussianBlur
         in="BackgroundImage"
         stdDeviation="39.5"
         id="feGaussianBlur75" />
      <feComposite
         in2="SourceAlpha"
         operator="in"
         result="effect1_backgroundBlur"
         id="feComposite77" />
      <feBlend
         mode="normal"
         in="SourceGraphic"
         in2="effect1_backgroundBlur"
         result="shape"
         id="feBlend79" />
    </filter>
    <filter
       id="filter2_b"
       x="890.5"
       y="-88"
       width="1196.5"
       height="1301"
       filterUnits="userSpaceOnUse"
       color-interpolation-filters="sRGB">
      <feFlood
         flood-opacity="0"
         result="BackgroundImageFix"
         id="feFlood82" />
      <feGaussianBlur
         in="BackgroundImage"
         stdDeviation="44"
         id="feGaussianBlur84" />
      <feComposite
         in2="SourceAlpha"
         operator="in"
         result="effect1_backgroundBlur"
         id="feComposite86" />
      <feBlend
         mode="normal"
         in="SourceGraphic"
         in2="effect1_backgroundBlur"
         result="shape"
         id="feBlend88" />
    </filter>
    <radialGradient
       id="paint0_radial"
       cx="0"
       cy="0"
       r="1"
       gradientUnits="userSpaceOnUse"
       gradientTransform="matrix(-141.11799,728.16013,-1295.1532,-251.00169,959.04,65.28)">
      <stop
         stop-color="#CEB5D1"
         id="stop91" />
      <stop
         offset="1"
         stop-color="#D19BCF"
         id="stop93" />
    </radialGradient>
    <radialGradient
       id="paint1_radial"
       cx="0"
       cy="0"
       r="1"
       gradientUnits="userSpaceOnUse"
       gradientTransform="matrix(-31.184651,571.6798,-1016.3178,-55.494732,1027.6462,162.24)">
      <stop
         stop-color="#D6A4CC"
         id="stop96" />
      <stop
         offset="0.441035"
         stop-color="#D0ACD1"
         id="stop98" />
      <stop
         offset="1"
         stop-color="#D188C2"
         id="stop100" />
    </radialGradient>
    <linearGradient
       id="paint2_linear"
       x1="1478.5"
       y1="29"
       x2="724"
       y2="860.5"
       gradientUnits="userSpaceOnUse"
       gradientTransform="matrix(0.96,0,0,0.96,0.96,0)">
      <stop
         stop-color="#DFAECC"
         id="stop103" />
      <stop
         offset="0.332468"
         stop-color="#D589B4"
         id="stop105" />
      <stop
         offset="0.729049"
         stop-color="#D68BB6"
         id="stop107" />
      <stop
         offset="1"
         stop-color="#DB9CC2"
         stop-opacity="0"
         id="stop109" />
    </linearGradient>
    <linearGradient
       id="paint3_linear"
       x1="1706"
       y1="27.999901"
       x2="908"
       y2="1064"
       gradientUnits="userSpaceOnUse"
       gradientTransform="matrix(0.96,0,0,0.96,0.96,0)">
      <stop
         stop-color="#D794B9"
         id="stop112" />
      <stop
         offset="0.27231"
         stop-color="#D783B1"
         id="stop114" />
      <stop
         offset="0.701907"
         stop-color="#D46AA6"
         stop-opacity="0.41"
         id="stop116" />
      <stop
         offset="1"
         stop-color="#D98FB7"
         stop-opacity="0"
         id="stop118" />
    </linearGradient>
    <linearGradient
       id="paint4_linear"
       x1="1836"
       y1="0.00011728"
       x2="1549"
       y2="1125"
       gradientUnits="userSpaceOnUse"
       gradientTransform="matrix(0.96,0,0,0.96,0.96,0)">
      <stop
         stop-color="#D66CA2"
         id="stop121" />
      <stop
         offset="0.286267"
         stop-color="#D6619B"
         id="stop123" />
      <stop
         offset="0.698902"
         stop-color="#CE50A8"
         id="stop125" />
      <stop
         offset="1"
         stop-color="#C02DC8"
         id="stop127" />
    </linearGradient>
    <linearGradient
       id="paint5_linear"
       x1="1583.5"
       y1="465.5"
       x2="1371"
       y2="926"
       gradientUnits="userSpaceOnUse"
       gradientTransform="matrix(0.96,0,0,0.96,0.96,0)">
      <stop
         stop-color="#CD53A5"
         id="stop130" />
      <stop
         offset="1"
         stop-color="#8B12D9"
         id="stop132" />
    </linearGradient>
    <linearGradient
       id="paint6_linear"
       x1="573"
       y1="2.0634599e-05"
       x2="1074"
       y2="1177.5"
       gradientUnits="userSpaceOnUse"
       gradientTransform="scale(0.96)">
      <stop
         stop-color="#D477B8"
         id="stop135" />
      <stop
         offset="0.482013"
         stop-color="#8A10D7"
         id="stop137" />
      <stop
         offset="0.803096"
         stop-color="#8710D7"
         id="stop139" />
      <stop
         offset="0.995093"
         stop-color="#520DCA"
         id="stop141" />
    </linearGradient>
    <linearGradient
       id="paint7_linear"
       x1="573"
       y1="6.1855699e-06"
       x2="1121.5"
       y2="946.5"
       gradientUnits="userSpaceOnUse"
       gradientTransform="scale(0.96)">
      <stop
         stop-color="#D748A2"
         id="stop144" />
      <stop
         offset="0.560148"
         stop-color="#C826C3"
         id="stop146" />
      <stop
         offset="0.746417"
         stop-color="#9107DF"
         id="stop148" />
      <stop
         offset="1"
         stop-color="#B824E2"
         stop-opacity="0.62"
         id="stop150" />
    </linearGradient>
    <linearGradient
       id="paint8_linear"
       x1="782.5"
       y1="114"
       x2="1060"
       y2="965.5"
       gradientUnits="userSpaceOnUse"
       gradientTransform="matrix(0.96096096,0,0,0.96,-0.96096096,0)">
      <stop
         stop-color="#CB34AB"
         id="stop153" />
      <stop
         offset="0.180718"
         stop-color="#CC30B2"
         id="stop155" />
      <stop
         offset="0.736495"
         stop-color="#BF19CD"
         id="stop157" />
      <stop
         offset="1"
         stop-color="#510BC9"
         id="stop159" />
    </linearGradient>
    <linearGradient
       id="paint9_linear"
       x1="785.5"
       y1="17"
       x2="785.5"
       y2="1125"
       gradientUnits="userSpaceOnUse"
       gradientTransform="matrix(0.96,0,0,0.96,-0.96,0)">
      <stop
         offset="0.0016848"
         stop-color="#B62DAF"
         id="stop162" />
      <stop
         offset="0.45283"
         stop-color="#A41BC7"
         id="stop164" />
      <stop
         offset="1"
         stop-color="#8710D7"
         id="stop166" />
    </linearGradient>
    <linearGradient
       id="paint10_linear"
       x1="361.5"
       y1="274"
       x2="1180.5"
       y2="1125"
       gradientUnits="userSpaceOnUse"
       gradientTransform="matrix(0.96,0,0,0.96,-0.96,0)">
      <stop
         stop-color="#A11CBD"
         id="stop169" />
      <stop
         offset="0.413611"
         stop-color="#A51EC1"
         id="stop171" />
      <stop
         offset="1"
         stop-color="#8710DB"
         id="stop173" />
    </linearGradient>
    <linearGradient
       id="paint11_linear"
       x1="33.5"
       y1="519"
       x2="600"
       y2="1125"
       gradientUnits="userSpaceOnUse"
       gradientTransform="matrix(0.96,0,0,0.96,-0.96,0)">
      <stop
         stop-color="#7012C5"
         id="stop176" />
      <stop
         offset="1"
         stop-color="#510BC9"
         id="stop178" />
    </linearGradient>
    <linearGradient
       id="paint12_linear"
       x1="53.5"
       y1="714"
       x2="397.5"
       y2="1125"
       gradientUnits="userSpaceOnUse"
       gradientTransform="matrix(0.96,0,0,0.96,-0.96,0)">
      <stop
         stop-color="#4E12B0"
         id="stop181" />
      <stop
         offset="1"
         stop-color="#3C12A4"
         id="stop183" />
    </linearGradient>
    <linearGradient
       id="paint13_linear"
       x1="58.5"
       y1="985"
       x2="31"
       y2="1125"
       gradientUnits="userSpaceOnUse"
       gradientTransform="matrix(0.96,0,0,0.96,-0.96,0)">
      <stop
         stop-color="#21005F"
         id="stop186" />
      <stop
         offset="1"
         stop-color="#4411A9"
         id="stop188" />
    </linearGradient>
    <linearGradient
       id="paint14_linear"
       x1="1346.5"
       y1="688.5"
       x2="975"
       y2="809.5"
       gradientUnits="userSpaceOnUse">
      <stop
         stop-color="white"
         id="stop191" />
      <stop
         offset="1"
         stop-color="white"
         stop-opacity="0"
         id="stop193" />
    </linearGradient>
    <linearGradient
       id="paint15_linear"
       x1="1894"
       y1="649"
       x2="1892"
       y2="895.5"
       gradientUnits="userSpaceOnUse"
       gradientTransform="matrix(0.96,0,0,0.96,1.92,0)">
      <stop
         stop-color="#C53CC5"
         id="stop196" />
      <stop
         offset="1"
         stop-color="#AA18DD"
         stop-opacity="0"
         id="stop198" />
    </linearGradient>
    <linearGradient
       id="paint16_linear"
       x1="1894"
       y1="649"
       x2="1892"
       y2="895.5"
       gradientUnits="userSpaceOnUse"
       gradientTransform="matrix(0.96,0,0,0.96,1.92,0)">
      <stop
         stop-color="#C53CC5"
         id="stop201" />
      <stop
         offset="1"
         stop-color="#AA18DD"
         stop-opacity="0"
         id="stop203" />
    </linearGradient>
    <linearGradient
       id="paint17_linear"
       x1="1421.5699"
       y1="856.36401"
       x2="1422.65"
       y2="913.07397"
       gradientUnits="userSpaceOnUse"
       gradientTransform="scale(0.96)">
      <stop
         stop-color="#8D13D7"
         id="stop206" />
      <stop
         offset="1"
         stop-color="#961FDB"
         stop-opacity="0"
         id="stop208" />
    </linearGradient>
    <linearGradient
       id="paint18_linear"
       x1="1386.14"
       y1="900"
       x2="1379.97"
       y2="982.95599"
       gradientUnits="userSpaceOnUse"
       gradientTransform="scale(0.96)">
      <stop
         stop-color="#8D13D7"
         id="stop211" />
      <stop
         offset="1"
         stop-color="#961FDB"
         stop-opacity="0"
         id="stop213" />
    </linearGradient>
    <linearGradient
       id="paint19_linear"
       x1="1279.08"
       y1="838"
       x2="1281.61"
       y2="876.39398"
       gradientUnits="userSpaceOnUse"
       gradientTransform="scale(0.96)">
      <stop
         stop-color="#8D13D7"
         id="stop216" />
      <stop
         offset="1"
         stop-color="#961FDB"
         stop-opacity="0"
         id="stop218" />
    </linearGradient>
    <linearGradient
       id="paint20_linear"
       x1="1922"
       y1="763.5"
       x2="1648.5"
       y2="1226"
       gradientUnits="userSpaceOnUse"
       gradientTransform="matrix(0.96,0,0,0.96,1.92,0)">
      <stop
         stop-color="#9511DE"
         id="stop221" />
      <stop
         offset="0.433705"
         stop-color="#7507E6"
         stop-opacity="0.57"
         id="stop223" />
      <stop
         offset="0.764652"
         stop-color="#8F1FD9"
         stop-opacity="0"
         id="stop225" />
    </linearGradient>
    <clipPath
       clipPathUnits="userSpaceOnUse"
       id="clipPath1075">
      <rect
         style="fill:#000000;stroke-width:1.95814;stroke-linecap:square"
         id="rect1077"
         width="1920"
         height="1080"
         x="0"
         y="0" />
    </clipPath>
  </defs>
</svg>
