<?xml version="1.0" encoding="UTF-8" standalone="no"?>
<svg
   width="1920"
   height="1080"
   viewBox="0 0 1920 1080"
   fill="none"
   version="1.1"
   id="svg237"
   sodipodi:docname="Monterey-dark.svg"
   inkscape:version="1.1 (c4e8f9ed74, 2021-05-24)"
   inkscape:export-filename="/home/vince/Documents/GitHub/WhiteSur-gtk-theme/src/wallpapers/Monterey-dark.png"
   inkscape:export-xdpi="96"
   inkscape:export-ydpi="96"
   xmlns:inkscape="http://www.inkscape.org/namespaces/inkscape"
   xmlns:sodipodi="http://sodipodi.sourceforge.net/DTD/sodipodi-0.dtd"
   xmlns="http://www.w3.org/2000/svg"
   xmlns:svg="http://www.w3.org/2000/svg">
  <sodipodi:namedview
     id="namedview239"
     pagecolor="#ffffff"
     bordercolor="#666666"
     borderopacity="1.0"
     inkscape:pageshadow="2"
     inkscape:pageopacity="0.0"
     inkscape:pagecheckerboard="0"
     showgrid="false"
     inkscape:zoom="0.35355339"
     inkscape:cx="1419.8704"
     inkscape:cy="619.42554"
     inkscape:window-width="1920"
     inkscape:window-height="1012"
     inkscape:window-x="0"
     inkscape:window-y="0"
     inkscape:window-maximized="1"
     inkscape:current-layer="g1035"
     inkscape:snap-nodes="true"
     inkscape:snap-bbox="true"
     inkscape:bbox-nodes="true"
     inkscape:snap-bbox-edge-midpoints="true"
     inkscape:snap-global="false">
    <inkscape:grid
       type="xygrid"
       id="grid1088" />
  </sodipodi:namedview>
  <g
     id="g1035"
     clip-path="url(#clipPath1037)">
    <rect
       width="1920.0073"
       height="1080"
       fill="#c7bad8"
       id="rect2"
       x="-0.0072876317"
       y="0"
       style="stroke-width:0.960252" />
    <path
       d="M 501.40393,0 H 1920 V 1080 H -0.00728756 L 3.2829986,613.56768 127.81305,577.92096 c 230.2933,0 194.85551,-120.7248 259.5637,-314.74656 C 475.14759,0 424.13523,109.97184 501.40393,0 Z"
       fill="#c7bad8"
       id="path4"
       sodipodi:nodetypes="cccccccc"
       style="stroke-width:0.960252" />
    <path
       d="M 541.16399,0 H 1920 V 1080 H -0.00728756 L 3.2829986,613.56768 127.81305,577.92096 c 230.2933,0 194.85551,-120.7248 259.5637,-314.74656 C 475.14759,0 463.89529,109.97184 541.16399,0 Z"
       fill="#c7b6d5"
       id="path6"
       sodipodi:nodetypes="cccccccc"
       style="stroke-width:0.960252" />
    <path
       d="M 962.01262,0 H 1920 V 1080 H -0.00728756 L 3.2829986,613.56768 381.37552,577.92096 c 230.29234,0 314.94635,-55.89984 371.34041,-252.55584 18.8182,-65.62464 102.02473,-171.40416 102.02473,-171.40416 0,0 87.77085,-62.949696 107.27196,-153.96096 z"
       fill="url(#paint0_radial)"
       id="path8"
       style="fill:url(#paint0_radial);stroke-width:0.960252"
       sodipodi:nodetypes="ccccccccc" />
    <path
       d="M 1280.0931,0 H 1920 V 1080 H -0.00728756 L -0.0199885,611.29248 628.9358,587.02272 c 230.29233,0 335.94872,-27.83808 392.3495,-224.49504 18.8163,-65.62464 116.4419,-192.57312 146.2848,-235.87008 22.1492,-32.143968 38.2568,-53.090208 71.2597,-81.151968 C 1257.5885,15.926976 1280.0931,0 1280.0931,0 Z"
       fill="url(#paint1_radial)"
       id="path10"
       style="fill:url(#paint1_radial);stroke-width:0.960252"
       sodipodi:nodetypes="cccccccccc" />
    <path
       d="M 1280.0931,0 H 1920 V 1080 H -0.00728756 L -0.01446128,611.29248 c 0,0 5.54796858,-1.5168 845.75232128,-1.5168 230.29614,0 187.41924,-105.95616 243.81044,-302.61312 18.8163,-65.62464 48.1789,-137.208 78.0218,-180.50496 22.1492,-32.143968 38.2568,-53.090208 71.2597,-81.151968 C 1257.5885,15.926976 1280.0931,0 1280.0931,0 Z"
       fill="url(#paint2_linear)"
       id="path12"
       style="fill:url(#paint2_linear);stroke-width:0.960252"
       sodipodi:nodetypes="cccccscccc" />
    <path
       d="M 1494.6505,0 H 1920 V 1080 H -0.00728756 l 0.00289112,-468.70752 c 0,0 139.07070644,87.97728 979.27726644,87.97728 230.29043,0 303.15423,-191.99424 372.08963,-384.52224 C 1411.3748,147.1344 1494.6505,0 1494.6505,0 Z"
       fill="url(#paint3_linear)"
       id="path14"
       style="fill:url(#paint3_linear);stroke-width:0.960252"
       sodipodi:nodetypes="cccccscc" />
    <path
       d="M 1557.16,0 H 2000 V 1125 H 1.0416667 l -0.00459,-488.237 c 0,0 104.7089233,13.737 979.4629233,13.737 239.76,0 355.71,-122.088 427.48,-322.638 C 1470.46,153.265 1557.16,0 1557.16,0 Z"
       fill="#ffffff"
       fill-opacity="0.01"
       id="path16"
       sodipodi:nodetypes="cccccscc"
       transform="matrix(0.96050391,0,0,0.96,-1.0078125,0)"
       style="filter:url(#filter0_b)" />
    <path
       d="M 1718.1981,0 H 1920 V 1080 H -0.00728756 L 0.01870175,611.29248 c 0,0 264.32805825,164.57856 1104.53269825,164.57856 230.2904,0 393.6337,-244.16352 465.8636,-451.26432 C 1633.4337,111.48864 1718.1981,0 1718.1981,0 Z"
       fill="url(#paint4_linear)"
       id="path20"
       style="fill:url(#paint4_linear);stroke-width:0.960252"
       sodipodi:nodetypes="cccccscc" />
    <path
       d="M 1920,390.72 V 1080 H -0.00728756 V 611.66026 c 0,0 1021.29258756,246.92054 1085.80008756,246.92054 124.8751,0 25.9047,13.33536 183.802,4.5504 42.339,-2.3568 113.8485,16.43136 241.5571,11.37408 C 1630.0335,869.79648 1825.4768,652.32768 1920,390.72 Z"
       fill="url(#paint5_linear)"
       id="path22"
       style="fill:url(#paint5_linear);stroke-width:0.960252"
       sodipodi:nodetypes="ccccsccc" />
    <path
       d="M 1920,841.21152 V 1080 H -0.00728756 L -0.00893002,611.52 c 0,0 241.85012002,310.80384 1082.05573002,310.80384 230.2904,0 390.2047,-8.40384 547.6313,-23.49984 164.9569,-15.81792 46.45,-57.61248 290.3219,-57.61248 z"
       fill="#8710db"
       id="path24"
       sodipodi:nodetypes="ccccssc"
       style="stroke-width:0.960252" />
    <path
       d="m 457.41381,0 c 0,0 7.49961,32.612352 33.7473,75.084288 16.36795,26.486592 11.99862,32.398272 29.24735,44.746752 13.32507,9.54048 27.70573,10.15488 41.99611,20.47776 31.49781,22.75392 34.49746,51.57312 112.49038,87.21888 33.7473,15.42432 59.22947,87.73152 94.49245,144.10176 35.26298,56.37024 66.6388,101.54496 106.06461,184.21056 22.29713,46.75104 48.26147,128.68704 94.12938,208.8 62.23101,108.69792 156.51411,146.57856 279.76601,165.9504 110.9862,17.4432 215.9212,8.7408 334.4666,-31.09632 C 1816.2944,821.37696 1919.0395,600.96 1919.0395,600.96 V 1080 H -0.04730859 L -0.00728756,0 Z"
       fill="url(#paint6_linear)"
       id="path26"
       style="fill:url(#paint6_linear);stroke-width:0.960252"
       sodipodi:nodetypes="cccccsscccccccc" />
    <path
       d="m 373.42062,0 c 0,0 52.49538,61.432608 104.24157,92.528064 22.94548,13.789056 57.25084,27.920256 84.74238,47.780736 31.49781,22.75392 34.49746,51.57312 112.49038,87.21888 33.7473,15.42432 59.22947,87.73152 94.49245,144.10176 35.26298,56.37024 71.5076,99.864 108.74057,183.53952 20.37613,45.79104 77.07024,180.20533 95.28888,209.78376 59.72505,109.69152 152.67865,146.26584 275.93055,165.63768 110.9862,17.4432 215.9212,8.7408 334.4666,-31.09632 232.4804,-78.11712 335.2255,-344.32512 335.2255,-344.32512 V 1080 H -0.04730859 L -0.00728756,0 Z"
       fill="url(#paint7_linear)"
       id="path28"
       style="fill:url(#paint7_linear);stroke-width:0.960252"
       sodipodi:nodetypes="ccccsccccccccc" />
    <path
       d="m 236.93302,0 c 0,0 116.23922,39.43824 206.23171,138.0336 47.15306,51.66048 117.30539,50.62848 194.98326,96.32064 73.49392,43.22976 167.98637,183.53856 225.7309,296.54496 46.15894,90.3312 86.52316,192.02592 129.23484,281.7408 46.12337,96.8736 96.27127,180.096 195.94277,228.96 78.4924,38.4768 218.092,21.7152 343.0152,21.7152 274.4736,0 386.9678,-214.6752 386.9678,-214.6752 V 1080 H -0.04730859 L -0.00728756,0 Z"
       fill="url(#paint8_linear)"
       id="path30"
       style="fill:url(#paint8_linear);stroke-width:0.960252"
       sodipodi:nodetypes="ccccccsccccc" />
    <path
       d="m -0.04730859,16.32 c 0,0 76.34267559,26.291712 129.77464859,105.95904 60.01036,89.47872 227.86322,103.53984 339.81283,133.4592 130.51904,34.88352 225.70882,115.63392 342.0633,275.25984 168.03439,230.52 240.61003,337.89024 330.81103,461.03712 57.7647,78.864 364.5688,87.9648 364.5688,87.9648 H -0.04730859 Z"
       fill="url(#paint9_linear)"
       id="path32"
       style="fill:url(#paint9_linear);stroke-width:0.960252" />
    <path
       d="m -0.04730859,267.2496 c 0,0 91.62986359,-13.38816 161.28204859,7.5888 98.26916,29.59584 147.10406,90.96864 232.54569,113.83008 99.61482,26.6544 165.28543,38.21376 301.5598,100.93056 174.78386,80.44032 226.14008,230.34528 343.57037,392.33568 C 1154.4304,1041.2928 1191.938,1080 1191.938,1080 H -0.04730859 Z"
       fill="url(#paint10_linear)"
       id="path34"
       style="fill:url(#paint10_linear);stroke-width:0.960252" />
    <path
       d="m -0.04730859,430.08 c 0,0 113.40861859,84.3072 289.35756859,128.92224 84.60887,21.45408 170.42413,14.1744 290.10676,55.36032 C 762.3277,677.30784 781.06809,813.05472 912.25371,914.67648 1013.9759,993.4752 1150.6364,1080 1150.6364,1080 H -0.04730859 Z"
       fill="url(#paint11_linear)"
       id="path36"
       style="fill:url(#paint11_linear);stroke-width:0.960252" />
    <path
       d="m -0.04730859,685.44 c 0,0 217.16800859,105.29568 360.25427859,170.1312 C 646.18068,985.152 761.63229,1080 761.63229,1080 H -0.04730859 Z"
       fill="url(#paint12_linear)"
       id="path38"
       style="fill:url(#paint12_linear);stroke-width:0.960252" />
    <path
       d="m -0.04730859,997.44 c 0,0 80.32406059,20.592 131.29031859,35.5968 C 205.5159,1054.9056 277.53832,1080 277.53832,1080 H -0.04730859 Z"
       fill="url(#paint13_linear)"
       id="path40"
       style="fill:url(#paint13_linear);stroke-width:0.960252" />
    <path
       d="m 969,699.5 c 0,0 138.56,43.777 195.5,37.5 141.36,-15.583 304.27,-96.245 437.5,-146 179.96,-67.207 397,-477 397,-477 v 1011 h -459.5 c 0,0 -75.88,-4.1 -151.5,-17 -60.21,-10.27 -118.73,-24.27 -157,-44 -48.5,-25 -106.5,-121 -106.5,-121 L 1025,818.5 c 0,0 -37.5,-70.5 -56,-119 z"
       fill="url(#paint14_linear)"
       fill-opacity="0.01"
       id="path42"
       style="fill:url(#paint14_linear);filter:url(#filter1_b)"
       transform="matrix(0.96050391,0,0,0.96,-1.0078125,0)" />
    <path
       d="m 1014.5,798.5 c -22.526,-41.687 -36,-76.5 -36,-76.5 0,0 66.32,53.867 178.5,41.5 C 1298.36,747.917 1515.64,622.849 1597,431 1644.5,319 1690,135.5 1792,7.62939e-6 L 1999,0 v 880 c 0,0 -52.67,106.012 -129.5,154.5 -101.1,63.81 -330,90.5 -330,90.5 0,0 -75.88,-4.09 -151.5,-17 -60.21,-10.27 -118.73,-24.27 -157,-44 -48.5,-25 -106.5,-121 -106.5,-121 l -69.076,-88.14843 c 0,0 -21.484,-20.36957 -40.924,-56.35157 z"
       fill="#ffffff"
       fill-opacity="0.01"
       id="path46"
       transform="matrix(0.96050391,0,0,0.96,-1.0078125,0)"
       style="filter:url(#filter2_b)"
       sodipodi:nodetypes="cccccccccccccc" />
    <path
       d="M 1740.3858,716.16 C 1803.8559,626.21856 1920,497.28 1920,497.28 V 753.6 l -76.3601,106.08 -103.2541,39.84 -296.3155,-39.84 c 0,0 236.8603,-59.26944 296.3155,-143.52 z"
       fill="url(#paint15_linear)"
       id="path50"
       style="fill:url(#paint15_linear);stroke-width:0.960252" />
    <path
       d="M 1733.5799,719.69553 C 1797.05,629.75409 1920,497.28 1920,497.28 V 753.6 l -76.3601,106.08 -103.2541,39.84 -296.3155,-39.84 c 0,0 230.0544,-55.73391 289.5096,-139.98447 z"
       fill="url(#paint16_linear)"
       id="path52"
       style="fill:url(#paint16_linear);stroke-width:0.960252"
       sodipodi:nodetypes="ccccccc" />
    <path
       opacity="0.2"
       d="m 1598.625,860.95296 c -73.7763,-5.11392 -80.058,4.86144 -115.1164,-7.97952 -28.0371,-10.272 -51.4926,-14.4144 -59.7145,-15.20064 -32.3306,-2.24064 -61.3954,6.8064 -91.8242,4.69728 -23.4075,-1.62336 -42.2526,6.18048 -47.4585,5.81952 -5.1963,-0.36 -16.6359,13.81248 -50.4553,11.46816 -33.8193,-2.34432 -97.5872,2.99616 -116.3554,0.3936 0,0 376.3638,85.4592 480.9243,0.8016 z"
       fill="url(#paint17_linear)"
       id="path54"
       style="fill:url(#paint17_linear);stroke-width:0.960252" />
    <path
       d="m 1043.9438,852.50584 c 101.41,9.6e-4 100.1726,39.58825 149.3408,25.34665 39.3327,-11.39232 71.8073,-14.83392 83.1316,-15.13056 L 1304.8357,864 c 6.2529,5.04384 25.2132,15.13056 50.9547,15.13056 32.1865,0 57.2076,12.4608 64.3634,12.4608 7.1557,0 21.4576,20.47104 67.9364,20.47104 46.4884,0 133.2027,13.35072 159.1267,11.57088 0,0 -468.2743,54.5932 -603.2731,-71.12744 z"
       fill="url(#paint18_linear)"
       id="path56"
       style="fill:url(#paint18_linear);stroke-width:0.960252"
       sodipodi:nodetypes="ccccssscc" />
    <path
       opacity="0.2"
       d="m 969.10114,813.15072 c 62.25026,0 121.40766,-7.45248 182.87036,-8.67072 32.8204,0 63.1723,8.67072 94.8305,8.67072 35.3178,0 65.6217,18.87072 100.2382,18.87072 35.2217,0 100.9202,7.65024 120.5625,6.63072 0,0 -396.2175,46.53792 -498.50156,-25.50144 z"
       fill="url(#paint19_linear)"
       id="path58"
       style="fill:url(#paint19_linear);stroke-width:0.960252" />
    <path
       d="M 1740.3858,909.12 C 1803.8559,819.17856 1920,690.24 1920,690.24 v 389.28 h -515.7906 c 0,0 276.7212,-86.1504 336.1764,-170.4 z"
       fill="url(#paint20_linear)"
       id="path60"
       style="fill:url(#paint20_linear);stroke-width:0.960252" />
    <rect
       width="1920"
       height="1080"
       fill="#000000"
       style="mix-blend-mode:saturation;stroke-width:0.96025"
       id="rect62"
       x="0"
       y="0" />
    <rect
       width="1920"
       height="1080"
       fill="#000000"
       fill-opacity="0.6"
       style="mix-blend-mode:soft-light;stroke-width:0.96025"
       id="rect64"
       x="0"
       y="0" />
  </g>
  <defs
     id="defs235">
    <filter
       id="filter0_b"
       x="-61"
       y="-60"
       width="2121"
       height="1245"
       filterUnits="userSpaceOnUse"
       color-interpolation-filters="sRGB">
      <feFlood
         flood-opacity="0"
         result="BackgroundImageFix"
         id="feFlood68" />
      <feGaussianBlur
         in="BackgroundImage"
         stdDeviation="30"
         id="feGaussianBlur70" />
      <feComposite
         in2="SourceAlpha"
         operator="in"
         result="effect1_backgroundBlur"
         id="feComposite72" />
      <feBlend
         mode="normal"
         in="SourceGraphic"
         in2="effect1_backgroundBlur"
         result="shape"
         id="feBlend74" />
    </filter>
    <filter
       id="filter1_b"
       x="890"
       y="35"
       width="1188"
       height="1169"
       filterUnits="userSpaceOnUse"
       color-interpolation-filters="sRGB">
      <feFlood
         flood-opacity="0"
         result="BackgroundImageFix"
         id="feFlood77" />
      <feGaussianBlur
         in="BackgroundImage"
         stdDeviation="39.5"
         id="feGaussianBlur79" />
      <feComposite
         in2="SourceAlpha"
         operator="in"
         result="effect1_backgroundBlur"
         id="feComposite81" />
      <feBlend
         mode="normal"
         in="SourceGraphic"
         in2="effect1_backgroundBlur"
         result="shape"
         id="feBlend83" />
    </filter>
    <filter
       id="filter2_b"
       x="890.5"
       y="-88"
       width="1196.5"
       height="1301"
       filterUnits="userSpaceOnUse"
       color-interpolation-filters="sRGB">
      <feFlood
         flood-opacity="0"
         result="BackgroundImageFix"
         id="feFlood86" />
      <feGaussianBlur
         in="BackgroundImage"
         stdDeviation="44"
         id="feGaussianBlur88" />
      <feComposite
         in2="SourceAlpha"
         operator="in"
         result="effect1_backgroundBlur"
         id="feComposite90" />
      <feBlend
         mode="normal"
         in="SourceGraphic"
         in2="effect1_backgroundBlur"
         result="shape"
         id="feBlend92" />
    </filter>
    <radialGradient
       id="paint0_radial"
       cx="0"
       cy="0"
       r="1"
       gradientUnits="userSpaceOnUse"
       gradientTransform="matrix(-141.19207,728.16013,-1295.833,-251.00169,958.53559,65.28)">
      <stop
         stop-color="#CEB5D1"
         id="stop95" />
      <stop
         offset="1"
         stop-color="#D19BCF"
         id="stop97" />
    </radialGradient>
    <radialGradient
       id="paint1_radial"
       cx="0"
       cy="0"
       r="1"
       gradientUnits="userSpaceOnUse"
       gradientTransform="matrix(-31.21662,571.6798,-1017.3597,-55.494732,1026.7314,162.24)">
      <stop
         stop-color="#D6A4CC"
         id="stop100" />
      <stop
         offset="0.441035"
         stop-color="#D0ACD1"
         id="stop102" />
      <stop
         offset="1"
         stop-color="#D188C2"
         id="stop104" />
    </radialGradient>
    <linearGradient
       id="paint2_linear"
       x1="1478.5"
       y1="29"
       x2="724"
       y2="860.5"
       gradientUnits="userSpaceOnUse"
       gradientTransform="matrix(0.96050391,0,0,0.96,-1.0078125,0)">
      <stop
         stop-color="#DFAECC"
         id="stop107" />
      <stop
         offset="0.332468"
         stop-color="#D589B4"
         id="stop109" />
      <stop
         offset="0.729049"
         stop-color="#D68BB6"
         id="stop111" />
      <stop
         offset="1"
         stop-color="#DB9CC2"
         stop-opacity="0"
         id="stop113" />
    </linearGradient>
    <linearGradient
       id="paint3_linear"
       x1="1706"
       y1="27.999901"
       x2="908"
       y2="1064"
       gradientUnits="userSpaceOnUse"
       gradientTransform="matrix(0.96050391,0,0,0.96,-1.0078125,0)">
      <stop
         stop-color="#D794B9"
         id="stop116" />
      <stop
         offset="0.27231"
         stop-color="#D783B1"
         id="stop118" />
      <stop
         offset="0.701907"
         stop-color="#D46AA6"
         stop-opacity="0.41"
         id="stop120" />
      <stop
         offset="1"
         stop-color="#D98FB7"
         stop-opacity="0"
         id="stop122" />
    </linearGradient>
    <linearGradient
       id="paint4_linear"
       x1="1836"
       y1="0.00011728"
       x2="1549"
       y2="1125"
       gradientUnits="userSpaceOnUse"
       gradientTransform="matrix(0.96050391,0,0,0.96,-1.0078125,0)">
      <stop
         stop-color="#D66CA2"
         id="stop125" />
      <stop
         offset="0.286267"
         stop-color="#D6619B"
         id="stop127" />
      <stop
         offset="0.698902"
         stop-color="#CE50A8"
         id="stop129" />
      <stop
         offset="1"
         stop-color="#C02DC8"
         id="stop131" />
    </linearGradient>
    <linearGradient
       id="paint5_linear"
       x1="1583.5"
       y1="465.5"
       x2="1371"
       y2="926"
       gradientUnits="userSpaceOnUse"
       gradientTransform="matrix(0.96050391,0,0,0.96,-1.0078125,0)">
      <stop
         stop-color="#CD53A5"
         id="stop134" />
      <stop
         offset="1"
         stop-color="#8B12D9"
         id="stop136" />
    </linearGradient>
    <linearGradient
       id="paint6_linear"
       x1="573"
       y1="2.0634599e-05"
       x2="1074"
       y2="1177.5"
       gradientUnits="userSpaceOnUse"
       gradientTransform="matrix(0.96050391,0,0,0.96,-1.0078125,0)">
      <stop
         stop-color="#D477B8"
         id="stop139" />
      <stop
         offset="0.482013"
         stop-color="#8A10D7"
         id="stop141" />
      <stop
         offset="0.803096"
         stop-color="#8710D7"
         id="stop143" />
      <stop
         offset="0.995093"
         stop-color="#520DCA"
         id="stop145" />
    </linearGradient>
    <linearGradient
       id="paint7_linear"
       x1="573"
       y1="6.1855699e-06"
       x2="1121.5"
       y2="946.5"
       gradientUnits="userSpaceOnUse"
       gradientTransform="matrix(0.96050391,0,0,0.96,-1.0078125,0)">
      <stop
         stop-color="#D748A2"
         id="stop148" />
      <stop
         offset="0.560148"
         stop-color="#C826C3"
         id="stop150" />
      <stop
         offset="0.746417"
         stop-color="#9107DF"
         id="stop152" />
      <stop
         offset="1"
         stop-color="#B824E2"
         stop-opacity="0.62"
         id="stop154" />
    </linearGradient>
    <linearGradient
       id="paint8_linear"
       x1="782.5"
       y1="114"
       x2="1060"
       y2="965.5"
       gradientUnits="userSpaceOnUse"
       gradientTransform="matrix(0.96050391,0,0,0.96,-1.0078125,0)">
      <stop
         stop-color="#CB34AB"
         id="stop157" />
      <stop
         offset="0.180718"
         stop-color="#CC30B2"
         id="stop159" />
      <stop
         offset="0.736495"
         stop-color="#BF19CD"
         id="stop161" />
      <stop
         offset="1"
         stop-color="#510BC9"
         id="stop163" />
    </linearGradient>
    <linearGradient
       id="paint9_linear"
       x1="785.5"
       y1="17"
       x2="785.5"
       y2="1125"
       gradientUnits="userSpaceOnUse"
       gradientTransform="matrix(0.96050391,0,0,0.96,-1.0078125,0)">
      <stop
         offset="0.0016848"
         stop-color="#B62DAF"
         id="stop166" />
      <stop
         offset="0.45283"
         stop-color="#A41BC7"
         id="stop168" />
      <stop
         offset="1"
         stop-color="#8710D7"
         id="stop170" />
    </linearGradient>
    <linearGradient
       id="paint10_linear"
       x1="361.5"
       y1="274"
       x2="1180.5"
       y2="1125"
       gradientUnits="userSpaceOnUse"
       gradientTransform="matrix(0.96050391,0,0,0.96,-1.0078125,0)">
      <stop
         stop-color="#A11CBD"
         id="stop173" />
      <stop
         offset="0.413611"
         stop-color="#A51EC1"
         id="stop175" />
      <stop
         offset="1"
         stop-color="#8710DB"
         id="stop177" />
    </linearGradient>
    <linearGradient
       id="paint11_linear"
       x1="33.5"
       y1="519"
       x2="600"
       y2="1125"
       gradientUnits="userSpaceOnUse"
       gradientTransform="matrix(0.96050391,0,0,0.96,-1.0078125,0)">
      <stop
         stop-color="#7012C5"
         id="stop180" />
      <stop
         offset="1"
         stop-color="#510BC9"
         id="stop182" />
    </linearGradient>
    <linearGradient
       id="paint12_linear"
       x1="53.5"
       y1="714"
       x2="397.5"
       y2="1125"
       gradientUnits="userSpaceOnUse"
       gradientTransform="matrix(0.96050391,0,0,0.96,-1.0078125,0)">
      <stop
         stop-color="#4E12B0"
         id="stop185" />
      <stop
         offset="1"
         stop-color="#3C12A4"
         id="stop187" />
    </linearGradient>
    <linearGradient
       id="paint13_linear"
       x1="58.5"
       y1="985"
       x2="31"
       y2="1125"
       gradientUnits="userSpaceOnUse"
       gradientTransform="matrix(0.96050391,0,0,0.96,-1.0078125,0)">
      <stop
         stop-color="#21005F"
         id="stop190" />
      <stop
         offset="1"
         stop-color="#4411A9"
         id="stop192" />
    </linearGradient>
    <linearGradient
       id="paint14_linear"
       x1="1346.5"
       y1="688.5"
       x2="975"
       y2="809.5"
       gradientUnits="userSpaceOnUse">
      <stop
         stop-color="white"
         id="stop195" />
      <stop
         offset="1"
         stop-color="white"
         stop-opacity="0"
         id="stop197" />
    </linearGradient>
    <linearGradient
       id="paint15_linear"
       x1="1894"
       y1="649"
       x2="1892"
       y2="895.5"
       gradientUnits="userSpaceOnUse"
       gradientTransform="matrix(0.96050391,0,0,0.96,0.9131875,0)">
      <stop
         stop-color="#C53CC5"
         id="stop200" />
      <stop
         offset="1"
         stop-color="#AA18DD"
         stop-opacity="0"
         id="stop202" />
    </linearGradient>
    <linearGradient
       id="paint16_linear"
       x1="1894"
       y1="649"
       x2="1892"
       y2="895.5"
       gradientUnits="userSpaceOnUse"
       gradientTransform="matrix(0.96050391,0,0,0.96,0.9131875,0)">
      <stop
         stop-color="#C53CC5"
         id="stop205" />
      <stop
         offset="1"
         stop-color="#AA18DD"
         stop-opacity="0"
         id="stop207" />
    </linearGradient>
    <linearGradient
       id="paint17_linear"
       x1="1421.5699"
       y1="856.36401"
       x2="1422.65"
       y2="913.07397"
       gradientUnits="userSpaceOnUse"
       gradientTransform="matrix(0.96050391,0,0,0.96,-1.0078125,0)">
      <stop
         stop-color="#8D13D7"
         id="stop210" />
      <stop
         offset="1"
         stop-color="#961FDB"
         stop-opacity="0"
         id="stop212" />
    </linearGradient>
    <linearGradient
       id="paint18_linear"
       x1="1386.14"
       y1="900"
       x2="1379.97"
       y2="982.95599"
       gradientUnits="userSpaceOnUse"
       gradientTransform="matrix(0.96050391,0,0,0.96,-1.0078125,0)">
      <stop
         stop-color="#8D13D7"
         id="stop215" />
      <stop
         offset="1"
         stop-color="#961FDB"
         stop-opacity="0"
         id="stop217" />
    </linearGradient>
    <linearGradient
       id="paint19_linear"
       x1="1279.08"
       y1="838"
       x2="1281.61"
       y2="876.39398"
       gradientUnits="userSpaceOnUse"
       gradientTransform="matrix(0.96050391,0,0,0.96,-1.0078125,0)">
      <stop
         stop-color="#8D13D7"
         id="stop220" />
      <stop
         offset="1"
         stop-color="#961FDB"
         stop-opacity="0"
         id="stop222" />
    </linearGradient>
    <linearGradient
       id="paint20_linear"
       x1="1922"
       y1="763.5"
       x2="1648.5"
       y2="1226"
       gradientUnits="userSpaceOnUse"
       gradientTransform="matrix(0.96050391,0,0,0.96,0.9131875,0)">
      <stop
         stop-color="#9511DE"
         id="stop225" />
      <stop
         offset="0.433705"
         stop-color="#7507E6"
         stop-opacity="0.57"
         id="stop227" />
      <stop
         offset="0.764652"
         stop-color="#8F1FD9"
         stop-opacity="0"
         id="stop229" />
    </linearGradient>
    <clipPath
       clipPathUnits="userSpaceOnUse"
       id="clipPath1037">
      <rect
         style="fill:#000000;stroke-width:1.98486;stroke-linecap:square"
         id="rect1039"
         width="1920"
         height="1080"
         x="0"
         y="0" />
    </clipPath>
  </defs>
</svg>
