<?xml version="1.0" encoding="UTF-8" standalone="no"?>
<svg
   width="1920"
   height="1080"
   viewBox="0 0 1920 1080"
   fill="none"
   version="1.1"
   id="svg233"
   sodipodi:docname="Monterey-light.svg"
   inkscape:version="1.1 (c4e8f9ed74, 2021-05-24)"
   inkscape:export-filename="/home/vince/Documents/GitHub/WhiteSur-gtk-theme/src/wallpapers/Monterey-light.png"
   inkscape:export-xdpi="96"
   inkscape:export-ydpi="96"
   xmlns:inkscape="http://www.inkscape.org/namespaces/inkscape"
   xmlns:sodipodi="http://sodipodi.sourceforge.net/DTD/sodipodi-0.dtd"
   xmlns:xlink="http://www.w3.org/1999/xlink"
   xmlns="http://www.w3.org/2000/svg"
   xmlns:svg="http://www.w3.org/2000/svg">
  <sodipodi:namedview
     id="namedview235"
     pagecolor="#ffffff"
     bordercolor="#666666"
     borderopacity="1.0"
     inkscape:pageshadow="2"
     inkscape:pageopacity="0.0"
     inkscape:pagecheckerboard="0"
     showgrid="false"
     inkscape:zoom="0.25000001"
     inkscape:cx="641.99999"
     inkscape:cy="679.99999"
     inkscape:window-width="1484"
     inkscape:window-height="974"
     inkscape:window-x="618"
     inkscape:window-y="109"
     inkscape:window-maximized="0"
     inkscape:current-layer="svg233"
     inkscape:snap-global="false">
    <inkscape:grid
       type="xygrid"
       id="grid947" />
  </sodipodi:namedview>
  <defs
     id="defs231">
    <linearGradient
       inkscape:collect="always"
       id="linearGradient662954">
      <stop
         style="stop-color:#ffffff;stop-opacity:1"
         offset="0"
         id="stop662950" />
      <stop
         style="stop-color:#000000;stop-opacity:0.92447925"
         offset="1"
         id="stop662952" />
    </linearGradient>
    <linearGradient
       inkscape:collect="always"
       id="linearGradient662433">
      <stop
         style="stop-color:#ffffff;stop-opacity:1"
         offset="0"
         id="stop662429" />
      <stop
         style="stop-color:#000000;stop-opacity:1"
         offset="1"
         id="stop662431" />
    </linearGradient>
    <linearGradient
       inkscape:collect="always"
       id="linearGradient659400">
      <stop
         style="stop-color:#000000;stop-opacity:1;"
         offset="0"
         id="stop659396" />
      <stop
         style="stop-color:#ffffff;stop-opacity:1"
         offset="0.2259887"
         id="stop659487" />
      <stop
         style="stop-color:#8b8b8b;stop-opacity:1"
         offset="0.75706214"
         id="stop659553" />
      <stop
         style="stop-color:#000000;stop-opacity:1"
         offset="1"
         id="stop659398" />
    </linearGradient>
    <linearGradient
       inkscape:collect="always"
       id="linearGradient642520">
      <stop
         style="stop-color:#d4c7db;stop-opacity:1;"
         offset="0"
         id="stop642516" />
      <stop
         style="stop-color:#d4c1d5;stop-opacity:1"
         offset="0.15368724"
         id="stop653928" />
      <stop
         style="stop-color:#cdb1d3;stop-opacity:1;"
         offset="0.39661896"
         id="stop653994" />
      <stop
         style="stop-color:#cba6cf;stop-opacity:1"
         offset="0.6184504"
         id="stop642747" />
      <stop
         style="stop-color:#caa3cd;stop-opacity:0"
         offset="1"
         id="stop642518" />
    </linearGradient>
    <linearGradient
       inkscape:collect="always"
       id="linearGradient642413">
      <stop
         style="stop-color:#d4c7db;stop-opacity:1;"
         offset="0"
         id="stop642409" />
      <stop
         style="stop-color:#c6b6d1;stop-opacity:1"
         offset="1"
         id="stop642411" />
    </linearGradient>
    <linearGradient
       inkscape:collect="always"
       id="linearGradient596637">
      <stop
         style="stop-color:#851dd6;stop-opacity:1"
         offset="0"
         id="stop596633" />
      <stop
         style="stop-color:#a72dcd;stop-opacity:1"
         offset="1"
         id="stop596635" />
    </linearGradient>
    <linearGradient
       inkscape:collect="always"
       id="linearGradient592217">
      <stop
         style="stop-color:#000000;stop-opacity:1"
         offset="0"
         id="stop592209" />
      <stop
         style="stop-color:#808080;stop-opacity:1"
         offset="0.18180405"
         id="stop592211" />
      <stop
         style="stop-color:#ffffff;stop-opacity:1"
         offset="0.75454122"
         id="stop592213" />
      <stop
         style="stop-color:#0f0f0f;stop-opacity:1"
         offset="1"
         id="stop592215" />
    </linearGradient>
    <linearGradient
       inkscape:collect="always"
       id="linearGradient591417">
      <stop
         style="stop-color:#000000;stop-opacity:1"
         offset="0"
         id="stop591413" />
      <stop
         style="stop-color:#808080;stop-opacity:1"
         offset="0.20686372"
         id="stop591631" />
      <stop
         style="stop-color:#ffffff;stop-opacity:1"
         offset="0.83984756"
         id="stop591565" />
      <stop
         style="stop-color:#0f0f0f;stop-opacity:1"
         offset="1"
         id="stop591415" />
    </linearGradient>
    <linearGradient
       inkscape:collect="always"
       id="linearGradient591048">
      <stop
         style="stop-color:#c0539e;stop-opacity:1"
         offset="0"
         id="stop591044" />
      <stop
         style="stop-color:#c55ba3;stop-opacity:0;"
         offset="1"
         id="stop591046" />
    </linearGradient>
    <linearGradient
       inkscape:collect="always"
       id="linearGradient575893">
      <stop
         style="stop-color:#b743b6;stop-opacity:1;"
         offset="0"
         id="stop575889" />
      <stop
         style="stop-color:#b743b6;stop-opacity:0;"
         offset="1"
         id="stop575891" />
    </linearGradient>
    <linearGradient
       inkscape:collect="always"
       id="linearGradient551258">
      <stop
         style="stop-color:#a930c9;stop-opacity:1"
         offset="0"
         id="stop551254" />
      <stop
         style="stop-color:#a52ccc;stop-opacity:0"
         offset="1"
         id="stop551256" />
    </linearGradient>
    <linearGradient
       inkscape:collect="always"
       id="linearGradient549803">
      <stop
         style="stop-color:#7315dd;stop-opacity:1;"
         offset="0"
         id="stop549799" />
      <stop
         style="stop-color:#7315dd;stop-opacity:0;"
         offset="1"
         id="stop549801" />
    </linearGradient>
    <linearGradient
       inkscape:collect="always"
       id="linearGradient543492">
      <stop
         style="stop-color:#7315dd;stop-opacity:1;"
         offset="0"
         id="stop543488" />
      <stop
         style="stop-color:#aa31ca;stop-opacity:0"
         offset="1"
         id="stop543490" />
    </linearGradient>
    <linearGradient
       inkscape:collect="always"
       id="linearGradient495379">
      <stop
         style="stop-color:#c48abc;stop-opacity:1"
         offset="0"
         id="stop495375" />
      <stop
         style="stop-color:#c995c3;stop-opacity:0;"
         offset="1"
         id="stop495377" />
    </linearGradient>
    <linearGradient
       inkscape:collect="always"
       id="linearGradient490363">
      <stop
         style="stop-color:#ffffff;stop-opacity:1"
         offset="0"
         id="stop490359" />
      <stop
         style="stop-color:#000000;stop-opacity:0.95572925"
         offset="1"
         id="stop490361" />
    </linearGradient>
    <linearGradient
       inkscape:collect="always"
       id="linearGradient478297">
      <stop
         style="stop-color:#cb91b9;stop-opacity:1"
         offset="0"
         id="stop478293" />
      <stop
         style="stop-color:#dcbdce;stop-opacity:1"
         offset="1"
         id="stop478295" />
    </linearGradient>
    <linearGradient
       inkscape:collect="always"
       id="linearGradient475699">
      <stop
         style="stop-color:#d4abcb;stop-opacity:1;"
         offset="0"
         id="stop475695" />
      <stop
         style="stop-color:#c76aa3;stop-opacity:0"
         offset="1"
         id="stop475697" />
    </linearGradient>
    <linearGradient
       inkscape:collect="always"
       id="linearGradient469297">
      <stop
         style="stop-color:#c971a1;stop-opacity:1;"
         offset="0"
         id="stop469293" />
      <stop
         style="stop-color:#c971a1;stop-opacity:0;"
         offset="1"
         id="stop469295" />
    </linearGradient>
    <linearGradient
       inkscape:collect="always"
       id="linearGradient440585">
      <stop
         style="stop-color:#5810d9;stop-opacity:0.5"
         offset="0"
         id="stop440581" />
      <stop
         style="stop-color:#5710da;stop-opacity:1"
         offset="1"
         id="stop440583" />
    </linearGradient>
    <linearGradient
       inkscape:collect="always"
       id="linearGradient436163">
      <stop
         style="stop-color:#000000;stop-opacity:1;"
         offset="0"
         id="stop436159" />
      <stop
         style="stop-color:#ffffff;stop-opacity:1"
         offset="0.15633421"
         id="stop436250" />
      <stop
         style="stop-color:#ffffff;stop-opacity:1"
         offset="0.7469002"
         id="stop436316" />
      <stop
         style="stop-color:#000000;stop-opacity:1"
         offset="1"
         id="stop436161" />
    </linearGradient>
    <linearGradient
       inkscape:collect="always"
       id="linearGradient435798">
      <stop
         style="stop-color:#8e1fd5;stop-opacity:1;"
         offset="0"
         id="stop435794" />
      <stop
         style="stop-color:#8e1fd5;stop-opacity:0;"
         offset="1"
         id="stop435796" />
    </linearGradient>
    <linearGradient
       inkscape:collect="always"
       id="linearGradient432663">
      <stop
         style="stop-color:#b649bb;stop-opacity:1;"
         offset="0"
         id="stop432659" />
      <stop
         style="stop-color:#b649bb;stop-opacity:0;"
         offset="1"
         id="stop432661" />
    </linearGradient>
    <linearGradient
       inkscape:collect="always"
       id="linearGradient395224">
      <stop
         style="stop-color:#c45ea0;stop-opacity:1"
         offset="0"
         id="stop395220" />
      <stop
         style="stop-color:#cbcce1;stop-opacity:1"
         offset="1"
         id="stop395222" />
    </linearGradient>
    <linearGradient
       inkscape:collect="always"
       id="linearGradient373200">
      <stop
         style="stop-color:#b23aa6;stop-opacity:1;"
         offset="0"
         id="stop373196" />
      <stop
         style="stop-color:#b23aa6;stop-opacity:0;"
         offset="1"
         id="stop373198" />
    </linearGradient>
    <linearGradient
       inkscape:collect="always"
       id="linearGradient369935">
      <stop
         style="stop-color:#000000;stop-opacity:1;"
         offset="0"
         id="stop369931" />
      <stop
         style="stop-color:#fcfcfc;stop-opacity:1"
         offset="1"
         id="stop369933" />
    </linearGradient>
    <linearGradient
       inkscape:collect="always"
       id="linearGradient369763">
      <stop
         style="stop-color:#972cb5;stop-opacity:1;"
         offset="0"
         id="stop369759" />
      <stop
         style="stop-color:#972cb5;stop-opacity:0;"
         offset="1"
         id="stop369761" />
    </linearGradient>
    <linearGradient
       inkscape:collect="always"
       id="linearGradient350650">
      <stop
         style="stop-color:#cd7892;stop-opacity:1"
         offset="0"
         id="stop350646" />
      <stop
         style="stop-color:#d0748c;stop-opacity:0.98177075"
         offset="1"
         id="stop350648" />
    </linearGradient>
    <linearGradient
       inkscape:collect="always"
       id="linearGradient306780">
      <stop
         style="stop-color:#7e1ed0;stop-opacity:0"
         offset="0"
         id="stop306776" />
      <stop
         style="stop-color:#7e1ed0;stop-opacity:1"
         offset="0.19436511"
         id="stop388860" />
      <stop
         style="stop-color:#b73ab2;stop-opacity:1"
         offset="0.67774606"
         id="stop382156" />
      <stop
         style="stop-color:#b836b4;stop-opacity:0.06770834"
         offset="1"
         id="stop306778" />
    </linearGradient>
    <linearGradient
       inkscape:collect="always"
       id="linearGradient254626">
      <stop
         style="stop-color:#7416de;stop-opacity:0.5"
         offset="0"
         id="stop254622" />
      <stop
         style="stop-color:#7416de;stop-opacity:1"
         offset="0.13404182"
         id="stop424302" />
      <stop
         style="stop-color:#7219d8;stop-opacity:0.015625"
         offset="1"
         id="stop254624" />
    </linearGradient>
    <linearGradient
       inkscape:collect="always"
       id="linearGradient242037">
      <stop
         style="stop-color:#c44f9e;stop-opacity:1"
         offset="0"
         id="stop242033" />
      <stop
         style="stop-color:#8328b1;stop-opacity:1"
         offset="1"
         id="stop242035" />
    </linearGradient>
    <linearGradient
       inkscape:collect="always"
       id="linearGradient237097">
      <stop
         style="stop-color:#29148d;stop-opacity:1"
         offset="0"
         id="stop237093" />
      <stop
         style="stop-color:#5117ac;stop-opacity:1"
         offset="1"
         id="stop237095" />
    </linearGradient>
    <linearGradient
       inkscape:collect="always"
       id="linearGradient188678">
      <stop
         style="stop-color:#7421b7;stop-opacity:1"
         offset="0"
         id="stop188674" />
      <stop
         style="stop-color:#400ec5;stop-opacity:1"
         offset="1"
         id="stop188676" />
    </linearGradient>
    <linearGradient
       inkscape:collect="always"
       id="linearGradient181205">
      <stop
         style="stop-color:#251377;stop-opacity:1;"
         offset="0"
         id="stop181201" />
      <stop
         style="stop-color:#3a1690;stop-opacity:1"
         offset="1"
         id="stop181203" />
    </linearGradient>
    <linearGradient
       inkscape:collect="always"
       xlink:href="#linearGradient181205"
       id="linearGradient181207"
       x1="417.41064"
       y1="-2033.0015"
       x2="-59.512318"
       y2="-2169.0015"
       gradientUnits="userSpaceOnUse"
       gradientTransform="translate(1.050252,-2655.3678)" />
    <linearGradient
       inkscape:collect="always"
       xlink:href="#linearGradient188678"
       id="linearGradient188680"
       x1="-70.186366"
       y1="-2388.8115"
       x2="960.19177"
       y2="-2131.4246"
       gradientUnits="userSpaceOnUse"
       gradientTransform="translate(2.050252,-2655.8678)" />
    <linearGradient
       inkscape:collect="always"
       xlink:href="#linearGradient237097"
       id="linearGradient232667"
       x1="738.21948"
       y1="-2028.51"
       x2="-9.304904"
       y2="-2417.8796"
       gradientUnits="userSpaceOnUse"
       gradientTransform="translate(8.692387,-2671.1312)" />
    <linearGradient
       inkscape:collect="always"
       xlink:href="#linearGradient242037"
       id="linearGradient242039"
       x1="491.26114"
       y1="-2787.9292"
       x2="395.49457"
       y2="-2588.4519"
       gradientUnits="userSpaceOnUse"
       gradientTransform="translate(1.050252,-2655.3678)" />
    <linearGradient
       inkscape:collect="always"
       xlink:href="#linearGradient254626"
       id="linearGradient254628"
       x1="1911.0481"
       y1="-2706.1943"
       x2="528.19092"
       y2="-2706.1943"
       gradientUnits="userSpaceOnUse"
       gradientTransform="translate(1.050252,-2655.3678)" />
    <linearGradient
       inkscape:collect="always"
       xlink:href="#linearGradient306780"
       id="linearGradient306782"
       x1="1290.8254"
       y1="-2788.6902"
       x2="315.74869"
       y2="-2788.6902"
       gradientUnits="userSpaceOnUse"
       gradientTransform="translate(1.050252,-2655.3678)" />
    <linearGradient
       inkscape:collect="always"
       xlink:href="#linearGradient350650"
       id="linearGradient350652"
       x1="346.50104"
       y1="-3075.6753"
       x2="426.94531"
       y2="-3093.6753"
       gradientUnits="userSpaceOnUse"
       gradientTransform="translate(1.050252,-2655.3678)" />
    <linearGradient
       inkscape:collect="always"
       xlink:href="#linearGradient369763"
       id="linearGradient369765"
       x1="231.52943"
       y1="-2759.802"
       x2="205.65251"
       y2="-2626.2578"
       gradientUnits="userSpaceOnUse"
       gradientTransform="translate(-913.58194)" />
    <mask
       maskUnits="userSpaceOnUse"
       id="mask370323">
      <rect
         style="opacity:1;fill:url(#linearGradient370327);fill-opacity:1;stroke:none;stroke-width:2;stroke-linecap:square;stroke-opacity:1"
         id="rect370325"
         width="738.21948"
         height="469.51889"
         x="-995.60632"
         y="-2876.5103" />
    </mask>
    <linearGradient
       inkscape:collect="always"
       xlink:href="#linearGradient369935"
       id="linearGradient370327"
       gradientUnits="userSpaceOnUse"
       gradientTransform="translate(-917.82458)"
       x1="-5.7817473"
       y1="-2641.7507"
       x2="291.23254"
       y2="-2641.7507" />
    <linearGradient
       inkscape:collect="always"
       xlink:href="#linearGradient373200"
       id="linearGradient373202"
       x1="-4.6274209"
       y1="-2961.1619"
       x2="660.49255"
       y2="-2496.7488"
       gradientUnits="userSpaceOnUse"
       gradientTransform="translate(1.050252,-2655.3678)" />
    <linearGradient
       inkscape:collect="always"
       xlink:href="#linearGradient395224"
       id="linearGradient395226"
       x1="1080.2616"
       y1="-2695.2065"
       x2="1080.2616"
       y2="-3390.9998"
       gradientUnits="userSpaceOnUse"
       gradientTransform="translate(-12.96973,-2363.9131)" />
    <linearGradient
       inkscape:collect="always"
       xlink:href="#linearGradient432663"
       id="linearGradient432665"
       x1="2843.3086"
       y1="-1190.4849"
       x2="2623.6338"
       y2="-742.17914"
       gradientUnits="userSpaceOnUse"
       gradientTransform="translate(-1008.6878,-4005.3187)" />
    <linearGradient
       inkscape:collect="always"
       xlink:href="#linearGradient435798"
       id="linearGradient435800"
       x1="2303.0791"
       y1="-917.54163"
       x2="2289.8794"
       y2="-812.18274"
       gradientUnits="userSpaceOnUse"
       gradientTransform="translate(-960.25099,-1712.6126)" />
    <mask
       maskUnits="userSpaceOnUse"
       id="mask437043">
      <rect
         style="opacity:1;fill:url(#linearGradient437047);fill-opacity:1;stroke:none;stroke-width:2;stroke-linecap:square;stroke-opacity:1"
         id="rect437045"
         width="742"
         height="522"
         x="1068"
         y="-2952" />
    </mask>
    <linearGradient
       inkscape:collect="always"
       xlink:href="#linearGradient436163"
       id="linearGradient437047"
       gradientUnits="userSpaceOnUse"
       x1="1115.3761"
       y1="-2691"
       x2="1682.7208"
       y2="-2691" />
    <linearGradient
       inkscape:collect="always"
       xlink:href="#linearGradient440585"
       id="linearGradient440587"
       x1="1589.2076"
       y1="-2384.6687"
       x2="1922.5885"
       y2="-2385.1686"
       gradientUnits="userSpaceOnUse"
       gradientTransform="translate(-20.85965,-2357.1109)" />
    <linearGradient
       inkscape:collect="always"
       xlink:href="#linearGradient469297"
       id="linearGradient469299"
       x1="1834.9421"
       y1="-3395.1731"
       x2="1834.9421"
       y2="-2606.042"
       gradientUnits="userSpaceOnUse"
       gradientTransform="translate(-33.862698,-276.4482)" />
    <linearGradient
       inkscape:collect="always"
       xlink:href="#linearGradient475699"
       id="linearGradient475701"
       x1="1629.7312"
       y1="-3409.9839"
       x2="1629.7312"
       y2="-2659.9839"
       gradientUnits="userSpaceOnUse"
       gradientTransform="translate(-36.415998,-275.7715)" />
    <linearGradient
       inkscape:collect="always"
       xlink:href="#linearGradient478297"
       id="linearGradient478299"
       x1="1085.2792"
       y1="-2936.2085"
       x2="1401.0547"
       y2="-3251.1445"
       gradientUnits="userSpaceOnUse" />
    <mask
       maskUnits="userSpaceOnUse"
       id="mask490466">
      <rect
         style="opacity:1;fill:url(#linearGradient490470);fill-opacity:1;stroke:none;stroke-width:2;stroke-linecap:square;stroke-opacity:1"
         id="rect490468"
         width="1000"
         height="744"
         x="952"
         y="-3403" />
    </mask>
    <linearGradient
       inkscape:collect="always"
       xlink:href="#linearGradient490363"
       id="linearGradient490470"
       gradientUnits="userSpaceOnUse"
       x1="1393"
       y1="-3076"
       x2="1393"
       y2="-2838" />
    <linearGradient
       inkscape:collect="always"
       xlink:href="#linearGradient495379"
       id="linearGradient495381"
       x1="983.909"
       y1="-2938.0012"
       x2="1115.2977"
       y2="-2932.7795"
       gradientUnits="userSpaceOnUse" />
    <mask
       maskUnits="userSpaceOnUse"
       id="mask495994">
      <rect
         style="opacity:1;fill:url(#linearGradient495998);fill-opacity:1;stroke:none;stroke-width:2;stroke-linecap:square;stroke-opacity:1"
         id="rect495996"
         width="871"
         height="684"
         x="918"
         y="-3419" />
    </mask>
    <linearGradient
       inkscape:collect="always"
       xlink:href="#linearGradient490363"
       id="linearGradient495998"
       gradientUnits="userSpaceOnUse"
       gradientTransform="translate(-8.9999998)"
       x1="1136"
       y1="-3035.7188"
       x2="1136"
       y2="-2745.3237" />
    <linearGradient
       inkscape:collect="always"
       xlink:href="#linearGradient543492"
       id="linearGradient543494"
       x1="1159.72"
       y1="-2592.5366"
       x2="1159.72"
       y2="-2876.6909"
       gradientUnits="userSpaceOnUse"
       gradientTransform="translate(0,-2177.8013)" />
    <linearGradient
       inkscape:collect="always"
       xlink:href="#linearGradient549803"
       id="linearGradient549805"
       x1="2435.5"
       y1="-899"
       x2="2420"
       y2="-794"
       gradientUnits="userSpaceOnUse"
       gradientTransform="translate(-1199.9999,-1422.7792)" />
    <linearGradient
       inkscape:collect="always"
       xlink:href="#linearGradient551258"
       id="linearGradient551260"
       x1="1264.4312"
       y1="-2315.9167"
       x2="1264.4312"
       y2="-2201.9167"
       gradientUnits="userSpaceOnUse"
       gradientTransform="translate(0,-2638.9224)" />
    <linearGradient
       inkscape:collect="always"
       xlink:href="#linearGradient575893"
       id="linearGradient575895"
       x1="1151.7732"
       y1="-2371.3005"
       x2="1151.7732"
       y2="-2322.1565"
       gradientUnits="userSpaceOnUse"
       gradientTransform="translate(0,-2638.9224)" />
    <filter
       inkscape:collect="always"
       style="color-interpolation-filters:sRGB"
       id="filter575996"
       x="-0.070651172"
       y="-0.22912279"
       width="1.1413023"
       height="1.4582456">
      <feGaussianBlur
         inkscape:collect="always"
         stdDeviation="13.430272"
         id="feGaussianBlur575998" />
    </filter>
    <linearGradient
       inkscape:collect="always"
       xlink:href="#linearGradient591048"
       id="linearGradient591050"
       x1="1017.3192"
       y1="-2399.8325"
       x2="1017.3192"
       y2="-2350.0232"
       gradientUnits="userSpaceOnUse"
       gradientTransform="translate(0,-2638.9224)" />
    <linearGradient
       inkscape:collect="always"
       xlink:href="#linearGradient591417"
       id="linearGradient591910"
       gradientUnits="userSpaceOnUse"
       x1="849.94232"
       y1="-4923.2305"
       x2="1591.6973"
       y2="-4923.2306"
       gradientTransform="translate(0,2638.9224)" />
    <mask
       maskUnits="userSpaceOnUse"
       id="mask592018">
      <rect
         style="opacity:1;fill:url(#linearGradient592022);fill-opacity:1;stroke:none;stroke-width:2;stroke-linecap:square;stroke-opacity:1"
         id="rect592020"
         width="694.37885"
         height="362.74576"
         x="897.31848"
         y="-2465.6812" />
    </mask>
    <linearGradient
       inkscape:collect="always"
       xlink:href="#linearGradient591417"
       id="linearGradient592022"
       gradientUnits="userSpaceOnUse"
       x1="958.94232"
       y1="-4923.2305"
       x2="1591.6973"
       y2="-4923.2306"
       gradientTransform="translate(0,2638.9224)" />
    <linearGradient
       inkscape:collect="always"
       xlink:href="#linearGradient596637"
       id="linearGradient596639"
       x1="2417.1912"
       y1="-2128.3115"
       x2="2417.1912"
       y2="-2300.8455"
       gradientUnits="userSpaceOnUse"
       gradientTransform="translate(-1172,-39.000003)" />
    <filter
       inkscape:collect="always"
       style="color-interpolation-filters:sRGB"
       id="filter605787"
       x="-0.18023316"
       y="-0.89421594"
       width="1.3604663"
       height="2.7884319">
      <feGaussianBlur
         inkscape:collect="always"
         stdDeviation="72.46875"
         id="feGaussianBlur605789" />
    </filter>
    <filter
       inkscape:collect="always"
       style="color-interpolation-filters:sRGB"
       id="filter633303"
       x="-0.072448727"
       y="-0.18034491"
       width="1.1448975"
       height="1.3606898">
      <feGaussianBlur
         inkscape:collect="always"
         stdDeviation="7.8127079"
         id="feGaussianBlur633305" />
    </filter>
    <mask
       maskUnits="userSpaceOnUse"
       id="mask633681">
      <rect
         style="opacity:1;fill:url(#linearGradient633685);fill-opacity:1;stroke:none;stroke-width:2;stroke-linecap:square;stroke-opacity:1"
         id="rect633683"
         width="592.55548"
         height="247.48737"
         x="936.20935"
         y="-5018.3369" />
    </mask>
    <linearGradient
       inkscape:collect="always"
       xlink:href="#linearGradient592217"
       id="linearGradient633685"
       gradientUnits="userSpaceOnUse"
       x1="993.10529"
       y1="-4894.5933"
       x2="1515.2648"
       y2="-4894.5933" />
    <linearGradient
       inkscape:collect="always"
       xlink:href="#linearGradient642413"
       id="linearGradient642415"
       x1="1023.4689"
       y1="-5828.8188"
       x2="912.80676"
       y2="-5439.9102"
       gradientUnits="userSpaceOnUse" />
    <linearGradient
       inkscape:collect="always"
       xlink:href="#linearGradient642520"
       id="linearGradient642522"
       x1="1185.7499"
       y1="-5764.8262"
       x2="826.53979"
       y2="-5326.4199"
       gradientUnits="userSpaceOnUse" />
    <filter
       inkscape:collect="always"
       style="color-interpolation-filters:sRGB"
       id="filter653841"
       x="-0.026894345"
       y="-0.027106486"
       width="1.0537887"
       height="1.054213">
      <feGaussianBlur
         inkscape:collect="always"
         stdDeviation="6.291516"
         id="feGaussianBlur653843" />
    </filter>
    <linearGradient
       inkscape:collect="always"
       xlink:href="#linearGradient659400"
       id="linearGradient659688"
       gradientUnits="userSpaceOnUse"
       x1="750.94739"
       y1="-5527.4534"
       x2="1251.579"
       y2="-5527.4534" />
    <filter
       inkscape:collect="always"
       style="color-interpolation-filters:sRGB"
       id="filter662379"
       x="-0.028228642"
       y="-0.025873847"
       width="1.0564573"
       height="1.0517477">
      <feGaussianBlur
         inkscape:collect="always"
         stdDeviation="5.0525443"
         id="feGaussianBlur662381" />
    </filter>
    <mask
       maskUnits="userSpaceOnUse"
       id="mask662536">
      <rect
         style="opacity:1;fill:url(#linearGradient662540);fill-opacity:1;stroke:none;stroke-width:2;stroke-linecap:square;stroke-opacity:1"
         id="rect662538"
         width="462.44781"
         height="414.36456"
         x="748.11896"
         y="-5826.5596" />
    </mask>
    <linearGradient
       inkscape:collect="always"
       xlink:href="#linearGradient662433"
       id="linearGradient662540"
       gradientUnits="userSpaceOnUse"
       x1="1018.9409"
       y1="-5811.0034"
       x2="1018.9409"
       y2="-5431.2871" />
    <mask
       maskUnits="userSpaceOnUse"
       id="mask663057">
      <rect
         style="opacity:1;fill:url(#linearGradient663061);fill-opacity:1;stroke:none;stroke-width:2;stroke-linecap:square;stroke-opacity:1"
         id="rect663059"
         width="531.74426"
         height="509.11688"
         x="738.21948"
         y="-5794.0327" />
    </mask>
    <linearGradient
       inkscape:collect="always"
       xlink:href="#linearGradient662954"
       id="linearGradient663061"
       gradientUnits="userSpaceOnUse"
       x1="991.36371"
       y1="-5768.5767"
       x2="991.36371"
       y2="-5310.3716" />
    <clipPath
       clipPathUnits="userSpaceOnUse"
       id="clipPath663366">
      <rect
         style="fill:#000000;stroke-width:1.95814;stroke-linecap:square"
         id="rect663368"
         width="1920"
         height="1080"
         x="-44.279984"
         y="-5794.2812" />
    </clipPath>
  </defs>
  <g
     id="g663364"
     clip-path="url(#clipPath663366)"
     transform="translate(44.279984,5794.2812)">
    <rect
       style="fill:url(#linearGradient395226);fill-opacity:1;stroke-width:1.95814;stroke-linecap:square"
       id="rect389169"
       width="1920"
       height="1080"
       x="-44.279984"
       y="-5794.2812" />
    <path
       style="fill:url(#linearGradient642415);fill-opacity:1;stroke:none;stroke-width:1px;stroke-linecap:butt;stroke-linejoin:miter;stroke-opacity:1;filter:url(#filter662379)"
       d="m 782.34555,-5536.3554 c 0,0 42.7799,-86.9742 65.0538,-111.3693 22.2739,-24.3952 89.8026,-80.9638 96.8736,-95.4595 7.0711,-14.4956 19.799,-54.0936 28.6379,-76.0139 8.8388,-21.9203 21.5667,-41.7193 21.5667,-41.7193 l 72.47855,-14.1422 c 0,0 13.7885,16.617 23.688,31.4663 9.8995,14.8492 35.3554,37.4766 43.4871,49.4975 8.1317,12.0208 41.7193,59.7505 41.7193,59.7505 l -7.4246,130.8147 c 0,0 -87.6813,116.6726 -103.5912,127.2792 -15.9099,10.6066 -176.42315,63.2861 -181.37285,63.9932 -4.9498,0.7071 -73.1856,7.0711 -83.4386,5.6569 -10.2531,-1.4142 -53.7402,-10.9602 -53.7402,-10.9602 l 7.7782,-73.5391 z"
       id="path634007"
       mask="url(#mask662536)"
       transform="translate(0,2)" />
    <path
       style="fill:url(#linearGradient642522);fill-opacity:1;stroke:none;stroke-width:1px;stroke-linecap:butt;stroke-linejoin:miter;stroke-opacity:1;filter:url(#filter653841)"
       d="m 797.54835,-5455.7453 c 0,0 36.0624,-75.6604 66.468,-108.8944 30.4056,-33.234 64.3467,-67.8822 86.267,-94.7523 21.9204,-26.8701 41.7193,-49.3207 74.77665,-63.6396 36.039,-15.6105 75.8372,-22.6274 75.8372,-22.6274 0,0 83.4386,-21.9203 118.0868,-21.9203 34.6482,0 109.6016,45.2548 109.6016,45.2548 l -4.9498,284.964 c 0,0 -21.2132,105.3589 -46.669,126.5721 -25.4559,21.2132 -71.4178,73.5391 -125.1579,84.1457 -53.7401,10.6066 -168.99855,21.9203 -218.49605,12.728 -49.4975,-9.1924 -123.0366,-28.9914 -128.6935,-36.7696 -5.6568,-7.7782 -37.4766,-113.8442 -37.4766,-121.6224 0,-7.7781 30.4056,-83.4386 30.4056,-83.4386 z"
       id="path633751"
       sodipodi:nodetypes="cssscsccsssssc"
       mask="url(#mask663057)" />
    <g
       id="g549914"
       transform="translate(0,-2177.8013)">
      <path
         style="fill:url(#linearGradient495381);fill-opacity:1;stroke:none;stroke-width:1px;stroke-linecap:butt;stroke-linejoin:miter;stroke-opacity:1"
         d="m 1145.9264,-3190.1446 c 0,0 -49.75,76.25 -64.5,94 -14.75,17.75 -34.25,37.25 -45.75,59.75 -11.5,22.5 -30.5,54 -39.99998,80.75 -9.5,26.75 -12.5,39.5 -17.5,49.75 -5,10.25 -12,15 -16.25,29.75 -4.25,14.75 -12.25,40.75 -12.75,52.75 -0.5,12 -23.25,92.75 -23.25,92.75 l 1009.49998,10.5 1.5,-703 -510.5,53.5 -205.5,139.5 z"
         id="path459722"
         mask="url(#mask495994)"
         transform="translate(-44.194173,-257.0842)" />
      <path
         style="fill:url(#linearGradient478299);fill-opacity:1;stroke:none;stroke-width:1px;stroke-linecap:butt;stroke-linejoin:miter;stroke-opacity:1"
         d="m 1365.4232,-3376.4349 c 0,0 -0.442,18.2964 -13.1699,24.6604 -12.7279,6.3639 -43.4909,2.6396 -63.0209,5.8337 -18.9151,3.0935 -34.5734,22.4059 -49.3207,35.2669 -10.7482,9.3734 -19.0035,24.7487 -19.0035,24.7487 0,0 -11.1022,6.4749 -19.2954,16.1385 -13.3201,15.7107 -24.4568,25.2272 -29.4066,34.0661 -4.9497,8.8388 -7.2036,13.8327 -7.2036,13.8327 0,0 -18.9896,17.7458 -35.3995,45.5643 -18.3108,31.041 -49.4975,158.3919 -62.579,206.4751 -13.0815,48.0833 -21.9914,69.8975 -36.0625,129.4006 -2.8662,12.1206 -52.53518,106.3033 -52.53518,106.3033 l 945.99998,20 11,-710 -570,10 z"
         id="path459123"
         sodipodi:nodetypes="cssscsscsssccccc"
         mask="url(#mask490466)"
         transform="translate(-42.779959,-260.0583)" />
      <path
         style="fill:url(#linearGradient475701);fill-opacity:1;stroke:none;stroke-width:1px;stroke-linecap:butt;stroke-linejoin:miter;stroke-opacity:1"
         d="m 1484.5707,-3756.1511 c 0,0 -59.397,149.9067 -62.2254,159.0991 -2.8285,9.1924 -41.7193,91.2167 -63.6397,130.8147 -21.9203,39.598 -29.6984,48.0833 -47.3761,97.5808 -17.6777,49.4974 -52.9208,157.4275 -74.9533,199.4041 -23.8413,45.4226 -84.4993,144.2497 -112.7836,190.2116 -28.2842,45.962 -92.2774,87.6813 -92.2774,87.6813 l 864.0845,-31.8198 -2.1213,-800.4448 z"
         id="path459055"
         sodipodi:nodetypes="cssssscccc" />
      <path
         style="fill:url(#linearGradient469299);fill-opacity:1;stroke:none;stroke-width:1px;stroke-linecap:butt;stroke-linejoin:miter;stroke-opacity:1"
         d="m 1724.8821,-3682.0876 c 0,0 -58.7041,27.4986 -121.1247,139.3098 -69.1998,123.9544 -122.3614,318.1723 -190.5941,431.9956 -60.2463,100.5007 -67.4607,136.7216 -114.8369,181.2694 -63.8712,60.058 -122.3294,87.6813 -122.3294,87.6813 h 732.5626 l 6.3639,-844.9927 z"
         id="path458737"
         sodipodi:nodetypes="cssscccc" />
    </g>
    <rect
       style="fill:url(#linearGradient543494);fill-opacity:1;stroke-width:1.37705;stroke-linecap:square"
       id="rect525673"
       width="1920"
       height="534.11359"
       x="-44.279984"
       y="-5248.395" />
    <path
       style="mix-blend-mode:normal;fill:url(#linearGradient591050);fill-opacity:1;stroke:none;stroke-width:1px;stroke-linecap:butt;stroke-linejoin:miter;stroke-opacity:1;filter:url(#filter633303)"
       d="m 933.02738,-5031.7717 c 53.03301,-14.1421 49.85103,-16.9706 89.09542,-14.1421 39.2445,2.8284 49.8511,-1.7678 90.1561,12.3743 40.3051,14.1422 63.9932,19.0919 63.6396,22.2739 -0.3535,3.182 -22.6274,32.5269 -30.4055,36.0624 -7.7782,3.5356 -22.2739,32.1734 -62.2254,32.1734 -39.9516,0 -88.74193,1.4142 -113.84422,-6.364 -25.10229,-7.7781 -51.97235,-23.688 -52.3259,-33.234 -0.35356,-9.5459 15.9099,-49.1439 15.9099,-49.1439 z"
       id="path551076"
       sodipodi:nodetypes="csssssssc"
       transform="matrix(1.3417058,0,0,0.95286147,-357.60098,-235.45294)" />
    <path
       style="fill:url(#linearGradient575895);fill-opacity:1;stroke:none;stroke-width:1px;stroke-linecap:butt;stroke-linejoin:miter;stroke-opacity:1;filter:url(#filter575996)"
       d="m 948.23018,-5007.023 c 0,0 72.12492,1.0607 100.40912,0.3536 28.2843,-0.7071 24.0417,-6.0104 63.6396,-6.0104 39.598,0 120.9153,3.5355 152.3816,7.071 31.4662,3.5356 113.8441,7.0711 124.4507,19.4455 10.6066,12.3744 9.8995,78.1353 7.0711,78.8424 -2.8284,0.7071 -82.7315,31.4662 -125.1579,31.8198 -42.4264,0.3535 -208.2429,8.1317 -234.7594,-0.7071 -26.5165,-8.8388 -93.33813,-35.7089 -94.39879,-47.0226 -1.06066,-11.3137 6.36397,-83.7922 6.36397,-83.7922 z"
       id="path551074" />
    <path
       style="opacity:0.75;fill:url(#linearGradient551260);fill-opacity:1;stroke:none;stroke-width:1px;stroke-linecap:butt;stroke-linejoin:miter;stroke-opacity:1"
       d="m 986.76749,-4972.7283 c 0,0 39.55381,4.2868 49.09971,4.2868 9.5459,0 19.1361,-1.8119 28.682,-0.7513 9.546,1.0607 16.008,5.0105 31.2108,7.8389 15.2028,2.8284 47.5189,-3.0159 69.7928,-3.0159 22.2738,0 73.475,4.1042 111.7472,2.9552 20.4969,-0.6154 101.5582,6.7175 123.8321,10.9602 22.2738,4.2426 81.3172,20.1525 105.7124,31.1127 24.3952,10.9601 31.1127,77.4282 31.1127,77.4282 l -259.5082,83.7921 c 0,0 -216.0211,-23.6881 -236.8807,-35.3553 -20.8597,-11.6673 -113.13711,-70.7107 -113.13711,-76.7211 0,-6.0104 13.78858,-82.3779 13.78858,-82.3779 l 25.45584,-22.981 z"
       id="path550539"
       sodipodi:nodetypes="csssssssccssccc"
       mask="url(#mask633681)" />
    <path
       style="opacity:0.5;fill:url(#linearGradient549805);fill-opacity:1;stroke:none;stroke-width:1px;stroke-linecap:butt;stroke-linejoin:miter;stroke-opacity:1"
       d="m 933.25961,-2403.3178 c 0,0 33.55257,54.1216 96.07709,90.3543 49.5539,28.7163 52.1492,31.756 139.5967,41.5085 43.9611,4.9027 145.8104,-5.1139 205.2074,-5.8211 59.397,-0.7071 77.0746,0.3536 136.118,15.9099 59.0435,15.5564 92.8626,44.6426 92.8626,44.6426 l 7.8787,149.9445 h -500.5 l -172.50006,-136 -26.8085,-223.8233 z"
       id="path549651"
       sodipodi:nodetypes="csssscccccc"
       mask="url(#mask592018)"
       transform="translate(0,-2638.9224)" />
    <path
       style="fill:#b332c2;fill-opacity:1;stroke:none;stroke-width:1px;stroke-linecap:butt;stroke-linejoin:miter;stroke-opacity:1"
       d="m 353.15819,-5686.5334 c 0,0 57.6292,55.5079 79.54951,67.1751 21.92031,11.6673 117.61998,42.5611 155.20994,62.9325 54.80078,29.6986 105.3589,90.5097 152.73506,160.5133 47.37615,70.0035 123.39013,216.1979 130.4612,231.0471 7.07107,14.8493 48.97973,106.9535 68.21576,130.1537 21.84772,26.3502 98.83834,133.9507 134.01694,162.0582 17.0856,13.6514 24.9255,19.4454 37.6534,24.3952 12.7279,4.9497 19.799,6.1872 19.799,6.1872 l -107.657,-1.4142 -115.6121,-11.4905 -65.40738,7.2478 -463.86204,5.8337 -94.75231,1.4142 1.41422,-544.4723 16.97056,-277.8929 14.84924,-48.7904 z"
       id="path338197"
       sodipodi:nodetypes="cssssssscccccccccc" />
    <path
       style="fill:url(#linearGradient350652);fill-opacity:1;stroke:none;stroke-width:1px;stroke-linecap:butt;stroke-linejoin:miter;stroke-opacity:1"
       d="m 400.22736,-5826.2513 c 0,0 24.70217,55.5722 34.24811,73.2499 9.54594,17.6776 13.72792,32.6519 18.67767,40.0765 4.94974,7.4246 20.2132,35.9374 27.99138,53.6151 7.77817,17.6777 49.85102,137.1787 49.85102,137.1787 l -391.38359,-34.6482 -1.06066,-271.1755 z"
       id="path160656"
       sodipodi:nodetypes="cssscccc" />
    <path
       id="path156719"
       style="fill:url(#linearGradient242039);fill-opacity:1;stroke:none;stroke-width:1px;stroke-linecap:butt;stroke-linejoin:miter;stroke-opacity:1"
       d="m -53.074748,-5807.0943 0.707031,933.3809 582.814447,2.041 3.37696,184.6348 609.52541,-1.4141 770.041,-9.1933 14.9629,-337.2539 c 0,0 -55.8126,109.5576 -183.0918,190.875 -127.2792,81.3173 -346.8227,62.4095 -469.8593,67.3593 -123.0366,4.9497 -166.2981,-34.2202 -191.4493,-62.4004 -34.9284,-39.1349 -140.94973,-161.7469 -172.53321,-202.9414 -25.08444,-32.7177 -47.63741,-73.6834 -70.29687,-115.3203 l -112.16797,-250.5098 c 0,1e-4 -22.81319,-46.2195 -36,-73.75 -14.25,-29.75 -29.28161,-50.8313 -40.16016,-60.6093 -15.03966,-13.5182 -42.33984,-21.0157 -72.71484,-44.6407 -13.67554,-10.6364 -35.78839,-37.6873 -53,-51.125 -10.52004,-8.2134 -35.625,-21.625 -52,-28.625 -16.375,-7 -53.625,-31 -64,-38.375 -10.375,-7.375 -26.75,-28.5 -48.875,-49.75 -22.125,-21.25 -55.875,-39.125 -55.875,-39.125 z" />
    <path
       style="fill:url(#linearGradient306782);fill-opacity:1;stroke:none;stroke-width:1px;stroke-linecap:butt;stroke-linejoin:miter;stroke-opacity:1"
       d="m 353.15819,-5686.5334 c 0,0 57.6292,55.5079 79.54951,67.1751 21.92031,11.6673 117.61998,42.5611 155.20994,62.9325 54.80078,29.6986 105.3589,90.5097 152.73506,160.5133 47.37615,70.0035 123.39013,216.1979 130.4612,231.0471 7.07107,14.8493 48.97973,106.9535 68.21576,130.1537 21.84772,26.3502 98.83834,133.9507 134.01694,162.0582 17.0856,13.6514 24.8201,18.5502 38.2784,23.8952 124.1781,49.3177 348.674,7.1872 348.674,7.1872 l -130.157,191.0858 -286.6121,-21.4905 -249.90738,-103.2522 -415.36204,-66.6663 -94.75231,1.4142 1.41422,-544.4723 16.97056,-277.8929 14.84924,-48.7904 z"
       id="path157574"
       sodipodi:nodetypes="cssssssscccccccccc" />
    <path
       style="fill:url(#linearGradient432665);fill-opacity:1;stroke:none;stroke-width:1px;stroke-linecap:butt;stroke-linejoin:miter;stroke-opacity:1"
       d="m 1881.8033,-5232.6004 c 0,0 -87,95.5 -134,172 -47,76.5 -85,129.5 -115,160.5 -30,31 -47,56.5 -114,53 -67,-3.5 -84.625,-8.6875 -110.125,-19.1875 -25.5,-10.5 -27.6875,-13.1875 -43.875,-15.8125 -14.9376,-2.4223 -18.4647,-2.3752 -32.4375,-4.5 -10.7317,-1.632 -33.8079,-11.7273 -52.0625,-12.5 -19.367,-0.8198 -63.8955,4.391 -98.8125,9.5 -13.0752,1.9131 -45.125,2.4375 -68.1875,1.5 -19.2195,-0.7813 -27.5,-7.5 -40.5,-13 -13,-5.5 -16,26.5 -16,26.5 l 39.5,73.5 120,65.5 300.5,15 372.5,-14.5 z"
       id="path425245"
       sodipodi:nodetypes="csssssssssscccccc" />
    <path
       style="fill:url(#linearGradient254628);fill-opacity:1;stroke:none;stroke-width:1px;stroke-linecap:butt;stroke-linejoin:miter;stroke-opacity:1"
       d="m 520.41711,-5420.0859 c 0,0 142.01783,24.5009 207.83305,90.5097 73.05185,73.2667 120.09902,205.3084 183.16882,287.5706 31.58348,41.1945 137.60582,163.8048 172.53422,202.9397 25.1512,28.1802 68.4125,67.3519 191.4491,62.4022 123.0366,-4.9498 342.5807,13.958 469.8599,-67.3593 127.2792,-81.3173 183.0917,-190.876 183.0917,-190.876 l -14.9645,337.2544 -770.0393,9.1924 -609.52613,1.4142 z"
       id="path158254"
       sodipodi:nodetypes="csssssccccc" />
    <path
       style="fill:url(#linearGradient373202);fill-opacity:1;stroke:none;stroke-width:1px;stroke-linecap:butt;stroke-linejoin:miter;stroke-opacity:1"
       d="m -73.580735,-5845.2789 c 0,0 100.838289,39.3492 173.241158,119.5011 73.339347,81.1886 78.915617,122.6561 154.192157,163.5843 54.39947,29.5773 101.76786,22.3184 162.25588,74.0464 30.57455,26.1467 39.04988,78.9763 104.63403,113.9781 49.15169,26.2319 112.78353,71.241 112.78353,71.241 l 4.24264,257.3869 -733.269705,-52.326 z"
       id="path159019"
       sodipodi:nodetypes="csssscccc" />
    <path
       style="fill:url(#linearGradient369765);fill-opacity:1;stroke:none;stroke-width:1px;stroke-linecap:butt;stroke-linejoin:miter;stroke-opacity:1"
       d="m -976.5525,-2847.094 c 0,0 143.58657,-13.2517 195.99999,-0.5 82.41878,20.0517 90.2943,56.9219 138.94974,82.3536 30.67591,16.0339 79.79767,15.4359 124.13604,39.3535 61.96904,33.4281 97.85355,115.8327 149.41421,154.7929 23.03492,17.4056 55.58251,18.126 90.46369,22.6167 33.03958,4.2536 6.91131,102.0082 6.91131,102.0082 l -719.37498,-30.1249 z"
       id="path159438"
       sodipodi:nodetypes="csssssccc"
       mask="url(#mask370323)"
       transform="translate(913.90427,-2655.3678)" />
    <rect
       style="fill:url(#linearGradient596639);fill-opacity:1;stroke:none;stroke-width:1.93867;stroke-linecap:square;stroke-opacity:1;filter:url(#filter605787)"
       id="rect596533"
       width="965"
       height="194.5"
       x="772.84387"
       y="-2348"
       transform="matrix(1.1946273,0,0,0.91678831,-244.32416,-2779.2886)" />
    <path
       style="fill:url(#linearGradient188680);fill-opacity:1;stroke:none;stroke-width:1px;stroke-linecap:butt;stroke-linejoin:miter;stroke-opacity:1"
       d="m -60.206366,-5411.2618 c 0,0 138.510469,98.4707 251.022886,156.9778 84.92796,44.1629 283.18379,45.1562 378.30213,88.2115 163.61952,74.0621 171.44968,180.2508 246.95183,233.5346 127.01742,89.6395 344.18432,246.6035 344.18432,246.6035 l -1227.885788,8.2959 z"
       id="path159857"
       sodipodi:nodetypes="csssccc" />
    <path
       style="fill:url(#linearGradient232667);fill-opacity:1;stroke:none;stroke-width:1px;stroke-linecap:butt;stroke-linejoin:miter;stroke-opacity:1"
       d="m -60.604076,-5159.0046 c 0,0 129.344829,41.7486 230.870366,85.9135 120.51783,52.4269 262.69016,126.9257 355.32115,196.9293 92.63098,70.0035 212.13203,156.2706 284.96402,187.3833 72.832,31.1127 -162.63455,26.87 -162.63455,26.87 l -700.035705,-11.3137 z"
       id="path232334"
       sodipodi:nodetypes="csssccc" />
    <path
       style="fill:url(#linearGradient181207);fill-opacity:1;stroke:none;stroke-width:1px;stroke-linecap:butt;stroke-linejoin:miter;stroke-opacity:1"
       d="m -67.539104,-4849.52 c 0,0 108.597237,21.8272 156.270597,37.8302 32.012127,10.7459 134.201817,42.5687 147.953207,46.3137 18.70647,5.0943 75.44595,20.6917 97.05928,30.0538 18.49507,8.0114 118.79394,50.2046 118.79394,50.2046 l -514.066617,9.8995 z"
       id="path161050"
       sodipodi:nodetypes="csssccc" />
    <path
       style="fill:url(#linearGradient440587);fill-opacity:1;stroke:none;stroke-width:1px;stroke-linecap:butt;stroke-linejoin:miter;stroke-opacity:1"
       d="m 1898.9152,-4793.8681 c 0,0 -37.4565,0.685 -67.0042,6.0515 -36.4849,6.6263 -228.2275,77.1497 -228.2275,77.1497 l -40.8355,18.3847 338.8809,1.591 z"
       id="path411164"
       sodipodi:nodetypes="cscccc" />
    <path
       style="fill:url(#linearGradient435800);fill-opacity:1;stroke:none;stroke-width:1px;stroke-linecap:butt;stroke-linejoin:miter;stroke-opacity:1"
       d="m 1930.2401,-2939.8943 c 0,0 -87,95.5 -134,172 -47,76.5 -85,129.5 -115,160.5 -30,31 -47,56.5 -114,53 -67,-3.5 -84.625,-8.6875 -110.125,-19.1875 -25.5,-10.5 -27.6875,-13.1875 -43.875,-15.8125 -14.9376,-2.4223 -18.4647,-2.3752 -32.4375,-4.5 -10.7317,-1.632 -33.8079,-11.7273 -52.0625,-12.5 -19.367,-0.8198 -63.8955,4.391 -98.8125,9.5 -13.0752,1.9131 -45.125,2.4375 -68.1875,1.5 -19.2195,-0.7813 -27.5,-7.5 -40.5,-13 -13,-5.5 -32.2635,-22.2904 -32.2635,-22.2904 l -0.805,108.8553 176.5685,78.9351 300.5,15 372.5,-14.5 z"
       id="path424610"
       sodipodi:nodetypes="csssssssssscccccc"
       mask="url(#mask437043)"
       transform="translate(-59.096717,-2286.2663)" />
  </g>
</svg>
