<?xml version="1.0" encoding="UTF-8" standalone="no"?>
<svg
   width="1920"
   height="1080"
   viewBox="0 0 1920 1080"
   fill="none"
   version="1.1"
   id="svg282"
   sodipodi:docname="WhiteSur-dark.svg"
   inkscape:version="1.1 (c4e8f9ed74, 2021-05-24)"
   inkscape:export-filename="/home/vince/Documents/GitHub/WhiteSur-gtk-theme/wallpapers/WhiteSur-dark.png"
   inkscape:export-xdpi="96"
   inkscape:export-ydpi="96"
   xmlns:inkscape="http://www.inkscape.org/namespaces/inkscape"
   xmlns:sodipodi="http://sodipodi.sourceforge.net/DTD/sodipodi-0.dtd"
   xmlns="http://www.w3.org/2000/svg"
   xmlns:svg="http://www.w3.org/2000/svg">
  <sodipodi:namedview
     id="namedview284"
     pagecolor="#ffffff"
     bordercolor="#666666"
     borderopacity="1.0"
     inkscape:pageshadow="2"
     inkscape:pageopacity="0.0"
     inkscape:pagecheckerboard="0"
     showgrid="false"
     inkscape:zoom="0.10169985"
     inkscape:cx="-2040.3177"
     inkscape:cy="-368.73211"
     inkscape:window-width="1920"
     inkscape:window-height="942"
     inkscape:window-x="0"
     inkscape:window-y="28"
     inkscape:window-maximized="1"
     inkscape:current-layer="svg282" />
  <rect
     width="928"
     height="498"
     fill="#ffffff"
     id="rect2"
     x="0"
     y="0" />
  <mask
     id="mask0"
     mask-type="alpha"
     maskUnits="userSpaceOnUse"
     x="0"
     y="0"
     width="928"
     height="498">
    <rect
       width="928"
       height="498"
       fill="#ffffff"
       id="rect4"
       x="0"
       y="0" />
  </mask>
  <g
     mask="url(#mask0)"
     id="g71"
     transform="matrix(2.0689655,0,0,2.1686747,8e-6,-2.999999e-7)"
     inkscape:export-filename="/home/vince/Documents/GitHub/WhiteSur-gtk-theme/src/wallpapers/g71.png"
     inkscape:export-xdpi="96"
     inkscape:export-ydpi="96">
    <path
       fill-rule="evenodd"
       clip-rule="evenodd"
       d="M 572.989,0 H 949.351 V 153.296 H 572.989 Z"
       fill="url(#paint0_linear)"
       id="path7"
       style="fill:url(#paint0_linear)" />
    <path
       fill-rule="evenodd"
       clip-rule="evenodd"
       d="m 936.131,79.8553 c 0,0 -30.23,-8.9 -57.293,-8.9 -27.062,0 -82.361,-3.845 -107.344,-11.6762 C 746.511,51.4479 708.316,34.8384 684.173,24.8001 660.03,14.7619 629.107,0.41004 582.943,-8.06449 536.778,-16.539 175.251,-25.25 175.251,-25.25 l 121.247,174.061 350.964,157.382 311.473,55.219 z"
       fill="url(#paint1_linear)"
       id="path9"
       style="fill:url(#paint1_linear)" />
    <path
       fill-rule="evenodd"
       clip-rule="evenodd"
       d="m 937.244,159.935 c 0,0 -25.512,-16.385 -60.074,-25.583 C 842.607,125.154 804.788,117.769 766.488,98.763 728.189,79.7574 678.765,66.5475 651.909,63.1696 625.053,59.7916 598.069,58.1255 577.378,51.4912 556.688,44.857 524.287,27.5762 495.619,22.5755 466.951,17.5749 441.777,19.7407 420.53,15.3439 399.284,10.9471 328.205,-11.3473 328.205,-11.3473 l -145.17,-8.8978 33.926,96.2053 238.058,137.3618 345.954,139.028 181.877,15.571 z"
       fill="url(#paint2_linear)"
       id="path11"
       style="fill:url(#paint2_linear)" />
    <path
       fill-rule="evenodd"
       clip-rule="evenodd"
       d="m 937.244,159.935 c 0,0 -25.512,-16.385 -60.074,-25.583 C 842.607,125.154 804.788,117.769 766.488,98.763 728.189,79.7574 678.765,66.5475 651.909,63.1696 625.053,59.7916 598.069,58.1255 577.378,51.4912 556.688,44.857 524.287,27.5762 495.619,22.5755 466.951,17.5749 441.777,19.7407 420.53,15.3439 399.284,10.9471 328.205,-11.3473 328.205,-11.3473 l -145.17,-8.8978 33.926,96.2053 238.058,137.3618 345.954,139.028 181.877,15.571 z"
       fill="url(#paint3_linear)"
       id="path13"
       style="fill:url(#paint3_linear)" />
    <g
       filter="url(#filter0_i)"
       id="g17">
      <path
         fill-rule="evenodd"
         clip-rule="evenodd"
         d="m 353.086,60.4397 c 0,0 18.043,4.2753 37.453,9.8205 19.409,5.5451 49.03,11.1215 76.227,12.7905 27.198,1.6689 52.527,0.0382 77.008,-1.8332 24.48,-1.8715 43.101,0 63.706,5.9889 12.17,3.5372 18.177,8.82 26.78,12.1767 6.509,2.5399 15.164,4.0719 22.09,5.3129 16.081,2.882 32.351,8.197 51.523,17.769 19.172,9.572 40.933,17.175 60.506,20.471 19.573,3.297 52.597,4.989 85.258,9.166 32.661,4.177 54.37,11.759 66.923,16.805 12.553,5.046 26.281,13.749 26.281,13.749 L 965.127,361.411 714.388,329.854 262.006,41.4619 Z"
         fill="url(#paint4_linear)"
         id="path15"
         style="fill:url(#paint4_linear)" />
    </g>
    <g
       filter="url(#filter1_f)"
       id="g21">
      <path
         fill-rule="evenodd"
         clip-rule="evenodd"
         d="m 935.121,249 c 0,0 -40.762,-15.463 -69.065,-27.15 -28.304,-11.688 -86.151,-32.38 -140.193,-40.196 -54.042,-7.816 -123.599,-24.076 -158.77,-32.982 -35.17,-8.905 -190.68,-49.4718 -190.68,-49.4718 l -14.428,49.4718 285.477,157.52 302.185,71.292 z"
         fill="url(#paint5_linear)"
         id="path19"
         style="fill:url(#paint5_linear)" />
    </g>
    <g
       filter="url(#filter2_f)"
       id="g25">
      <path
         fill-rule="evenodd"
         clip-rule="evenodd"
         d="m 502.059,122.264 112.365,40.115 c 0,0 -83.6,-17.507 -95.178,-17.707 -5.237,-0.09 -105.663,-28.281 -109.068,-35.124 -1.614,-3.244 91.881,12.716 91.881,12.716 z"
         fill="#8f46b2"
         id="path23" />
    </g>
    <g
       filter="url(#filter3_f)"
       id="g29">
      <path
         fill-rule="evenodd"
         clip-rule="evenodd"
         d="m 363.214,76.6484 c 0,0 118.581,4.8754 164.297,41.2406 45.716,36.365 148.615,83.549 148.615,83.549 0,0 -161.481,-27.599 -209.934,-27.599 -48.453,0 -108.791,-48.595 -108.791,-48.595 z"
         fill="url(#paint6_linear)"
         id="path27"
         style="fill:url(#paint6_linear)" />
    </g>
    <g
       filter="url(#filter4_f)"
       id="g33">
      <path
         fill-rule="evenodd"
         clip-rule="evenodd"
         d="m 378.828,264.737 c 0,0 -43.207,-4.318 -49.51,-7.355 -53.476,-9.347 -45.297,-8.141 -145.72,-31.54 C 83.1738,202.444 5.01636,126.58 -14.6342,126.58 c -19.6506,0 10e-5,32.431 10e-5,32.431 0,0 31.1477,62.367 155.0461,98.371 123.899,36.004 238.416,7.355 238.416,7.355 z"
         fill="url(#paint7_linear)"
         fill-opacity="0.9"
         id="path31"
         style="fill:url(#paint7_linear)" />
    </g>
    <path
       fill-rule="evenodd"
       clip-rule="evenodd"
       d="m 254.221,-7.02858e-4 c 0,0 40.601,17.387502858 77.553,42.468702858 36.952,25.0813 48.118,39.3356 65.367,51.4117 17.248,12.0763 58.095,22.7263 83.66,31.3673 25.565,8.642 48.826,25.487 63.613,40.081 14.788,14.595 43.774,25.17 70.589,32.239 26.814,7.07 49.841,15.798 70.627,32.305 20.785,16.508 43.522,23.288 67.264,27.554 23.742,4.266 33.226,6.151 52.545,28.319 19.318,22.167 32.63,20.943 70.5,18.743 37.871,-2.199 68.479,6.352 68.479,6.352 l 5.229,208.246 -957.7427,-4.36 V -8.06543 H 240.547 Z"
       fill="url(#paint8_linear)"
       id="path35"
       style="fill:url(#paint8_linear)" />
    <g
       filter="url(#filter5_f)"
       id="g39">
      <path
         fill-rule="evenodd"
         clip-rule="evenodd"
         d="m 265.143,259.674 c 0,0 157.876,6.06 208.326,29.429 84.326,39.06 119.047,44.74 160.799,51.943 118.036,20.366 309.087,-7.497 309.087,-7.497 l -10.409,126.882 c 0,0 -302.035,-42.261 -401.963,-92.51 -99.927,-50.248 -265.84,-108.247 -265.84,-108.247 z"
         fill="url(#paint9_linear)"
         id="path37"
         style="fill:url(#paint9_linear)" />
    </g>
    <g
       filter="url(#filter6_f)"
       id="g43">
      <path
         d="M 153.38,210.465 C 90.7493,183.4 18.1346,114.52 0.241249,89.1914 L -7.4187,216.496 c 38.541,25.308 121.2907,30.064 170.5097,36.846 54.705,7.538 152.897,6.352 193.368,7.538 -48.654,-9.347 -140.448,-23.35 -203.079,-50.415 z"
         fill="url(#paint10_linear)"
         id="path41"
         style="fill:url(#paint10_linear)" />
    </g>
    <g
       filter="url(#filter7_f)"
       id="g47">
      <path
         fill-rule="evenodd"
         clip-rule="evenodd"
         d="M 6.55651e-6,115.134 -0.975952,497.277 927.397,498.079 927.145,386.05 c 0,0 -64.164,11.49 -145.468,11.49 -81.304,0 -169.605,-13.258 -258.812,-72.308 C 433.657,266.183 380.933,266.35 295.722,249.182 202.737,237.603 167.916,223.85 123.102,201.782 69.4028,175.338 6.55651e-6,115.134 6.55651e-6,115.134 Z"
         fill="url(#paint11_linear)"
         id="path45"
         style="fill:url(#paint11_linear)" />
    </g>
    <g
       filter="url(#filter8_f)"
       id="g51">
      <path
         fill-rule="evenodd"
         clip-rule="evenodd"
         d="m 619.612,372.866 c 0,0 77.681,19.195 125.679,19.195 47.998,0 181.744,-7.469 181.744,-7.469 v 97.246 c 0,0 -139.809,-16.314 -211.945,-46.556 -71.408,-15.727 -95.478,-62.416 -95.478,-62.416 z"
         fill="url(#paint12_linear)"
         id="path49"
         style="fill:url(#paint12_linear)" />
    </g>
    <path
       fill-rule="evenodd"
       clip-rule="evenodd"
       d="M -0.965027,153.41 -0.975952,497.052 H 926.432 c 0,0 -505.975,-119.123 -599.165,-153.253 C 234.077,309.67 138.181,270.789 95.1764,238.342 52.1721,205.896 -0.965027,153.41 -0.965027,153.41 Z"
       fill="url(#paint13_linear)"
       id="path53"
       style="fill:url(#paint13_linear)" />
    <g
       filter="url(#filter9_f)"
       id="g57">
      <path
         fill-rule="evenodd"
         clip-rule="evenodd"
         d="M -3.69549e-6,298.875 -0.603149,498.241 932.524,557.159 V 403.656 c 0,0 -202.422,11.484 -489.333,-26.171 C 156.281,339.83 -3.69549e-6,298.875 -3.69549e-6,298.875 Z"
         fill="url(#paint14_linear)"
         id="path55"
         style="fill:url(#paint14_linear)" />
    </g>
    <g
       filter="url(#filter10_bf)"
       id="g61">
      <path
         fill-rule="evenodd"
         clip-rule="evenodd"
         d="m -9.65043,-19.4189 c 0,0 61.73863,84.8281 150.06243,157.6979 38.541,31.797 64.416,51.742 110.014,75.08 19.021,9.736 44.997,25.692 76.78,37.872 l 57.299,18.795 c 0,0 -54.735,3.207 -97.747,0 -44.474,-3.316 -91.436,55.078 -133.499,55.078 -98.3413,0 -154.163699,11.7 -154.163699,11.7 0,0 -7.517031,8.317 -8.745651,-66.778 -1.22865,-75.095 -8e-5,-289.4449 -8e-5,-289.4449 z"
         fill="url(#paint15_linear)"
         id="path59"
         style="fill:url(#paint15_linear)" />
    </g>
    <g
       filter="url(#filter11_f)"
       id="g65">
      <path
         fill-rule="evenodd"
         clip-rule="evenodd"
         d="m 641.544,377.243 c 0,0 69.052,3.054 88.727,0 55.984,-8.688 82.834,-12.905 105.06,-16.073 45.055,-6.422 120.414,-36.18 120.414,-36.18 l -11.372,125.86 c 0,0 -146.496,-8.949 -214.102,-32.524 -67.605,-23.574 -88.727,-41.083 -88.727,-41.083 z"
         fill="url(#paint16_linear)"
         id="path63"
         style="fill:url(#paint16_linear)" />
    </g>
    <g
       filter="url(#filter12_f)"
       id="g69">
      <path
         d="M 177.868,303.757 C 126.48,257.974 39.5663,224.496 2.53318,213.48 H -7.90125 V 506.805 H 387.943 C 344.537,462.239 229.256,349.541 177.868,303.757 Z"
         fill="url(#paint17_linear)"
         id="path67"
         style="fill:url(#paint17_linear)" />
    </g>
  </g>
  <defs
     id="defs280">
    <filter
       id="filter0_i"
       x="262.00601"
       y="41.461899"
       width="703.12097"
       height="320.94901"
       filterUnits="userSpaceOnUse"
       color-interpolation-filters="sRGB">
      <feFlood
         flood-opacity="0"
         result="BackgroundImageFix"
         id="feFlood73" />
      <feBlend
         mode="normal"
         in="SourceGraphic"
         in2="BackgroundImageFix"
         result="shape"
         id="feBlend75" />
      <feColorMatrix
         in="SourceAlpha"
         type="matrix"
         values="0 0 0 0 0 0 0 0 0 0 0 0 0 0 0 0 0 0 127 0"
         result="hardAlpha"
         id="feColorMatrix77" />
      <feOffset
         dy="1"
         id="feOffset79" />
      <feGaussianBlur
         stdDeviation="101.5"
         id="feGaussianBlur81" />
      <feComposite
         in2="hardAlpha"
         operator="arithmetic"
         k2="-1"
         k3="1"
         id="feComposite83"
         k1="0"
         k4="0" />
      <feColorMatrix
         type="matrix"
         values="0 0 0 0 0.931046 0 0 0 0 0.169089 0 0 0 0 0.173735 0 0 0 1 0"
         id="feColorMatrix85" />
      <feBlend
         mode="normal"
         in2="shape"
         result="effect1_innerShadow"
         id="feBlend87" />
    </filter>
    <filter
       id="filter1_f"
       x="356.548"
       y="93.763603"
       width="598.53497"
       height="289.15701"
       filterUnits="userSpaceOnUse"
       color-interpolation-filters="sRGB">
      <feFlood
         flood-opacity="0"
         result="BackgroundImageFix"
         id="feFlood90" />
      <feBlend
         mode="normal"
         in="SourceGraphic"
         in2="BackgroundImageFix"
         result="shape"
         id="feBlend92" />
      <feGaussianBlur
         stdDeviation="2.71828"
         result="effect1_foregroundBlur"
         id="feGaussianBlur94" />
    </filter>
    <filter
       id="filter2_f"
       x="382.974"
       y="81.930496"
       width="258.63199"
       height="107.632"
       filterUnits="userSpaceOnUse"
       color-interpolation-filters="sRGB">
      <feFlood
         flood-opacity="0"
         result="BackgroundImageFix"
         id="feFlood97" />
      <feBlend
         mode="normal"
         in="SourceGraphic"
         in2="BackgroundImageFix"
         result="shape"
         id="feBlend99" />
      <feGaussianBlur
         stdDeviation="13.5914"
         result="effect1_foregroundBlur"
         id="feGaussianBlur101" />
    </filter>
    <filter
       id="filter3_f"
       x="221.487"
       y="-59.265701"
       width="590.55298"
       height="396.61801"
       filterUnits="userSpaceOnUse"
       color-interpolation-filters="sRGB">
      <feFlood
         flood-opacity="0"
         result="BackgroundImageFix"
         id="feFlood104" />
      <feBlend
         mode="normal"
         in="SourceGraphic"
         in2="BackgroundImageFix"
         result="shape"
         id="feBlend106" />
      <feGaussianBlur
         stdDeviation="67.957"
         result="effect1_foregroundBlur"
         id="feGaussianBlur108" />
    </filter>
    <filter
       id="filter4_f"
       x="-223.368"
       y="-73.419899"
       width="802.19598"
       height="548.961"
       filterUnits="userSpaceOnUse"
       color-interpolation-filters="sRGB">
      <feFlood
         flood-opacity="0"
         result="BackgroundImageFix"
         id="feFlood111" />
      <feBlend
         mode="normal"
         in="SourceGraphic"
         in2="BackgroundImageFix"
         result="shape"
         id="feBlend113" />
      <feGaussianBlur
         stdDeviation="100"
         result="effect1_foregroundBlur"
         id="feGaussianBlur115" />
    </filter>
    <filter
       id="filter5_f"
       x="129.229"
       y="123.76"
       width="950.03998"
       height="472.58499"
       filterUnits="userSpaceOnUse"
       color-interpolation-filters="sRGB">
      <feFlood
         flood-opacity="0"
         result="BackgroundImageFix"
         id="feFlood118" />
      <feBlend
         mode="normal"
         in="SourceGraphic"
         in2="BackgroundImageFix"
         result="shape"
         id="feBlend120" />
      <feGaussianBlur
         stdDeviation="67.957"
         result="effect1_foregroundBlur"
         id="feGaussianBlur122" />
    </filter>
    <filter
       id="filter6_f"
       x="-17.418699"
       y="79.191399"
       width="383.87799"
       height="191.689"
       filterUnits="userSpaceOnUse"
       color-interpolation-filters="sRGB">
      <feFlood
         flood-opacity="0"
         result="BackgroundImageFix"
         id="feFlood125" />
      <feBlend
         mode="normal"
         in="SourceGraphic"
         in2="BackgroundImageFix"
         result="shape"
         id="feBlend127" />
      <feGaussianBlur
         stdDeviation="5"
         result="effect1_foregroundBlur"
         id="feGaussianBlur129" />
    </filter>
    <filter
       id="filter7_f"
       x="-10.976"
       y="105.134"
       width="948.37299"
       height="402.94501"
       filterUnits="userSpaceOnUse"
       color-interpolation-filters="sRGB">
      <feFlood
         flood-opacity="0"
         result="BackgroundImageFix"
         id="feFlood132" />
      <feBlend
         mode="normal"
         in="SourceGraphic"
         in2="BackgroundImageFix"
         result="shape"
         id="feBlend134" />
      <feGaussianBlur
         stdDeviation="5"
         result="effect1_foregroundBlur"
         id="feGaussianBlur136" />
    </filter>
    <filter
       id="filter8_f"
       x="519.612"
       y="272.866"
       width="507.423"
       height="308.97101"
       filterUnits="userSpaceOnUse"
       color-interpolation-filters="sRGB">
      <feFlood
         flood-opacity="0"
         result="BackgroundImageFix"
         id="feFlood139" />
      <feBlend
         mode="normal"
         in="SourceGraphic"
         in2="BackgroundImageFix"
         result="shape"
         id="feBlend141" />
      <feGaussianBlur
         stdDeviation="50"
         result="effect1_foregroundBlur"
         id="feGaussianBlur143" />
    </filter>
    <filter
       id="filter9_f"
       x="-250.603"
       y="48.875"
       width="1433.13"
       height="758.284"
       filterUnits="userSpaceOnUse"
       color-interpolation-filters="sRGB">
      <feFlood
         flood-opacity="0"
         result="BackgroundImageFix"
         id="feFlood146" />
      <feBlend
         mode="normal"
         in="SourceGraphic"
         in2="BackgroundImageFix"
         result="shape"
         id="feBlend148" />
      <feGaussianBlur
         stdDeviation="125"
         result="effect1_foregroundBlur"
         id="feGaussianBlur150" />
    </filter>
    <filter
       id="filter10_bf"
       x="-210.196"
       y="-219.41901"
       width="794.70203"
       height="756.49597"
       filterUnits="userSpaceOnUse"
       color-interpolation-filters="sRGB">
      <feFlood
         flood-opacity="0"
         result="BackgroundImageFix"
         id="feFlood153" />
      <feGaussianBlur
         in="BackgroundImage"
         stdDeviation="50"
         id="feGaussianBlur155" />
      <feComposite
         in2="SourceAlpha"
         operator="in"
         result="effect1_backgroundBlur"
         id="feComposite157" />
      <feBlend
         mode="normal"
         in="SourceGraphic"
         in2="effect1_backgroundBlur"
         result="shape"
         id="feBlend159" />
      <feGaussianBlur
         stdDeviation="100"
         result="effect2_foregroundBlur"
         id="feGaussianBlur161" />
    </filter>
    <filter
       id="filter11_f"
       x="505.63"
       y="189.076"
       width="586.02899"
       height="397.68799"
       filterUnits="userSpaceOnUse"
       color-interpolation-filters="sRGB">
      <feFlood
         flood-opacity="0"
         result="BackgroundImageFix"
         id="feFlood164" />
      <feBlend
         mode="normal"
         in="SourceGraphic"
         in2="BackgroundImageFix"
         result="shape"
         id="feBlend166" />
      <feGaussianBlur
         stdDeviation="67.957"
         result="effect1_foregroundBlur"
         id="feGaussianBlur168" />
    </filter>
    <filter
       id="filter12_f"
       x="-257.901"
       y="-36.519501"
       width="895.84497"
       height="793.32397"
       filterUnits="userSpaceOnUse"
       color-interpolation-filters="sRGB">
      <feFlood
         flood-opacity="0"
         result="BackgroundImageFix"
         id="feFlood171" />
      <feBlend
         mode="normal"
         in="SourceGraphic"
         in2="BackgroundImageFix"
         result="shape"
         id="feBlend173" />
      <feGaussianBlur
         stdDeviation="125"
         result="effect1_foregroundBlur"
         id="feGaussianBlur175" />
    </filter>
    <linearGradient
       id="paint0_linear"
       x1="949.35101"
       y1="-32.101601"
       x2="708.77802"
       y2="-32.101601"
       gradientUnits="userSpaceOnUse">
      <stop
         stop-color="#27275B"
         id="stop178" />
      <stop
         offset="1"
         stop-color="#202250"
         id="stop180" />
    </linearGradient>
    <linearGradient
       id="paint1_linear"
       x1="459.83899"
       y1="-7.0044498"
       x2="459.83899"
       y2="98.832001"
       gradientUnits="userSpaceOnUse">
      <stop
         stop-color="#272960"
         id="stop183" />
      <stop
         offset="1"
         stop-color="#2A295D"
         id="stop185" />
    </linearGradient>
    <linearGradient
       id="paint2_linear"
       x1="370.991"
       y1="-10.0938"
       x2="380.93799"
       y2="173.911"
       gradientUnits="userSpaceOnUse">
      <stop
         stop-color="#1C1B45"
         id="stop188" />
      <stop
         offset="1"
         stop-color="#29224E"
         id="stop190" />
    </linearGradient>
    <linearGradient
       id="paint3_linear"
       x1="269.216"
       y1="49.999802"
       x2="367.14401"
       y2="188.789"
       gradientUnits="userSpaceOnUse">
      <stop
         stop-color="#191942"
         id="stop193" />
      <stop
         offset="1"
         stop-color="#04304A"
         stop-opacity="0.01"
         id="stop195" />
    </linearGradient>
    <linearGradient
       id="paint4_linear"
       x1="537.91498"
       y1="88.989197"
       x2="532.20398"
       y2="183.89"
       gradientUnits="userSpaceOnUse">
      <stop
         stop-color="#CB2728"
         id="stop198" />
      <stop
         offset="1"
         stop-color="#7B152B"
         id="stop200" />
    </linearGradient>
    <linearGradient
       id="paint5_linear"
       x1="657.70099"
       y1="173.231"
       x2="653.07703"
       y2="261.39999"
       gradientUnits="userSpaceOnUse">
      <stop
         stop-color="#8842AA"
         id="stop203" />
      <stop
         offset="1"
         stop-color="#A662E9"
         id="stop205" />
    </linearGradient>
    <linearGradient
       id="paint6_linear"
       x1="396.09"
       y1="102.863"
       x2="392.87399"
       y2="197.953"
       gradientUnits="userSpaceOnUse">
      <stop
         stop-color="#931C2E"
         id="stop208" />
      <stop
         offset="0.384522"
         stop-color="#914CBD"
         id="stop210" />
      <stop
         offset="1"
         stop-color="#A05CDD"
         id="stop212" />
    </linearGradient>
    <linearGradient
       id="paint7_linear"
       x1="134.562"
       y1="182.604"
       x2="119.869"
       y2="269.44699"
       gradientUnits="userSpaceOnUse">
      <stop
         stop-color="#D52D2E"
         id="stop215" />
      <stop
         offset="0.334128"
         stop-color="#D22C2D"
         id="stop217" />
      <stop
         offset="1"
         stop-color="#C72A2C"
         id="stop219" />
    </linearGradient>
    <linearGradient
       id="paint8_linear"
       x1="260.233"
       y1="79.023697"
       x2="235.41901"
       y2="300.952"
       gradientUnits="userSpaceOnUse">
      <stop
         stop-color="#4AB0D6"
         id="stop222" />
      <stop
         offset="0.426288"
         stop-color="#425FBE"
         id="stop224" />
      <stop
         offset="1"
         stop-color="#871F89"
         id="stop226" />
    </linearGradient>
    <linearGradient
       id="paint9_linear"
       x1="311.77802"
       y1="214.00101"
       x2="309.06601"
       y2="416.28201"
       gradientUnits="userSpaceOnUse">
      <stop
         stop-color="#822688"
         id="stop229" />
      <stop
         offset="1"
         stop-color="#81287E"
         id="stop231" />
    </linearGradient>
    <linearGradient
       id="paint10_linear"
       x1="356.45901"
       y1="260.88"
       x2="43.133999"
       y2="160.745"
       gradientUnits="userSpaceOnUse">
      <stop
         stop-color="#D32D30"
         id="stop234" />
      <stop
         offset="1"
         stop-color="#D32D30"
         stop-opacity="0"
         id="stop236" />
    </linearGradient>
    <linearGradient
       id="paint11_linear"
       x1="345.96399"
       y1="284.21899"
       x2="282.569"
       y2="497.25299"
       gradientUnits="userSpaceOnUse">
      <stop
         stop-color="#D52D2F"
         id="stop239" />
      <stop
         offset="1"
         stop-color="#510315"
         id="stop241" />
    </linearGradient>
    <linearGradient
       id="paint12_linear"
       x1="773.35303"
       y1="386.495"
       x2="747.66602"
       y2="455.065"
       gradientUnits="userSpaceOnUse">
      <stop
         stop-color="#AE2128"
         id="stop244" />
      <stop
         offset="1"
         stop-color="#AE2128"
         stop-opacity="0"
         id="stop246" />
    </linearGradient>
    <linearGradient
       id="paint13_linear"
       x1="-51.146702"
       y1="279.57401"
       x2="-116.02"
       y2="467.547"
       gradientUnits="userSpaceOnUse">
      <stop
         offset="0.0833333"
         stop-color="#7B111D"
         stop-opacity="0.01"
         id="stop249" />
      <stop
         offset="1"
         stop-color="#520114"
         id="stop251" />
    </linearGradient>
    <linearGradient
       id="paint14_linear"
       x1="203.924"
       y1="321.065"
       x2="181.98199"
       y2="522.74902"
       gradientUnits="userSpaceOnUse">
      <stop
         stop-color="#640D1D"
         stop-opacity="0.01"
         id="stop254" />
      <stop
         offset="1"
         stop-color="#4F0415"
         id="stop256" />
    </linearGradient>
    <linearGradient
       id="paint15_linear"
       x1="60.978001"
       y1="68.204399"
       x2="-1.24942"
       y2="274.88"
       gradientUnits="userSpaceOnUse">
      <stop
         stop-color="#72328D"
         stop-opacity="0.2"
         id="stop259" />
      <stop
         offset="0.28125"
         stop-color="#A8345E"
         id="stop261" />
      <stop
         offset="0.489583"
         stop-color="#CD2B2E"
         stop-opacity="0.79"
         id="stop263" />
      <stop
         offset="1"
         stop-color="#9E1D25"
         stop-opacity="0.26"
         id="stop265" />
    </linearGradient>
    <linearGradient
       id="paint16_linear"
       x1="704.06"
       y1="355.673"
       x2="696.65997"
       y2="429.18201"
       gradientUnits="userSpaceOnUse">
      <stop
         stop-color="#753279"
         id="stop268" />
      <stop
         offset="0.589767"
         stop-color="#B42429"
         id="stop270" />
      <stop
         offset="1"
         stop-color="#9D1E26"
         id="stop272" />
    </linearGradient>
    <linearGradient
       id="paint17_linear"
       x1="158.748"
       y1="274.20801"
       x2="61.5467"
       y2="506.81601"
       gradientUnits="userSpaceOnUse">
      <stop
         stop-color="#6A0D1C"
         stop-opacity="0.11"
         id="stop275" />
      <stop
         offset="1"
         stop-color="#6A0D1C"
         id="stop277" />
    </linearGradient>
  </defs>
</svg>
