<svg width="16" height="16" version="1.1" xmlns="http://www.w3.org/2000/svg">
 <g transform="matrix(3.7795 0 0 3.7795 -297 -585.53)">
  <g transform="translate(-11.906,31.221)" fill-rule="evenodd">
   <path d="m92.605 127.67c1.0229 0 1.8521-0.82919 1.8521-1.8521 0-1.0229-0.8292-1.8521-1.8521-1.8521s-1.8521 0.8292-1.8521 1.8521 0.8292 1.8521 1.8521 1.8521" fill="#20a932" stroke-width=".77778"/>
   <path d="m92.605 127.54c0.94978 0 1.7198-0.77006 1.7198-1.7198 0-0.94986-0.76999-1.7198-1.7198-1.7198-0.94985 0-1.7198 0.76999-1.7198 1.7198 0 0.94978 0.76999 1.7198 1.7198 1.7198" fill="#28d33f" stroke-width=".76471"/>
  </g>
  <path d="m80.278 156.24 1.2134 1.2134v-0.94877c0-0.10994-0.15465-0.26458-0.26459-0.26458zm-0.37413 0.37414v0.94877c0 0.10994 0.15464 0.26459 0.26458 0.26459h0.94878z" opacity=".5"/>
 </g>
</svg>
