<svg width="16" height="16" version="1.1" xmlns="http://www.w3.org/2000/svg">
 <g transform="matrix(3.7795 0 0 3.7795 -322 -580.58)">
  <g transform="matrix(.34018 0 0 .34018 84.931 153.33)" enable-background="new">
   <g transform="translate(-5,-1033.4)">
    <g fill-rule="evenodd">
     <path d="m12.003 1045.9c3.0068 0 5.4444-2.4376 5.4444-5.4445s-2.4376-5.4444-5.4444-5.4444c-3.0069 0-5.4445 2.4375-5.4445 5.4444s2.4376 5.4445 5.4445 5.4445" fill="#cb4e43" stroke-width=".77778"/>
     <path d="m12.003 1045.5c2.792 0 5.0555-2.2635 5.0555-5.0556 0-2.7922-2.2635-5.0557-5.0555-5.0557-2.7922 0-5.0556 2.2635-5.0556 5.0557 0 2.7921 2.2635 5.0556 5.0556 5.0556" fill="#fe6254" stroke-width=".76471"/>
    </g>
   </g>
  </g>
  <path d="m86.564 154.96c-0.10365 0.10364-0.10365 0.27051 0 0.37417l0.37417 0.37418-0.37417 0.37417c-0.10365 0.10366-0.10365 0.27054 0 0.37417 0.10364 0.10367 0.27053 0.10367 0.37417 0l0.37418-0.37417 0.37418 0.37417c0.10364 0.10367 0.27053 0.10367 0.37417 0 0.10365-0.10363 0.10365-0.27051 0-0.37417l-0.37417-0.37417 0.37417-0.37418c0.10365-0.10366 0.10365-0.27053 0-0.37417-0.10364-0.10367-0.27053-0.10367-0.37417 0l-0.37418 0.37417-0.37418-0.37417c-0.10364-0.10367-0.27053-0.10367-0.37417 0z" enable-background="new" opacity=".5"/>
 </g>
</svg>
