<svg xmlns="http://www.w3.org/2000/svg" width="16" height="16" fill="context-fill" fill-opacity="context-fill-opacity">
 <path d="m7 0c-1.108 0-2 0.892-2 2v1h-2.1543c-1.0228 0-1.8457 0.82293-1.8457 1.8457v2.1543 1h2c0.554 0 1 0.446 1 1s-0.446 1-1 1h-2v1 2.1543c0 1.0228 0.82293 1.8457 1.8457 1.8457h2.1543 1v-2c0-0.554 0.446-1 1-1s1 0.446 1 1v2h1 2.1543c1.0228 0 1.8457-0.82293 1.8457-1.8457v-2.1543h1c1.108 0 2-0.892 2-2s-0.892-2-2-2h-1v-2.1543c0-1.0228-0.82293-1.8457-1.8457-1.8457h-2.1543v-1c0-1.108-0.892-2-2-2zm0 1c0.554 0 1 0.446 1 1v2h1 2c0.554 0 1 0.446 1 1v2 1h2c0.554 0 1 0.446 1 1s-0.446 1-1 1h-2v1 2c0 0.554-0.446 1-1 1h-2v-1c0-1.108-0.892-2-2-2s-2 0.892-2 2v1h-2c-0.554 0-1-0.446-1-1v-2h1c1.108 0 2-0.892 2-2s-0.892-2-2-2h-1v-2c0-0.554 0.446-1 1-1h2 1v-2c0-0.554 0.446-1 1-1z"/>
</svg>
