<svg width="16" height="16" version="1.1" viewBox="0 0 4.2333 4.2333" xmlns="http://www.w3.org/2000/svg">
 <path d="m3.3703 0.34106c-0.099392 0.0070445-0.16522 0.12967-0.07493 0.23048a2.1166 2.1166 0 0 1 0.67334 1.5451 2.1166 2.1166 0 0 1-0.67592 1.5482c-0.118 0.12462 0.047819 0.30388 0.17932 0.19275a2.3812 2.3812 0 0 0 0.76119-1.741 2.3812 2.3812 0 0 0-0.75705-1.7389c-0.036049-0.02831-0.072805-0.039038-0.10594-0.03669zm-0.63251 0.37465c-0.10467 0.0031254-0.16989 0.14175-0.067696 0.24236a1.5875 1.5875 0 0 1 0.50487 1.1586 1.5875 1.5875 0 0 1-0.50694 1.1612c-0.12409 0.118 0.04569 0.30335 0.17983 0.19275a1.8521 1.8521 0 0 0 0.59169-1.3539 1.8521 1.8521 0 0 0-0.58859-1.3524c-0.038827-0.035388-0.078279-0.049617-0.11317-0.048575zm-1.1503 0.078031-0.79374 0.79374h-0.52916c-0.14658 0-0.26458 0.118-0.26458 0.26458v0.52916c3.9166e-17 0.14658 0.118 0.26458 0.26458 0.26458h0.52916l0.79374 0.79374v-2.6458zm0.53381 0.31316c-0.099441 0.0043159-0.17066 0.13599-0.076997 0.23719a1.0583 1.0583 0 0 1 0.33693 0.77256 1.0583 1.0583 0 0 1-0.33796 0.77411c-0.12515 0.11377 0.036959 0.30492 0.17983 0.19327a1.3229 1.3229 0 0 0 0.42271-0.96738 1.3229 1.3229 0 0 0-0.42064-0.96582c-0.034396-0.032676-0.070722-0.045363-0.10387-0.043925z" fill="#dfdfdf" opacity=".35" stroke-width=".26458"/>
 <rect transform="rotate(45)" x=".34758" y="-.13229" width="5.2916" height=".26458" rx=".13229" ry=".13229" fill="#dfdfdf" style="paint-order:markers stroke fill"/>
</svg>
