<svg xmlns="http://www.w3.org/2000/svg" width="16" height="16" fill="context-fill" fill-opacity="context-fill-opacity">
 <path d="m4.8008 0s-0.43146-0.012793-0.87695 0.22852c-0.44549 0.24131-0.92383 0.89765-0.92383 1.6387v12.133a1.0001 1.0001 0 0 0 1.5449 0.83789l3.4551-2.2461 3.4551 2.2461a1.0001 1.0001 0 0 0 1.5449-0.83789v-12.133s0.01489-0.40654-0.19141-0.85352c-0.2063-0.44698-0.84826-1.0137-1.6094-1.0137h-6.3984zm0 1h6.3984c0.8 0 0.80078 0.86719 0.80078 0.86719v12.133l-4-2.5996-4 2.5996v-12.133c0-0.86667 0.80078-0.86719 0.80078-0.86719z"/>
</svg>
