<?xml version="1.0" encoding="UTF-8"?>
<svg width="16" height="16" version="1.1" xmlns="http://www.w3.org/2000/svg" xmlns:cc="http://creativecommons.org/ns#" xmlns:dc="http://purl.org/dc/elements/1.1/" xmlns:rdf="http://www.w3.org/1999/02/22-rdf-syntax-ns#">
 <metadata>
  <rdf:RDF>
   <cc:Work rdf:about="">
    <dc:format>image/svg+xml</dc:format>
    <dc:type rdf:resource="http://purl.org/dc/dcmitype/StillImage"/>
    <dc:title/>
   </cc:Work>
  </rdf:RDF>
 </metadata>
 <g fill="#363636" stroke-linecap="round" stroke-linejoin="round">
  <path d="m3 1c-1.108 0-2 0.892-2 2v10c0 1.108 0.892 2 2 2h10c1.108 0 2-0.892 2-2v-10c0-1.108-0.892-2-2-2h-10zm0 1h10c0.554 0 1 0.446 1 1v10c0 0.554-0.446 1-1 1h-10c-0.554 0-1-0.446-1-1v-10c0-0.554 0.446-1 1-1z"/>
  <path d="m6 9c-0.554 0-1 0.446-1 1v1c0 0.554 0.446 1 1 1h4c0.554 0 1-0.446 1-1v-1c0-0.554-0.446-1-1-1zm0 1h4v1h-4z"/>
  <path d="m5 7v1h5v2h1v-2c0-0.554-0.446-1-1-1z"/>
  <rect transform="rotate(-30)" x="2.1603" y="7.5981" width="5" height="1" rx="0" ry="0" stroke-width=".91287"/>
 </g>
</svg>
