<svg data-name="icon" version="1.1" viewBox="0 0 16 16" xmlns="http://www.w3.org/2000/svg" fill="context-fill" fill-opacity="context-fill-opacity">
 <path d="m2 1c-0.554 0-1 0.446-1 1v4c0 0.554 0.446 1 1 1h4c0.554 0 1-0.446 1-1v-4c0-0.554-0.446-1-1-1h-4zm7.5 0c-0.277 0-0.5 0.223-0.5 0.5s0.223 0.5 0.5 0.5h3.791l-4.1445 4.1465c-0.19587 0.19587-0.19587 0.51116 0 0.70703s0.51116 0.19587 0.70703 0l4.1465-4.1445v3.791c0 0.277 0.223 0.5 0.5 0.5s0.5-0.223 0.5-0.5v-5c0-0.277-0.223-0.5-0.5-0.5h-5zm-7.5 1h4v4h-4v-4zm0 7c-0.554 0-1 0.446-1 1v4c0 0.554 0.446 1 1 1h4c0.554 0 1-0.446 1-1v-4c0-0.554-0.446-1-1-1h-4zm8 0c-0.554 0-1 0.446-1 1v4c0 0.554 0.446 1 1 1h4c0.554 0 1-0.446 1-1v-4c0-0.554-0.446-1-1-1h-4zm-8 1h4v4h-4v-4zm8 0h4v4h-4v-4z"/>
</svg>
