<svg width="16" height="16" version="1.1" viewBox="0 0 16 16" xmlns="http://www.w3.org/2000/svg" fill="context-fill" fill-opacity="context-fill-opacity">
 <path d="m8 0a8 8 0 0 0-8 8 8 8 0 0 0 8 8 8 8 0 0 0 8-8 8 8 0 0 0-8-8zm0 1a7 7 0 0 1 7 7 7 7 0 0 1-7 7 7 7 0 0 1-7-7 7 7 0 0 1 7-7zm0 1c-0.277 0-0.5 0.223-0.5 0.5v0.92188c-1.2706 0.16126-2.4004 0.9536-2.4004 2.3789 0 1.3329 0.77308 2.0292 2.4004 2.2656v3.4141c-0.91099-0.10544-1.2653-0.55323-1.4492-1.3809-0.1-0.25-0.30078-0.34961-0.55078-0.34961h-0.19922c-0.25 0-0.45117 0.19922-0.45117 0.44922v0.20117c0.24465 1.2232 1.1139 2.0136 2.6504 2.1406v0.95898c0 0.277 0.223 0.5 0.5 0.5s0.5-0.223 0.5-0.5v-0.95703c1.4181-0.068444 2.6504-0.871 2.6504-2.543 0-1.6641-1.1031-2.2249-2.6504-2.5762v-3.0098c0.82889 0.12188 1.2081 0.56323 1.4004 1.2363 0.1 0.25 0.24922 0.34961 0.44922 0.34961h0.20117c0.15-0.1 0.34961-0.19922 0.34961-0.44922v-0.20117c-0.29241-1.0234-1.1092-1.7121-2.4004-1.9316v-0.91797c0-0.277-0.223-0.5-0.5-0.5zm-0.5 2.3555v2.9336c-1.2073-0.25207-1.5508-0.6996-1.5508-1.4883-1e-7 -0.78559 0.62862-1.3313 1.5508-1.4453zm1 4.1289c0.93622 0.16145 1.5529 0.49238 1.5996 1.5664 0 0.94045-0.5746 1.4389-1.5996 1.5781v-3.1445z"/>
</svg>
