<svg width="16" height="16" version="1.1" viewBox="0 0 16 16" xmlns="http://www.w3.org/2000/svg" fill="context-fill" fill-opacity="context-fill-opacity">
 <path transform="matrix(-.46973 .46973 -.46973 -.46973 21.705 6.5082)" d="m6.8081 20.663c2.6543 2.6482 6.3446 3.8716 9.9604 3.4324a0.75267 0.75267 0 0 0 0.65696-0.83991 0.75267 0.75267 0 0 0-0.83991-0.65696c-3.1617 0.38403-6.3866-0.68021-8.7109-2.9979-2.1069-2.1192-3.2141-5.0329-3.0478-8.0165a0.75267 0.75267 0 0 0-0.71101-0.79417 0.75267 0.75267 0 0 0-0.79417 0.71101c-0.19 3.409 1.0771 6.7387 3.4844 9.16a0.75274 0.75274 0 0 0 0.002079 0.002079zm2.1684-2.1018c2.8534 2.693 7.4695 3.0316 10.522 0.33887 2.8395-2.5051 3.3354-7.0148 0.72764-9.9042-2.2328-2.474-6.2159-2.8926-8.7379-0.54677-2.1078 1.9605-2.4478 5.4209-0.35966 7.5737 1.6885 1.7408 4.6315 2.0041 6.4116 0.16632 1.3725-1.417 1.5583-3.8579-0.043659-5.2577-0.5738-0.50142-1.3132-0.76106-2.0644-0.74635-0.7512 0.0147-1.5447 0.34549-2.0436 1.0457-0.31848 0.44694-0.45717 0.98131-0.39501 1.5384s0.42442 1.1915 1.0748 1.4366c0.48444 0.18256 0.78262 0.095159 1.1601-0.099791 0.18872-0.09747 0.42044-0.25774 0.54053-0.58627 0.12009-0.32853 0.008268-0.73533-0.1684-0.97088-0.24939-0.33187-0.71962-0.39845-1.052-0.14969 0 0-0.008203-0.19035 0.066527-0.29521 0.20438-0.28681 0.48511-0.41081 0.84614-0.41787 0.36103-0.0071 0.76765 0.14109 1.0416 0.38045 0.88618 0.7744 0.77507 2.2296-0.043659 3.0748-1.1405 1.1774-3.12 1.0023-4.2515-0.16424-1.4606-1.5058-1.2155-4.0133 0.30353-5.4261 1.8706-1.7398 4.905-1.4232 6.5966 0.45114 2.017 2.2349 1.6244 5.7984-0.60706 7.7671-2.5989 2.2928-6.6866 1.829-8.9313-0.7609-2.5679-2.9628-2.0303-7.5838 0.91891-10.104 3.3265-2.8423 8.4754-2.2261 11.27 1.0831 3.1164 3.6901 2.4286 9.3652-1.2411 12.434-0.31945 0.26635-0.36224 0.74104-0.095633 1.0603 0.26635 0.31945 0.74104 0.36224 1.0603 0.095633 4.2979-3.5945 5.1007-10.214 1.4262-14.565-1.6611-1.9668-4.0132-3.1289-6.449-3.3763-2.4358-0.24736-4.9548 0.42167-6.9479 2.1247-3.5692 3.0498-4.2175 8.6094-1.079 12.231 0.17359 0.20028 0.35446 0.39011 0.54469 0.56964zm17.769-2.4553a0.75267 0.75267 0 0 0 0.26819 0.1185 0.75267 0.75267 0 0 0 0.90228-0.56964c0.91298-4.0285-0.30614-8.247-3.2245-11.17a0.75274 0.75274 0 0 0-0.002079-0.002079c-2.4214-2.4087-5.7519-3.6765-9.162-3.4864a0.75267 0.75267 0 0 0-0.71101 0.79417 0.75267 0.75267 0 0 0 0.79417 0.71101c2.9836-0.16629 5.8975 0.94101 8.0165 3.0478 2.5549 2.5592 3.6163 6.2465 2.817 9.7733a0.75267 0.75267 0 0 0 0.30145 0.78377z"/>
</svg>
