<svg xmlns="http://www.w3.org/2000/svg" width="16" height="16" fill="context-fill" fill-opacity="context-fill-opacity">
 <path d="m8 3.4391e-7c-4.4183-2.687e-7 -8 3.5817-8 8-5.6569e-8 4.4183 3.5817 8 8 8 4.4183 0 8-3.5817 8-8 0-4.4183-3.5817-8-8-8zm-2e-7 1c3.866 0 7 3.134 7 7 1e-6 3.866-3.134 7-7 7-3.866 0-7-3.134-7-7 1e-8 -3.866 3.134-7 7-7zm3e-7 3c-0.277-4e-7 -0.5 0.223-0.5 0.5l2e-7 5.3163-1.7189-1.7189c-0.19587-0.19587-0.51116-0.19587-0.70703 0-0.19587 0.19587-0.19587 0.51116 0 0.70703l2.5724 2.5724c0.047009 0.04701 0.10324 0.08408 0.16602 0.10938 0.12034 0.04897 0.25466 0.04897 0.375 1e-6 0.062777-0.0253 0.119-0.06236 0.16602-0.10938l2.5724-2.5724c0.19587-0.19587 0.19587-0.51116 0-0.70703-0.19587-0.19587-0.51116-0.19587-0.70703 2e-7l-1.7189 1.7189v-5.3163c3e-7 -0.277-0.223-0.5-0.5-0.5z"/>
</svg>
