<!-- This Source Code Form is subject to the terms of the Mozilla Public
   - License, v. 2.0. If a copy of the MPL was not distributed with this
   - file, You can obtain one at http://mozilla.org/MPL/2.0/. -->
<svg xmlns="http://www.w3.org/2000/svg" viewBox="0 0 16 16" width="16" height="16" fill="context-fill" fill-opacity="context-fill-opacity">
  <path d="M14.817 7.507 8.852 1.542a1.918 1.918 0 0 0-2.703 0L.183 7.507A.618.618 0 0 0 1 8.436L1 14a2 2 0 0 0 2 2l9 0a2 2 0 0 0 2-2l0-5.564a.62.62 0 0 0 .375.139.626.626 0 0 0 .442-1.068zM8.75 14.75l-2.5 0 0-4 .5-.5 1.5 0 .5.5 0 4zm4-.581-.6.581-2.15 0L10 11a2 2 0 0 0-2-2L7 9a2 2 0 0 0-2 2l0 3.75-2.15 0-.6-.581-.001-6.96 4.783-4.783a.663.663 0 0 1 .936 0L12.75 7.21l0 6.959z"/>
</svg>