<svg width="16px" height="16px" version="1.1" viewBox="0 0 16 16" xmlns="http://www.w3.org/2000/svg">
 <path d="m4.5 3a4.5 4.5 0 0 0-4.5 4.5 4.5 4.5 0 0 0 4.5 4.5 4.5 4.5 0 0 0 4.4648-4h2.0352v3.5c0 0.277 0.223 0.5 0.5 0.5s0.5-0.223 0.5-0.5v-3.5h1v3.5c0 0.277 0.223 0.5 0.5 0.5s0.5-0.223 0.5-0.5v-3.5h1.5c0.277 0 0.5-0.223 0.5-0.5s-0.223-0.5-0.5-0.5h-6.5293a4.5 4.5 0 0 0-4.4707-4zm0 1a3.5 3.5 0 0 1 3.5 3.5 3.5 3.5 0 0 1-3.5 3.5 3.5 3.5 0 0 1-3.5-3.5 3.5 3.5 0 0 1 3.5-3.5z" fill="#333333"/>
</svg>
