<svg xmlns="http://www.w3.org/2000/svg" width="16" height="16" fill="context-fill" fill-opacity="context-fill-opacity">
 <path d="m8 0a8 8 0 0 0-0.15234 0.0058594l-0.0019531 0.0019531a8 8 0 0 0-0.035156 0.0019531 8.1695 8.1695 0 0 0-0.029297-0.0019531 8 8 0 0 0-0.097656 0.0078125 8 8 0 0 0-0.67383 0.052734 8 8 0 0 0-0.10156 0.015625 8 8 0 0 0-0.66406 0.11914 8 8 0 0 0-0.1582 0.039062 8 8 0 0 0-0.63477 0.18359 8 8 0 0 0-0.076172 0.027344 8 8 0 0 0-0.68555 0.27148 8 8 0 0 0-0.015625 0.0078125 8 8 0 0 0-0.68945 0.35547 8 8 0 0 0-0.033203 0.021484 8 8 0 0 0-0.64258 0.41992 8 8 0 0 0-0.013672 0.0097656 8 8 0 0 0-0.5918 0.47656 8 8 0 0 0-0.072266 0.066406 8 8 0 0 0-0.5 0.49219 8 8 0 0 0-0.0625 0.070312 8 8 0 0 0-0.45898 0.55469 8 8 0 0 0-0.025391 0.037109 8 8 0 0 0-0.41211 0.60938 8 8 0 0 0-0.060547 0.10352 8 8 0 0 0-0.31445 0.58594 8 8 0 0 0-0.0625 0.13867 8 8 0 0 0-0.25586 0.62305 8 8 0 0 0-0.023438 0.068359 8 8 0 0 0-0.20312 0.66992 8 8 0 0 0-0.064453 0.26758c0.0013275 5.628e-4 0.0025782 0.0013918 0.0039062 0.0019531a8 8 0 0 0-0.017578 0.083984 8 8 0 0 0-0.09375 0.55273 8 8 0 0 0-0.033203 0.27148 8 8 0 0 0-0.041016 0.61719 8 8 0 0 0-0.0058594 0.16992 8 8 0 0 0 4.5859 7.2246 8 8 0 0 0 0.011719 0.00586 8 8 0 0 0 0.38867 0.17383v0.001953a8 8 0 0 0 0.0097657 0.003906 8 8 0 0 0 0.61719 0.2168 8 8 0 0 0 0.1543 0.050781 8 8 0 0 0 0.53906 0.13086 8 8 0 0 0 0.25781 0.05664 8 8 0 0 0 0.51367 0.072266 8 8 0 0 0 0.27734 0.033203 8 8 0 0 0 0.64453 0.029297 8 8 0 0 0 0.66211-0.03125v-0.001953a8 8 0 0 0 0.013672 0 8 8 0 0 0 0.73633-0.099609 8 8 0 0 0 0.056641-0.007813 8 8 0 0 0 0.011719-0.001953 8 8 0 0 0 0.76563-0.18555 8 8 0 0 0 3.6543-2.2832 8 8 0 0 0 0.019531-0.021484 8 8 0 0 0 0.19922-0.21289 8 8 0 0 0 0.001953-0.003906c-0.0052 0.00186-0.01045 0.003879-0.015625 0.005859a8 8 0 0 0 1.8945-5.1562 8 8 0 0 0-0.26172-1.9902c0.0013-4.06e-5 0.002606 4e-5 0.003907 0a8 8 0 0 0-0.021485-0.064453 8 8 0 0 0-0.003906-0.013672 8 8 0 0 0-0.19336-0.62109 8 8 0 0 0-0.042969-0.11914 8 8 0 0 0-1.1016-2.0059 8 8 0 0 0-0.029297-0.037109 8 8 0 0 0-0.023437-0.029297 8 8 0 0 0-1.0352-1.1074 8 8 0 0 0-0.046875-0.039063 8 8 0 0 0-0.009766-0.0097656 8 8 0 0 0-0.56445-0.44727 8 8 0 0 0-0.070313-0.050781 8 8 0 0 0-0.57617-0.36719 8 8 0 0 0-0.089844-0.052734 8 8 0 0 0-3.9336-1.0449zm0 1a7 7 0 0 1 0.023438 0.0019531c-0.004856 0.12253-0.023438 0.24142-0.023438 0.36523 0 0.9854 0.12584 1.9405 0.33984 2.8613-1.1091 0.93745-2.4934 1.5589-4.0176 1.7246 0.4294-1.8215 1.2905-3.4696 2.4629-4.8457a7 7 0 0 1 0.49414-0.0625 7 7 0 0 1 0.21289-0.025391 7 7 0 0 1 0.50781-0.019531zm1.0176 0.082031a7 7 0 0 1 0.015625 0.0039063 7 7 0 0 1 0.66797 0.13281 7 7 0 0 1 0.0019531 0 7 7 0 0 1 0.0019531 0 7 7 0 0 1 0.66797 0.20508 7 7 0 0 1 0.023437 0.0078125c-0.30467 0.7143-0.71025 1.3749-1.209 1.9551-0.11504-0.6572-0.1875-1.3291-0.1875-2.0195 0-0.09654 0.014878-0.18928 0.017578-0.28516zm-3.8613 0.53125c-0.88323 1.306-1.5326 2.7808-1.873 4.375-0.6532-0.01864-1.2809-0.12781-1.8809-0.30273a7 7 0 0 1 0.25781-0.63281 7 7 0 0 1 0.019531-0.041016 7 7 0 0 1 0.31055-0.58594 7 7 0 0 1 0.0097656-0.015625 7 7 0 0 1 0.38281-0.57227 7 7 0 0 1 0.44141-0.53711 7 7 0 0 1 0.0078124-0.0097656 7 7 0 0 1 0.48242-0.48047 7 7 0 0 1 0.023438-0.019531 7 7 0 0 1 0.51562-0.41992 7 7 0 0 1 0.03125-0.021484 7 7 0 0 1 0.55859-0.36914 7 7 0 0 1 0.015625-0.0078126 7 7 0 0 1 0.61133-0.32031 7 7 0 0 1 0.085938-0.039063zm6.1484 0.21875a7 7 0 0 1 0.005859 0.0039063 7 7 0 0 1 0.59375 0.35742 7 7 0 0 1 0.5 0.37305 7 7 0 0 1 0.060547 0.044922 7 7 0 0 1 0.005859 0.0058594 7 7 0 0 1 0.45117 0.41211 7 7 0 0 1 0.058594 0.054688 7 7 0 0 1 0.003906 0.0058594 7 7 0 0 1 0.33594 0.37305 7 7 0 0 1 0.13867 0.16016 7 7 0 0 1 0.25977 0.35352 7 7 0 0 1 0.15039 0.21289 7 7 0 0 1 0.29297 0.50195 7 7 0 0 1 0.048829 0.083984 7 7 0 0 1 0.001953 0.0058594 7 7 0 0 1 0.23828 0.51758 7 7 0 0 1 0.050781 0.11328 7 7 0 0 1 0.003906 0.011719 7 7 0 0 1 0.15625 0.45703 7 7 0 0 1 0.076172 0.22656c-1.4278 0.2149-2.7415 0.77943-3.8457 1.6133-0.63033-0.9649-1.1166-2.0286-1.4395-3.1641 0.7851-0.7717 1.4127-1.6983 1.8516-2.7246zm-2.6816 3.4355c0.3607 1.109 0.86629 2.1525 1.502 3.1035-1.2292 1.1787-2.1088 2.7182-2.457 4.4512-1.1424-0.19436-2.2259-0.5536-3.2285-1.0547-0.27868-0.9986-0.43945-2.0466-0.43945-3.1348 0-0.5675 0.054496-1.1203 0.13281-1.666 1.6799-0.1247 3.2223-0.73726 4.4902-1.6992zm-7.4883 1.3672c0.6353 0.1889 1.2968 0.31508 1.9863 0.3457-0.071136 0.542-0.12109 1.0911-0.12109 1.6523 0 0.8395 0.087521 1.6592 0.24414 2.4531-0.7856-0.5172-1.4925-1.1383-2.127-1.8262a7 7 0 0 1 0-0.0019531 7 7 0 0 1-0.068359-0.50195 7 7 0 0 1-0.027344-0.22266 7 7 0 0 1-0.021484-0.5332 7 7 0 0 1 0.035156-0.69922 7 7 0 0 1 0.099609-0.66602zm13.797 0.45117a7 7 0 0 1 0.058593 0.66406 7 7 0 0 1 0.009766 0.25 7 7 0 0 1-0.70703 3.043 7 7 0 0 1-0.023438 0.052734c-1.0662-0.7006-2.0125-1.566-2.7969-2.5684 0.9896-0.7507 2.1713-1.2568 3.459-1.4414zm-4.2129 2.0898c0.8577 1.087 1.8961 2.0176 3.0605 2.7734a7 7 0 0 1-0.001953 0.003906 7 7 0 0 1-0.2832 0.37109c-1.2096 0.42703-2.5046 0.67578-3.8613 0.67578-0.32798 0-0.64964-0.022288-0.9707-0.048828 0.3059-1.4617 1.0363-2.7633 2.0566-3.7754zm-8.8984 2.1016c0.5552 0.44425 1.1479 0.84413 1.7773 1.1875 0.1492 0.46809 0.32934 0.92167 0.53125 1.3633a7 7 0 0 1-0.0058593-0.003906 7 7 0 0 1-0.5293-0.39258 7 7 0 0 1-0.03125-0.023438 7 7 0 0 1-0.51367-0.4668 7 7 0 0 1-0.46875-0.51953 7 7 0 0 1-0.41406-0.5625 7 7 0 0 1-0.3457-0.58203zm3.0566 1.7871c0.8443 0.34419 1.7346 0.59108 2.6582 0.74609-0.01846 0.22827-0.035156 0.45649-0.035156 0.68945 0 0.16094 0.012184 0.3181 0.021484 0.47656a7 7 0 0 1-0.0097656-0.001953 7 7 0 0 1-1.8516-0.38672 7 7 0 0 1-0.0078124-0.001953c-0.29525-0.484-0.55676-0.99058-0.77539-1.5215zm7.0605 0.71484a7 7 0 0 1-0.003906 0.003906 7 7 0 0 1-0.58203 0.35352 7 7 0 0 1-0.011718 0.007812 7 7 0 0 1-0.00586 0.001953 7 7 0 0 1-0.5332 0.25977 7 7 0 0 1-0.13086 0.056641 7 7 0 0 1-0.51367 0.1875 7 7 0 0 1-0.14453 0.046875 7 7 0 0 1-0.48242 0.125 7 7 0 0 1-0.2168 0.048828 7 7 0 0 1-0.44922 0.066406 7 7 0 0 1-0.33398 0.041016c-0.012573-0.15893-0.029297-0.3161-0.029297-0.47852 0-0.18734 0.013906-0.37084 0.027344-0.55469 0.36492 0.031773 0.73241 0.054688 1.1055 0.054688 0.7889 0 1.5586-0.076983 2.3047-0.2207z"/>
</svg>
