<svg xmlns="http://www.w3.org/2000/svg" width="16" height="16" fill="context-fill" fill-opacity="context-fill-opacity">
 <path d="m3.0005 5.0948e-5c-1.091 0-2.0005 0.90954-2.0005 2.0005v12.007c0 1.091 0.90954 1.9927 2.0005 1.9927h8.999c1.091 0 2.0005-0.90171 2.0005-1.9927v-7.4218l-6.5935-6.5855zm0.0038939 1.0002h3.9899v4.0009c0 1.1083 0.89222 2.0005 2.0005 2.0005h4.0009v7.0018c0 0.55414-0.44609 1.0002-1.0002 1.0002h-8.9911c-0.55414 0-1.0002-0.44609-1.0002-1.0002v-12.003c0-0.55414 0.44609-1.0002 1.0002-1.0002zm4.9902 1.0002 4.0009 4.0009h-3.0007c-0.55414 0-1.0002-0.44609-1.0002-1.0002z"/>
</svg>
