<svg width="4.2333mm" height="4.2333mm" version="1.1" viewBox="0 0 4.2333 4.2333" xmlns="http://www.w3.org/2000/svg">
 <path d="m1.0563 0c-0.28858 0-0.52917 0.24059-0.52917 0.52917v3.176c0 0.28858 0.24059 0.5271 0.52917 0.5271h2.3833c0.28858 0 0.52917-0.23852 0.52917-0.5271v-1.9632l-1.7441-1.742zm0.00103 0.26458h1.0583v1.0583c0 0.29316 0.23601 0.52917 0.52917 0.52917h1.0583v1.8521c0 0.14658-0.118 0.26458-0.26458 0.26458h-2.3812c-0.14658 0-0.26458-0.118-0.26458-0.26458v-3.175c0-0.14658 0.118-0.26458 0.26458-0.26458zm1.3229 0.26458 1.0583 1.0583h-0.79375c-0.14658 0-0.26458-0.118-0.26458-0.26458z" fill="#363636" stroke-linecap="square" stroke-width=".52917" style="paint-order:fill markers stroke"/>
</svg>
