<svg xmlns="http://www.w3.org/2000/svg" width="16" height="16" fill="context-fill" fill-opacity="context-fill-opacity">
 <path d="m6.127 0.25972c-0.064351-0.008882-0.13038-0.004251-0.19727 0.013672-0.26756 0.071693-0.42521 0.34377-0.35352 0.61133l0.13672 0.50977a7 7 0 0 0-1.1719 0.5293c-0.013468 0.00627-0.027897 0.0061-0.041016 0.013672-0.01342 0.00775-0.020785 0.02055-0.033203 0.029297a7 7 0 0 0-1.0449 0.74805l-0.37109-0.37109c-0.19587-0.19587-0.51116-0.19587-0.70703 0s-0.19587 0.51116 0 0.70703l0.36914 0.36914a7 7 0 0 0-0.77539 1.0801 7 7 0 0 0-0.54883 1.2109l-0.50391-0.13477c-0.26756-0.071693-0.53964 0.085954-0.61133 0.35352s0.085954 0.53964 0.35352 0.61133l0.50586 0.13672a7 7 0 0 0-0.00195 2.6465l-0.50391 0.13477c-0.26756 0.071693-0.42521 0.34377-0.35352 0.61133 0.071693 0.26756 0.34377 0.42521 0.61133 0.35352l0.50977-0.13672a7 7 0 0 0 1.3203 2.291l-0.37109 0.37109c-0.19587 0.19587-0.19587 0.51116 0 0.70703s0.51116 0.19587 0.70703 0l0.36914-0.36914a7 7 0 0 0 1.0801 0.77539 7 7 0 0 0 1.2109 0.54883l-0.13477 0.50391c-0.071693 0.26756 0.085954 0.53964 0.35352 0.61133 0.26756 0.07169 0.53964-0.08595 0.61133-0.35352l0.13672-0.50586a7 7 0 0 0 2.6465 2e-3l0.13477 0.50391c0.071693 0.26756 0.34377 0.42521 0.61133 0.35352 0.26756-0.07169 0.42521-0.34377 0.35352-0.61133l-0.13672-0.50976a7 7 0 0 0 2.291-1.3203l0.37109 0.37109c0.19587 0.19587 0.51116 0.19587 0.70703 0s0.19587-0.51116 0-0.70703l-0.36914-0.36914a7 7 0 0 0 0.77539-1.0801 7 7 0 0 0 0.54883-1.2109l0.50391 0.13477c0.26756 0.07169 0.53964-0.08595 0.61133-0.35352 0.07169-0.26756-0.08595-0.53963-0.35352-0.61133l-0.50586-0.13672a7 7 0 0 0 0.12695-1.2949c5.42e-4 -0.00958 0.0059-0.017622 0.0059-0.027344 0-0.012518-0.0069-0.022874-0.0078-0.035156a7 7 0 0 0-0.12305-1.2891l0.50391-0.13477c0.26756-0.071693 0.42521-0.34377 0.35352-0.61133s-0.34377-0.42521-0.61133-0.35352l-0.50976 0.13672a7 7 0 0 0-1.3203-2.291l0.37109-0.37109c0.19587-0.19587 0.19587-0.51116 0-0.70703s-0.51116-0.19587-0.70703 0l-0.36914 0.36914a7 7 0 0 0-1.0801-0.77539 7 7 0 0 0-1.2109-0.54883l0.13477-0.50391c0.07169-0.26756-0.08595-0.53964-0.35352-0.61133-0.26762-0.07174-0.53969 0.085907-0.61139 0.35347l-0.13672 0.50586a7 7 0 0 0-2.6465-0.00195l-0.13477-0.50391c-0.05377-0.20067-0.22101-0.34054-0.41406-0.36719zm1.5898 1.7461a6 6 0 0 1 3.2832 0.79883 6 6 0 0 1 2.9727 4.6953h-4.0391a2 2 0 0 0-1.9336-1.5 2 2 0 0 0-0.5332 0.074219l-2.0215-3.5a6 6 0 0 1 2.2715-0.56836zm-3.1367 1.0723 2.0195 3.4961a2 2 0 0 0-0.59961 1.4258 2 2 0 0 0 0.59766 1.4258l-2.0195 3.498a6 6 0 0 1-1.7734-7.9238 6 6 0 0 1 1.7754-1.9219zm3.4199 3.9219a1 1 0 0 1 1 1 1 1 0 0 1-1 1 1 1 0 0 1-1-1 1 1 0 0 1 1-1zm1.9355 1.5h4.0371a6 6 0 0 1-0.77734 2.5 6 6 0 0 1-7.75 2.4238l2.0195-3.4961a2 2 0 0 0 0.53516 0.072266 2 2 0 0 0 1.9355-1.5z"/>
</svg>
