<svg xmlns="http://www.w3.org/2000/svg" width="16" height="16" fill="context-fill" fill-opacity="context-fill-opacity">
 <path d="m3 1c-1.1075 0-2 0.89253-2 2v6c0 1.1075 0.89253 2 2 2v-1c-0.554 0-1-0.446-1-1v-5c0-0.554 0.446-1 1-1h7c0.554 0 1 0.446 1 1h1v-1c0-1.1075-0.89253-2-2-2h-7zm8 7v1c0 0.554-0.446 1-1 1h-4v1h4c1.1075 0 2-0.89253 2-2v-1h-1z"/>
 <path d="m6 5c-1.1075 0-2 0.89253-2 2v6c0 1.1075 0.89253 2 2 2h7c1.1075 0 2-0.89253 2-2v-6c0-1.1075-0.89253-2-2-2zm0 2h7c0.554 0 1 0.446 1 1v5c0 0.554-0.446 1-1 1h-7c-0.554 0-1-0.446-1-1v-5c0-0.554 0.446-1 1-1z"/>
</svg>
