<svg width="16" height="16" version="1.1" xmlns="http://www.w3.org/2000/svg" fill="context-fill" fill-opacity="context-fill-opacity">
 <path d="m3 1c-1.662 0-3 1.338-3 3v8c0 1.662 1.338 3 3 3h10c1.662 0 3-1.338 3-3v-8c0-1.662-1.338-3-3-3h-10zm0 1h4.5v5h1v-5h4.5c1.108 0 2 0.892 2 2v8c0 1.108-0.892 2-2 2h-4.5v-4h-1v4h-4.5c-1.108 0-2-0.892-2-2v-8c0-1.108 0.892-2 2-2zm2.4004 3.9492c-0.15 0-0.30039 0.050391-0.40039 0.15039l-1.9004 2c-0.2 0.2-0.2 0.60078 0 0.80078l1.9004 1.9004c0.2 0.2 0.60078 0.2 0.80078 0 0.2-0.2 0.2-0.60078 0-0.80078l-1-1h6.3984l-1 1.0996c-0.2 0.2-0.2 0.60078 0 0.80078 0.2 0.2 0.60078 0.2 0.80078 0l1.9004-1.9004c0.2-0.2 0.2-0.60078 0-0.80078l-1.9004-2.0996c-0.2-0.2-0.60078-0.2-0.80078 0-0.2 0.2-0.2 0.60078 0 0.80078l1 1.0996h-6.3984l1-1.0996c0.2-0.2 0.2-0.60078 0-0.80078-0.1-0.1-0.25039-0.15039-0.40039-0.15039z"/>
</svg>
