<svg width="16" height="16" fill="context-fill" fill-opacity="context-fill-opacity" version="1.1" xmlns="http://www.w3.org/2000/svg">
 <path d="m8 4e-6a8 8 0 0 0-8 8 8 8 0 0 0 6.6621 7.8848 8 8 0 0 0 0.79297 0.0957 8 8 0 0 0 0.54492 0.01953 8 8 0 0 0 1.5898-0.16016 8 8 0 0 0 0.77344-0.19727 8 8 0 0 0 2.8574-1.584 8 8 0 0 0 0.33789-0.30664 6 6 0 0 0-0.0039-0.0078 8 8 0 0 0 2.4453-5.7441 8 8 0 0 0-8-8zm0 1a7 7 0 0 1 7 7 7 7 0 0 1-1.9277 4.8105 6 6 0 0 0-5.0723-2.8105 6 6 0 0 0-5.0762 2.8145 7 7 0 0 1-1.9238-4.8145 7 7 0 0 1 7-7zm0 3a2 2 0 0 0-2 2 2 2 0 0 0 2 2 2 2 0 0 0 2-2 2 2 0 0 0-2-2z"/>
</svg>
