<svg width="4.2333mm" height="4.2333mm" version="1.1" viewBox="0 0 4.2333 4.2333" xmlns="http://www.w3.org/2000/svg">
 <g fill="#333">
  <path d="m0.52917 0.52917c-0.29316 0-0.52917 0.23601-0.52917 0.52917v2.3812c0 0.29316 0.23601 0.52917 0.52917 0.52917h3.175c0.29316 0 0.52917-0.23601 0.52917-0.52917v-2.3812c0-0.29316-0.23601-0.52917-0.52917-0.52917zm0 0.26458h3.175c0.14658 0 0.26458 0.118 0.26458 0.26458v2.3812c0 0.14658-0.118 0.26458-0.26458 0.26458h-3.175c-0.14658 0-0.26458-0.118-0.26458-0.26458v-2.3812c0-0.14658 0.118-0.26458 0.26458-0.26458z" color="#363636" stroke-width=".26458"/>
  <rect x="1.5875" y=".79375" width=".26458" height="2.9104" ry="0" color="#363636" stroke-width=".26458"/>
  <g stroke-linecap="round" stroke-linejoin="round" stroke-width=".52917">
   <rect transform="scale(-1,1)" x="-1.3229" y="1.0583" width=".79375" height=".26458"/>
   <rect transform="scale(-1,1)" x="-1.3229" y="1.5875" width=".79375" height=".26458" stroke-width=".52917"/>
   <rect transform="scale(-1,1)" x="-1.3229" y="2.1167" width=".79375" height=".26458"/>
  </g>
 </g>
</svg>
