<svg xmlns="http://www.w3.org/2000/svg" width="16" height="16" fill="context-fill" fill-opacity="context-fill-opacity">
 <g transform="translate(0 -3.3407e-5)">
  <path d="m3.7042 0.52917c0.29316 0 0.52917 0.23601 0.52917 0.52917v2.3812c0 0.29316-0.23601 0.52917-0.52917 0.52917h-3.175c-0.29316 0-0.52917-0.23601-0.52917-0.52917v-2.3812c0-0.29316 0.23601-0.52917 0.52917-0.52917zm0 0.26458h-3.175c-0.14658 0-0.26458 0.118-0.26458 0.26458v2.3812c0 0.14658 0.118 0.26458 0.26458 0.26458h3.175c0.14658 0 0.26458-0.118 0.26458-0.26458v-2.3812c0-0.14658-0.118-0.26458-0.26458-0.26458z"/>
  <rect transform="scale(-1,1)" x="-2.6458" y=".79375" width=".26458" height="2.9104" ry="0"/>
  <g>
   <rect x="2.9104" y="1.0583" width=".79375" height=".26458"/>
   <rect x="2.9104" y="1.5875" width=".79375" height=".26458"/>
   <rect x="2.9104" y="2.1167" width=".79375" height=".26458"/>
  </g>
 </g>
</svg>
