<svg xmlns="http://www.w3.org/2000/svg" width="16" height="16" fill="context-fill" fill-opacity="context-fill-opacity">
 <path d="m8 0a8 8 0 0 0-8 8 8 8 0 0 0 1.7656 4.9883l0.78125-0.62695a7 7 0 0 1-1.5469-4.3613 7 7 0 0 1 7-7 7 7 0 0 1 7 7 7 7 0 0 1-1.5469 4.3613l0.78125 0.62695a8 8 0 0 0 1.7656-4.9883 8 8 0 0 0-8-8z"/>
 <path d="m8 10a2 2 0 0 0-2 2 2 2 0 0 0 2 2 2 2 0 0 0 2-2 2 2 0 0 0-2-2zm0 1a1 1 0 0 1 1 1 1 1 0 0 1-1 1 1 1 0 0 1-1-1 1 1 0 0 1 1-1z"/>
 <rect transform="rotate(30)" x="12.428" y="-.6077" width="1" height="6" rx=".5" ry=".5"/>
</svg>
