<svg width="16" height="16" version="1.1" xmlns="http://www.w3.org/2000/svg">
 <path d="m4 0v2h-4v1h7.0879c-0.32818 1.2173-1.0515 3.1702-2.5879 4.9609-1.1609-1.3551-1.8594-2.8064-2.2734-3.9609h-1.0449c0.44206 1.3182 1.2381 3.0697 2.6387 4.6855-0.76616 0.74967-1.6939 1.4449-2.8203 2.0117v1.1094c1.4202-0.64826 2.5701-1.4851 3.5-2.3984 0.97137 0.95419 2.1841 1.8252 3.6934 2.4844l-1.8965 4.1074h1.0996l1.3848-3h4.4375l1.3848 3h1.0996l-4.1523-8.998v-0.0019531h-1.0997l-1.8398 3.9844c-1.4071-0.61084-2.5328-1.4179-3.4336-2.3008 1.7975-2.073 2.599-4.3661 2.9355-5.6836h0.88672v-1h-4v-2h-1zm7 8.1914 1.7578 3.8086h-3.5156l1.7578-3.8086z" fill="#6584f3"/>
</svg>
