<svg width="16" height="16.001" version="1.1" xmlns="http://www.w3.org/2000/svg">
 <path d="m8.0022 2.0391c3.7697 0.00458 7.0699 2.3668 8.0076 5.7305 0.04385 0.15695 0.04385 0.32157 0 0.47852-0.38075 1.3513-1.1472 2.5362-2.168 3.4746l-0.71092-0.71094c0.87632-0.81542 1.5396-1.8343 1.8691-3.0039-0.82083-2.9444-3.7-5.0038-6.9998-5.0078-0.86331 5.345e-4 -1.694 0.14902-2.4706 0.41016l-0.75975-0.75977c0.99998-0.39229 2.0938-0.61063 3.2304-0.61133h0.00195zm-5.8456 2.2402 0.71092 0.71094c-0.87531 0.81512-1.5379 1.8332-1.8672 3.002 0.82083 2.9444 3.7 5.0038 6.9998 5.0078 0.86241-5.24e-4 1.6928-0.1476 2.4687-0.4082l0.75779 0.75781c-0.99908 0.3917-2.0912 0.61064-3.2265 0.61133h-0.00195c-3.7697-0.0046-7.0699-2.3668-8.0076-5.7305-0.044219-0.15757-0.044219-0.3229 0-0.48047 0.38038-1.35 1.1468-2.5331 2.166-3.4707zm5.8437 0.7207c1.6569 0 2.9999 1.3431 2.9999 3-0.0011 0.26196-0.03661 0.52264-0.10547 0.77539l-3.6717-3.6718c0.25346-0.06837 0.5148-0.10317 0.77732-0.10352zm-2.8944 2.2285 3.6678 3.6679c-0.2522 0.06803-0.51221 0.10283-0.77342 0.10352-1.6569 0-2.9999-1.3431-2.9999-3 0.0015-0.26065 0.036949-0.51999 0.10547-0.77148z" fill="#dfdfdf" stroke-width=".99999"/>
 <rect transform="matrix(-.70711 -.70711 -.70711 .70711 0 0)" x="-19.314" y="-.49958" width="16" height="1" ry="0" fill="#dfdfdf"/>
</svg>
